<svg width="25.474" height="25.47" viewBox="0 0 25.474 25.47">
    <path id="Union_1" data-name="Union 1" class="cls-1" d="M1419.4,15299.472a6.418,6.418,0,0,1-6.4-6.4V15281.4a6.419,6.419,0,0,1,6.4-6.4h11.669a6.422,6.422,0,0,1,6.4,6.4v11.669a6.421,6.421,0,0,1-6.4,6.4Zm8.85-14.033a3.078,3.078,0,0,0-1.713,1.762,3.493,3.493,0,0,0-.23,1.271,3.294,3.294,0,0,0,.234,1.236,3.107,3.107,0,0,0,1.716,1.739,3.778,3.778,0,0,0,3.195-.2,2.838,2.838,0,0,0,1.113-1.186l-1.386-.385a1.238,1.238,0,0,1-.584.618,1.835,1.835,0,0,1-.906.234,1.669,1.669,0,0,1-.6-.107,1.592,1.592,0,0,1-.891-.807,1.834,1.834,0,0,1-.18-.66h4.873a1.29,1.29,0,0,0,.031-.242,3.256,3.256,0,0,0-1.9-3.271,3.406,3.406,0,0,0-1.378-.266A3.5,3.5,0,0,0,1428.251,15285.438Zm-9.438,6.27h4.262a4.09,4.09,0,0,0,1.1-.149,2.968,2.968,0,0,0,.906-.434,2.067,2.067,0,0,0,.614-.711,2.045,2.045,0,0,0,.223-.979,2.327,2.327,0,0,0-.438-1.448,2.286,2.286,0,0,0-1.2-.8,1.955,1.955,0,0,0,.945-.838,2.445,2.445,0,0,0-.223-2.745,2.087,2.087,0,0,0-.634-.515,1.777,1.777,0,0,0-.833-.2h-4.719Zm8.693-7.353h4.22v-1.049h-4.22Zm-6.977,5.9v-2.323h2.63a.863.863,0,0,1,.411.1,1.028,1.028,0,0,1,.323.253,1.236,1.236,0,0,1,.219.38,1.262,1.262,0,0,1,.081.449,1.181,1.181,0,0,1-.088.449,1.033,1.033,0,0,1-.238.365,1,1,0,0,1-.353.242,1.036,1.036,0,0,1-.438.088Zm7.464-2.35a1.736,1.736,0,0,1,.161-.638,1.6,1.6,0,0,1,.357-.491,1.447,1.447,0,0,1,.5-.318,1.691,1.691,0,0,1,1.736.311,1.674,1.674,0,0,1,.522,1.137Zm-7.464-1.325v-2.223h2.358a.922.922,0,0,1,.691.3,1.143,1.143,0,0,1,.276.81,1.094,1.094,0,0,1-.3.818,1.015,1.015,0,0,1-.737.3Z" transform="translate(-1412.5 -15274.502)" />
</svg>
