<svg xmlns="http://www.w3.org/2000/svg" class="btn-contactez-nous" width="184" height="184">
    <defs>
        <style>
        .btn-contactez-nous {
            transition: transform 150ms ease;
        }
        .btn-contactez-nous:hover {
            transform: scale(1.05);
        }
        .btn-contactez-nous .animating {
            transform-origin: center;
            animation: rotate 12s infinite linear;
        }
        @keyframes rotate {
            from { transform: rotate(360deg); }
            to { transform: rotate(0); }
        }
        </style>
        <clipPath id="a">
            <path data-name="Rectangle 74" d="M0 0h167v165.025H0z"/>
        </clipPath>
    </defs>
    <g data-name="Groupe 61">
        <g class="animating" data-name="Groupe 57">
            <g data-name="Groupe 56" clip-path="url(#a)" transform="translate(9 9)">
                <path data-name="Tracé 181" d="M85.742 156.109a3.4 3.4 0 1 1-3.343-3.453 3.395 3.395 0 0 1 3.343 3.453"/>
                <path data-name="Tracé 182" d="m59.156 162.328-3.037-.77 4.148-16.351 3.037.77 4.611 13.675 2.981-11.75 3.037.77-4.148 16.351-3.037-.771-4.587-13.766Z"/>
                <path data-name="Tracé 183" d="M44.628 156.434c-3.9-2.109-5.852-6.215-3.112-11.364 2.7-5.172 7.186-5.886 11.132-3.861s5.842 6.182 3.112 11.364-7.231 5.97-11.132 3.861m1.28-2.431c2.527 1.358 4.918.956 6.973-2.946s1.035-6.1-1.514-7.417c-2.528-1.3-4.906-.977-6.973 2.947s-.991 6.07 1.514 7.417"/>
                <path data-name="Tracé 184" d="M29.779 133.203c3.558-4.061 7.264-3.28 10.074-.818s4.07 6.034.512 10.093l-6.464 7.378-2.393-2.1 6.48-7.4c1.779-2.03 1.932-4.363.1-5.967s-4.123-1.145-5.9.885l-6.48 7.4-2.393-2.1Z"/>
                <path data-name="Tracé 185" d="M28.058 127.848c1.618-1.461.706-3.513-.081-4.58-.772-1.048-2.357-2.754-4.278-1.339-3.765 2.772 5.823 8.192.176 12.351-2.387 1.758-5.569.689-7.674-2.251-1.919-2.687-2.118-5.8-.329-7.6l2.216 2.319c-1.279 1.271-.536 2.848.15 3.78.715.97 2.032 2.514 3.778 1.228 3.2-2.358-6.212-7.907-.176-12.351 1.785-1.315 5.14-1.84 8.212 2.333 2.915 3.958 1.785 6.976.206 8.408Z"/>
                <path data-name="Tracé 186" d="M14.535 112.145c4.132-1.471 4.834-4.023 3.969-6.453-.833-2.339-2.179-3.676-5.353-3.466l-.116-2.976c4.045-.494 6.727 2.081 8.01 5.538 1.533 4.161.056 8.345-5.461 10.31s-9.306-.344-10.749-4.537c-1.192-3.49-.741-7.18 2.706-9.354l1.794 2.378c-2.592 1.844-2.79 3.731-1.957 6.069.865 2.429 3.023 3.963 7.155 2.491"/>
                <path data-name="Tracé 187" d="M.405 90.658c-.38-4.419 1.98-8.3 7.787-8.841 5.8-.586 8.864 2.773 9.339 7.182s-1.959 8.276-7.787 8.841-8.96-2.764-9.339-7.182m2.734-.265c.253 2.857 1.9 4.634 6.291 4.209s5.667-2.486 5.366-5.337c-.3-2.829-1.877-4.637-6.291-4.209s-5.617 2.5-5.367 5.337"/>
                <path data-name="Tracé 188" d="m1.487 67.272.425-3.1 16.712 2.287-.425 3.1-13.071 6.116 12.009 1.649-.425 3.1L0 78.135l.425-3.1 13.167-6.1Z"/>
                <path data-name="Tracé 189" d="M10.068 48.568 8.326 53.32l13.306 4.877-1.07 2.919-13.305-4.877-1.75 4.774-2.534-.929 4.559-12.445Z"/>
                <path data-name="Tracé 190" d="m28.299 45.289-4.56-.829-3.126 5.4 2.991 3.541-1.726 2.983-11.436-13.966 1.772-3.063 17.808 2.955Zm-9.459 2.489 2.209-3.818-6.435-1.19Z"/>
                <path data-name="Tracé 191" d="M25.079 35.45c3.233 2.964 5.818 2.392 7.561.491 1.678-1.83 2.23-3.645.56-6.353l2.579-1.493c2.329 3.344 1.306 6.919-1.15 9.67-2.961 3.3-7.351 3.952-11.667-.006s-4.049-8.387-1.016-11.623c2.528-2.685 6-4.013 9.534-1.983l-1.264 2.7c-2.842-1.429-4.6-.722-6.28 1.108-1.743 1.9-2.09 4.526 1.143 7.49"/>
                <path data-name="Tracé 192" d="m42.348 12.885-4.13 2.926 8.192 11.564-2.537 1.8-8.192-11.564-4.15 2.94-1.56-2.2 10.817-7.663Z"/>
                <path data-name="Tracé 193" d="m56.486 6.393-8.2 3.633 1.741 3.922 7.072-3.135 1.113 2.512-7.072 3.135 1.738 3.922 8.2-3.633 1.123 2.534-11.038 4.893-6.836-15.424 11.038-4.893Z"/>
                <path data-name="Tracé 194" d="m75.97 16.167-3.344.726-3.865-4.512a5.264 5.264 0 0 1-.607.157l-3.344.726 1.1 5.087-3.061.665-3.577-16.485 6.406-1.391c4-.87 6.976.778 7.738 4.286a5.332 5.332 0 0 1-2 5.686ZM62.907 4.504l1.33 6.123 3.344-.726c2.025-.44 3.006-1.714 2.561-3.762s-1.866-2.8-3.891-2.361Z"/>
                <path data-name="Tracé 195" d="M81.001 8.961a3.4 3.4 0 1 1 3.343 3.453 3.394 3.394 0 0 1-3.343-3.453"/>
                <path data-name="Tracé 196" d="m107.552 2.66 3.04.76-4.093 16.367-3.04-.76-4.657-13.661-2.94 11.761-3.04-.76L96.915 0l3.04.76 4.635 13.755Z"/>
                <path data-name="Tracé 197" d="M122.097 8.504c3.908 2.1 5.873 6.194 3.151 11.353-2.679 5.181-7.165 5.91-11.118 3.9s-5.863-6.162-3.151-11.353 7.21-6 11.118-3.9m-1.272 2.435c-2.531-1.349-4.92-.938-6.962 2.97s-1.014 6.1 1.54 7.411c2.531 1.3 4.909.96 6.962-2.97s.97-6.073-1.54-7.412"/>
                <path data-name="Tracé 198" d="M137.03 31.688c-3.544 4.073-7.253 3.305-10.072.853s-4.091-6.02-.547-10.093l6.44-7.4 2.4 2.089-6.455 7.418c-1.772 2.036-1.918 4.37-.081 5.968s4.128 1.131 5.9-.905l6.455-7.418 2.4 2.088Z"/>
                <path data-name="Tracé 199" d="M138.772 37.037c-1.613 1.466-.693 3.515.1 4.579.775 1.045 2.366 2.745 4.282 1.324 3.755-2.785-5.851-8.172-.218-12.349 2.38-1.766 5.566-.708 7.68 2.224 1.928 2.68 2.138 5.795.355 7.6l-2.224-2.311c1.274-1.275.526-2.851-.163-3.779-.718-.968-2.04-2.508-3.782-1.216-3.194 2.369 6.238 7.885.219 12.349-1.781 1.321-5.133 1.857-8.22-2.3-2.928-3.948-1.808-6.969-.235-8.407Z"/>
                <path data-name="Tracé 200" d="M152.347 52.69c-4.127 1.486-4.82 4.041-3.947 6.467.841 2.336 2.192 3.668 5.365 3.447l.125 2.978c-4.043.508-6.735-2.057-8.029-5.51-1.548-4.156-.085-8.345 5.425-10.329s9.307.311 10.764 4.5c1.2 3.486.766 7.178-2.673 9.364l-1.8-2.373c2.585-1.853 2.777-3.741 1.936-6.076-.874-2.426-3.037-3.953-7.163-2.467"/>
                <path data-name="Tracé 201" d="M166.55 74.119c.4 4.416-1.951 8.309-7.756 8.867-5.8.606-8.873-2.742-9.364-7.149s1.93-8.283 7.756-8.867 8.969 2.732 9.364 7.149m-2.733.274c-.262-2.856-1.918-4.627-6.305-4.187s-5.658 2.505-5.347 5.357c.308 2.827 1.894 4.63 6.305 4.187s5.608-2.525 5.347-5.357"/>
                <path data-name="Tracé 202" d="m165.552 97.512-.414 3.106-16.722-2.228.414-3.106 13.051-6.163-12.016-1.6.414-3.106 16.722 2.229-.414 3.106-13.147 6.149Z"/>
                <path data-name="Tracé 203" d="m157.033 116.25 1.725-4.758-13.321-4.831 1.06-2.923 13.322 4.831 1.734-4.78 2.537.921-4.519 12.46Z"/>
                <path data-name="Tracé 204" d="m138.813 119.597 4.563.813 3.107-5.413-3-3.53 1.715-2.989 11.485 13.927-1.763 3.072-17.822-2.888Zm9.45-2.523-2.2 3.825 6.442 1.169Z"/>
                <path data-name="Tracé 205" d="M142.062 129.427c-3.242-2.954-5.825-2.373-7.562-.467-1.672 1.834-2.219 3.651-.541 6.354l-2.574 1.5c-2.339-3.337-1.328-6.915 1.12-9.673 2.951-3.311 7.339-3.975 11.667-.031s4.074 8.375 1.052 11.62c-2.519 2.693-5.988 4.031-9.528 2.012l1.256-2.7c2.847 1.42 4.6.707 6.277-1.128 1.737-1.906 2.075-4.532-1.167-7.486"/>
                <path data-name="Tracé 206" d="m124.869 152.047 4.12-2.939-8.23-11.537 2.531-1.805 8.231 11.537 4.14-2.953 1.568 2.2-10.791 7.7Z"/>
                <path data-name="Tracé 207" d="m110.765 158.591 8.184-3.663-1.752-3.916-7.062 3.16-1.122-2.508 7.062-3.16-1.753-3.915-8.184 3.662-1.132-2.53 11.022-4.933 6.892 15.4-11.022 4.928Z"/>
                <path data-name="Tracé 208" d="m91.246 148.881 3.341-.738 3.881 4.5a5.321 5.321 0 0 1 .607-.159l3.341-.738-1.123-5.083 3.059-.675 3.64 16.471-6.4 1.415c-4 .883-6.978-.754-7.753-4.26a5.331 5.331 0 0 1 1.975-5.693Zm13.1 11.616-1.352-6.118-3.341.739c-2.023.447-3 1.724-2.548 3.771s1.876 2.794 3.9 2.347Z"/>
            </g>
        </g>
        <text data-name="→" transform="translate(58.5 121.435)" font-size="90" font-family="PP Radio Grotesk" font-weight="300"><tspan x="0" y="0">→</tspan></text>
    </g>
</svg>
