<svg xmlns="http://www.w3.org/2000/svg" class="btn-voir-projet" width="184" height="184">
    <defs>
        <style>
        .btn-voir-projet {
            transition: transform 150ms ease;
        }
        .btn-voir-projet:hover {
            transform: scale(1.05);
        }
        .btn-voir-projet .animating {
            transform-origin: center;
            animation: rotate 12s infinite linear;
        }
        @keyframes rotate {
            from { transform: rotate(360deg); }
            to { transform: rotate(0); }
        }
        </style>
    </defs>
    <g data-name="Groupe 87" fill="#fff">
        <text data-name="→" transform="translate(58.5 121.435)" font-size="90" font-family="PPRadioGrotesk-Light, PP Radio Grotesk" font-weight="300"><tspan x="0" y="0">→</tspan></text>
        <g class="animating" data-name="Groupe 186" font-family="PPRadioGrotesk-Bold, PP Radio Grotesk" font-weight="700">
            <text transform="rotate(-138.68 55.942 61.433)" font-size="23"><tspan x="0" y="0">V</tspan></text>
            <text transform="rotate(-123.78 58.47 54.998)" font-size="23"><tspan x="0" y="0">O</tspan></text>
            <text transform="rotate(-113.2 57.034 47.626)" font-size="23"><tspan x="0" y="0">I</tspan></text>
            <text transform="rotate(-103.89 61.526 44.155)" font-size="23"><tspan x="0" y="0">R</tspan></text>
            <text transform="scale(-1) rotate(85.3 38.85 -65.997)" font-size="23"><tspan x="0" y="0"> </tspan></text>
            <text transform="rotate(-86.79 64.864 31.802)" font-size="23"><tspan x="0" y="0">L</tspan></text>
            <text transform="rotate(-74.592 68.334 21.853)" font-size="22"><tspan x="0" y="0">E</tspan></text>
            <text transform="rotate(-65.946 70.03 8.018)" font-size="23"><tspan x="0" y="0"> </tspan></text>
            <text transform="rotate(-56.9 77.156 -.766)" font-size="23"><tspan x="0" y="0">P</tspan></text>
            <text data-name="R" transform="rotate(-43.06 87.379 -29.751)" font-size="23"><tspan x="0" y="0">R</tspan></text>
            <text data-name="O" transform="rotate(-27.63 110.77 -91.352)" font-size="23"><tspan x="0" y="0">O</tspan></text>
            <text transform="rotate(-13.215 177.34 -290.504)" font-size="23"><tspan x="0" y="0">J</tspan></text>
            <text data-name="E" transform="rotate(-.616 2711.618 -7832.306)" font-size="22"><tspan x="0" y="0">E</tspan></text>
            <text transform="rotate(12.664 -83.641 458.128)" font-size="23"><tspan x="0" y="0">T</tspan></text>
            <text data-name="•" transform="rotate(23.365 -23.495 289.673)" font-size="23"><tspan x="0" y="0">•</tspan></text>
            <text transform="rotate(29.3 -9.488 248.446)" font-size="23"><tspan x="0" y="0"> </tspan></text>
            <text data-name="V" transform="rotate(39.278 8.846 194.005)" font-size="23"><tspan x="0" y="0">V</tspan></text>
            <text data-name="O" transform="rotate(54.2 21.641 158.227)" font-size="23"><tspan x="0" y="0">O</tspan></text>
            <text data-name="I" transform="rotate(64.756 23.915 147.782)" font-size="23"><tspan x="0" y="0">I</tspan></text>
            <text data-name="R" transform="rotate(74.09 30.311 132.949)" font-size="23"><tspan x="0" y="0">R</tspan></text>
            <text transform="rotate(83.28 30.527 127.626)" font-size="23"><tspan x="0" y="0"> </tspan></text>
            <text data-name="L" transform="rotate(91.155 34.647 119.184)" font-size="23"><tspan x="0" y="0">L</tspan></text>
            <text data-name="E" transform="rotate(103.366 38.241 111.243)" font-size="22"><tspan x="0" y="0">E</tspan></text>
            <text transform="rotate(112.012 37.216 107.399)" font-size="23"><tspan x="0" y="0"> </tspan></text>
            <text data-name="P" transform="rotate(121.085 41.488 100.98)" font-size="23"><tspan x="0" y="0">P</tspan></text>
            <text data-name="R" transform="rotate(134.903 43.73 94.66)" font-size="23"><tspan x="0" y="0">R</tspan></text>
            <text data-name="O" transform="rotate(150.292 46.664 88.148)" font-size="23"><tspan x="0" y="0">O</tspan></text>
            <text data-name="J" transform="rotate(164.765 47.493 82.84)" font-size="23"><tspan x="0" y="0">J</tspan></text>
            <text data-name="E" transform="rotate(177.359 49.208 78.624)" font-size="22"><tspan x="0" y="0">E</tspan></text>
            <text data-name="T" transform="rotate(-169.382 51.15 73.221)" font-size="23"><tspan x="0" y="0">T</tspan></text>
            <text transform="scale(-1) rotate(19.68 399.646 -286.667)" font-size="23"><tspan x="0" y="0"> </tspan></text>
            <text data-name="•" transform="rotate(-154.318 51.493 67.133)" font-size="23"><tspan x="0" y="0">•</tspan></text>
            <text transform="rotate(-148.371 51.403 64.442)" font-size="23"><tspan x="0" y="0"> </tspan></text>
        </g>
    </g>
</svg>
