<svg class="btn-back-expertise" width="240.199" height="240.295" viewBox="0 0 240.199 240.295">
    <defs>
        <style>
            .btn-back-expertise {
                transition: transform 150ms ease;
            }
            .btn-back-expertise:hover {
                transform: scale(1.05);
            }
            .btn-back-expertise .animating {
                transform-origin: center;
                animation: rotate 12s infinite linear;
            }
            @keyframes rotate {
                from { transform: rotate(360deg); }
                to { transform: rotate(0); }
            }
</style>
        <clipPath id="clip-path">
            <rect id="Rectangle_199" data-name="Rectangle 199" width="240.199" height="240.295" fill="#2400ff" />
        </clipPath>
    </defs>
    <g transform="translate(275.099 5612.147) rotate(180)">
        <text data-name="→" transform="translate(109.472 5529.704)" fill="#2400ff" font-size="120" font-family="PPRadioGrotesk-Light, PP Radio Grotesk" font-weight="300">
            <tspan x="0" y="0">→</tspan>
        </text>
        <g id="Groupe_195" data-name="Groupe 195" transform="translate(275.099 5612.147) rotate(180)">
            <g class="animating" id="Groupe_193" data-name="Groupe 193" clip-path="url(#clip-path)">
                <path id="Tracé_739" data-name="Tracé 739" d="M4.435,1C8.945-1.311,13.4.457,16.03,5.6l2.1,4.115,6.536-3.343,2.012,3.934L5.5,21.141,1.385,13.092C-1.246,7.949-.073,3.3,4.435,1m8.205,6.339C11.31,4.732,9.219,3.855,6.587,5.2S3.443,8.756,4.774,11.359l2.105,4.115,7.867-4.024Z" transform="translate(12.126 161.818)" fill="#2400ff" />
                <path id="Tracé_740" data-name="Tracé 740" d="M3.756,5.492,7.249,17.643l5.814-1.671L10.05,5.487l3.724-1.07L16.787,14.9,22.6,13.231,19.109,1.08,22.866,0l4.7,16.366L4.7,22.937,0,6.572Z" transform="translate(2.614 138.499)" fill="#2400ff" />
                <path id="Tracé_741" data-name="Tracé 741" d="M22.933,0l.412,4.809L16.336,9.4a7.376,7.376,0,0,1,.109.877l.412,4.809,7.314-.627.377,4.4-23.7,2.03L.055,11.681C-.438,5.925,2.4,2.066,7.449,1.633a7.519,7.519,0,0,1,7.593,3.818ZM4.26,16.166l8.8-.755L12.652,10.6C12.4,7.69,10.8,6.088,7.853,6.34S3.6,8.444,3.847,11.356Z" transform="translate(0.708 118.788)" fill="#2400ff" />
                <path id="Tracé_742" data-name="Tracé 742" d="M5.754.4,5,7.5,24.874,9.6l-.461,4.36L4.54,11.857l-.755,7.131L0,18.588,1.969,0Z" transform="translate(0 98.169)" fill="#2400ff" />
                <rect id="Rectangle_196" data-name="Rectangle 196" width="4.418" height="23.788" transform="translate(3.166 94.043) rotate(-76.375)" fill="#2400ff" />
                <path id="Tracé_743" data-name="Tracé 743" d="M14.822,17.248c2.959.833,4.722-1.8,5.4-3.538C20.9,12,21.741,8.829,18.61,7.6,12.472,5.19,13.21,20.7,4,17.091.113,15.563-1,10.963.923,6.243,2.688,1.934,6.256-.645,9.745.14l-1.1,4.387c-2.477-.572-3.8,1.5-4.4,3.02-.621,1.582-1.474,4.313,1.373,5.431,5.22,2.049,4.767-13.354,14.606-9.492,2.91,1.143,6.057,4.752,3.388,11.553-2.533,6.453-6.983,7.372-9.879,6.564Z" transform="translate(7.362 70.075)" fill="#2400ff" />
                <path id="Tracé_744" data-name="Tracé 744" d="M12.478,2.108,5.657,12.754l5.093,3.264,5.887-9.186L19.9,8.923l-5.886,9.186,5.094,3.263,6.822-10.645,3.291,2.109L20.032,27.173,0,14.337,9.188,0Z" transform="translate(14.702 48.285)" fill="#2400ff" />
                <path id="Tracé_745" data-name="Tracé 745" d="M11.843,18.809c2.421,1.893,5.05.129,6.343-1.222,1.269-1.325,3.254-3.941.823-6.267C14.246,6.762,9.04,21.394,1.894,14.557c-3.02-2.89-2.306-7.569,1.268-11.205C6.43.036,10.71-1,13.639,1.055l-2.684,3.64C8.88,3.227,6.868,4.641,5.74,5.82c-1.175,1.228-3,3.431-.791,5.546C9,15.242,14.427.821,22.063,8.128c2.259,2.161,3.8,6.694-1.25,11.973-4.793,5.009-9.258,4.17-11.631,2.323Z" transform="translate(30.297 33.622)" fill="#2400ff" />
                <path id="Tracé_746" data-name="Tracé 746" d="M.8,7.448A4.791,4.791,0,1,1,7.448,8.783,4.786,4.786,0,0,1,.8,7.448" transform="translate(56.637 27.035)" fill="#2400ff" />
                <path id="Tracé_747" data-name="Tracé 747" d="M17.271,3.634,5.516,8.29l2.228,5.624L17.887,9.9l1.426,3.6L9.17,17.517,11.4,23.142l11.755-4.656,1.439,3.635L8.761,28.391,0,6.27,15.831,0Z" transform="translate(68.207 5.536)" fill="#2400ff" />
                <path id="Tracé_748" data-name="Tracé 748" d="M25.032,23.4l-4.688.815L12.979,16.77l-4.421,9.5-4.688.814L9.964,13.706,0,3.606l4.922-.855,6.842,7.021L15.838.855,20.76,0,14.785,12.869Z" transform="translate(89.342 0.274)" fill="#2400ff" />
                <path id="Tracé_749" data-name="Tracé 749" d="M19.03,8.957c-.2,5.06-3.929,8.074-9.7,7.842l-4.618-.185-.294,7.335L0,23.771.954,0,9.987.363C15.76.594,19.233,3.9,19.03,8.957M9.48,13c2.921.117,4.711-1.273,4.829-4.228s-1.555-4.484-4.475-4.6L5.216,3.981,4.862,12.81Z" transform="translate(115.113 0)" fill="#2400ff" />
                <path id="Tracé_750" data-name="Tracé 750" d="M21.164,7.74,8.864,4.816,7.464,10.7l10.614,2.523-.9,3.769L6.568,14.471l-1.4,5.886,12.3,2.924-.9,3.8L0,23.145,5.5,0,22.068,3.938Z" transform="translate(134.373 1.573)" fill="#2400ff" />
                <path id="Tracé_751" data-name="Tracé 751" d="M17.2,29.519l-4.386-2.014-.538-8.362a7.267,7.267,0,0,1-.817-.338L7.078,16.793,4.016,23.464,0,21.621,9.926,0l8.4,3.857c5.251,2.411,7.206,6.786,5.094,11.388a7.52,7.52,0,0,1-7.067,4.722ZM12.353,5.3,8.666,13.333l4.386,2.014c2.657,1.219,4.841.614,6.075-2.073s.268-4.739-2.388-5.958Z" transform="translate(151.775 7.255)" fill="#2400ff" />
                <path id="Tracé_752" data-name="Tracé 752" d="M20.882,13.816,15.028,9.733,3.6,26.126,0,23.618,11.431,7.225l-5.882-4.1L7.726,0,23.06,10.693Z" transform="translate(174.385 17.147)" fill="#2400ff" />
                <rect id="Rectangle_197" data-name="Rectangle 197" width="23.79" height="4.418" transform="translate(184.355 48.525) rotate(-46.939)" fill="#2400ff" />
                <path id="Tracé_753" data-name="Tracé 753" d="M5.268,10.729c-2.179,2.169-.752,5,.428,6.445,1.16,1.423,3.51,3.716,6.118,1.591,5.112-4.165-8.766-11.137-1.1-17.384,3.241-2.64,7.8-1.353,10.962,2.642,2.888,3.652,3.384,8.027.986,10.681l-3.281-3.113c1.714-1.878.559-4.05-.472-5.315-1.073-1.317-3.034-3.4-5.405-1.47-4.348,3.541,9.293,10.708,1.1,17.383-2.424,1.975-7.113,2.946-11.728-2.72C-1.5,14.1-.117,9.768,2.008,7.643Z" transform="translate(191.83 40.272)" fill="#2400ff" />
                <path id="Tracé_754" data-name="Tracé 754" d="M25.535,16.876,19.622,5.7,14.275,8.532l5.1,9.642-3.425,1.812-5.1-9.642L5.5,13.173l5.913,11.174L7.963,26.174,0,11.126,21.025,0l7.963,15.048Z" transform="translate(201.274 56.628)" fill="#2400ff" />
                <path id="Tracé_755" data-name="Tracé 755" d="M6.206,6.821C3.364,7.991,3.6,11.149,4.136,12.939,4.663,14.7,5.957,17.715,9.18,16.75,15.495,14.857,5.341,3.106,14.815.268c4-1.2,7.72,1.732,9.118,6.635,1.271,4.479.055,8.71-3.175,10.245l-1.841-4.131c2.3-1.08,2.066-3.528,1.6-5.09-.488-1.628-1.5-4.3-4.432-3.426-5.371,1.609,4.49,13.448-5.634,16.481-3,.9-7.7,0-9.795-7C-1.336,7.342,1.6,3.873,4.375,2.722Z" transform="translate(211.459 78.723)" fill="#2400ff" />
                <path id="Tracé_756" data-name="Tracé 756" d="M4.441.013A4.792,4.792,0,1,1,.013,5.143,4.786,4.786,0,0,1,4.441.013" transform="translate(221.288 107.672)" fill="#2400ff" />
                <path id="Tracé_757" data-name="Tracé 757" d="M19.7,19.561l1.71-12.528-5.995-.818-1.475,10.81L10.1,16.5l1.475-10.81L5.583,4.873,3.873,17.4,0,16.871,2.3,0,25.877,3.218l-2.3,16.871Z" transform="translate(214.323 124.982)" fill="#2400ff" />
                <path id="Tracé_758" data-name="Tracé 758" d="M0,20.227l1.6-4.481L11.707,13,5.62,4.48,7.219,0l8.639,11.887,13.7-3.7-1.679,4.705-9.479,2.5,5.755,7.935-1.679,4.7L14.213,16.5Z" transform="translate(207.171 142.348)" fill="#2400ff" />
                <path id="Tracé_759" data-name="Tracé 759" d="M5.827,23.86c-4.3-2.673-5.083-7.4-2.033-12.308l2.44-3.925L0,3.752,2.332,0l20.2,12.56-4.773,7.677c-3.05,4.906-7.636,6.3-11.936,3.624m1.2-10.3c-1.543,2.482-1.217,4.726,1.294,6.287s4.667.86,6.21-1.622l2.44-3.925-7.5-4.665Z" transform="translate(204.394 163.153)" fill="#2400ff" />
                <path id="Tracé_760" data-name="Tracé 760" d="M14.586,26l8.592-9.275L18.74,12.617l-7.414,8L8.483,17.987l7.414-8-4.438-4.11L2.867,15.147,0,12.492,11.571,0,29.024,16.167,17.453,28.659Z" transform="translate(184.813 179.461)" fill="#2400ff" />
                <path id="Tracé_761" data-name="Tracé 761" d="M0,11.11,3.908,8.277l7.548,3.638a7.24,7.24,0,0,1,.7-.546L16.06,8.537,11.751,2.593,15.329,0,29.291,19.264l-7.485,5.425c-4.679,3.391-9.451,2.946-12.423-1.155A7.518,7.518,0,0,1,8.74,15.06Zm23.48,7.664-5.186-7.155-3.908,2.832c-2.367,1.716-2.913,3.917-1.177,6.311s4,2.56,6.363.845Z" transform="translate(168.884 192.578)" fill="#2400ff" />
                <path id="Tracé_762" data-name="Tracé 762" d="M1.939,22.974l6.473-3L0,1.845,3.976,0l8.412,18.125,6.5-3.018,1.6,3.452L3.541,26.427Z" transform="translate(158.794 206.448)" fill="#2400ff" />
                <rect id="Rectangle_198" data-name="Rectangle 198" width="4.417" height="23.786" transform="translate(146.88 212.585) rotate(-17.358)" fill="#2400ff" />
                <path id="Tracé_763" data-name="Tracé 763" d="M14.672,6.625c-.814-2.965-3.978-3.117-5.821-2.8-1.81.308-4.964,1.224-4.4,4.541,1.106,6.5,14.013-2.142,15.671,7.609.7,4.121-2.663,7.452-7.7,8.239-4.6.714-8.653-1.01-9.783-4.4l4.327-1.322c.79,2.417,3.249,2.482,4.857,2.208,1.675-.285,4.456-.965,3.943-3.981C14.827,11.184,1.868,19.525.1,9.1-.428,6.022,1.038,1.463,8.242.237c6.835-1.162,9.92,2.175,10.723,5.072Z" transform="translate(127.983 214.502)" fill="#2400ff" />
                <path id="Tracé_764" data-name="Tracé 764" d="M.1,19.875l12.639.332.159-6.047L1.994,13.872,2.1,10,13,10.286l.159-6.048L.522,3.907.625,0,17.645.447l-.624,23.782L0,23.782Z" transform="translate(108.359 216.066)" fill="#2400ff" />
                <path id="Tracé_765" data-name="Tracé 765" d="M16.157,8.748c.376-3.05-2.49-4.4-4.313-4.808-1.79-.4-5.054-.759-5.8,2.522-1.454,6.431,13.769,3.357,11.589,13-.922,4.077-5.3,5.874-10.257,4.684-4.526-1.093-7.614-4.23-7.365-7.8l4.5.426c-.19,2.536,2.058,3.532,3.649,3.892,1.657.374,4.487.805,5.161-2.178,1.237-5.469-13.919-2.695-11.588-13C2.429,2.439,5.52-1.217,12.646.394c6.761,1.529,8.342,5.789,7.981,8.772Z" transform="translate(86.3 213.318)" fill="#2400ff" />
                <path id="Tracé_766" data-name="Tracé 766" d="M9.125,6.846A4.792,4.792,0,1,1,6.846.464,4.786,4.786,0,0,1,9.125,6.846" transform="translate(70.095 211.356)" fill="#2400ff" />
                <path id="Tracé_1048" data-name="Tracé 1048" d="M2.45,15.489,12.3,23.414,16.091,18.7l-8.5-6.839,2.429-3.018,8.5,6.838,3.792-4.712L12.462,3.045,14.912,0,28.177,10.673,13.265,29.206,0,18.533Z" transform="translate(38.258 189.611)" fill="#2400ff" />
                <path id="Tracé_1049" data-name="Tracé 1049" d="M18.264,0l3.017,3.679L18.426,13.755l10.441-.828,3.017,3.679L17.245,17.889,13.361,31.534l-3.168-3.862,2.742-9.412-9.767.846L0,15.242,14.141,14.1Z" transform="translate(20.813 172.796)" fill="#2400ff" />
            </g>
        </g>
    </g>
</svg>
