<svg width="25.474" height="25.47" viewBox="0 0 25.474 25.47">
    <path id="Union_2" data-name="Union 2" class="cls-1" d="M1419.4,15299.472a6.418,6.418,0,0,1-6.4-6.4V15281.4a6.419,6.419,0,0,1,6.4-6.4h11.669a6.422,6.422,0,0,1,6.4,6.4v11.669a6.421,6.421,0,0,1-6.4,6.4Zm-1.34-15.1v5.729a4.314,4.314,0,0,0,4.312,4.308h5.729a4.311,4.311,0,0,0,4.308-4.308v-5.729a4.314,4.314,0,0,0-4.308-4.309h-5.729A4.317,4.317,0,0,0,1418.06,15284.371Zm4.312,8.688a2.964,2.964,0,0,1-2.96-2.96v-5.726a2.962,2.962,0,0,1,2.96-2.96h5.729a2.959,2.959,0,0,1,2.957,2.96v5.726a2.961,2.961,0,0,1-2.957,2.96Zm-.611-5.82a3.533,3.533,0,1,0,3.533-3.537A3.538,3.538,0,0,0,1421.762,15287.239Zm6.432-3.774a.841.841,0,1,0,.841-.841A.844.844,0,0,0,1428.193,15283.465Zm-5.164,3.771a2.263,2.263,0,1,1,2.266,2.265A2.266,2.266,0,0,1,1423.029,15287.235Z" transform="translate(-1412.5 -15274.502)" />
</svg>
