<svg width="24.47" height="24.471" viewBox="0 0 24.47 24.471">
    <path id="Tracé_936" data-name="Tracé 936" d="M151.524,6.963a6.42,6.42,0,0,0-6.4-6.4H133.455a6.42,6.42,0,0,0-6.4,6.4V18.631a6.42,6.42,0,0,0,6.4,6.4h11.669a6.421,6.421,0,0,0,6.4-6.4Zm-15,11.168h-2.37V10.518h2.37ZM135.344,9.48a1.372,1.372,0,1,1,1.372-1.373,1.374,1.374,0,0,1-1.372,1.373m10.048,8.651h-2.365v-3.7c0-.883-.017-2.018-1.229-2.018-1.232,0-1.42.962-1.42,1.954v3.766h-2.365V10.518h2.27v1.041h.031a2.488,2.488,0,0,1,2.24-1.229c2.4,0,2.838,1.576,2.838,3.626Z" transform="translate(-127.054 -0.562)" />
</svg>
