<svg id="Groupe_86" data-name="Groupe 86" xmlns="http://www.w3.org/2000/svg" xmlns:xlink="http://www.w3.org/1999/xlink" width="132.855" height="131.201" viewBox="0 0 132.855 131.201">
  <defs>
    <style>
    .animating {
        transform-origin: center;
        animation: rotate 6s infinite linear;
    }
    @keyframes rotate {
        from { transform: rotate(360deg); }
        to { transform: rotate(0); }
    }
    </style>
    <clipPath id="clip-path">
      <rect id="Rectangle_114" data-name="Rectangle 114" width="132.855" height="131.201"/>
    </clipPath>
  </defs>
  <g id="Groupe_85" data-name="Groupe 85">
    <g class="animating" id="Groupe_84" data-name="Groupe 84" clip-path="url(#clip-path)">
      <path id="Tracé_226" data-name="Tracé 226" d="M89.183,9.541l-.709-.216.386-1.26a1.988,1.988,0,0,1-2.365.718c-1.516-.466-2.38-1.766-1.77-3.76S86.785,2.418,88.3,2.9a2.615,2.615,0,0,1,1.974,2.82l-.83-.082A1.81,1.81,0,0,0,88.084,3.59c-1.06-.333-2.007.108-2.493,1.7s.053,2.478,1.116,2.8a1.918,1.918,0,0,0,2.431-1.085l-1.293-.4.3-.675,1.961.6Z" transform="translate(-1.833 -0.059)"/>
      <path id="Tracé_227" data-name="Tracé 227" d="M95.6,6.474l-2.877-1.18-.706,1.722,2.439,1-.291.71-2.44-1-.709,1.73,2.878,1.18-.292.71-3.667-1.5,2.289-5.579,3.667,1.5Z" transform="translate(-1.951 -0.092)"/>
      <path id="Tracé_228" data-name="Tracé 228" d="M100.583,8.1l.758.39-2.759,5.36-.757-.39L97.274,7.85l-2.168,4.212-.758-.389,2.759-5.361.759.39.538,5.634Z" transform="translate(-2.046 -0.137)"/>
      <path id="Tracé_229" data-name="Tracé 229" d="M101.715,12.218c-.9,1.4-.629,2.4.31,3a1.807,1.807,0,0,0,2.439-.283l.6.582a2.618,2.618,0,0,1-3.43.309c-1.341-.845-1.813-2.34-.678-4.1s2.691-1.945,4.014-1.07A2.619,2.619,0,0,1,106.1,13.91l-.777-.306a1.807,1.807,0,0,0-.746-2.339c-.929-.609-1.96-.444-2.862.954" transform="translate(-2.176 -0.22)"/>
      <path id="Tracé_230" data-name="Tracé 230" d="M110.949,16.027,108.5,14.114l-1.145,1.467L109.43,17.2l-.472.6-2.079-1.622-1.15,1.474,2.452,1.913-.472.6-3.125-2.438,3.71-4.754,3.124,2.437Z" transform="translate(-2.268 -0.282)"/>
      <path id="Tracé_231" data-name="Tracé 231" d="M112.651,20.56c-1.178,1.172-1.125,2.214-.337,3a1.806,1.806,0,0,0,2.442.244l.462.7a2.617,2.617,0,0,1-3.415-.429c-1.13-1.11-1.273-2.67.211-4.146s3.042-1.327,4.148-.192a2.618,2.618,0,0,1,.412,3.418l-.694-.465a1.806,1.806,0,0,0-.232-2.443c-.777-.793-1.819-.851-3,.322" transform="translate(-2.406 -0.409)"/>
      <path id="Tracé_232" data-name="Tracé 232" d="M117.124,30.008l-.613-.744.874-2.148a1.564,1.564,0,0,1-.138-.154l-.849-1.03-1.567,1.293-.543-.657,4.65-3.835,1.392,1.687a1.924,1.924,0,0,1-.139,2.972,1.79,1.79,0,0,1-2.172.25Zm1.811-6.169-1.993,1.644.849,1.029a1.293,1.293,0,1,0,1.993-1.643Z" transform="translate(-2.479 -0.493)"/>
      <path id="Tracé_233" data-name="Tracé 233" d="M124.2,30.935l-1.774-2.553-1.527,1.06,1.5,2.165-.631.437-1.5-2.165-1.535,1.065L120.5,33.5l-.629.437-2.26-3.255,4.954-3.439,2.258,3.256Zm1.454-2.225-1.383.153-.358-.517,1.289-.288Z" transform="translate(-2.551 -0.591)"/>
      <path id="Tracé_234" data-name="Tracé 234" d="M122.5,38.46l1.139-1.321L122.474,35.1l-1.718.3-.464-.816,6.358-1,.422.74-4.112,4.953Zm.738-3.488.9,1.586,1.763-2.052Z" transform="translate(-2.609 -0.728)"/>
      <path id="Tracé_235" data-name="Tracé 235" d="M129.468,40.7l-.834-1.75-4.752,2.262-.367-.77,4.752-2.262-.836-1.758.693-.329,2.036,4.277Z" transform="translate(-2.679 -0.783)"/>
      <rect id="Rectangle_109" data-name="Rectangle 109" width="6.033" height="0.853" transform="translate(122.271 42.854) rotate(-22.093)"/>
      <path id="Tracé_236" data-name="Tracé 236" d="M132.711,47.386l.3.89-6.4-.164-.27-.808,5.029-3.968.3.89-4.022,3.1Z" transform="translate(-2.74 -0.94)"/>
      <path id="Tracé_237" data-name="Tracé 237" d="M133.516,53.643,132.8,50.62l-1.809.429.607,2.562-.745.177-.608-2.562-1.817.43.716,3.023-.745.177L127.485,51l5.862-1.389.914,3.852Z" transform="translate(-2.765 -1.076)"/>
      <path id="Tracé_238" data-name="Tracé 238" d="M129.405,62.1l1.573-.759L130.726,59l-1.7-.406-.1-.934,6.242,1.614.092.849-5.753,2.909Zm2.069-2.91.2,1.817,2.438-1.183Z" transform="translate(-2.796 -1.251)"/>
      <path id="Tracé_239" data-name="Tracé 239" d="M129.617,68.855l-.012-.741,1.319-.021a1.987,1.987,0,0,1-1.41-2.029c-.025-1.585.946-2.806,3.031-2.838s3.111,1.157,3.119,2.742a2.618,2.618,0,0,1-2.077,2.746l-.177-.816a1.805,1.805,0,0,0,1.529-1.918c-.008-1.111-.718-1.875-2.38-1.85s-2.339.812-2.322,1.923a1.916,1.916,0,0,0,1.78,1.979L132,66.681l.733.074.032,2.051Z" transform="translate(-2.809 -1.371)"/>
      <path id="Tracé_240" data-name="Tracé 240" d="M134.5,74l.232-3.1-1.854-.139-.2,2.626-.765-.057.2-2.627-1.864-.139-.232,3.1-.763-.057.294-3.948,6.009.449-.3,3.948Z" transform="translate(-2.804 -1.511)"/>
      <path id="Tracé_241" data-name="Tracé 241" d="M134.507,79.244l-.137.842-5.956-.962.136-.842,5.167-2.265-4.679-.755.136-.843,5.956.962-.136.842L129.8,78.485Z" transform="translate(-2.785 -1.614)"/>
      <path id="Tracé_242" data-name="Tracé 242" d="M130.954,81.569c-1.608-.424-2.48.149-2.754,1.225a1.806,1.806,0,0,0,1.023,2.231l-.366.749A2.618,2.618,0,0,1,127.5,82.61c.386-1.537,1.66-2.449,3.684-1.916s2.684,1.955,2.263,3.483a2.617,2.617,0,0,1-2.74,2.084l.051-.834a1.805,1.805,0,0,0,1.99-1.435c.292-1.072-.185-2-1.793-2.423" transform="translate(-2.763 -1.747)"/>
      <path id="Tracé_243" data-name="Tracé 243" d="M130.156,91.555l1.067-2.92L129.476,88l-.9,2.476-.719-.263.9-2.476L127,87.092l-1.066,2.92-.721-.263,1.36-3.721,5.663,2.068-1.36,3.722Z" transform="translate(-2.716 -1.866)"/>
      <path id="Tracé_244" data-name="Tracé 244" d="M126.4,94.548c-1.478-.76-2.454-.39-2.954.6a1.807,1.807,0,0,0,.519,2.4l-.52.653a2.618,2.618,0,0,1-.642-3.382c.71-1.417,2.15-2.032,4.011-1.074s2.2,2.487,1.457,3.889a2.617,2.617,0,0,1-3.125,1.442l.228-.8a1.805,1.805,0,0,0,2.253-.971c.517-.983.251-1.992-1.227-2.753" transform="translate(-2.656 -2.023)"/>
      <path id="Tracé_245" data-name="Tracé 245" d="M118.749,101.73l.519-.813,2.314.172a1.557,1.557,0,0,1,.1-.179l.719-1.124-1.712-1.1.46-.718,5.078,3.25-1.179,1.843a1.924,1.924,0,0,1-2.872.78,1.788,1.788,0,0,1-.9-1.99Zm6.428-.171L123,100.166l-.719,1.124a1.293,1.293,0,1,0,2.177,1.392Z" transform="translate(-2.576 -2.125)"/>
      <path id="Tracé_246" data-name="Tracé 246" d="M120.049,108.718l1.886-2.468-1.477-1.128-1.6,2.092-.609-.465,1.6-2.093-1.484-1.133-1.886,2.468-.608-.466,2.4-3.145,4.786,3.658-2.4,3.144Zm2.561.7-.568-1.268.382-.5.667,1.139Z" transform="translate(-2.513 -2.221)"/>
      <path id="Tracé_247" data-name="Tracé 247" d="M112.385,109.4l1.608.681,1.59-1.733-.816-1.543.634-.692,2.9,5.751-.577.628-5.977-2.4Zm3.55-.366-1.235,1.345,2.495,1.051Z" transform="translate(-2.424 -2.302)"/>
      <path id="Tracé_248" data-name="Tracé 248" d="M112.4,116.74l1.407-1.33-3.612-3.822.619-.585,3.612,3.821,1.415-1.335.525.557-3.44,3.251Z" transform="translate(-2.39 -2.408)"/>
      <rect id="Rectangle_110" data-name="Rectangle 110" width="0.853" height="6.03" transform="translate(105.174 111.49) rotate(-39.974)"/>
      <path id="Tracé_249" data-name="Tracé 249" d="M107.035,121.9l-.754.557-1.822-6.141.685-.5,5.327,3.557-.755.556-4.187-2.867Z" transform="translate(-2.266 -2.512)"/>
      <path id="Tracé_250" data-name="Tracé 250" d="M101.335,124.578l2.656-1.616-.967-1.59-2.252,1.371-.4-.655,2.251-1.371-.972-1.6L99,120.737l-.4-.654,3.386-2.06,3.135,5.152-3.385,2.059Z" transform="translate(-2.139 -2.56)"/>
      <path id="Tracé_251" data-name="Tracé 251" d="M92.025,123.277l1.209,1.259,2.143-.967-.142-1.739.856-.385.4,6.429-.778.351-4.549-4.563Zm3.406,1.062-1.664.75,1.879,1.949Z" transform="translate(-1.977 -2.634)"/>
      <path id="Tracé_252" data-name="Tracé 252" d="M85.678,125.566l.7-.239.424,1.247a1.988,1.988,0,0,1,1.5-1.965c1.5-.511,2.959.038,3.632,2.01s-.146,3.315-1.65,3.81a2.615,2.615,0,0,1-3.25-1.131l.721-.418a1.807,1.807,0,0,0,2.3.864c1.054-.35,1.562-1.26,1.027-2.833s-1.493-1.975-2.544-1.617a1.916,1.916,0,0,0-1.335,2.3l1.28-.436.155.721-1.94.66Z" transform="translate(-1.858 -2.699)"/>
      <path id="Tracé_253" data-name="Tracé 253" d="M82.271,131.8l3.023-.728-.435-1.809-2.563.617-.179-.745,2.563-.616-.437-1.818-3.023.727-.18-.744,3.853-.927,1.411,5.862-3.853.927Z" transform="translate(-1.758 -2.728)"/>
      <path id="Tracé_254" data-name="Tracé 254" d="M77.294,133.4l-.842.128-.909-5.956.841-.128,3.736,4.218-.715-4.68.843-.128.908,5.956-.841.128L76.576,128.7Z" transform="translate(-1.639 -2.751)"/>
      <path id="Tracé_255" data-name="Tracé 255" d="M73.975,130.737c-.09-1.659-.9-2.315-2.01-2.246a1.805,1.805,0,0,0-1.807,1.658l-.826-.119a2.616,2.616,0,0,1,2.594-2.261c1.581-.1,2.839.83,2.952,2.919s-1.039,3.152-2.622,3.22a2.616,2.616,0,0,1-2.822-1.969l.809-.207a1.806,1.806,0,0,0,1.975,1.455c1.109-.051,1.846-.79,1.757-2.449" transform="translate(-1.504 -2.771)"/>
      <path id="Tracé_256" data-name="Tracé 256" d="M64.261,133.063l3.109.113.067-1.86-2.635-.1.027-.767,2.636.1.068-1.869-3.11-.113.027-.767,3.963.145-.22,6.029-3.961-.145Z" transform="translate(-1.393 -2.772)"/>
      <path id="Tracé_257" data-name="Tracé 257" d="M60.208,130.4c.265-1.643-.39-2.455-1.489-2.624a1.808,1.808,0,0,0-2.121,1.238l-.783-.292a2.619,2.619,0,0,1,3.019-1.66c1.567.236,2.6,1.415,2.266,3.482s-1.685,2.863-3.247,2.594a2.621,2.621,0,0,1-2.343-2.526l.835-.031a1.806,1.806,0,0,0,1.623,1.842c1.1.186,1.973-.38,2.239-2.022" transform="translate(-1.204 -2.755)"/>
      <path id="Tracé_258" data-name="Tracé 258" d="M51.051,125.36l.933.244.549,2.253a1.671,1.671,0,0,1,.2.044l1.292.338.514-1.966.825.215-1.525,5.831-2.116-.553a1.923,1.923,0,0,1-1.627-2.491A1.789,1.789,0,0,1,51.71,127.8Zm2.143,6.061.654-2.5-1.291-.339a1.293,1.293,0,1,0-.654,2.5Z" transform="translate(-1.085 -2.719)"/>
      <path id="Tracé_259" data-name="Tracé 259" d="M44.765,128.75l2.931,1.035.619-1.754-2.486-.878.256-.722,2.484.877.622-1.762-2.932-1.035.255-.723,3.735,1.319-2.006,5.685-3.736-1.319Zm.122,2.655,1.032-.932.592.209-.877.987Z" transform="translate(-0.965 -2.685)"/>
      <path id="Tracé_260" data-name="Tracé 260" d="M41.78,121.677l-.151,1.74,2.14.977,1.217-1.252.855.39-4.578,4.539-.776-.354.438-6.432Zm1.445,3.266-1.661-.759-.23,2.7Z" transform="translate(-0.878 -2.631)"/>
      <path id="Tracé_261" data-name="Tracé 261" d="M34.781,123.925l1.7.93,2.526-4.615.748.409-2.526,4.616,1.706.934-.368.672L34.413,124.6Z" transform="translate(-0.746 -2.608)"/>
      <rect id="Rectangle_111" data-name="Rectangle 111" width="6.033" height="0.853" transform="matrix(0.532, -0.847, 0.847, 0.532, 32.048, 120.943)"/>
      <path id="Tracé_262" data-name="Tracé 262" d="M28.22,120.4l-.761-.549,5.289-3.617.692.5L31.686,122.9l-.761-.549,1.446-4.867Z" transform="translate(-0.596 -2.521)"/>
      <path id="Tracé_263" data-name="Tracé 263" d="M23.917,115.8l2.355,2.032,1.215-1.41-2-1.722.5-.58,2,1.722,1.221-1.416L26.854,112.4l.5-.581,3,2.589-3.939,4.567-3-2.589Z" transform="translate(-0.508 -2.425)"/>
      <path id="Tracé_264" data-name="Tracé 264" d="M22.318,106.542l-.828,1.537,1.576,1.744,1.614-.669.629.7-6,2.358-.571-.633,2.947-5.73Zm.033,3.569-1.225-1.355-1.279,2.388Z" transform="translate(-0.406 -2.296)"/>
      <path id="Tracé_265" data-name="Tracé 265" d="M18.162,101.187l.444.593-1.056.79a1.988,1.988,0,0,1,2.333.815c.95,1.269.88,2.828-.789,4.079s-3.2.888-4.135-.39a2.618,2.618,0,0,1,.069-3.444l.621.558a1.808,1.808,0,0,0-.113,2.452c.659.9,1.684,1.1,3.014.1s1.419-2.031.752-2.921a1.918,1.918,0,0,0-2.6-.558l.81,1.083-.637.37-1.23-1.642Z" transform="translate(-0.311 -2.195)"/>
      <path id="Tracé_266" data-name="Tracé 266" d="M11.178,99.893l1.628,2.646,1.583-.974-1.379-2.242.653-.4,1.379,2.243,1.59-.978L15,97.539l.653-.4,2.073,3.371-5.13,3.155-2.074-3.371Z" transform="translate(-0.228 -2.107)"/>
      <path id="Tracé_267" data-name="Tracé 267" d="M8.107,95.65l-.383-.761,5.382-2.706.383.761L10.633,97.8l4.228-2.127.383.761L9.863,99.141l-.383-.761,2.879-4.868Z" transform="translate(-0.168 -1.999)"/>
      <path id="Tracé_268" data-name="Tracé 268" d="M9.626,91.663c1.55-.6,1.922-1.569,1.516-2.6a1.806,1.806,0,0,0-2.134-1.208l-.141-.821a2.614,2.614,0,0,1,2.949,1.77c.585,1.471.085,2.954-1.866,3.7s-3.316-.015-3.868-1.5a2.614,2.614,0,0,1,1-3.29l.446.7a1.8,1.8,0,0,0-.774,2.325c.391,1.039,1.32,1.511,2.869.916" transform="translate(-0.127 -1.887)"/>
      <path id="Tracé_269" data-name="Tracé 269" d="M4.413,83.124l.846,2.991,1.789-.506-.717-2.536.738-.208L7.787,85.4l1.8-.509L8.738,81.9l.738-.208L10.553,85.5l-5.8,1.641L3.677,83.333Z" transform="translate(-0.08 -1.772)"/>
      <path id="Tracé_270" data-name="Tracé 270" d="M5.726,78.479c1.643-.247,2.217-1.117,2.042-2.214a1.8,1.8,0,0,0-1.822-1.64l.039-.833a2.613,2.613,0,0,1,2.5,2.365c.253,1.563-.554,2.9-2.621,3.216s-3.234-.731-3.454-2.3a2.616,2.616,0,0,1,1.69-3l.284.785a1.805,1.805,0,0,0-1.258,2.1c.158,1.1.962,1.76,2.6,1.512" transform="translate(-0.051 -1.601)"/>
      <path id="Tracé_271" data-name="Tracé 271" d="M7.71,68.22l.053.963L5.787,70.4a1.824,1.824,0,0,1,.02.205l.073,1.332,2.03-.113.047.851-6.019.335-.121-2.184a1.924,1.924,0,0,1,1.872-2.313,1.792,1.792,0,0,1,1.9,1.085ZM2.6,72.118l2.58-.143L5.1,70.641a1.22,1.22,0,0,0-1.366-1.278,1.22,1.22,0,0,0-1.214,1.421Z" transform="translate(-0.039 -1.48)"/>
      <path id="Tracé_272" data-name="Tracé 272" d="M.021,64.222l1.205.7-.016.628L0,65.014Zm2.489-.935-.08,3.11,1.86.048.069-2.636.766.02-.068,2.637,1.87.048.08-3.109.767.02-.1,3.962L1.64,67.229l.1-3.962Z" transform="translate(0 -1.372)"/>
      <path id="Tracé_273" data-name="Tracé 273" d="M8.337,58.263l-1.7.393-.27,2.335,1.567.77-.108.932L2.1,59.746l.1-.847,6.247-1.568Zm-2.658,2.38.209-1.814-2.637.615Z" transform="translate(-0.046 -1.243)"/>
      <path id="Tracé_274" data-name="Tracé 274" d="M4.057,52.3,3.7,54.2l5.171.975-.158.838-5.171-.976-.361,1.914-.753-.143L3.3,52.157Z" transform="translate(-0.053 -1.131)"/>
      <rect id="Rectangle_112" data-name="Rectangle 112" width="0.852" height="6.025" transform="matrix(0.244, -0.97, 0.97, 0.244, 3.548, 49.979)"/>
      <path id="Tracé_275" data-name="Tracé 275" d="M5.387,44.953l.287-.893,5.072,3.912-.26.812-6.4.234.287-.893L9.444,48Z" transform="translate(-0.089 -0.956)"/>
      <path id="Tracé_276" data-name="Tracé 276" d="M8.405,39.461,7.2,42.328l1.715.722,1.022-2.429.707.3L9.62,43.348l1.724.725,1.206-2.866.707.3L11.72,45.157l-5.56-2.34L7.7,39.164Z" transform="translate(-0.134 -0.849)"/>
      <path id="Tracé_277" data-name="Tracé 277" d="M16.735,35.084l-1.718-.313-1.174,2.038,1.134,1.329-.469.813-4.09-4.98.426-.739L17.2,34.271ZM13.35,36.216l.912-1.582L11.6,34.153Z" transform="translate(-0.226 -0.721)"/>
      <path id="Tracé_278" data-name="Tracé 278" d="M20.551,29.5l-.429.6-1.076-.763a1.989,1.989,0,0,1-.063,2.471c-.917,1.294-2.423,1.705-4.125.5s-1.827-2.774-.894-4.058a2.619,2.619,0,0,1,3.3-.989l-.34.763a1.808,1.808,0,0,0-2.369.645c-.651.9-.529,1.938.828,2.9s2.368.728,3.011-.178a1.919,1.919,0,0,0-.266-2.651l-.782,1.1-.549-.493,1.187-1.674Z" transform="translate(-0.29 -0.586)"/>
      <path id="Tracé_279" data-name="Tracé 279" d="M19.657,22.441,17.635,24.8l1.413,1.208,1.713-2,.582.5-1.713,2,1.419,1.214,2.02-2.36.582.5-2.575,3.007L16.5,24.95l2.575-3.007Z" transform="translate(-0.358 -0.476)"/>
      <path id="Tracé_280" data-name="Tracé 280" d="M22.743,18.206l.608-.6L27.583,21.9l-.608.6-5.5-1.229L24.8,24.646l-.608.6-4.232-4.294.608-.6L26.087,21.6Z" transform="translate(-0.433 -0.382)"/>
      <path id="Tracé_281" data-name="Tracé 281" d="M27.018,18.44c1.046,1.29,2.087,1.345,2.944.639a1.806,1.806,0,0,0,.491-2.4l.738-.387a2.617,2.617,0,0,1-.773,3.353c-1.22,1.01-2.785.993-4.1-.632s-1.009-3.16.233-4.143a2.613,2.613,0,0,1,3.439-.062l-.532.641A1.806,1.806,0,0,0,27,15.428c-.867.692-1.03,1.722.016,3.012" transform="translate(-0.552 -0.308)"/>
      <path id="Tracé_282" data-name="Tracé 282" d="M33.525,10.843l-2.582,1.73,1.035,1.545,2.188-1.466.427.637L32.4,14.754l1.04,1.551,2.582-1.73.426.637-3.288,2.2-3.355-5.005,3.288-2.2Z" transform="translate(-0.647 -0.221)"/>
      <path id="Tracé_283" data-name="Tracé 283" d="M38.355,10.646c.746,1.487,1.752,1.763,2.742,1.256a1.8,1.8,0,0,0,.994-2.244l.806-.221a2.618,2.618,0,0,1-1.475,3.112c-1.41.727-2.937.376-3.876-1.5s-.31-3.307,1.114-4a2.621,2.621,0,0,1,3.379.677l-.658.514A1.808,1.808,0,0,0,38.986,7.7c-1,.491-1.378,1.463-.631,2.95" transform="translate(-0.805 -0.146)"/>
      <path id="Tracé_284" data-name="Tracé 284" d="M48.733,9.355l-.9.349L46.066,8.2a1.716,1.716,0,0,1-.19.083l-1.244.483.736,1.895-.8.309L42.389,5.35l2.04-.792a1.924,1.924,0,0,1,2.78,1.064,1.788,1.788,0,0,1-.444,2.141ZM43.44,5.7l.936,2.41,1.244-.483a1.222,1.222,0,0,0,.793-1.7,1.221,1.221,0,0,0-1.73-.714Z" transform="translate(-0.919 -0.094)"/>
      <path id="Tracé_285" data-name="Tracé 285" d="M51.844,2.9l-2.98.878L49.39,5.56l2.526-.744.215.735-2.526.744.528,1.791,2.98-.879.217.735-3.8,1.119-1.7-5.778,3.8-1.119ZM50.191.82,49.9,2.18l-.6.177.133-1.313Z" transform="translate(-1.037 -0.018)"/>
      <path id="Tracé_286" data-name="Tracé 286" d="M58.434,6.9l-.9-1.5-2.306.461-.252,1.728-.921.184,1.049-6.359.836-.167,3.412,5.469ZM55.351,5.1l1.79-.358-1.4-2.322Z" transform="translate(-1.172 -0.027)"/>
      <path id="Tracé_287" data-name="Tracé 287" d="M62.748,1.029l-1.921.239.647,5.217-.844.1-.648-5.217-1.93.24-.094-.76,4.7-.583Z" transform="translate(-1.257 -0.006)"/>
      <rect id="Rectangle_113" data-name="Rectangle 113" width="0.853" height="6.032" transform="translate(62.504 0.204) rotate(-3.683)"/>
      <path id="Tracé_288" data-name="Tracé 288" d="M70.067.014,71.006,0,68.921,6.063l-.853.014L65.8.081l.939-.015L68.48,4.838Z" transform="translate(-1.427 0)"/>
      <path id="Tracé_289" data-name="Tracé 289" d="M76.327,1.213l-3.1-.264L73.071,2.8l2.627.224-.066.764-2.627-.224-.158,1.863,3.1.264-.065.764-3.947-.337L72.443.112l3.948.337Z" transform="translate(-1.56 -0.002)"/>
      <path id="Tracé_972" data-name="Tracé 972" d="M82.7,7.669l-.244-1.729-2.3-.474-.9,1.494-.919-.189,3.439-5.447.835.171,1.014,6.362ZM80.564,4.813l1.787.367L81.969,2.5Z" transform="translate(-1.699 -0.027)"/>
    </g>
  </g>
  <path id="Tracé_973" data-name="Tracé 973" d="M103.018,58.377a16.068,16.068,0,0,0-11.2-4.2c-7.836-.06-14.629,4.539-15.721,13.99H70.655V41.685H64.212V68.171H51.122c-5.482,0-8.906,2.392-8.906,5.833V41.685H35.774V87.239h6.442c0-11.072,1.09-13.666,7.99-13.666H64.212V87.239h6.442V73.572h5.438c1.065,9.5,7.872,14.125,15.729,14.065q.622-.006,1.239-.051c6.025-.378,11.5-3.433,13.96-9.394l-5.6-2.212,0,.008-.122-.048a9.975,9.975,0,0,1-9.476,6.273c-.276,0-.551,0-.823-.019-4.2-.309-7.729-3.007-8.513-8.623h25.119a16.917,16.917,0,0,0,.2-2.6c0-5.675-1.854-9.845-4.783-12.593M101.363,68.1H82.5c1-5.87,4.95-8.454,9.487-8.388A10.033,10.033,0,0,1,97.4,61.248a9.837,9.837,0,0,1,3.964,6.851" transform="translate(-0.776 -0.902)"/>
</svg>
