<svg id="Groupe_223" data-name="Groupe 223" width="322.731" height="327.158" viewBox="0 0 322.731 327.158">
    <defs>
        <style>
            .animating {
                transform-origin: center;
                animation: rotate 30s infinite linear;
            }
            @keyframes rotate {
                from { transform: rotate(360deg); }
                to { transform: rotate(0); }
            }
</style>
        <clipPath id="clip-path">
            <rect id="Rectangle_263" data-name="Rectangle 263" width="322.731" height="327.158" fill="#2400ff" />
        </clipPath>
    </defs>
    <g class="animating" id="Groupe_222" data-name="Groupe 222" clip-path="url(#clip-path)">
        <path id="Tracé_984" data-name="Tracé 984" d="M277.957,415.977c1.43,5.124-.432,8.293-4.342,9.384a5.712,5.712,0,0,1-5.973-1.271l2.363,8.471-2.9.81-5.844-20.716,2.962-.827.711,2.547a5.658,5.658,0,0,1,4.453-4.179c3.918-1.061,7.143.656,8.573,5.781m-2.9.81c-.967-3.466-3.151-4.771-5.8-4.065-2.378.63-4.079,2.542-2.972,6.512s3.544,4.693,5.914,4.032c2.637-.735,3.821-3.012,2.854-6.478" transform="translate(-67.698 -106.213)" fill="#2400ff" />
        <path id="Tracé_985" data-name="Tracé 985" d="M300.289,409.038l-11,4.455a4.293,4.293,0,0,0,5.7,2.1,4.69,4.69,0,0,0,3.024-4.409l2.843-.024a7.417,7.417,0,0,1-4.91,6.8c-3.721,1.54-7.883.439-9.88-4.492s.226-8.617,3.971-10.1,7.883-.439,9.88,4.491a7.847,7.847,0,0,1,.376,1.175m-11.959,2.089,8.322-3.37a4.358,4.358,0,0,0-5.661-2.02,4.311,4.311,0,0,0-2.66,5.39" transform="translate(-73.931 -104.361)" fill="#2400ff" />
        <path id="Tracé_986" data-name="Tracé 986" d="M310.083,393.632l1.234,2.408c-3.146,1.612-3.977,3.765-1.412,8.771l2.622,5.116-2.737,1.4-7.008-13.679,2.735-1.4,1.29,2.518c-.106-2.364.978-3.956,3.221-5.105Z" transform="translate(-78.458 -101.999)" fill="#2400ff" />
        <path id="Tracé_987" data-name="Tracé 987" d="M321.759,388.911l-2.166,1.291,4.709,7.9c.471.793,1,.725,1.639.347l1.109-.662,1.432,2.4-1.108.661c-3.275,1.953-4.144,1.4-5.687-1.191l-4.708-7.9-2.166,1.291-1.244-2.087,2.166-1.291-1.48-2.482,1.985-2.616,2.109,3.539,2.166-1.291Z" transform="translate(-81.253 -99.653)" fill="#2400ff" />
        <path id="Tracé_988" data-name="Tracé 988" d="M322.038,382l-1.885-2.846,2.641-1.749,1.885,2.846ZM332.09,397.07l2.538-1.681-8.49-12.819-2.538,1.68Z" transform="translate(-82.959 -97.795)" fill="#2400ff" />
        <path id="Tracé_989" data-name="Tracé 989" d="M339.429,387.987c1.243,1.179,2.95.885,4.321-.156,1.42-1.079,2.306-2.758,1.19-4.226-2.084-2.741-7.43,6.228-11.338,1.088-2.68-3.524.793-6.475,2.091-7.461,1.223-.93,4.487-3.141,7.09-.833l-1.719,2.312c-1.261-1.05-2.624-.71-3.995.333-1.394,1.06-2.149,2.406-1.069,3.826,2.158,2.839,7.375-6.3,11.338-1.089,2.847,3.745-.754,6.984-2.1,8.008-1.225.93-4.972,3.315-7.764.456Z" transform="translate(-86.187 -97.27)" fill="#2400ff" />
        <path id="Tracé_990" data-name="Tracé 990" d="M362.92,365.781l-8.671,8.1a4.293,4.293,0,0,0,6.072-.078,4.694,4.694,0,0,0,1.242-5.2l2.645-1.042a7.415,7.415,0,0,1-2.145,8.107c-2.922,2.772-7.2,3.237-10.833-.649s-2.879-8.124.085-10.852,7.2-3.237,10.832.649a8.138,8.138,0,0,1,.772.962m-10.413,6.239,6.56-6.129a4.359,4.359,0,0,0-6.009.145,4.311,4.311,0,0,0-.55,5.985" transform="translate(-90.379 -93.806)" fill="#2400ff" />
        <path id="Tracé_991" data-name="Tracé 991" d="M371.189,359.288c1.457.9,3.07.272,4.2-1.025,1.173-1.343,1.7-3.167.313-4.38-2.594-2.266-6.023,7.6-10.888,3.352-3.335-2.912-.527-6.5.545-7.73,1.011-1.159,3.762-3.981,6.778-2.246l-1.218,2.611c-1.447-.774-2.713-.165-3.847,1.132-1.152,1.321-1.619,2.79-.276,3.964,2.687,2.346,5.954-7.661,10.889-3.352,3.544,3.093.67,6.993-.443,8.267-1.011,1.158-4.2,4.251-7.513,2.013Z" transform="translate(-94.122 -89.84)" fill="#2400ff" />
        <path id="Tracé_992" data-name="Tracé 992" d="M384.3,338.289a4.335,4.335,0,1,1,6.021-1.159,4.33,4.33,0,0,1-6.021,1.159" transform="translate(-99.086 -85.604)" fill="#2400ff" />
        <path id="Tracé_993" data-name="Tracé 993" d="M391.114,298.519l-5,9.909,5.929,2.992,4.238-8.4,2.442,1.232-4.237,8.4,5.957,3.006,5-9.909,2.443,1.233-6.371,12.626L382.3,309.912l6.371-12.626Z" transform="translate(-99.063 -77.034)" fill="#2400ff" />
        <path id="Tracé_994" data-name="Tracé 994" d="M418.194,287.511l-1.233,3.249-6.279,1.465,3.727,5.262-1.233,3.249L407.9,292.88l-.136.014-8.942,2.329,1.244-3.277,6.16-1.412-3.673-5.142,1.243-3.277,5.145,7.675.093.1Z" transform="translate(-103.344 -73.102)" fill="#2400ff" />
        <path id="Tracé_995" data-name="Tracé 995" d="M417.326,263.183c5.148,1.338,6.952,4.538,5.931,8.466a5.712,5.712,0,0,1-4.1,4.526l8.509,2.211-.757,2.916-20.844-5.353.773-2.976,2.559.665a5.657,5.657,0,0,1-1.377-5.949c1.051-3.92,4.155-5.844,9.3-4.507m-.757,2.916c-3.481-.905-5.708.327-6.426,2.968-.648,2.372.149,4.8,4.136,5.84s5.838-.707,6.456-3.087c.689-2.649-.686-4.816-4.167-5.72" transform="translate(-105.221 -68.087)" fill="#2400ff" />
        <path id="Tracé_996" data-name="Tracé 996" d="M422.7,240.95l-1.68,11.747a4.29,4.29,0,0,0,4.682-3.864,4.691,4.691,0,0,0-2.289-4.83l1.408-2.469a7.416,7.416,0,0,1,3.408,7.661c-.54,3.99-3.584,7.033-8.849,6.28s-7.334-4.527-6.733-8.509,3.584-7.034,8.848-6.282a8.121,8.121,0,0,1,1.2.266M418.5,252.336l1.271-8.886a4.356,4.356,0,0,0-4.591,3.877,4.31,4.31,0,0,0,3.321,5.009" transform="translate(-106.901 -62.337)" fill="#2400ff" />
        <path id="Tracé_997" data-name="Tracé 997" d="M414.536,226.085l2.7.146c-.191,3.531,1.251,5.334,6.87,5.638l5.742.31-.167,3.07-15.352-.831.166-3.07,2.825.153c-2.1-1.1-2.926-2.838-2.789-5.356Z" transform="translate(-107.363 -58.584)" fill="#2400ff" />
        <path id="Tracé_998" data-name="Tracé 998" d="M415.583,214.04l.042,2.52,9.191-.149c.922-.015,1.129-.51,1.117-1.248l-.021-1.291,2.8-.045.021,1.291c.062,3.811-.853,4.287-3.865,4.336l-9.191.149.041,2.521-2.429.039-.04-2.52-2.89.047-1.278-3.023,4.119-.067-.041-2.52Z" transform="translate(-106.001 -55.407)" fill="#2400ff" />
        <path id="Tracé_999" data-name="Tracé 999" d="M409.784,210.9l-3.409.19-.176-3.163,3.408-.19Zm18.08-1.067-.169-3.04-15.352.854.169,3.04Z" transform="translate(-105.256 -53.586)" fill="#2400ff" />
        <path id="Tracé_1000" data-name="Tracé 1000" d="M424.341,196.8c1.646-.478,2.255-2.1,2.049-3.809-.213-1.77-1.214-3.384-3.045-3.163-3.418.413,1.619,9.56-4.791,10.334-4.395.53-5.185-3.958-5.38-5.575-.184-1.526-.442-5.459,2.865-6.54l1.125,2.652c-1.543.558-1.938,1.906-1.731,3.615.21,1.74.991,3.07,2.76,2.856,3.541-.427-1.709-9.548,4.791-10.333,4.671-.564,5.645,4.18,5.849,5.859.184,1.526.348,5.966-3.53,6.929Z" transform="translate(-107.038 -48.401)" fill="#2400ff" />
        <path id="Tracé_1001" data-name="Tracé 1001" d="M416.978,164.914l2.622,11.577a4.293,4.293,0,0,0,3-5.282,4.693,4.693,0,0,0-3.865-3.7l.436-2.811a7.418,7.418,0,0,1,5.919,5.943c.92,3.922-.838,7.852-6.027,9.027s-8.469-1.613-9.329-5.548.839-7.852,6.027-9.028a7.99,7.99,0,0,1,1.22-.182m.133,12.141-1.984-8.758a4.359,4.359,0,0,0-2.907,5.262,4.312,4.312,0,0,0,4.891,3.5" transform="translate(-106.115 -42.678)" fill="#2400ff" />
        <path id="Tracé_1002" data-name="Tracé 1002" d="M415.531,154.581c1.514-.8,1.779-2.515,1.228-4.147-.57-1.69-1.878-3.066-3.626-2.475-3.264,1.1,3.535,9.029-2.583,11.095-4.195,1.417-5.883-2.817-6.4-4.361-.492-1.457-1.547-5.254,1.471-6.987l1.643,2.366c-1.4.861-1.508,2.262-.957,3.893.561,1.661,1.6,2.8,3.286,2.234,3.379-1.141-3.623-9,2.582-11.1,4.458-1.5,6.38,2.941,6.921,4.544.492,1.457,1.558,5.769-2.042,7.5Z" transform="translate(-104.571 -37.52)" fill="#2400ff" />
        <path id="Tracé_1003" data-name="Tracé 1003" d="M403.5,134.219a4.335,4.335,0,1,1,2.02-5.788,4.329,4.329,0,0,1-2.02,5.788" transform="translate(-102.944 -32.644)" fill="#2400ff" />
        <path id="Tracé_1004" data-name="Tracé 1004" d="M373.075,104.4l6.065,9.3,5.562-3.628-5.14-7.881,2.292-1.5,5.14,7.881,5.588-3.646-6.064-9.3,2.292-1.5,7.727,11.846-18.026,11.76-7.728-11.847Z" transform="translate(-96.078 -24.392)" fill="#2400ff" />
        <path id="Tracé_1005" data-name="Tracé 1005" d="M376.926,76.575l2.189,2.7-1.889,6.163,6.42-.576,2.189,2.7-9.44.61-.056.125-2.48,8.9-2.207-2.722,1.874-6.033-6.29.59-2.208-2.722,9.219-.59.134-.03Z" transform="translate(-94.587 -19.842)" fill="#2400ff" />
        <path id="Tracé_1006" data-name="Tracé 1006" d="M355.715,65.638c3.752-3.773,7.427-3.718,10.3-.856a5.711,5.711,0,0,1,1.843,5.822l6.2-6.237,2.137,2.126L361.067,81.8l-2.18-2.169,1.865-1.875a5.657,5.657,0,0,1-5.833-1.81c-2.857-2.884-2.954-6.537.8-10.309m2.137,2.125c-2.537,2.552-2.6,5.1-.676,7.047,1.723,1.757,4.225,2.293,7.131-.629s2.332-5.4.588-7.134c-1.941-1.93-4.507-1.836-7.044.716" transform="translate(-91.427 -16.25)" fill="#2400ff" />
        <path id="Tracé_1007" data-name="Tracé 1007" d="M339.073,50.286l9.291,7.383a4.293,4.293,0,0,0-.971-5.994,4.694,4.694,0,0,0-5.326-.463l-1.419-2.463a7.415,7.415,0,0,1,8.333.928c3.172,2.482,4.261,6.646.952,10.809S342.321,64.53,339.187,62s-4.261-6.646-.951-10.809a7.867,7.867,0,0,1,.837-.905m7.7,9.381-7.027-5.585A4.356,4.356,0,0,0,340.775,60a4.311,4.311,0,0,0,6-.336" transform="translate(-87.126 -12.401)" fill="#2400ff" />
        <path id="Tracé_1008" data-name="Tracé 1008" d="M321.251,50.064l1.491-2.258c2.951,1.949,5.235,1.614,8.336-3.081l3.169-4.8,2.566,1.7L328.34,54.451l-2.566-1.694,1.56-2.36c-2.008,1.254-3.927,1.091-6.031-.3Z" transform="translate(-83.243 -10.345)" fill="#2400ff" />
        <path id="Tracé_1009" data-name="Tracé 1009" d="M312.144,40.747,314.333,42l4.567-7.981c.458-.8.139-1.231-.5-1.6l-1.12-.642,1.39-2.429,1.12.641c3.31,1.894,3.252,2.924,1.756,5.54l-4.567,7.981,2.189,1.252-1.206,2.109-2.189-1.253-1.437,2.509-3.253-.445,2.047-3.576-2.189-1.253Z" transform="translate(-80.571 -7.605)" fill="#2400ff" />
        <path id="Tracé_1010" data-name="Tracé 1010" d="M306.026,43.608l-1.552,3.04-2.82-1.441,1.552-3.039Zm8.182-16.156L311.5,26.068,304.5,39.759l2.711,1.384Z" transform="translate(-78.165 -6.755)" fill="#2400ff" />
        <path id="Tracé_1011" data-name="Tracé 1011" d="M301.7,26.428c.416-1.663-.681-3-2.262-3.687-1.638-.705-3.535-.652-4.266,1.042-1.362,3.163,9.078,3.408,6.524,9.338-1.751,4.067-6.029,2.492-7.525,1.848-1.412-.608-4.942-2.363-4.213-5.765l2.858.36c-.293,1.614.673,2.634,2.255,3.315,1.61.693,3.152.688,3.858-.95,1.411-3.275-9.115-3.324-6.524-9.338,1.861-4.321,6.453-2.778,8.007-2.109,1.411.608,5.332,2.7,4.215,6.536Z" transform="translate(-75.109 -5.094)" fill="#2400ff" />
        <path id="Tracé_1012" data-name="Tracé 1012" d="M270.623,16.985l11.324,3.547a4.291,4.291,0,0,0-3.061-5.243,4.691,4.691,0,0,0-5.136,1.484l-2.211-1.788a7.414,7.414,0,0,1,8.11-2.131c3.853,1.174,6.366,4.668,4.776,9.743s-5.648,6.511-9.482,5.277-6.366-4.668-4.776-9.743a8.03,8.03,0,0,1,.456-1.146m10.561,5.983-8.567-2.684a4.358,4.358,0,0,0,3.089,5.156,4.31,4.31,0,0,0,5.478-2.472" transform="translate(-69.881 -3.228)" fill="#2400ff" />
        <path id="Tracé_1013" data-name="Tracé 1013" d="M261.154,12.929c.066-1.712-1.281-2.8-2.969-3.145-1.747-.356-3.593.085-3.961,1.893-.686,3.374,9.583,1.478,8.3,7.8-.882,4.339-5.391,3.673-6.987,3.348-1.506-.307-5.319-1.3-5.3-4.781l2.87-.232c.043,1.64,1.2,2.44,2.885,2.783,1.718.349,3.226.028,3.581-1.719.711-3.5-9.6-1.388-8.3-7.805.938-4.61,5.748-4.039,7.4-3.7,1.506.307,5.771,1.55,5.462,5.534Z" transform="translate(-64.84 -1.854)" fill="#2400ff" />
        <path id="Tracé_1014" data-name="Tracé 1014" d="M236.835,14.954a4.336,4.336,0,1,1-3.987-4.659,4.331,4.331,0,0,1,3.987,4.659" transform="translate(-59.126 -2.664)" fill="#2400ff" />
        <path id="Tracé_1015" data-name="Tracé 1015" d="M198.436,22.561l11.088-.535-.32-6.635-9.4.453-.133-2.734,9.4-.453-.321-6.665-11.089.535-.132-2.734,14.129-.681,1.036,21.5-14.129.681Z" transform="translate(-51.185 -0.807)" fill="#2400ff" />
        <path id="Tracé_1016" data-name="Tracé 1016" d="M175.311,6.5l3.435-.524,4.363,4.748,2.75-5.832,3.435-.524-4.247,8.456.079.112,6.426,6.641-3.466.528-4.258-4.67-2.673,5.727-3.466.528,4.154-8.254.042-.131Z" transform="translate(-45.427 -1.132)" fill="#2400ff" />
        <path id="Tracé_1017" data-name="Tracé 1017" d="M154.254,17.257c-1.364-5.142.536-8.287,4.459-9.328a5.711,5.711,0,0,1,5.957,1.345l-2.257-8.5L165.327,0l5.583,20.789-2.972.788-.679-2.556a5.66,5.66,0,0,1-4.505,4.124c-3.931,1.011-7.134-.747-8.5-5.888m2.913-.773c.923,3.477,3.091,4.811,5.744,4.138,2.386-.6,4.111-2.491,3.053-6.473S162.48,9.41,160.1,10.041c-2.645.7-3.858,2.965-2.935,6.442" transform="translate(-39.857)" fill="#2400ff" />
        <path id="Tracé_1018" data-name="Tracé 1018" d="M132.412,26.568l11.058-4.316a4.292,4.292,0,0,0-5.669-2.177,4.692,4.692,0,0,0-3.081,4.37l-2.843-.011a7.415,7.415,0,0,1,5-6.737c3.741-1.494,7.889-.339,9.823,4.617s-.336,8.613-4.1,10.05-7.889.339-9.823-4.617a8.026,8.026,0,0,1-.362-1.179M144.4,24.63l-8.365,3.264a4.357,4.357,0,0,0,5.636,2.091A4.311,4.311,0,0,0,144.4,24.63" transform="translate(-34.172 -4.428)" fill="#2400ff" />
        <path id="Tracé_1019" data-name="Tracé 1019" d="M124.49,41.215l-1.2-2.423c3.167-1.573,4.025-3.716,1.522-8.756l-2.558-5.15L125,23.518l6.84,13.769-2.754,1.368-1.259-2.533c.076,2.365-1.028,3.944-3.287,5.065Z" transform="translate(-31.678 -6.094)" fill="#2400ff" />
        <path id="Tracé_1020" data-name="Tracé 1020" d="M110.936,45.857l2.181-1.264L108.51,36.64c-.462-.8-1-.738-1.634-.368l-1.117.648-1.4-2.42,1.117-.648c3.3-1.91,4.16-1.343,5.67,1.263l4.608,7.953,2.18-1.263,1.218,2.1-2.181,1.263,1.448,2.5L116.4,50.26,114.334,46.7l-2.181,1.263Z" transform="translate(-27.041 -8.479)" fill="#2400ff" />
        <path id="Tracé_1021" data-name="Tracé 1021" d="M109.2,49.715l-2.558,1.649L98.311,38.442l2.558-1.648ZM108.068,53.7l1.848,2.869,2.662-1.715-1.848-2.869Z" transform="translate(-25.475 -9.534)" fill="#2400ff" />
        <path id="Tracé_1022" data-name="Tracé 1022" d="M92.945,46.987c-1.229-1.194-2.941-.922-4.325.1-1.433,1.062-2.341,2.729-1.243,4.212,2.05,2.768,7.51-6.136,11.354-.946,2.635,3.558-.876,6.465-2.186,7.435-1.236.914-4.527,3.084-7.1.744l1.749-2.289c1.248,1.065,2.615.742,4-.284,1.409-1.043,2.18-2.38,1.118-3.813-2.123-2.866-7.455,6.21-11.353.946-2.8-3.781.842-6.975,2.2-7.982,1.235-.915,5.014-3.254,7.77-.359Z" transform="translate(-21.747 -11.233)" fill="#2400ff" />
        <path id="Tracé_1023" data-name="Tracé 1023" d="M69.111,69.062l8.771-7.995a4.293,4.293,0,0,0-6.073,0A4.692,4.692,0,0,0,70.5,66.253l-2.658,1.008a7.415,7.415,0,0,1,2.246-8.079c2.956-2.736,7.241-3.147,10.823.785s2.778,8.159-.219,10.849-7.241,3.147-10.823-.785a8.008,8.008,0,0,1-.76-.971M79.6,62.953,72.966,69a4.357,4.357,0,0,0,6.009-.07,4.31,4.31,0,0,0,.626-5.977" transform="translate(-17.469 -14.789)" fill="#2400ff" />
        <path id="Tracé_1024" data-name="Tracé 1024" d="M60.694,75.369c-1.445-.922-3.066-.31-4.213.973-1.19,1.328-1.743,3.144-.369,4.375,2.566,2.3,6.117-7.523,10.926-3.216,3.3,2.953.446,6.507-.641,7.721-1.025,1.145-3.81,3.933-6.8,2.161l1.25-2.595c1.437.791,2.71.2,3.858-1.084,1.169-1.305,1.655-2.769.327-3.958-2.657-2.379-6.049,7.584-10.926,3.215-3.5-3.138-.583-7,.545-8.259,1.026-1.145,4.253-4.2,7.536-1.919Z" transform="translate(-13.586 -18.646)" fill="#2400ff" />
        <path id="Tracé_1025" data-name="Tracé 1025" d="M49.921,98.789a4.335,4.335,0,1,1-6.035,1.085,4.332,4.332,0,0,1,6.035-1.085" transform="translate(-11.17 -25.397)" fill="#2400ff" />
        <path id="Tracé_1026" data-name="Tracé 1026" d="M36.719,133.638l5.122-9.848-5.892-3.064-4.341,8.347-2.429-1.262,4.342-8.347-5.92-3.078-5.122,9.848-2.427-1.263,6.526-12.548,19.1,9.931L39.147,134.9Z" transform="translate(-5.196 -29.131)" fill="#2400ff" />
        <path id="Tracé_1027" data-name="Tracé 1027" d="M11.648,145.638l1.273-3.233,6.3-1.388-3.662-5.307,1.273-3.234,5.177,7.919.137-.012,8.97-2.22-1.284,3.261-6.177,1.337,3.61,5.188-1.283,3.261-5.051-7.737-.093-.1Z" transform="translate(-3.018 -34.327)" fill="#2400ff" />
        <path id="Tracé_1028" data-name="Tracé 1028" d="M11.475,169.967c-5.132-1.4-6.9-4.626-5.827-8.542A5.713,5.713,0,0,1,9.8,156.949L1.32,154.631l.794-2.907L22.9,157.338l-.811,2.966-2.551-.7a5.657,5.657,0,0,1,1.3,5.967c-1.1,3.907-4.23,5.794-9.361,4.392m.794-2.907c3.471.948,5.713-.256,6.464-2.888.678-2.366-.09-4.807-4.065-5.893s-5.847.633-6.5,3.007c-.722,2.64.625,4.825,4.1,5.774" transform="translate(-0.342 -39.315)" fill="#2400ff" />
        <path id="Tracé_1029" data-name="Tracé 1029" d="M7.83,193.407l1.824-11.725a4.292,4.292,0,0,0-4.73,3.807,4.692,4.692,0,0,0,2.231,4.859L5.716,192.8A7.415,7.415,0,0,1,2.4,185.1c.588-3.984,3.67-6.989,8.924-6.172s7.278,4.616,6.629,8.59-3.67,6.989-8.925,6.172a8.03,8.03,0,0,1-1.2-.281m4.345-11.332-1.38,8.87a4.356,4.356,0,0,0,4.638-3.821,4.308,4.308,0,0,0-3.258-5.049" transform="translate(-0.597 -46.328)" fill="#2400ff" />
        <path id="Tracé_1030" data-name="Tracé 1030" d="M15.889,210.371l-2.7-.18c.236-3.528-1.184-5.349-6.8-5.723l-5.737-.382.2-3.069L16.2,202.04l-.2,3.068-2.823-.188c2.083,1.125,2.889,2.874,2.723,5.39Z" transform="translate(-0.169 -52.088)" fill="#2400ff" />
        <path id="Tracé_1031" data-name="Tracé 1031" d="M13.125,222.907l.041-2.52-9.191-.15c-.922-.015-1.145.473-1.157,1.211L2.8,222.739,0,222.695.021,221.4c.061-3.811.991-4.258,4-4.209l9.191.149.041-2.52,2.428.039-.041,2.52,2.89.047,1.18,3.063-4.119-.067-.041,2.521Z" transform="translate(0 -55.665)" fill="#2400ff" />
        <path id="Tracé_1032" data-name="Tracé 1032" d="M15.557,227.594l.131,3.041L.33,231.3.2,228.255Zm2.867,2.985,3.41-.147-.137-3.164-3.41.147Z" transform="translate(-0.052 -58.89)" fill="#2400ff" />
        <path id="Tracé_1033" data-name="Tracé 1033" d="M5.621,238.123c-1.651.456-2.281,2.071-2.1,3.782.192,1.774,1.171,3.4,3,3.2,3.424-.37-1.5-9.58,4.921-10.272,4.4-.476,5.136,4.021,5.309,5.643.167,1.528.375,5.464-2.946,6.5l-1.092-2.666c1.551-.538,1.962-1.882,1.777-3.593-.187-1.743-.951-3.082-2.723-2.891-3.546.383,1.589,9.57-4.922,10.273-4.676.5-5.592-4.252-5.774-5.933-.165-1.528-.273-5.97,3.617-6.885Z" transform="translate(-0.264 -60.842)" fill="#2400ff" />
        <path id="Tracé_1034" data-name="Tracé 1034" d="M12.592,269.427l-2.475-11.608a4.293,4.293,0,0,0-3.064,5.243,4.694,4.694,0,0,0,3.816,3.745l-.47,2.8a7.417,7.417,0,0,1-5.841-6.017c-.87-3.933.939-7.839,6.14-8.948s8.446,1.72,9.256,5.665-.938,7.839-6.14,8.948a8.049,8.049,0,0,1-1.222.167m.021-12.14,1.871,8.781a4.357,4.357,0,0,0,2.973-5.223,4.31,4.31,0,0,0-4.845-3.558" transform="translate(-1.127 -65.922)" fill="#2400ff" />
        <path id="Tracé_1035" data-name="Tracé 1035" d="M13.823,280.038c-1.523.785-1.81,2.493-1.279,4.131.55,1.7,1.84,3.087,3.6,2.52,3.275-1.062-3.423-9.071,2.718-11.061,4.211-1.364,5.848,2.889,6.349,4.439.474,1.462,1.482,5.272-1.556,6.966l-1.613-2.385c1.407-.844,1.535-2.243,1-3.881-.539-1.667-1.56-2.823-3.256-2.273-3.392,1.1,3.51,9.042-2.719,11.06-4.475,1.449-6.343-3.019-6.863-4.628-.473-1.462-1.487-5.788,2.134-7.478Z" transform="translate(-2.515 -71.353)" fill="#2400ff" />
        <path id="Tracé_1036" data-name="Tracé 1036" d="M28.162,302.6a4.336,4.336,0,1,1-2.091,5.764,4.331,4.331,0,0,1,2.091-5.764" transform="translate(-6.649 -78.303)" fill="#2400ff" />
        <path id="Tracé_1037" data-name="Tracé 1037" d="M52.263,327.566l-5.946-9.37-5.607,3.557,5.04,7.943-2.31,1.466L38.4,323.22l-5.632,3.574,5.946,9.37L36.4,337.63l-7.577-11.94L47,314.16l7.576,11.94Z" transform="translate(-7.47 -81.406)" fill="#2400ff" />
        <path id="Tracé_1038" data-name="Tracé 1038" d="M49.792,356.363l-2.155-2.725L49.6,347.5l-6.427.5-2.154-2.725,9.447-.495.059-.124,2.589-8.868,2.174,2.749-1.949,6.01,6.3-.512,2.174,2.749-9.226.476-.135.028Z" transform="translate(-10.629 -87.009)" fill="#2400ff" />
        <path id="Tracé_1039" data-name="Tracé 1039" d="M69.95,368.116c-3.8,3.726-7.47,3.626-10.312.73A5.712,5.712,0,0,1,57.865,363l-6.275,6.159-2.11-2.15L64.8,351.892l2.153,2.194-1.887,1.852a5.657,5.657,0,0,1,5.809,1.88c2.821,2.918,2.874,6.571-.922,10.3m-2.111-2.151c2.567-2.519,2.656-5.062.762-7.037-1.7-1.777-4.2-2.343-7.136.542s-2.4,5.37-.676,7.126c1.917,1.952,4.483,1.889,7.05-.63" transform="translate(-12.821 -91.183)" fill="#2400ff" />
        <path id="Tracé_1040" data-name="Tracé 1040" d="M89.1,384.789l-9.2-7.5a4.3,4.3,0,0,0,.895,6.007,4.694,4.694,0,0,0,5.321.53l1.389,2.482a7.415,7.415,0,0,1-8.322-1.034c-3.142-2.521-4.179-6.7-.816-10.822s7.664-3.948,10.766-1.379,4.178,6.7.816,10.823a7.9,7.9,0,0,1-.849.895m-7.585-9.479,6.958,5.674a4.359,4.359,0,0,0-.954-5.936,4.311,4.311,0,0,0-6,.262" transform="translate(-19.767 -96.194)" fill="#2400ff" />
        <path id="Tracé_1041" data-name="Tracé 1041" d="M106.95,385.728l-1.52,2.239c-2.926-1.984-5.214-1.679-8.374,2.978L93.829,395.7l-2.546-1.726,8.632-12.724,2.544,1.726-1.588,2.341c2.023-1.229,3.94-1.043,6.027.373Z" transform="translate(-23.653 -98.792)" fill="#2400ff" />
        <path id="Tracé_1042" data-name="Tracé 1042" d="M117.331,393.68l-2.173-1.279-4.665,7.923c-.467.795-.153,1.231.483,1.6l1.113.656L110.67,405l-1.113-.655c-3.287-1.935-3.215-2.964-1.687-5.56l4.665-7.924-2.172-1.279,1.232-2.094,2.172,1.279,1.467-2.49,3.248.484-2.091,3.551,2.173,1.28Z" transform="translate(-27.689 -100.092)" fill="#2400ff" />
        <path id="Tracé_1043" data-name="Tracé 1043" d="M121.911,392.714l2.695,1.418-7.162,13.605-2.694-1.417Zm4.024-.975,1.59-3.021-2.8-1.475-1.589,3.021Z" transform="translate(-29.734 -100.343)" fill="#2400ff" />
        <path id="Tracé_1044" data-name="Tracé 1044" d="M126.445,409.039c-.436,1.657.643,3.012,2.215,3.713,1.629.726,3.527.7,4.279-.988,1.4-3.145-9.034-3.521-6.406-9.418,1.8-4.044,6.058-2.416,7.547-1.752,1.4.625,4.911,2.423,4.139,5.816l-2.852-.4c.313-1.611-.641-2.641-2.213-3.342-1.6-.713-3.144-.728-3.869.9-1.451,3.258,9.071,3.436,6.406,9.418-1.914,4.3-6.486,2.7-8.03,2.008-1.4-.625-5.3-2.765-4.133-6.587Z" transform="translate(-31.953 -103.572)" fill="#2400ff" />
        <path id="Tracé_1045" data-name="Tracé 1045" d="M157.274,418.965l-11.28-3.692a4.293,4.293,0,0,0,2.995,5.283,4.692,4.692,0,0,0,5.156-1.419l2.188,1.816a7.416,7.416,0,0,1-8.138,2.029c-3.837-1.224-6.307-4.749-4.653-9.806s5.731-6.439,9.55-5.157,6.307,4.751,4.653,9.806a7.919,7.919,0,0,1-.47,1.14m-10.486-6.117,8.533,2.792a4.357,4.357,0,0,0-3.023-5.2,4.311,4.311,0,0,0-5.51,2.4" transform="translate(-37.06 -105.611)" fill="#2400ff" />
        <path id="Tracé_1046" data-name="Tracé 1046" d="M167.161,423.12c-.087,1.711,1.247,2.818,2.929,3.181,1.743.377,3.595-.041,3.984-1.843.728-3.366-9.563-1.6-8.2-7.907.935-4.327,5.435-3.605,7.027-3.261,1.5.325,5.3,1.368,5.242,4.846l-2.873.2c-.022-1.641-1.168-2.455-2.85-2.819-1.713-.37-3.225-.067-3.6,1.674-.753,3.486,9.583,1.507,8.2,7.907-.995,4.6-5.8,3.967-7.45,3.61-1.5-.325-5.751-1.622-5.394-5.6Z" transform="translate(-42.536 -107.023)" fill="#2400ff" />
        <path id="Tracé_1047" data-name="Tracé 1047" d="M193.339,423.947a4.336,4.336,0,1,1,3.93,4.708,4.331,4.331,0,0,1-3.93-4.708" transform="translate(-50.094 -108.831)" fill="#2400ff" />
        <path id="Tracé_1048" data-name="Tracé 1048" d="M234.381,411.639l-11.08.669.4,6.63,9.392-.568.164,2.731-9.391.568.4,6.66,11.081-.669.164,2.732-14.118.853-1.3-21.485,14.118-.854Z" transform="translate(-57.032 -105.957)" fill="#2400ff" />
        <path id="Tracé_1049" data-name="Tracé 1049" d="M257.378,429.1l-3.427.568-4.422-4.69-2.675,5.865-3.427.567,4.139-8.506-.081-.112-6.508-6.558,3.458-.573,4.316,4.615,2.6-5.76,3.458-.571-4.047,8.3-.041.131Z" transform="translate(-62.442 -107.264)" fill="#2400ff" />
    </g>
    <path id="Tracé_1052" data-name="Tracé 1052" d="M150.477,37.352c-6.5-6.247-15.423-9.316-25.054-9.39-17.536-.134-32.735,10.157-35.181,31.307H78.056V0H63.639v59.27H34.346c-12.271,0-19.929,5.351-19.929,13.052V0H0V101.937H14.417c0-24.775,2.439-30.582,17.878-30.582H63.639v30.582H78.056V71.356H90.225c2.385,21.262,17.617,31.608,35.2,31.474q1.393-.014,2.771-.113c13.485-.845,25.737-7.683,31.238-21.021l-12.523-4.951-.009.019-.274-.108c-3.948,9.651-12.429,13.891-21.2,14.038-.619.009-1.234-.008-1.842-.043-9.391-.69-17.294-6.728-19.05-19.294h56.212a37.821,37.821,0,0,0,.437-5.825c0-12.7-4.148-22.028-10.7-28.179m-3.7,21.757H104.564c2.231-13.134,11.078-18.916,21.228-18.771a22.446,22.446,0,0,1,12.11,3.44c4.4,3.017,7.661,7.988,8.871,15.331" transform="translate(91.775 127.002)" fill="#242aff" />
</svg>
