<svg xmlns="http://www.w3.org/2000/svg" width="335" height="335" viewBox="0 0 335 335">
    <defs>
        <style>
            .animating {
                transform-origin: center;
                animation: rotate 30s infinite linear;
            }
            @keyframes rotate {
                from { transform: rotate(360deg); }
                to { transform: rotate(0); }
            }
        </style>
    </defs>
    <g id="logo-agence-mobile" transform="translate(4.164 4.03)">
        <g class="animating" id="Groupe_226" data-name="Groupe 226">
            <path id="Tracé_1119" data-name="Tracé 1119" d="M181.814,312.412l-3.873-8.176-2.156,8.85Zm-5.558-10.88,2.948-.33,9.136,18.467-2.856.32-2.6-5.547-7.613.852-1.438,6-2.668.3Z" transform="translate(1.407 3.18)" fill="#2400ff" stroke="#2400ff" stroke-width="0.4"/>
            <path id="Tracé_1118" data-name="Tracé 1118" d="M193.078,303.481a4.956,4.956,0,0,1,2.9.154,6.273,6.273,0,0,1,1.573.972l-.377-1.672,2.06-.464,2.722,12.067a9.119,9.119,0,0,1,.156,4.155q-.778,3.013-4.63,3.882a6.587,6.587,0,0,1-3.82-.147,3.837,3.837,0,0,1-2.318-2.639l2.267-.511a2.586,2.586,0,0,0,.955,1.232,3.366,3.366,0,0,0,2.546.207q2.563-.578,2.947-2.566a10.439,10.439,0,0,0-.425-3.9,4.484,4.484,0,0,1-1.268,1.874,5.923,5.923,0,0,1-6.494.381q-1.962-1.167-2.758-4.7a7.854,7.854,0,0,1,.455-5.568,5.162,5.162,0,0,1,3.511-2.758Zm5.549,5.906a5.669,5.669,0,0,0-1.84-3.423,3.335,3.335,0,0,0-2.856-.605,3.276,3.276,0,0,0-2.721,2.93,8.861,8.861,0,0,0,.235,3.186,5.611,5.611,0,0,0,1.68,3.209,3.012,3.012,0,0,0,2.71.619,3.52,3.52,0,0,0,2.892-2.93,7.166,7.166,0,0,0-.1-2.985Z" transform="translate(1.534 3.18)" fill="#2400ff" stroke="#2400ff" stroke-width="0.4"/>
            <path id="Tracé_1117" data-name="Tracé 1117" d="M209.34,299.38a6.441,6.441,0,0,1,2.986-.274,5.373,5.373,0,0,1,2.626,1.038,6.3,6.3,0,0,1,1.7,2.052,16.3,16.3,0,0,1,1.2,2.873l-9.793,3.345a6.039,6.039,0,0,0,2.074,2.933,3.4,3.4,0,0,0,3.2.28,3.8,3.8,0,0,0,2.41-2.12,4.133,4.133,0,0,0,.32-1.85l2.207-.754a4.915,4.915,0,0,1-.024,1.834,6.166,6.166,0,0,1-.6,1.856,5.53,5.53,0,0,1-2.07,2.216,8.134,8.134,0,0,1-1.767.825,5.946,5.946,0,0,1-4.848-.37,7.464,7.464,0,0,1-3.472-4.491,8.115,8.115,0,0,1-.038-5.824,6.089,6.089,0,0,1,3.88-3.568Zm5.6,4.693a6.148,6.148,0,0,0-1.433-2.116,3.446,3.446,0,0,0-3.635-.57,3.61,3.61,0,0,0-2.214,2,4.457,4.457,0,0,0-.14,3.218Z" transform="translate(1.665 3.18)" fill="#2400ff" stroke="#2400ff" stroke-width="0.4"/>
            <path id="Tracé_1116" data-name="Tracé 1116" d="M218.485,296.862l2.13-.975.866,1.889a6.557,6.557,0,0,1,1.231-2.594,5.87,5.87,0,0,1,2.116-1.586q2.834-1.3,4.734.223a7.719,7.719,0,0,1,1.96,2.84l3.914,8.545-2.273,1.041-3.843-8.39a5,5,0,0,0-1.263-1.8,2.4,2.4,0,0,0-2.732-.252,4.846,4.846,0,0,0-1.231.76,3.7,3.7,0,0,0-1.116,1.83,3.622,3.622,0,0,0-.1,1.7,10.076,10.076,0,0,0,.756,2.082l3.194,6.974-2.242,1.026Z" transform="translate(1.796 3.18)" fill="#2400ff" stroke="#2400ff" stroke-width="0.4"/>
            <path id="Tracé_1115" data-name="Tracé 1115" d="M234.661,287.258a5.928,5.928,0,0,1,3.793-.918,5.352,5.352,0,0,1,3.434,2.45l-1.92,1.12a4.1,4.1,0,0,0-1.852-1.337,2.927,2.927,0,0,0-2.426.451,3.21,3.21,0,0,0-1.62,3.414,8.472,8.472,0,0,0,1.19,3.257,6.426,6.426,0,0,0,2.477,2.537,3.343,3.343,0,0,0,4.561-2.045,4.782,4.782,0,0,0-.206-2.635l1.92-1.119a5.366,5.366,0,0,1-2.39,7.418,5.2,5.2,0,0,1-4.658.458,7.459,7.459,0,0,1-3.823-3.407,8.2,8.2,0,0,1-1.306-5.693,5.62,5.62,0,0,1,2.826-3.95Z" transform="translate(1.881 3.18)" fill="#2400ff" stroke="#2400ff" stroke-width="0.4"/>
            <path id="Tracé_1114" data-name="Tracé 1114" d="M247.591,279.508a6.441,6.441,0,0,1,2.771-1.144,5.373,5.373,0,0,1,2.815.217,6.3,6.3,0,0,1,2.233,1.457,16.3,16.3,0,0,1,2,2.39l-8.37,6.087a6.039,6.039,0,0,0,2.848,2.19,3.4,3.4,0,0,0,3.142-.678,3.8,3.8,0,0,0,1.677-2.736,4.134,4.134,0,0,0-.241-1.863l1.887-1.372a4.915,4.915,0,0,1,.518,1.76,6.166,6.166,0,0,1-.025,1.95,5.53,5.53,0,0,1-1.324,2.728,8.129,8.129,0,0,1-1.444,1.31,5.946,5.946,0,0,1-4.742,1.079,7.464,7.464,0,0,1-4.642-3.267,8.115,8.115,0,0,1-1.757-5.553,6.089,6.089,0,0,1,2.654-4.555Zm6.733,2.83a6.148,6.148,0,0,0-1.994-1.6,3.446,3.446,0,0,0-3.641.53,3.61,3.61,0,0,0-1.524,2.567,4.457,4.457,0,0,0,.817,3.116Z" transform="translate(1.995 3.18)" fill="#2400ff" stroke="#2400ff" stroke-width="0.4"/>
            <path id="Tracé_1112" data-name="Tracé 1112" d="M266.516,268.958a2.747,2.747,0,0,1,.8,2.012,2.926,2.926,0,0,1-2.932,2.751,2.747,2.747,0,0,1-1.959-.93,2.7,2.7,0,0,1-.794-2.005,2.966,2.966,0,0,1,2.934-2.751,2.7,2.7,0,0,1,1.947.923Z" transform="translate(2.522 3.18)" fill="#2400ff" stroke="#2400ff" stroke-width="0.4"/>
            <path id="Tracé_1110" data-name="Tracé 1110" d="M281.853,255.394l-8.5-3.086,4.693,7.806Zm-11.6-3.822,1.863-2.308,19.48,6.7-1.8,2.236-5.746-2.115-4.81,5.96,3.2,5.273-1.686,2.089Z" transform="translate(2.522 2.617)" fill="#2400ff" stroke="#2400ff" stroke-width="0.4"/>
            <path id="Tracé_1109" data-name="Tracé 1109" d="M283.577,241.1a4.956,4.956,0,0,1,2.167-1.929,6.273,6.273,0,0,1,1.8-.415l-1.444-.923,1.137-1.78,10.423,6.663a9.119,9.119,0,0,1,3.034,2.844q1.567,2.689-.56,6.015a6.587,6.587,0,0,1-2.818,2.583,3.837,3.837,0,0,1-3.5-.245l1.251-1.958a2.586,2.586,0,0,0,1.546.2,3.366,3.366,0,0,0,1.955-1.644q1.415-2.214.29-3.9a10.439,10.439,0,0,0-3.047-2.474,4.484,4.484,0,0,1,.417,2.224,5.925,5.925,0,0,1-4.347,4.839q-2.216.55-5.265-1.4a7.854,7.854,0,0,1-3.594-4.278,5.162,5.162,0,0,1,.557-4.43Zm8.1.295a5.669,5.669,0,0,0-3.715-1.139,3.335,3.335,0,0,0-2.456,1.579,3.276,3.276,0,0,0,.126,4,8.861,8.861,0,0,0,2.409,2.1,5.611,5.611,0,0,0,3.451,1.1,3.012,3.012,0,0,0,2.361-1.466,3.52,3.52,0,0,0,0-4.117,7.166,7.166,0,0,0-2.17-2.051Z" transform="translate(2.522 2.464)" fill="#2400ff" stroke="#2400ff" stroke-width="0.4"/>
            <path id="Tracé_1108" data-name="Tracé 1108" d="M292.256,226.756a6.44,6.44,0,0,1,1.93-2.294,5.373,5.373,0,0,1,2.6-1.107,6.3,6.3,0,0,1,2.654.262,16.3,16.3,0,0,1,2.875,1.2l-4.615,9.262a6.039,6.039,0,0,0,3.537.629,3.4,3.4,0,0,0,2.474-2.052,3.8,3.8,0,0,0,.226-3.2,4.133,4.133,0,0,0-1.074-1.54l1.04-2.089a4.915,4.915,0,0,1,1.273,1.322,6.167,6.167,0,0,1,.877,1.741,5.53,5.53,0,0,1,.085,3.032,8.13,8.13,0,0,1-.677,1.828,5.946,5.946,0,0,1-3.708,3.145,7.464,7.464,0,0,1-5.627-.756A8.115,8.115,0,0,1,292,232.02a6.089,6.089,0,0,1,.252-5.264Zm7.279-.6a6.148,6.148,0,0,0-2.506-.5,3.446,3.446,0,0,0-2.986,2.15,3.61,3.61,0,0,0-.167,2.98,4.457,4.457,0,0,0,2.162,2.388Z" transform="translate(2.522 2.296)" fill="#2400ff" stroke="#2400ff" stroke-width="0.4"/>
            <path id="Tracé_1107" data-name="Tracé 1107" d="M296.995,218.528l.83-2.19,1.943.735a6.557,6.557,0,0,1-.947-2.711,5.87,5.87,0,0,1,.39-2.615q1.105-2.915,3.525-3.168a7.719,7.719,0,0,1,3.392.643l8.789,3.329-.886,2.338-8.63-3.27a5,5,0,0,0-2.162-.39,2.4,2.4,0,0,0-2.12,1.74,4.845,4.845,0,0,0-.343,1.406,3.7,3.7,0,0,0,.493,2.087,3.622,3.622,0,0,0,1.12,1.28,10.079,10.079,0,0,0,2,.95l7.173,2.717-.873,2.306Z" transform="translate(2.522 2.153)" fill="#2400ff" stroke="#2400ff" stroke-width="0.4"/>
            <path id="Tracé_1106" data-name="Tracé 1106" d="M301.75,200.332a5.928,5.928,0,0,1,2.053-3.319,5.352,5.352,0,0,1,4.165-.672l-.578,2.146a4.1,4.1,0,0,0-2.258.351,2.927,2.927,0,0,0-1.408,2.027,3.21,3.21,0,0,0,1.248,3.566,8.472,8.472,0,0,0,3.135,1.48,6.426,6.426,0,0,0,3.546.063,3.342,3.342,0,0,0,1.806-4.661,4.782,4.782,0,0,0-2-1.729l.579-2.145a5.365,5.365,0,0,1,3.515,6.955,5.2,5.2,0,0,1-2.99,3.6,7.459,7.459,0,0,1-5.114.265,8.2,8.2,0,0,1-4.932-3.13,5.62,5.62,0,0,1-.767-4.8Z" transform="translate(2.522 2.006)" fill="#2400ff" stroke="#2400ff" stroke-width="0.4"/>
            <path id="Tracé_1105" data-name="Tracé 1105" d="M305.491,185.734a6.441,6.441,0,0,1,1.165-2.763,5.373,5.373,0,0,1,2.154-1.826,6.3,6.3,0,0,1,2.612-.535,16.3,16.3,0,0,1,3.1.292l-1.667,10.214a6.04,6.04,0,0,0,3.565-.447,3.4,3.4,0,0,0,1.756-2.692,3.8,3.8,0,0,0-.732-3.125,4.133,4.133,0,0,0-1.482-1.154l.376-2.3a4.915,4.915,0,0,1,1.606.886,6.166,6.166,0,0,1,1.354,1.4,5.53,5.53,0,0,1,.979,2.871,8.13,8.13,0,0,1-.1,1.947,5.946,5.946,0,0,1-2.612,4.1,7.464,7.464,0,0,1-5.6.944,8.115,8.115,0,0,1-5.155-2.711,6.09,6.09,0,0,1-1.318-5.1Zm6.777-2.725a6.148,6.148,0,0,0-2.541.266,3.446,3.446,0,0,0-2.216,2.938,3.61,3.61,0,0,0,.723,2.9,4.457,4.457,0,0,0,2.772,1.64Z" transform="translate(2.522 1.85)" fill="#2400ff" stroke="#2400ff" stroke-width="0.4"/>
            <path id="Tracé_1103" data-name="Tracé 1103" d="M311.506,164.914a2.747,2.747,0,0,1,1.988.863,2.923,2.923,0,0,1-.145,4.016,2.747,2.747,0,0,1-2.045.72,2.7,2.7,0,0,1-1.976-.864,2.965,2.965,0,0,1,.146-4.02,2.7,2.7,0,0,1,2.032-.715Z" transform="translate(2.522 1.649)" fill="#2400ff" stroke="#2400ff" stroke-width="0.4"/>
            <path id="Tracé_1101" data-name="Tracé 1101" d="M312.867,144.5l-8.217,3.79,8.83,2.246Zm-10.937,5.446-.3-2.95,18.56-8.949.29,2.86-5.572,2.54.774,7.622,5.982,1.5.272,2.671Z" transform="translate(2.522 1.431)" fill="#2400ff" stroke="#2400ff" stroke-width="0.4"/>
            <path id="Tracé_1100" data-name="Tracé 1100" d="M304.062,133.135a4.956,4.956,0,0,1,.184-2.9,6.273,6.273,0,0,1,.99-1.562l-1.676.36-.443-2.066,12.1-2.592a9.119,9.119,0,0,1,4.156-.111q3.005.81,3.832,4.67a6.587,6.587,0,0,1-.188,3.819,3.837,3.837,0,0,1-2.663,2.29l-.487-2.273a2.586,2.586,0,0,0,1.242-.94,3.366,3.366,0,0,0,.234-2.544q-.55-2.57-2.533-2.976a10.439,10.439,0,0,0-3.907.383,4.484,4.484,0,0,1,1.86,1.29,5.921,5.921,0,0,1,.311,6.5q-1.188,1.95-4.726,2.708a7.854,7.854,0,0,1-5.563-.515,5.162,5.162,0,0,1-2.72-3.541Zm5.965-5.485a5.669,5.669,0,0,0-3.443,1.8,3.335,3.335,0,0,0-.636,2.85,3.276,3.276,0,0,0,2.9,2.753,8.861,8.861,0,0,0,3.188-.2,5.611,5.611,0,0,0,3.227-1.645,3.012,3.012,0,0,0,.648-2.7,3.52,3.52,0,0,0-2.9-2.924,7.166,7.166,0,0,0-2.984.068Z" transform="translate(2.522 1.269)" fill="#2400ff" stroke="#2400ff" stroke-width="0.4"/>
            <path id="Tracé_1099" data-name="Tracé 1099" d="M300.13,116.818a6.443,6.443,0,0,1-.242-2.988,5.374,5.374,0,0,1,1.067-2.615,6.3,6.3,0,0,1,2.07-1.682,16.3,16.3,0,0,1,2.887-1.173l3.24,9.832a6.04,6.04,0,0,0,2.955-2.043,3.4,3.4,0,0,0,.315-3.2,3.8,3.8,0,0,0-2.093-2.434,4.134,4.134,0,0,0-1.847-.34l-.73-2.216a4.916,4.916,0,0,1,1.834.045,6.167,6.167,0,0,1,1.85.62,5.531,5.531,0,0,1,2.193,2.1,8.131,8.131,0,0,1,.806,1.775,5.947,5.947,0,0,1-.422,4.846,7.466,7.466,0,0,1-4.53,3.423,8.117,8.117,0,0,1-5.826-.025,6.09,6.09,0,0,1-3.526-3.92Zm4.754-5.546a6.15,6.15,0,0,0-2.131,1.41,3.447,3.447,0,0,0-.61,3.63,3.61,3.61,0,0,0,1.98,2.235,4.458,4.458,0,0,0,3.217.175Z" transform="translate(2.522 1.102)" fill="#2400ff" stroke="#2400ff" stroke-width="0.4"/>
            <path id="Tracé_1098" data-name="Tracé 1098" d="M297.708,107.656l-.954-2.142,1.9-.846a6.56,6.56,0,0,1-2.583-1.26,5.873,5.873,0,0,1-1.565-2.133q-1.268-2.849.273-4.733a7.723,7.723,0,0,1,2.864-1.933l8.59-3.825,1.017,2.285-8.435,3.757A5,5,0,0,0,297,98.07a2.4,2.4,0,0,0-.28,2.731,4.847,4.847,0,0,0,.746,1.24,3.7,3.7,0,0,0,1.82,1.136,3.624,3.624,0,0,0,1.7.12,10.081,10.081,0,0,0,2.091-.733l7.01-3.122,1,2.254Z" transform="translate(2.522 0.937)" fill="#2400ff" stroke="#2400ff" stroke-width="0.4"/>
            <path id="Tracé_1097" data-name="Tracé 1097" d="M288.286,91.375a5.928,5.928,0,0,1-.878-3.8,5.352,5.352,0,0,1,2.488-3.408l1.1,1.931a4.1,4.1,0,0,0-1.357,1.838,2.927,2.927,0,0,0,.425,2.43,3.21,3.21,0,0,0,3.4,1.658,8.472,8.472,0,0,0,3.27-1.155,6.426,6.426,0,0,0,2.564-2.45,3.344,3.344,0,0,0-2-4.583,4.782,4.782,0,0,0-2.637.178l-1.1-1.931a5.365,5.365,0,0,1,7.392,2.468,5.2,5.2,0,0,1,.409,4.663A7.459,7.459,0,0,1,297.913,93a8.2,8.2,0,0,1-5.707,1.244,5.62,5.62,0,0,1-3.92-2.868Z" transform="translate(2.522 0.829)" fill="#2400ff" stroke="#2400ff" stroke-width="0.4"/>
            <path id="Tracé_1096" data-name="Tracé 1096" d="M280.67,78.359a6.441,6.441,0,0,1-1.114-2.784,5.373,5.373,0,0,1,.247-2.812,6.3,6.3,0,0,1,1.48-2.218,16.3,16.3,0,0,1,2.41-1.973l6,8.433a6.039,6.039,0,0,0,2.22-2.824,3.4,3.4,0,0,0-.645-3.15,3.8,3.8,0,0,0-2.718-1.706,4.133,4.133,0,0,0-1.865.222l-1.352-1.9a4.915,4.915,0,0,1,1.765-.5,6.166,6.166,0,0,1,1.95.046,5.53,5.53,0,0,1,2.714,1.353A8.13,8.13,0,0,1,293.056,70a5.946,5.946,0,0,1,1.028,4.753,7.464,7.464,0,0,1-3.316,4.608,8.115,8.115,0,0,1-5.572,1.7,6.089,6.089,0,0,1-4.525-2.7Zm2.9-6.7a6.148,6.148,0,0,0-1.62,1.977,3.446,3.446,0,0,0,.491,3.647,3.61,3.61,0,0,0,2.551,1.55,4.457,4.457,0,0,0,3.125-.783Z" transform="translate(2.522 0.683)" fill="#2400ff" stroke="#2400ff" stroke-width="0.4"/>
            <path id="Tracé_1094" data-name="Tracé 1094" d="M270.313,59.321a2.748,2.748,0,0,1,2.021-.783,2.926,2.926,0,0,1,2.721,2.961,2.748,2.748,0,0,1-.95,1.95,2.7,2.7,0,0,1-2.014.774,2.968,2.968,0,0,1-2.722-2.964,2.7,2.7,0,0,1,.944-1.938Z" transform="translate(2.522)" fill="#2400ff" stroke="#2400ff" stroke-width="0.4"/>
            <path id="Tracé_1092" data-name="Tracé 1092" d="M256.913,43.847,253.74,52.32l7.855-4.614Zm-3.94,11.565-2.29-1.887,6.9-19.414,2.218,1.827-2.173,5.725,5.911,4.872,5.306-3.143,2.072,1.708Z" transform="translate(2.084)" fill="#2400ff" stroke="#2400ff" stroke-width="0.4"/>
            <path id="Tracé_1091" data-name="Tracé 1091" d="M242.651,41.977a4.958,4.958,0,0,1-1.906-2.19,6.276,6.276,0,0,1-.4-1.806l-.94,1.434-1.767-1.157L244.421,27.9a9.123,9.123,0,0,1,2.879-3q2.707-1.538,6.012.626a6.59,6.59,0,0,1,2.553,2.848,3.839,3.839,0,0,1-.284,3.5L253.636,30.6a2.587,2.587,0,0,0,.222-1.544,3.367,3.367,0,0,0-1.623-1.974q-2.2-1.44-3.9-.333a10.444,10.444,0,0,0-2.508,3.021,4.486,4.486,0,0,1,2.23-.392,5.926,5.926,0,0,1,4.792,4.4q.526,2.224-1.457,5.252a7.857,7.857,0,0,1-4.318,3.548,5.164,5.164,0,0,1-4.426-.605Zm.384-8.1a5.671,5.671,0,0,0-1.18,3.7,3.336,3.336,0,0,0,1.552,2.475,3.277,3.277,0,0,0,4-.084,8.865,8.865,0,0,0,2.126-2.386,5.613,5.613,0,0,0,1.137-3.44,3.013,3.013,0,0,0-1.44-2.379,3.522,3.522,0,0,0-4.12-.04,7.17,7.17,0,0,0-2.075,2.15Z" transform="translate(1.964)" fill="#2400ff" stroke="#2400ff" stroke-width="0.4"/>
            <path id="Tracé_1090" data-name="Tracé 1090" d="M228.4,33.143a6.441,6.441,0,0,1-2.273-1.955,5.373,5.373,0,0,1-1.079-2.61,6.3,6.3,0,0,1,.29-2.65,16.3,16.3,0,0,1,1.229-2.863l9.213,4.715a6.039,6.039,0,0,0,.666-3.53,3.4,3.4,0,0,0-2.025-2.5,3.8,3.8,0,0,0-3.2-.26,4.133,4.133,0,0,0-1.552,1.057l-2.077-1.062a4.915,4.915,0,0,1,1.336-1.258,6.166,6.166,0,0,1,1.75-.859,5.53,5.53,0,0,1,3.033-.052,8.13,8.13,0,0,1,1.82.7,5.946,5.946,0,0,1,3.106,3.742,7.464,7.464,0,0,1-.816,5.618,8.115,8.115,0,0,1-4.16,4.077,6.089,6.089,0,0,1-5.262-.31Zm-.518-7.285a6.148,6.148,0,0,0-.525,2.5,3.446,3.446,0,0,0,2.118,3.01,3.61,3.61,0,0,0,2.979.2,4.457,4.457,0,0,0,2.41-2.136Z" transform="translate(1.831)" fill="#2400ff" stroke="#2400ff" stroke-width="0.4"/>
            <path id="Tracé_1089" data-name="Tracé 1089" d="M220.225,28.31l-2.181-.853.756-1.935a6.555,6.555,0,0,1-2.72.918,5.868,5.868,0,0,1-2.61-.418q-2.9-1.135-3.129-3.557a7.716,7.716,0,0,1,.679-3.384l3.42-8.75,2.328.91-3.359,8.593A5,5,0,0,0,213,21.99a2.4,2.4,0,0,0,1.717,2.139,4.842,4.842,0,0,0,1.4.357,3.7,3.7,0,0,0,2.091-.47A3.62,3.62,0,0,0,219.5,22.91a10.072,10.072,0,0,0,.971-1.99l2.792-7.14,2.3.9Z" transform="translate(1.719)" fill="#2400ff" stroke="#2400ff" stroke-width="0.4"/>
            <path id="Tracé_1088" data-name="Tracé 1088" d="M202.093,23.366a5.928,5.928,0,0,1-3.3-2.087,5.352,5.352,0,0,1-.626-4.173l2.139.6a4.1,4.1,0,0,0,.326,2.26,2.927,2.927,0,0,0,2.011,1.43,3.21,3.21,0,0,0,3.58-1.208,8.472,8.472,0,0,0,1.515-3.12,6.426,6.426,0,0,0,.1-3.544,3.343,3.343,0,0,0-4.64-1.857,4.782,4.782,0,0,0-1.75,1.98l-2.14-.6a5.963,5.963,0,0,1,2.9-3.293,5.941,5.941,0,0,1,4.093-.147,5.2,5.2,0,0,1,3.568,3.03,7.459,7.459,0,0,1,.21,5.116,8.2,8.2,0,0,1-3.185,4.9A5.62,5.62,0,0,1,202.093,23.366Z" transform="translate(1.603)" fill="#2400ff" stroke="#2400ff" stroke-width="0.4"/>
            <path id="Tracé_1087" data-name="Tracé 1087" d="M187.527,19.466a6.44,6.44,0,0,1-2.75-1.192,5.372,5.372,0,0,1-1.8-2.171,6.3,6.3,0,0,1-.508-2.617,16.3,16.3,0,0,1,.323-3.1l10.194,1.77a6.037,6.037,0,0,0-.41-3.568A3.4,3.4,0,0,0,189.9,6.807a3.8,3.8,0,0,0-3.131.7,4.132,4.132,0,0,0-1.168,1.47l-2.3-.4a4.914,4.914,0,0,1,.9-1.6,6.164,6.164,0,0,1,1.416-1.339,5.529,5.529,0,0,1,2.88-.949,8.128,8.128,0,0,1,1.945.125,5.944,5.944,0,0,1,4.074,2.652,7.462,7.462,0,0,1,.887,5.606,8.113,8.113,0,0,1-2.763,5.125,6.087,6.087,0,0,1-5.115,1.265Zm-2.655-6.8a6.146,6.146,0,0,0,.24,2.543,3.445,3.445,0,0,0,2.914,2.245,3.609,3.609,0,0,0,2.9-.694A4.456,4.456,0,0,0,192.6,14Z" transform="translate(1.48)" fill="#2400ff" stroke="#2400ff" stroke-width="0.4"/>
            <path id="Tracé_1085" data-name="Tracé 1085" d="M166.765,13.23a2.748,2.748,0,0,1,.885-1.98,2.929,2.929,0,0,1,4.017.189,2.748,2.748,0,0,1,.7,2.054,2.7,2.7,0,0,1-.886,1.967,2.968,2.968,0,0,1-4.019-.19,2.7,2.7,0,0,1-.694-2.04Z" transform="translate(1.32)" fill="#2400ff" stroke="#2400ff" stroke-width="0.4"/>
            <path id="Tracé_1083" data-name="Tracé 1083" d="M146.4,11.648l3.7,8.257,2.344-8.8Zm5.326,11-2.954.267L140.035,4.254,142.9,4l2.478,5.6,7.63-.689,1.565-5.965,2.675-.242Z" transform="translate(1.149)" fill="#2400ff" stroke="#2400ff" stroke-width="0.4"/>
            <path id="Tracé_1082" data-name="Tracé 1082" d="M134.948,20.333a4.956,4.956,0,0,1-2.893-.216,6.273,6.273,0,0,1-1.552-1.006l.341,1.68-2.07.42L126.313,9.088a9.119,9.119,0,0,1-.067-4.158q.843-3,4.712-3.78a6.587,6.587,0,0,1,3.816.228,3.837,3.837,0,0,1,2.26,2.688l-2.277.463a2.586,2.586,0,0,0-.927-1.253,3.366,3.366,0,0,0-2.541-.261q-2.576.523-3,2.5a10.439,10.439,0,0,0,.34,3.91,4.484,4.484,0,0,1,1.31-1.846,5.922,5.922,0,0,1,6.5-.241q1.937,1.21,2.657,4.755a7.854,7.854,0,0,1-.575,5.558,5.162,5.162,0,0,1-3.57,2.68Zm-5.42-6.024a5.669,5.669,0,0,0,1.765,3.462,3.335,3.335,0,0,0,2.843.667,3.276,3.276,0,0,0,2.784-2.872,8.861,8.861,0,0,0-.167-3.19,5.611,5.611,0,0,0-1.61-3.244,3.012,3.012,0,0,0-2.7-.677,3.52,3.52,0,0,0-2.955,2.867,7.166,7.166,0,0,0,.036,2.986Z" transform="translate(1.021)" fill="#2400ff" stroke="#2400ff" stroke-width="0.4"/>
            <path id="Tracé_1081" data-name="Tracé 1081" d="M118.593,24.078a6.441,6.441,0,0,1-2.991.21,5.373,5.373,0,0,1-2.6-1.1,6.3,6.3,0,0,1-1.659-2.088,16.3,16.3,0,0,1-1.141-2.9l9.864-3.131a6.039,6.039,0,0,0-2.01-2.978,3.4,3.4,0,0,0-3.2-.35,3.8,3.8,0,0,0-2.456,2.067,4.133,4.133,0,0,0-.36,1.843l-2.223.706a4.915,4.915,0,0,1,.065-1.834,6.166,6.166,0,0,1,.64-1.842,5.53,5.53,0,0,1,2.118-2.17,8.13,8.13,0,0,1,1.784-.787,5.946,5.946,0,0,1,4.84.475,7.464,7.464,0,0,1,3.372,4.567,8.115,8.115,0,0,1-.089,5.824,6.089,6.089,0,0,1-3.956,3.482ZM113.1,19.265a6.148,6.148,0,0,0,1.386,2.146,3.446,3.446,0,0,0,3.622.65,3.61,3.61,0,0,0,2.257-1.955,4.457,4.457,0,0,0,.21-3.214Z" transform="translate(0.888)" fill="#2400ff" stroke="#2400ff" stroke-width="0.4"/>
            <path id="Tracé_1080" data-name="Tracé 1080" d="M109.4,26.4l-2.151.93-.825-1.908a6.558,6.558,0,0,1-1.287,2.568,5.871,5.871,0,0,1-2.15,1.541q-2.86,1.238-4.728-.324a7.72,7.72,0,0,1-1.9-2.883L92.628,17.7l2.295-.993,3.663,8.473A5,5,0,0,0,99.811,27a2.4,2.4,0,0,0,2.727.31,4.845,4.845,0,0,0,1.247-.733,3.7,3.7,0,0,0,1.155-1.807,3.623,3.623,0,0,0,.14-1.695,10.079,10.079,0,0,0-.712-2.1l-3.045-7.041,2.264-.98Z" transform="translate(0.757)" fill="#2400ff" stroke="#2400ff" stroke-width="0.4"/>
            <path id="Tracé_1079" data-name="Tracé 1079" d="M93.02,35.651a5.93,5.93,0,0,1-3.813.836,5.354,5.354,0,0,1-3.383-2.526l1.945-1.077a4.1,4.1,0,0,0,1.824,1.377,2.928,2.928,0,0,0,2.436-.4,3.211,3.211,0,0,0,1.694-3.379A8.476,8.476,0,0,0,92.6,27.2a6.429,6.429,0,0,0-2.423-2.592,3.345,3.345,0,0,0-4.606,1.947,4.784,4.784,0,0,0,.149,2.64L83.78,30.272a5.966,5.966,0,0,1-.256-4.382,5.944,5.944,0,0,1,2.806-2.985A5.2,5.2,0,0,1,91,22.548a7.462,7.462,0,0,1,3.75,3.49,8.2,8.2,0,0,1,1.182,5.723,5.622,5.622,0,0,1-2.912,3.89Z" transform="translate(0.67)" fill="#2400ff" stroke="#2400ff" stroke-width="0.4"/>
            <path id="Tracé_1078" data-name="Tracé 1078" d="M79.915,43.12A6.441,6.441,0,0,1,77.12,44.2a5.373,5.373,0,0,1-2.81-.277,6.3,6.3,0,0,1-2.2-1.505,16.3,16.3,0,0,1-1.948-2.432l8.5-5.906a6.039,6.039,0,0,0-2.8-2.25,3.4,3.4,0,0,0-3.156.61,3.8,3.8,0,0,0-1.736,2.7,4.133,4.133,0,0,0,.2,1.867l-1.916,1.331a4.915,4.915,0,0,1-.48-1.77,6.166,6.166,0,0,1,.066-1.95,5.53,5.53,0,0,1,1.383-2.7,8.13,8.13,0,0,1,1.471-1.278,5.946,5.946,0,0,1,4.764-.977,7.464,7.464,0,0,1,4.572,3.366,8.115,8.115,0,0,1,1.636,5.59,6.089,6.089,0,0,1-2.75,4.5Zm-6.67-2.974a6.148,6.148,0,0,0,1.959,1.64,3.446,3.446,0,0,0,3.652-.45A3.61,3.61,0,0,0,80.434,38.8a4.457,4.457,0,0,0-.75-3.133Z" transform="translate(0.554)" fill="#2400ff" stroke="#2400ff" stroke-width="0.4"/>
            <path id="Tracé_1076" data-name="Tracé 1076" d="M60.777,53.27a2.75,2.75,0,0,1-.762-2.03,2.927,2.927,0,0,1,2.992-2.69,2.75,2.75,0,0,1,1.94.971,2.706,2.706,0,0,1,.753,2.023A2.971,2.971,0,0,1,62.7,54.235a2.706,2.706,0,0,1-1.928-.965Z" transform="translate(0.471)" fill="#2400ff" stroke="#2400ff" stroke-width="0.4"/>
            <path id="Tracé_1074" data-name="Tracé 1074" d="M45.154,66.494l8.438,3.265-4.528-7.9ZM56.675,70.56l-1.911,2.268L35.426,65.723l1.851-2.2,5.7,2.235L47.914,59.9l-3.085-5.34,1.73-2.053Z" transform="translate(0 0.544)" fill="#2400ff" stroke="#2400ff" stroke-width="0.4"/>
            <path id="Tracé_1073" data-name="Tracé 1073" d="M43.124,80.74a4.958,4.958,0,0,1-2.21,1.883A6.276,6.276,0,0,1,39.1,83l1.424.954-1.176,1.755-10.28-6.89a9.123,9.123,0,0,1-2.972-2.91q-1.509-2.723.69-6a6.59,6.59,0,0,1,2.876-2.522,3.839,3.839,0,0,1,3.5.321l-1.3,1.931a2.587,2.587,0,0,0-1.54-.238A3.367,3.367,0,0,0,28.337,71q-1.464,2.184-.375,3.891a10.443,10.443,0,0,0,2.993,2.542,4.486,4.486,0,0,1-.368-2.234,5.927,5.927,0,0,1,4.453-4.745q2.229-.5,5.235,1.513a7.857,7.857,0,0,1,3.5,4.357A5.164,5.164,0,0,1,43.124,80.74Zm-8.093-.47a5.671,5.671,0,0,0,3.69,1.22,3.336,3.336,0,0,0,2.492-1.526,3.277,3.277,0,0,0-.04-4,8.865,8.865,0,0,0-2.363-2.151,5.613,5.613,0,0,0-3.428-1.174,3.013,3.013,0,0,0-2.394,1.415,3.521,3.521,0,0,0-.084,4.118,7.169,7.169,0,0,0,2.126,2.1Z" transform="translate(0 0.694)" fill="#2400ff" stroke="#2400ff" stroke-width="0.4"/>
            <path id="Tracé_1072" data-name="Tracé 1072" d="M34.13,94.9a6.441,6.441,0,0,1-1.979,2.252,5.373,5.373,0,0,1-2.62,1.05,6.3,6.3,0,0,1-2.648-.32,16.3,16.3,0,0,1-2.85-1.258l4.815-9.161a6.039,6.039,0,0,0-3.522-.705,3.4,3.4,0,0,0-2.519,2,3.8,3.8,0,0,0-.294,3.2,4.133,4.133,0,0,0,1.04,1.563L22.467,95.58a4.915,4.915,0,0,1-1.243-1.349,6.166,6.166,0,0,1-.84-1.76,5.53,5.53,0,0,1-.019-3.033,8.13,8.13,0,0,1,.716-1.813,5.946,5.946,0,0,1,3.776-3.064,7.464,7.464,0,0,1,5.609.877,8.115,8.115,0,0,1,4.031,4.2,6.089,6.089,0,0,1-.366,5.258Zm-7.29.439a6.148,6.148,0,0,0,2.5.552,3.446,3.446,0,0,0,3.032-2.085A3.61,3.61,0,0,0,32.6,90.83a4.457,4.457,0,0,0-2.11-2.434Z" transform="translate(0 0.861)" fill="#2400ff" stroke="#2400ff" stroke-width="0.4"/>
            <path id="Tracé_1071" data-name="Tracé 1071" d="M29.222,103l-.878,2.173-1.926-.778a6.557,6.557,0,0,1,.887,2.73,5.87,5.87,0,0,1-.447,2.607q-1.168,2.89-3.593,3.09a7.719,7.719,0,0,1-3.378-.717l-8.713-3.52.936-2.318,8.557,3.457a5,5,0,0,0,2.153.438,2.4,2.4,0,0,0,2.158-1.694,4.844,4.844,0,0,0,.373-1.4,3.7,3.7,0,0,0-.447-2.1,3.622,3.622,0,0,0-1.091-1.3,10.077,10.077,0,0,0-1.98-.994L14.721,99.8l.924-2.286Z" transform="translate(0 1.002)" fill="#2400ff" stroke="#2400ff" stroke-width="0.4"/>
            <path id="Tracé_1070" data-name="Tracé 1070" d="M24.07,121.088a5.928,5.928,0,0,1-2.124,3.274,5.352,5.352,0,0,1-4.179.58l.625-2.132a4.1,4.1,0,0,0,2.265-.3,2.927,2.927,0,0,0,1.452-1.995,3.21,3.21,0,0,0-1.169-3.593,8.472,8.472,0,0,0-3.1-1.549,6.426,6.426,0,0,0-3.543-.14,3.345,3.345,0,0,0-1.908,4.62,4.782,4.782,0,0,0,1.96,1.773l-.624,2.132a5.963,5.963,0,0,1-3.26-2.936,5.941,5.941,0,0,1-.1-4.1,5.2,5.2,0,0,1,3.069-3.534,7.459,7.459,0,0,1,5.119-.152,8.2,8.2,0,0,1,4.86,3.237,5.62,5.62,0,0,1,.663,4.812Z" transform="translate(0 1.148)" fill="#2400ff" stroke="#2400ff" stroke-width="0.4"/>
            <path id="Tracé_1069" data-name="Tracé 1069" d="M20.01,135.623a6.441,6.441,0,0,1-1.225,2.737,5.373,5.373,0,0,1-2.192,1.78,6.3,6.3,0,0,1-2.623.479,16.3,16.3,0,0,1-3.094-.359l1.885-10.176a6.039,6.039,0,0,0-3.573.37,3.4,3.4,0,0,0-1.814,2.654,3.8,3.8,0,0,0,.665,3.14A4.133,4.133,0,0,0,9.5,137.433l-.425,2.294a4.915,4.915,0,0,1-1.586-.92,6.166,6.166,0,0,1-1.324-1.432,5.53,5.53,0,0,1-.916-2.892,8.13,8.13,0,0,1,.146-1.943,5.946,5.946,0,0,1,2.7-4.045,7.464,7.464,0,0,1,5.616-.824,8.115,8.115,0,0,1,5.1,2.822,6.089,6.089,0,0,1,1.207,5.13ZM13.176,138.2a6.148,6.148,0,0,0,2.546-.212A3.446,3.446,0,0,0,18,135.1a3.61,3.61,0,0,0-.66-2.91,4.457,4.457,0,0,0-2.737-1.7Z" transform="translate(0 1.303)" fill="#2400ff" stroke="#2400ff" stroke-width="0.4"/>
            <path id="Tracé_1067" data-name="Tracé 1067" d="M13.548,156.3a2.748,2.748,0,0,1-1.97-.906,2.927,2.927,0,0,1,.233-4.014,2.748,2.748,0,0,1,2.061-.675,2.705,2.705,0,0,1,1.957.907,2.966,2.966,0,0,1-.233,4.017,2.705,2.705,0,0,1-2.048.671Z" transform="translate(0 1.506)" fill="#2400ff" stroke="#2400ff" stroke-width="0.4"/>
            <path id="Tracé_1065" data-name="Tracé 1065" d="M11.748,176.688l8.3-3.609-8.777-2.44ZM22.8,171.482l.235,2.957-18.75,8.538-.227-2.865,5.626-2.417-.607-7.636-5.948-1.63-.212-2.676Z" transform="translate(0 1.72)" fill="#2400ff" stroke="#2400ff" stroke-width="0.4"/>
            <path id="Tracé_1064" data-name="Tracé 1064" d="M20.308,188.247a4.955,4.955,0,0,1-.248,2.89,6.272,6.272,0,0,1-1.023,1.54l1.683-.322.4,2.074L8.97,196.755a9.117,9.117,0,0,1-4.158.02q-2.985-.876-3.728-4.753a6.586,6.586,0,0,1,.272-3.813,3.836,3.836,0,0,1,2.713-2.23l.437,2.282a2.586,2.586,0,0,0-1.263.914,3.365,3.365,0,0,0-.29,2.537q.494,2.58,2.467,3.03a10.437,10.437,0,0,0,3.914-.3A4.483,4.483,0,0,1,7.5,193.115a5.922,5.922,0,0,1-.168-6.5q1.231-1.922,4.784-2.6a7.853,7.853,0,0,1,5.55.637,5.161,5.161,0,0,1,2.64,3.6ZM14.225,193.6a5.668,5.668,0,0,0,3.481-1.726,3.334,3.334,0,0,0,.7-2.834,3.275,3.275,0,0,0-2.84-2.816,8.86,8.86,0,0,0-3.19.132,5.61,5.61,0,0,0-3.262,1.574,3.011,3.011,0,0,0-.707,2.687,3.52,3.52,0,0,0,2.834,2.986,7.165,7.165,0,0,0,2.985,0Z" transform="translate(0 1.884)" fill="#2400ff" stroke="#2400ff" stroke-width="0.4"/>
            <path id="Tracé_1063" data-name="Tracé 1063" d="M23.88,204.63a6.441,6.441,0,0,1,.178,2.992,5.373,5.373,0,0,1-1.123,2.59,6.3,6.3,0,0,1-2.106,1.636,16.3,16.3,0,0,1-2.91,1.11l-3.025-9.9a6.039,6.039,0,0,0-3,1.978,3.4,3.4,0,0,0-.384,3.192,3.8,3.8,0,0,0,2.04,2.478,4.133,4.133,0,0,0,1.839.379l.681,2.231a4.915,4.915,0,0,1-1.832-.084,6.166,6.166,0,0,1-1.835-.66,5.53,5.53,0,0,1-2.148-2.141,8.13,8.13,0,0,1-.767-1.792,5.946,5.946,0,0,1,.527-4.835,7.464,7.464,0,0,1,4.6-3.323,8.115,8.115,0,0,1,5.822.151,6.089,6.089,0,0,1,3.44,3.994Zm-4.87,5.44a6.148,6.148,0,0,0,2.16-1.362,3.446,3.446,0,0,0,.688-3.615,3.61,3.61,0,0,0-1.93-2.278,4.457,4.457,0,0,0-3.212-.245Z" transform="translate(0 2.052)" fill="#2400ff" stroke="#2400ff" stroke-width="0.4"/>
            <path id="Tracé_1062" data-name="Tracé 1062" d="M26.1,213.849l.907,2.16-1.916.8a6.557,6.557,0,0,1,2.554,1.314,5.87,5.87,0,0,1,1.517,2.166q1.206,2.873-.375,4.723a7.718,7.718,0,0,1-2.9,1.87l-8.665,3.636-.968-2.3,8.51-3.571a5,5,0,0,0,1.836-1.205,2.4,2.4,0,0,0,.34-2.722,4.844,4.844,0,0,0-.72-1.255,3.7,3.7,0,0,0-1.794-1.174,3.622,3.622,0,0,0-1.693-.158,10.076,10.076,0,0,0-2.105.689l-7.072,2.968-.954-2.273Z" transform="translate(0 2.218)" fill="#2400ff" stroke="#2400ff" stroke-width="0.4"/>
            <path id="Tracé_1061" data-name="Tracé 1061" d="M35.178,230.337a5.928,5.928,0,0,1,.8,3.82,5.352,5.352,0,0,1-2.56,3.354l-1.057-1.955a4.1,4.1,0,0,0,1.4-1.808,2.927,2.927,0,0,0-.373-2.44,3.21,3.21,0,0,0-3.36-1.73,8.472,8.472,0,0,0-3.293,1.084,6.426,6.426,0,0,0-2.616,2.4,3.343,3.343,0,0,0,1.9,4.624,4.782,4.782,0,0,0,2.64-.12l1.057,1.954a5.963,5.963,0,0,1-4.383.209,5.941,5.941,0,0,1-2.954-2.837,5.2,5.2,0,0,1-.307-4.67,7.459,7.459,0,0,1,3.529-3.711,8.2,8.2,0,0,1,5.732-1.121,5.62,5.62,0,0,1,3.857,2.952Z" transform="translate(0 2.328)" fill="#2400ff" stroke="#2400ff" stroke-width="0.4"/>
            <path id="Tracé_1060" data-name="Tracé 1060" d="M42.5,243.5a6.441,6.441,0,0,1,1.054,2.807,5.373,5.373,0,0,1-.307,2.807,6.3,6.3,0,0,1-1.528,2.185,16.3,16.3,0,0,1-2.453,1.92l-5.814-8.56a6.039,6.039,0,0,0-2.28,2.775,3.4,3.4,0,0,0,.576,3.163,3.8,3.8,0,0,0,2.68,1.765,4.133,4.133,0,0,0,1.87-.182l1.31,1.93a4.915,4.915,0,0,1-1.775.461,6.165,6.165,0,0,1-1.948-.087,5.53,5.53,0,0,1-2.685-1.412,8.131,8.131,0,0,1-1.263-1.485,5.946,5.946,0,0,1-.925-4.774,7.464,7.464,0,0,1,3.415-4.535,8.115,8.115,0,0,1,5.607-1.577,6.089,6.089,0,0,1,4.466,2.8Zm-3.045,6.638a6.148,6.148,0,0,0,1.661-1.94,3.446,3.446,0,0,0-.411-3.657,3.61,3.61,0,0,0-2.517-1.605,4.457,4.457,0,0,0-3.14.715Z" transform="translate(0 2.476)" fill="#2400ff" stroke="#2400ff" stroke-width="0.4"/>
            <path id="Tracé_1058" data-name="Tracé 1058" d="M52.45,262.752a2.75,2.75,0,0,1-2.04.74,2.928,2.928,0,0,1-2.657-3.02,2.75,2.75,0,0,1,.992-1.93,2.706,2.706,0,0,1,2.03-.73,2.967,2.967,0,0,1,2.66,3.023,2.706,2.706,0,0,1-.986,1.917Z" transform="translate(0 2.583)" fill="#2400ff" stroke="#2400ff" stroke-width="0.4"/>
            <path id="Tracé_1056" data-name="Tracé 1056" d="M65.517,278.519l3.35-8.4-7.949,4.447ZM69.7,267.042l2.249,1.934-7.3,19.262-2.179-1.874,2.293-5.677-5.806-4.994-5.37,3.03-2.036-1.751Z" transform="translate(0.423 3.18)" fill="#2400ff" stroke="#2400ff" stroke-width="0.4"/>
            <path id="Tracé_1055" data-name="Tracé 1055" d="M79.735,280.7a4.956,4.956,0,0,1,1.859,2.229,6.273,6.273,0,0,1,.356,1.814l.97-1.414,1.741,1.2-6.994,10.2a9.119,9.119,0,0,1-2.94,2.941q-2.738,1.48-5.994-.753a6.587,6.587,0,0,1-2.49-2.9,3.837,3.837,0,0,1,.357-3.494l1.916,1.314a2.586,2.586,0,0,0-.254,1.538,3.366,3.366,0,0,0,1.58,2.007q2.168,1.486,3.886.415a10.438,10.438,0,0,0,2.571-2.965,4.484,4.484,0,0,1-2.236.344,5.923,5.923,0,0,1-4.7-4.5q-.479-2.233,1.567-5.217A7.854,7.854,0,0,1,75.325,280a5.162,5.162,0,0,1,4.41.7Zm-.555,8.085a5.669,5.669,0,0,0,1.258-3.677,3.335,3.335,0,0,0-1.5-2.5,3.276,3.276,0,0,0-4,0,8.861,8.861,0,0,0-2.174,2.339,5.611,5.611,0,0,0-1.21,3.414,3.012,3.012,0,0,0,1.39,2.408,3.52,3.52,0,0,0,4.115.127,7.166,7.166,0,0,0,2.119-2.1Z" transform="translate(0.54 3.18)" fill="#2400ff" stroke="#2400ff" stroke-width="0.4"/>
            <path id="Tracé_1054" data-name="Tracé 1054" d="M93.788,289.835a6.441,6.441,0,0,1,2.23,2,5.373,5.373,0,0,1,1.022,2.632,6.3,6.3,0,0,1-.348,2.643,16.3,16.3,0,0,1-1.29,2.836l-9.108-4.913a6.039,6.039,0,0,0-.743,3.515,3.4,3.4,0,0,0,1.97,2.54,3.8,3.8,0,0,0,3.193.329,4.133,4.133,0,0,0,1.575-1.024l2.053,1.108a4.916,4.916,0,0,1-1.362,1.228,6.166,6.166,0,0,1-1.769.821,5.53,5.53,0,0,1-3.033-.013,8.13,8.13,0,0,1-1.806-.736A5.946,5.946,0,0,1,83.349,299a7.464,7.464,0,0,1,.938-5.6,8.115,8.115,0,0,1,4.247-3.985,6.089,6.089,0,0,1,5.254.423Zm.36,7.294a6.148,6.148,0,0,0,.579-2.488,3.446,3.446,0,0,0-2.052-3.054,3.61,3.61,0,0,0-2.974-.264,4.457,4.457,0,0,0-2.456,2.084Z" transform="translate(0.672 3.18)" fill="#2400ff" stroke="#2400ff" stroke-width="0.4"/>
            <path id="Tracé_1053" data-name="Tracé 1053" d="M101.852,294.837l2.163.9-.8,1.919a6.557,6.557,0,0,1,2.74-.859,5.87,5.87,0,0,1,2.6.476q2.877,1.2,3.052,3.626a7.719,7.719,0,0,1-.754,3.369l-3.613,8.676-2.308-.961,3.548-8.52a5,5,0,0,0,.462-2.148,2.4,2.4,0,0,0-1.671-2.176,4.845,4.845,0,0,0-1.394-.388,3.7,3.7,0,0,0-2.1.424,3.622,3.622,0,0,0-1.315,1.077,10.076,10.076,0,0,0-1.015,1.97L98.5,309.3l-2.276-.948Z" transform="translate(0.783 3.18)" fill="#2400ff" stroke="#2400ff" stroke-width="0.4"/>
            <path id="Tracé_1052" data-name="Tracé 1052" d="M119.893,300.188a5.928,5.928,0,0,1,3.25,2.159,5.352,5.352,0,0,1,.537,4.185l-2.126-.648a4.1,4.1,0,0,0-.278-2.268,2.927,2.927,0,0,0-1.979-1.473,3.21,3.21,0,0,0-3.605,1.13,8.472,8.472,0,0,0-1.582,3.087,6.426,6.426,0,0,0-.178,3.542,3.344,3.344,0,0,0,4.6,1.956,4.782,4.782,0,0,0,1.793-1.941l2.125.648a5.365,5.365,0,0,1-7.066,3.287,5.2,5.2,0,0,1-3.5-3.106,7.459,7.459,0,0,1-.1-5.12,8.2,8.2,0,0,1,3.29-4.827,5.62,5.62,0,0,1,4.818-.611Z" transform="translate(0.899 3.18)" fill="#2400ff" stroke="#2400ff" stroke-width="0.4"/>
            <path id="Tracé_1051" data-name="Tracé 1051" d="M134.364,304.4a6.441,6.441,0,0,1,2.723,1.253,5.373,5.373,0,0,1,1.756,2.211,6.3,6.3,0,0,1,.45,2.628,16.3,16.3,0,0,1-.391,3.09l-10.155-1.994a6.039,6.039,0,0,0,.332,3.577,3.4,3.4,0,0,0,2.634,1.842,3.8,3.8,0,0,0,3.147-.631,4.133,4.133,0,0,0,1.2-1.444l2.29.45a4.915,4.915,0,0,1-.938,1.577,6.166,6.166,0,0,1-1.446,1.307,5.53,5.53,0,0,1-2.9.886,8.13,8.13,0,0,1-1.942-.168,5.946,5.946,0,0,1-4.016-2.742,7.464,7.464,0,0,1-.763-5.626,8.115,8.115,0,0,1,2.876-5.064,6.089,6.089,0,0,1,5.144-1.152Zm2.5,6.86a6.148,6.148,0,0,0-.184-2.548,3.446,3.446,0,0,0-2.864-2.31,3.61,3.61,0,0,0-2.918.63,4.457,4.457,0,0,0-1.73,2.717Z" transform="translate(1.021 3.18)" fill="#2400ff" stroke="#2400ff" stroke-width="0.4"/>
            <path id="Tracé_1049" data-name="Tracé 1049" d="M154.978,311.078a2.749,2.749,0,0,1-.927,1.96,2.926,2.926,0,0,1-4.013-.274,2.749,2.749,0,0,1-.654-2.069,2.706,2.706,0,0,1,.928-1.948,2.969,2.969,0,0,1,4.016.275,2.706,2.706,0,0,1,.65,2.056Z" transform="translate(1.182 3.18)" fill="#2400ff" stroke="#2400ff" stroke-width="0.4"/>
            <circle id="Ellipse_67" data-name="Ellipse 67" cx="167.5" cy="167.5" r="167.5" transform="translate(-4.164 -4.03)" fill="none" opacity="0"/>
        </g>
        <path id="Tracé_21" data-name="Tracé 21" d="M247.381,159.041c-6.5-6.247-15.423-9.316-25.054-9.39-17.536-.134-32.735,10.157-35.181,31.307H174.96V121.689H160.543v59.27H131.25c-12.271,0-19.929,5.351-19.929,13.052V121.689H96.9V223.626h14.417c0-24.775,2.439-30.582,17.878-30.582h31.344v30.582H174.96V193.045h12.169c2.385,21.262,17.617,31.608,35.2,31.474q1.393-.014,2.771-.113c13.485-.845,25.737-7.683,31.238-21.021l-12.523-4.951-.009.019-.274-.108c-3.948,9.651-12.429,13.891-21.2,14.038q-.921.012-1.842-.043c-9.391-.69-17.294-6.728-19.05-19.294h56.212a37.822,37.822,0,0,0,.437-5.825c0-12.7-4.148-22.028-10.7-28.179m-3.7,21.757H201.468c2.231-13.134,11.078-18.916,21.228-18.771a22.446,22.446,0,0,1,12.11,3.44c4.4,3.017,7.661,7.988,8.871,15.331" transform="translate(-1.068 -5.72)" fill="#242aff"/>
    </g>
</svg>
