<svg width="849.121" height="849.578" viewBox="0 0 849.121 849.578">
    <defs>
        <style>
            .animating {
                transform-origin: center;
                animation: rotate 30s infinite linear;
            }
            @keyframes rotate {
                from { transform: rotate(360deg); }
                to { transform: rotate(0); }
            }
        </style>
    </defs>
    <g class="animating" id="Groupe_53" data-name="Groupe 53">
        <path id="Tracé_117" data-name="Tracé 117" d="M188.384,482.118c2.937-13.059,10.838-17.865,20.8-15.625,5.966,1.342,10.093,4.491,11.724,9.933l4.857-21.591,7.4,1.663-11.727,52.875-7.551-1.7,1.459-6.493c-3.8,4.221-8.9,5.376-14.848,3.959-9.943-2.316-15.045-9.965-12.11-23.024m7.4,1.663c-1.986,8.831,1.3,14.329,8,15.914,6.022,1.434,12.072-.775,14.346-10.891s-2.265-14.625-8.3-15.982c-6.717-1.51-12.055,2.127-14.042,10.958" transform="translate(131.401 318.65)" />
        <path id="Tracé_118" data-name="Tracé 118" d="M166.2,465.67l28.225,9.758c1.4-7.131-2.1-11.695-7.313-13.418a11.808,11.808,0,0,0-13.03,3.357l-5.43-4.661c5.376-6.081,13.292-7.193,20.557-4.763,9.6,3.236,15.671,12.21,11.3,24.861s-14.685,15.962-24.238,12.578-15.673-12.21-11.3-24.861a19.989,19.989,0,0,1,1.231-2.85M192.325,481.5l-21.353-7.38c-1.2,7.034,2.3,11.355,7.391,13.2s10.566.459,13.962-5.816" transform="translate(114.564 318.586)" />
        <path id="Tracé_119" data-name="Tracé 119" d="M145.473,479.713l2.784-6.216c8.122,3.636,13.659,1.876,19.446-11.049l5.916-13.208,7.063,3.163-15.815,35.316-7.062-3.161,2.91-6.5c-4.474,3.932-9.309,4.311-15.1,1.718Z" transform="translate(101.916 314.729)" />
        <path id="Tracé_120" data-name="Tracé 120" d="M135.277,469.133l5.614,2.959,10.79-20.466c1.085-2.054.241-3.11-1.4-3.978l-2.874-1.515,3.284-6.228,2.876,1.514c8.488,4.476,8.431,7.071,4.894,13.78l-10.792,20.468,5.612,2.959-2.852,5.408-5.612-2.961-3.393,6.437-8.222-.837,4.838-9.173-5.614-2.959Z" transform="translate(92.775 308.19)" />
        <path id="Tracé_121" data-name="Tracé 121" d="M132.053,479.5l-4.369,7.394-6.86-4.054,4.369-7.394Zm23.053-39.311-6.595-3.9L128.83,469.6l6.595,3.9Z" transform="translate(84.647 305.661)" />
        <path id="Tracé_122" data-name="Tracé 122" d="M140.27,446.58c1.823-3.908-.238-7.751-3.816-10.193-3.707-2.529-8.42-3.309-11.037.524-4.886,7.158,20.785,12.782,11.625,26.2-6.282,9.2-16.089,3.258-19.477.946-3.2-2.18-11.071-8.21-7.636-16.264l6.887,2.263c-1.5,3.848.4,6.83,3.976,9.272,3.643,2.488,7.457,3.216,9.986-.492,5.061-7.413-20.917-12.589-11.627-26.2,6.675-9.778,17.275-3.762,20.791-1.362,3.2,2.18,11.875,9.229,7.27,18.172Z" transform="translate(76.42 299.314)" />
        <path id="Tracé_123" data-name="Tracé 123" d="M98.068,419.1l22.849,19.24c3.865-6.153,2.24-11.669-2.013-15.151a11.814,11.814,0,0,0-13.367-1.546l-3.4-6.3c7.2-3.746,14.991-1.944,20.9,2.932,7.8,6.471,10.244,17.026,1.621,27.267s-19.441,9.629-27.143,3.039S87.273,431.561,95.9,421.321a19.873,19.873,0,0,1,2.17-2.218m18.71,24.153L99.495,428.7c-3.648,6.136-1.932,11.425,2.161,14.974s9.7,4.223,15.122-.417" transform="translate(63.394 289.581)" />
        <path id="Tracé_124" data-name="Tracé 124" d="M105.043,418.989c2.57-3.462,1.318-7.639-1.7-10.749-3.126-3.221-7.585-4.93-10.918-1.7-6.219,6.034,17.8,16.683,6.141,28-8,7.756-16.412-.031-19.269-2.973C76.607,428.79,70.1,421.3,75.08,414.1l6.29,3.6c-2.24,3.467-.978,6.77,2.039,9.879,3.071,3.165,6.659,4.643,9.88,1.517,6.442-6.246-17.97-16.521-6.141-28,8.5-8.241,17.676-.223,20.638,2.831,2.694,2.775,9.783,11.418,3.483,19.257Z" transform="translate(51.322 278.472)" />
        <path id="Tracé_125" data-name="Tracé 125" d="M76.183,402.22a10.908,10.908,0,1,1,2.129-15.28,10.893,10.893,0,0,1-2.129,15.28" transform="translate(41.121 268.044)" />
        <path id="Tracé_126" data-name="Tracé 126" d="M33.437,371.8l13.846,24.262L61.8,387.781,50.063,367.214l5.983-3.413L67.78,384.366l14.584-8.323L68.52,351.783l5.981-3.415,17.642,30.915L45.1,406.132,27.456,375.215Z" transform="translate(19.235 244.061)" />
        <path id="Tracé_127" data-name="Tracé 127" d="M60.624,328l3.527,8-8.664,13.715,15.97,2.848,3.527,8L51.66,355.8l-.221.267L39.528,376.033l-3.559-8.069,8.545-13.409L28.85,351.823l-3.558-8.069,22.774,4.668.345.017Z" transform="translate(17.719 229.793)" />
        <path id="Tracé_128" data-name="Tracé 128" d="M33.859,309.11c12.754-4.059,20.892.333,23.987,10.066,1.854,5.825,1.221,10.977-2.655,15.132L76.276,327.6l2.3,7.224L27.017,351.392l-2.345-7.372L31.012,342c-5.563-1.153-9.132-4.969-10.911-10.817-3.024-9.755,1.005-18.018,13.758-22.075m2.3,7.224c-8.624,2.743-11.712,8.353-9.7,14.938,1.8,5.923,6.762,10.027,16.64,6.882s11.481-9.334,9.6-15.232c-2.087-6.561-7.921-9.333-16.547-6.588" transform="translate(13.412 215.5)" />
        <path id="Tracé_129" data-name="Tracé 129" d="M32.509,283.932l5.84,29.287c6.858-2.395,9.033-7.717,7.88-13.091a11.806,11.806,0,0,0-9.477-9.549l1.279-7.039c7.966,1.566,12.923,7.836,14.5,15.332,2.058,9.925-2.621,19.693-15.749,22.31s-21.194-4.61-23.1-14.564,2.622-19.693,15.749-22.31a20.07,20.07,0,0,1,3.081-.378m-.459,30.542-4.418-22.155c-6.676,2.515-8.639,7.719-7.656,13.045s4.945,9.35,12.074,9.11" transform="translate(9.291 198.644)" />
        <path id="Tracé_130" data-name="Tracé 130" d="M9.506,270.179l6.768-.741c.968,8.846,5.284,12.734,19.358,11.193l14.384-1.571.84,7.692-38.455,4.2-.842-7.692,7.076-.774c-5.653-1.872-8.423-5.85-9.112-12.157Z" transform="translate(6.66 188.763)" />
        <path id="Tracé_131" data-name="Tracé 131" d="M19.105,255.566l.284,6.34L42.5,260.865c2.318-.1,2.8-1.366,2.719-3.221l-.146-3.246,7.034-.316.148,3.246c.432,9.584-1.837,10.848-9.411,11.19l-23.113,1.041.284,6.338-6.107.274-.286-6.338-7.265.327-3.437-7.513,10.358-.466L13,255.839Z" transform="translate(2.049 178.005)" />
        <path id="Tracé_132" data-name="Tracé 132" d="M8.586,254.652,0,254.514l.128-7.967,8.586.138Zm45.564.58.122-7.658L15.6,246.95l-.122,7.658Z" transform="translate(0 172.726)" />
        <path id="Tracé_133" data-name="Tracé 133" d="M35.961,250.387c4.292-.412,6.557-4.138,6.848-8.46.3-4.476-1.42-8.935-6.051-9.244-8.644-.578-.468,24.395-16.681,23.31-11.117-.743-10.969-12.208-10.7-16.3.26-3.859,1.461-13.7,10.142-14.829l1.544,7.081c-4.075.658-5.685,3.808-5.974,8.132-.293,4.4,1.014,8.054,5.493,8.353,8.954.6.236-24.41,16.681-23.31,11.809.789,12,12.975,11.719,17.224-.258,3.859-1.93,14.914-11.969,15.482Z" transform="translate(6.518 157.534)" />
        <path id="Tracé_134" data-name="Tracé 134" d="M38.073,201.24l-4.986,29.449c7.261.209,11.192-3.99,12.033-9.42a11.812,11.812,0,0,0-5.45-12.3l3.7-6.12c6.884,4.3,9.28,11.93,8.076,19.5-1.616,10.008-9.471,17.467-22.669,15.23s-18.159-11.865-16.39-21.846,9.472-17.465,22.67-15.23a20.037,20.037,0,0,1,3.012.745M26.754,229.616l3.774-22.276c-7.137-.032-10.824,4.131-11.805,9.457S20,227.3,26.754,229.616" transform="translate(8.439 140.185)" />
        <path id="Tracé_135" data-name="Tracé 135" d="M41.793,206.517c4.287.463,7.258-2.729,8.413-6.906,1.2-4.325.412-9.037-4.061-10.275-8.355-2.311-5.379,23.8-21.041,19.468-10.739-2.969-8.284-14.173-7.19-18.125,1.031-3.729,4.2-13.13,12.928-12.481l.08,7.248c-4.124-.179-6.333,2.581-7.489,6.758-1.175,4.251-.633,8.095,3.694,9.29,8.651,2.394,5.154-23.863,21.04-19.468,11.411,3.156,9.141,15.133,8.006,19.235-1.031,3.729-4.9,14.22-14.846,12.753Z" transform="translate(11.823 124.821)" />
        <path id="Tracé_136" data-name="Tracé 136" d="M36.467,175.6a10.91,10.91,0,1,1,14.266-5.881A10.9,10.9,0,0,1,36.467,175.6" transform="translate(20.838 108.316)" />
        <path id="Tracé_137" data-name="Tracé 137" d="M51.919,119.406,37.961,143.6l14.479,8.35L64.27,131.445l5.966,3.44L58.4,155.4l14.545,8.389,13.958-24.2,5.966,3.442-17.786,30.83L28.169,146.8l17.785-30.832Z" transform="translate(19.735 81.244)" />
        <path id="Tracé_138" data-name="Tracé 138" d="M100.716,123.069l-5.127,7.085L79.373,129.6l5.6,15.227-5.126,7.085-7.661-22.545-.342-.056-23.25-.2,5.17-7.148,15.89.611-5.549-14.9,5.171-7.148,7.466,22.023.162.306Z" transform="translate(34.046 70.418)" />
        <path id="Tracé_139" data-name="Tracé 139" d="M103.3,90.834c9.953,8.952,10.278,18.193,3.449,25.788-4.088,4.544-8.853,6.6-14.4,5.364l16.453,14.8-5.071,5.639L63.356,106.318l5.175-5.753,4.947,4.449c-1.82-5.382-.332-10.391,3.813-14.883,6.889-7.544,16.057-8.248,26.007.7m-5.069,5.637C91.5,90.418,85.1,90.593,80.433,95.661c-4.2,4.551-5.229,10.906,2.479,17.839s13.863,5.183,18,.582c4.605-5.12,4.046-11.555-2.685-17.61" transform="translate(44.386 59.057)" />
        <path id="Tracé_140" data-name="Tracé 140" d="M121.244,76.907,98.959,96.791c5.539,4.7,11.231,3.874,15.278.158a11.81,11.81,0,0,0,3.428-13.011l6.716-2.466c2.687,7.659-.2,15.111-5.867,20.269-7.513,6.806-18.307,7.724-27.216-2.263s-6.773-20.608.843-27.3,18.305-7.724,27.216,2.263a20.317,20.317,0,0,1,1.886,2.464M94.682,92l16.86-15.04c-5.554-4.481-11.032-3.534-15.125.014s-5.556,9-1.735,15.026" transform="translate(59.88 46.973)" />
        <path id="Tracé_141" data-name="Tracé 141" d="M117.593,52.8l4.075,5.457c-7.134,5.325-8.29,11.018.18,22.366l8.656,11.6-6.2,4.629L101.157,65.84l6.2-4.629,4.258,5.705c-1.255-5.823.769-10.229,5.853-14.026Z" transform="translate(70.869 36.989)" />
        <path id="Tracé_142" data-name="Tracé 142" d="M133.577,52.016l-5.318,3.462,12.623,19.388c1.267,1.945,2.6,1.724,4.156.711l2.724-1.774,3.842,5.9-2.724,1.774c-8.04,5.234-10.28,3.923-14.418-2.432L121.84,59.656l-5.316,3.462L113.187,58l5.318-3.462-3.969-6.1,4.731-6.772,5.658,8.688,5.318-3.462Z" transform="translate(79.297 29.19)" />
        <path id="Tracé_143" data-name="Tracé 143" d="M126.15,44.4l-4.336-7.413,6.881-4.022,4.333,7.413Zm23.135,39.263L155.9,79.8,136.371,46.4l-6.612,3.867Z" transform="translate(85.341 23.096)" />
        <path id="Tracé_144" data-name="Tracé 144" d="M150.4,63.709c2.524,3.495,6.886,3.564,10.76,1.627,4.015-2.007,6.991-5.743,4.916-9.894-3.876-7.751-21.283,11.933-28.546-2.6-4.981-9.965,4.984-15.639,8.654-17.472,3.459-1.729,12.559-5.673,17.922,1.248l-5.33,4.911c-2.629-3.183-6.158-2.976-10.035-1.037-3.944,1.971-6.437,4.945-4.43,8.96,4.012,8.027,21.177-12.142,28.544,2.6,5.292,10.59-5.124,16.919-8.93,18.82-3.459,1.729-13.841,5.881-19.409-2.493Z" transform="translate(95.397 22.893)" />
        <path id="Tracé_145" data-name="Tracé 145" d="M195.02,39.907,167.085,50.475c3.486,6.375,9.1,7.644,14.207,5.629a11.807,11.807,0,0,0,7.865-10.918l7.154.107c-.238,8.115-5.609,14.035-12.748,16.817-9.452,3.658-19.858.646-24.6-11.873s1.071-21.667,10.579-25.181,19.859-.645,24.594,11.875a19.957,19.957,0,0,1,.879,2.976m-30.207,4.561,21.131-7.994c-3.576-6.175-9.032-7.255-14.125-5.411s-8.413,6.409-7.006,13.406" transform="translate(110.192 16.581)" />
        <path id="Tracé_146" data-name="Tracé 146" d="M191.2,46.01c1.765,3.933,6.02,4.887,10.209,3.775,4.338-1.153,8.01-4.207,6.819-8.7C206,32.715,184.967,48.466,180.8,32.761c-2.859-10.77,8.051-14.305,12.013-15.358,3.74-.991,13.45-3.01,17.3,4.855L203.9,25.989c-1.93-3.651-5.428-4.163-9.617-3.051-4.262,1.131-7.3,3.539-6.154,7.877,2.3,8.675,23.2-7.6,27.429,8.329,3.036,11.442-8.447,15.531-12.559,16.623-3.74.991-14.746,2.954-18.5-6.375Z" transform="translate(126.334 11.502)" />
        <path id="Tracé_147" data-name="Tracé 147" d="M211.943,26.71a10.911,10.911,0,1,1,12.283,9.341,10.9,10.9,0,0,1-12.283-9.341" transform="translate(148.412 10.036)" />
        <path id="Tracé_148" data-name="Tracé 148" d="M272.9,6.885l-27.925.449.269,16.708,23.67-.381.111,6.886-23.67.381.27,16.785,27.925-.449.111,6.884-35.583.573L237.205.574,272.788,0Z" transform="translate(166.182 0.001)" />
        <path id="Tracé_149" data-name="Tracé 149" d="M295.415,51.2l-8.707-.82-7.75-14.256L268.68,48.679l-8.705-.821,15.538-18.045-.126-.323L263.762,9.351l8.784.828,7.539,14,10.027-12.346,8.782.828L283.706,30.275l-.182.294Z" transform="translate(182.134 6.551)" />
        <path id="Tracé_150" data-name="Tracé 150" d="M325,38.452c-2.665,13.117-10.465,18.084-20.475,16.05-5.989-1.218-10.183-4.28-11.926-9.69L288.188,66.5l-7.432-1.51,10.637-53.106,7.583,1.541-1.325,6.52c3.716-4.3,8.789-5.556,14.763-4.262,9.993,2.11,15.249,9.652,12.583,22.771m-7.43-1.512c1.8-8.87-1.593-14.3-8.326-15.746-6.051-1.309-12.052,1.024-14.117,11.183s2.565,14.576,8.629,15.809c6.748,1.372,12.01-2.374,13.814-11.246" transform="translate(196.693 8.324)" />
        <path id="Tracé_151" data-name="Tracé 151" d="M344.706,48.514,316.279,39.35c-1.252,7.158,2.342,11.649,7.595,13.261a11.807,11.807,0,0,0,12.957-3.626l5.527,4.546c-5.25,6.194-13.14,7.471-20.456,5.192-9.67-3.036-15.924-11.88-11.816-24.621s14.351-16.268,23.973-13.084S349.983,32.9,345.876,45.64a20.146,20.146,0,0,1-1.17,2.874M318.25,33.238l21.5,6.933c1.056-7.057-2.536-11.3-7.664-13.04s-10.574-.238-13.839,6.107" transform="translate(216.342 13.953)" />
        <path id="Tracé_152" data-name="Tracé 152" d="M363.643,33.473l-2.655,6.272c-8.193-3.469-13.69-1.6-19.208,11.445l-5.639,13.326L329.016,61.5l15.076-35.627,7.125,3.015-2.774,6.556c4.391-4.024,9.214-4.5,15.057-2.029Z" transform="translate(230.503 18.125)" />
        <path id="Tracé_153" data-name="Tracé 153" d="M371.289,47.7l-5.672-2.845L355.243,65.539c-1.039,2.076-.175,3.115,1.485,3.949l2.906,1.456-3.158,6.3-2.9-1.457c-8.579-4.3-8.576-6.9-5.177-13.676L358.77,41.42,353.1,38.575l2.74-5.464,5.673,2.845,3.262-6.5,8.236.667-4.649,9.27,5.673,2.845Z" transform="translate(242.594 20.634)" />
        <path id="Tracé_154" data-name="Tracé 154" d="M373.468,44.583l6.675,3.762L361.149,82.052l-6.675-3.762Zm10.19-2.163,4.216-7.483-6.943-3.913-4.216,7.483Z" transform="translate(248.338 21.735)" />
        <path id="Tracé_155" data-name="Tracé 155" d="M371.415,67.477c-1.745,3.944.394,7.744,4.022,10.115,3.758,2.456,8.488,3.139,11.028-.748,4.74-7.256-21.045-12.358-12.159-25.966,6.095-9.331,16.023-3.585,19.458-1.342,3.24,2.116,11.237,7.988,7.964,16.11L394.8,63.522c1.423-3.876-.536-6.819-4.165-9.19-3.694-2.413-7.52-3.064-9.974.694-4.91,7.517,21.172,12.166,12.156,25.966-6.476,9.914-17.2,4.112-20.761,1.784-3.24-2.116-12.064-8.988-7.639-18.024Z" transform="translate(254.449 32.032)" />
        <path id="Tracé_156" data-name="Tracé 156" d="M414.246,93.754,391.011,74.983c-3.74,6.233-2,11.715,2.32,15.108a11.81,11.81,0,0,0,13.4,1.27l3.524,6.229c-7.124,3.894-14.948,2.25-20.956-2.5-7.935-6.311-10.591-16.814-2.18-27.228s19.239-10.025,27.08-3.6,10.59,16.812,2.177,27.228a20.046,20.046,0,0,1-2.126,2.262m-19.2-23.767,17.579,14.2c3.522-6.207,1.7-11.462-2.468-14.926s-9.782-4.022-15.111.726" transform="translate(267.583 41.816)" />
        <path id="Tracé_157" data-name="Tracé 157" d="M407.677,94.174c-2.5,3.513-1.167,7.666,1.913,10.715,3.189,3.156,7.685,4.775,10.95,1.476,6.1-6.158-18.137-16.324-6.7-27.871,7.838-7.916,16.412-.3,19.325,2.585,2.751,2.723,9.408,10.076,4.575,17.377l-6.364-3.469c2.17-3.513.842-6.789-2.238-9.838-3.136-3.1-6.753-4.508-9.911-1.32-6.314,6.379,18.3,16.161,6.7,27.873-8.328,8.413-17.667.58-20.693-2.415-2.75-2.721-10.013-11.22-3.87-19.186Z" transform="translate(279.508 52.545)" />
        <path id="Tracé_158" data-name="Tracé 158" d="M429.084,102.757a10.91,10.91,0,1,1-1.813,15.322,10.9,10.9,0,0,1,1.813-15.322" transform="translate(297.694 70.345)" />
        <path id="Tracé_159" data-name="Tracé 159" d="M490.264,147.033l-14.343-23.971-14.341,8.581,12.156,20.319-5.91,3.537-12.157-20.32L441.262,143.8,455.6,167.772l-5.908,3.535-18.276-30.546,46.482-27.81L496.176,143.5Z" transform="translate(302.244 79.132)" />
        <path id="Tracé_160" data-name="Tracé 160" d="M457.818,187.4l-3.692-7.926,8.382-13.89-16.026-2.522-3.692-7.926,23.422,4.285.214-.27,11.5-20.21,3.724,8-8.27,13.581,15.719,2.41,3.724,8-22.868-4.2-.347-.01Z" transform="translate(310.211 97.34)" />
        <path id="Tracé_161" data-name="Tracé 161" d="M488.948,204.061c-12.668,4.323-20.9.1-24.193-9.566-1.974-5.785-1.449-10.952,2.338-15.188l-20.944,7.148-2.447-7.176L494.91,161.64l2.5,7.323-6.3,2.15c5.586,1.036,9.234,4.779,11.135,10.588,3.224,9.692-.631,18.038-13.3,22.361m-2.449-7.176c8.568-2.923,11.537-8.6,9.387-15.139-1.925-5.884-6.971-9.885-16.783-6.537s-11.285,9.574-9.287,15.433c2.224,6.517,8.115,9.166,16.683,6.243" transform="translate(310.85 113.242)" />
        <path id="Tracé_162" data-name="Tracé 162" d="M482.636,226.814l-6.442-29.167c-6.809,2.534-8.874,7.9-7.614,13.251a11.807,11.807,0,0,0,9.673,9.355l-1.134,7.066c-8-1.4-13.083-7.571-14.812-15.035-2.26-9.882,2.219-19.747,15.292-22.633s21.288,4.173,23.4,14.089-2.216,19.747-15.288,22.635a20.02,20.02,0,0,1-3.071.439m-.17-30.551,4.872,22.065c6.627-2.653,8.481-7.9,7.387-13.2s-5.134-9.248-12.26-8.862" transform="translate(323.493 132.41)" />
        <path id="Tracé_163" data-name="Tracé 163" d="M506.553,233.36l-6.753.877c-1.146-8.824-5.54-12.623-19.581-10.8L465.87,225.3l-1-7.673,38.367-4.983,1,7.675-7.061.917c5.69,1.757,8.54,5.678,9.357,11.97Z" transform="translate(325.682 148.975)" />
        <path id="Tracé_164" data-name="Tracé 164" d="M500.47,248.317l-.415-6.333L476.966,243.5c-2.318.151-2.777,1.422-2.656,3.275l.213,3.245-7.027.461-.213-3.245c-.628-9.576,1.614-10.885,9.181-11.382l23.091-1.512-.415-6.333,6.1-.4.415,6.333,7.258-.476,3.592,7.443-10.348.679.415,6.331Z" transform="translate(327.301 159.457)" />
        <path id="Tracé_165" data-name="Tracé 165" d="M506.067,243.362l.136,7.658-38.678.687-.136-7.658Zm7.023,7.69,8.586-.153-.141-7.967-8.588.153Z" transform="translate(327.445 170.194)" />
        <path id="Tracé_166" data-name="Tracé 166" d="M479.828,258.181c-4.285.5-6.476,4.268-6.676,8.6-.209,4.483,1.6,8.906,6.236,9.122,8.658.4-.022-24.4,16.21-23.647,11.132.519,11.217,11.987,11.027,16.086-.182,3.865-1.184,13.736-9.843,15.035l-1.685-7.051c4.061-.741,5.6-3.923,5.807-8.251.206-4.4-1.175-8.034-5.66-8.243-8.965-.418.257,24.414-16.21,23.647-11.826-.553-12.265-12.736-12.066-16.987.18-3.865,1.628-14.953,11.656-15.724Z" transform="translate(327.129 175.682)" />
        <path id="Tracé_167" data-name="Tracé 167" d="M478.727,309.415l4.386-29.549c-7.266-.061-11.112,4.219-11.839,9.666a11.807,11.807,0,0,0,5.7,12.19l-3.578,6.2c-6.972-4.165-9.525-11.741-8.476-19.331,1.413-10.039,9.117-17.659,22.359-15.691s18.4,11.492,16.834,21.511S495,312.067,481.754,310.1a20.07,20.07,0,0,1-3.027-.685m10.739-28.605-3.318,22.354c7.136-.116,10.737-4.353,11.61-9.7s-1.5-10.471-8.292-12.654" transform="translate(325.555 190.969)" />
        <path id="Tracé_168" data-name="Tracé 168" d="M475.115,303.412c-4.3-.374-7.2,2.879-8.266,7.079-1.107,4.35-.224,9.044,4.274,10.188,8.4,2.138,4.882-23.907,20.631-19.9,10.8,2.745,8.576,14,7.564,17.973-.952,3.748-3.918,13.214-12.663,12.748l-.233-7.246c4.127.092,6.28-2.714,7.348-6.915,1.085-4.274.464-8.105-3.886-9.212-8.7-2.211-4.658,23.966-20.631,19.905-11.472-2.918-9.454-14.941-8.406-19.065.954-3.75,4.6-14.319,14.581-13.059Z" transform="translate(322.275 207.235)" />
        <path id="Tracé_169" data-name="Tracé 169" d="M473.429,328.536a10.91,10.91,0,1,1-14.14,6.173,10.9,10.9,0,0,1,14.14-6.173" transform="translate(321.238 229.634)" />
        <path id="Tracé_170" data-name="Tracé 170" d="M476.925,399.586l13.462-24.478-14.645-8.054L464.331,387.8l-6.035-3.318,11.411-20.749-14.713-8.091-13.46,24.478L435.5,376.8l17.152-31.19,47.463,26.1L482.961,402.9Z" transform="translate(305.102 242.13)" />
        <path id="Tracé_171" data-name="Tracé 171" d="M422.854,394.352l4.979-7.188,16.222.226-5.913-15.108,4.979-7.187,8.12,22.381.344.048,23.247-.27-5.022,7.251-15.9-.284L459.765,409l-5.023,7.251-7.914-21.863-.167-.3Z" transform="translate(296.244 255.779)" />
        <path id="Tracé_172" data-name="Tracé 172" d="M419.233,429.333c-10.132-8.746-10.646-17.977-3.973-25.708,3.993-4.627,8.715-6.784,14.283-5.658L412.795,383.51l4.954-5.739,41.1,35.267-5.056,5.855-5.037-4.345c1.928,5.341.544,10.38-3.507,14.958-6.731,7.678-15.882,8.571-26.014-.173m4.954-5.739c6.852,5.915,13.248,5.609,17.805.447,4.1-4.636,5-11.01-2.842-17.783s-13.963-4.9-18.008-.213c-4.5,5.212-3.808,11.632,3.044,17.548" transform="translate(287.822 264.66)" />
        <path id="Tracé_173" data-name="Tracé 173" d="M398.22,436.275l21.875-20.332c-5.636-4.586-11.311-3.643-15.281.153a11.816,11.816,0,0,0-3.16,13.079l-6.665,2.6c-2.843-7.6-.1-15.115,5.454-20.385,7.372-6.959,18.144-8.1,27.255,1.707s7.192,20.465-.286,27.308-18.144,8.1-27.255-1.709a19.847,19.847,0,0,1-1.937-2.425m26.247-15.628-16.547,15.382c5.644,4.367,11.1,3.308,15.122-.325s5.367-9.11,1.425-15.057" transform="translate(275.926 284.408)" />
        <path id="Tracé_174" data-name="Tracé 174" d="M398.165,461.995l-4.183-5.372c7.022-5.467,8.064-11.181-.636-22.358l-8.891-11.418,6.107-4.751,23.771,30.529-6.107,4.753-4.374-5.617c1.374,5.794-.558,10.241-5.564,14.139Z" transform="translate(269.343 292.911)" />
        <path id="Tracé_175" data-name="Tracé 175" d="M385.925,462.663l5.245-3.571-13.018-19.125c-1.308-1.92-2.636-1.67-4.17-.626l-2.689,1.83-3.962-5.821,2.687-1.828c7.933-5.4,10.2-4.132,14.465,2.134l13.02,19.125,5.245-3.569,3.44,5.052-5.246,3.571,4.093,6.012-4.59,6.87-5.836-8.571-5.245,3.571Z" transform="translate(257.346 301.335)" />
        <path id="Tracé_176" data-name="Tracé 176" d="M388.051,467.493l-6.534,4-20.2-32.993,6.534-4Zm-3.07,9.953,4.484,7.326,6.8-4.163-4.486-7.324Z" transform="translate(253.132 304.403)" />
        <path id="Tracé_177" data-name="Tracé 177" d="M368.648,450.453c-2.6-3.442-6.955-3.423-10.79-1.406-3.973,2.087-6.872,5.882-4.711,9.991,4.03,7.671,21.029-12.365,28.587,2.015,5.183,9.862-4.663,15.735-8.292,17.644-3.423,1.8-12.441,5.928-17.943-.881l5.228-5.02c2.694,3.129,6.217,2.848,10.052.835,3.9-2.053,6.333-5.076,4.246-9.049-4.175-7.943-20.924,12.569-28.59-2.017-5.507-10.477,4.777-17.018,8.544-19,3.425-1.8,13.715-6.161,19.455,2.1Z" transform="translate(241.594 308.816)" />
        <path id="Tracé_178" data-name="Tracé 178" d="M324.849,474.805l27.716-11.139c-3.617-6.3-9.253-7.457-14.322-5.338a11.808,11.808,0,0,0-7.639,11.078l-7.156.042c.073-8.12,5.323-14.151,12.4-17.077,9.375-3.852,19.842-1.054,24.834,11.368s-.628,21.684-10.061,25.393-19.842,1.053-24.834-11.37a20,20,0,0,1-.94-2.957m30.111-5.18-20.965,8.426c3.7,6.1,9.178,7.069,14.234,5.122s8.28-6.581,6.731-13.549" transform="translate(226.602 315.797)" />
        <path id="Tracé_179" data-name="Tracé 179" d="M327.236,468.786c-1.843-3.9-6.12-4.763-10.285-3.566-4.313,1.241-7.921,4.372-6.639,8.835,2.394,8.328,23.107-7.852,27.6,7.767,3.08,10.708-7.755,14.469-11.7,15.6-3.718,1.07-13.387,3.286-17.4-4.5l6.136-3.857c2.007,3.61,5.515,4.051,9.678,2.854,4.241-1.218,7.233-3.689,5.993-8-2.481-8.625-23.043,8.076-27.6-7.765-3.272-11.379,8.125-15.7,12.217-16.88,3.717-1.068,14.683-3.255,18.633,6Z" transform="translate(211.886 321.044)" />
        <path id="Tracé_180" data-name="Tracé 180" d="M301.051,480.969a10.911,10.911,0,1,1-12.47-9.09,10.9,10.9,0,0,1,12.47,9.09" transform="translate(195.714 330.496)" />
        <path id="Tracé_974" data-name="Tracé 974" d="M236.594,474.288l27.925.451-.272,16.785-23.669-.381-.112,6.884,23.67.381-.269,16.708-27.925-.449-.111,6.884,35.583.573.872-54.148L236.7,467.4Z" transform="translate(165.22 327.455)" />
        <path id="Tracé_975" data-name="Tracé 975" d="M215.894,464.964l8.685,1,7.457,14.406,10.53-12.341,8.685,1-15.9,17.722.119.325,11.212,20.366-8.761-1.005-7.255-14.151L220.4,504.416l-8.763-1.005,15.537-17.295.189-.289Z" transform="translate(148.269 325.745)" />
    </g>
    <path id="Tracé_976" data-name="Tracé 976" d="M390.766,97c-16.873-16.221-40.052-24.192-65.06-24.384-45.539-.348-85.008,26.377-91.359,81.3H202.7V0H165.26V153.914H89.192c-31.865,0-51.752,13.9-51.752,33.895V0H0V264.717H37.44c0-64.336,6.332-79.416,46.427-79.416H165.26v79.416H202.7V185.3h31.6c6.193,55.214,45.748,82.082,91.406,81.733q3.618-.037,7.2-.294c35.018-2.194,66.836-19.953,81.119-54.589L381.5,199.3l-.023.049-.71-.281c-10.253,25.062-32.276,36.073-55.061,36.455-1.607.022-3.2-.02-4.784-.112-24.386-1.792-44.909-17.471-49.471-50.1H417.424a98.217,98.217,0,0,0,1.135-15.126c0-32.98-10.772-57.2-27.794-73.177m-9.619,56.5H271.536c5.793-34.108,28.767-49.122,55.127-48.744,11.512.164,22.374,2.981,31.447,8.933,11.417,7.834,19.894,20.744,23.037,39.811" transform="translate(232.357 276.497)" />
</svg>
