<svg xmlns="http://www.w3.org/2000/svg"
    xmlns:xlink="http://www.w3.org/1999/xlink" width="350" height="350" viewBox="0 0 350 350">
    <defs>
        <style>
            .animating {
                transform-box: fill-box;
                transform-origin: center;
                animation: rotate 30s infinite linear;
            }
            @keyframes rotate {
                from { transform: rotate(360deg); }
                to { transform: rotate(0); }
            }
        </style>
    </defs>
    <g id="logo-agence-mobile">
        <path id="Tracé_21" data-name="Tracé 21" d="M150.477,37.352c-6.5-6.247-15.423-9.316-25.054-9.39-17.536-.134-32.735,10.157-35.181,31.307H78.056V0H63.639v59.27H34.346c-12.271,0-19.929,5.351-19.929,13.052V0H0V101.937H14.417c0-24.775,2.439-30.582,17.878-30.582H63.639v30.582H78.056V71.356H90.225c2.385,21.262,17.617,31.608,35.2,31.474q1.393-.014,2.771-.113c13.485-.845,25.737-7.683,31.238-21.021l-12.523-4.951-.009.019-.274-.108c-3.948,9.651-12.429,13.891-21.2,14.038-.619.009-1.234-.008-1.842-.043-9.391-.69-17.294-6.728-19.05-19.294h56.212a37.821,37.821,0,0,0,.437-5.825c0-12.7-4.148-22.028-10.7-28.179m-3.7,21.757H104.564c2.231-13.134,11.078-18.916,21.228-18.771a22.446,22.446,0,0,1,12.11,3.44c4.4,3.017,7.661,7.988,8.871,15.331" transform="translate(105 138.002)" fill="#242aff"/>
        <g id="Groupe_227" data-name="Groupe 227" transform="translate(10 9)">
            <g class="animating">
                <path id="Tracé_1049" data-name="Tracé 1049" d="M280.987,412.759l3.185-.835,4.117,15.7c1.444,5.509-1.645,9.178-6.08,10.308a7.565,7.565,0,0,1-8.434-2.963l2.5-1.745a4.638,4.638,0,0,0,5.239,2.063c2.811-.7,4.606-2.943,3.587-6.828l-.659-2.516c-.612,2.339-2.321,3.74-4.837,4.4-4.2,1.1-7.636-.823-9.081-6.333s.611-8.84,4.806-9.973a6.057,6.057,0,0,1,6.372,1.46Zm2.087,7.963c-1.119-4.268-3.723-5.116-6.263-4.417-2.826.775-4.141,3.162-3.163,6.889s3.3,5.192,6.136,4.449c2.548-.668,4.41-2.653,3.291-6.922" transform="translate(-70.229 -107.119)" fill="#2400ff"/>
                <path id="Tracé_1050" data-name="Tracé 1050" d="M310.548,412.8l-11.8,4.715c1.534,2.685,3.93,3.181,6.089,2.283a5.026,5.026,0,0,0,3.259-4.706l3.044-.01a7.938,7.938,0,0,1-5.291,7.255c-3.991,1.63-8.442.43-10.555-4.859s.284-9.225,4.3-10.794,8.443-.431,10.555,4.857a8.612,8.612,0,0,1,.4,1.261m-12.815,2.177,8.927-3.567a4.664,4.664,0,0,0-6.051-2.19c-2.153.824-3.53,2.791-2.876,5.757" transform="translate(-76.585 -105.586)" fill="#2400ff"/>
                <path id="Tracé_1051" data-name="Tracé 1051" d="M329.4,399.822l4.416,8.168-2.9,1.566-4.416-8.168c-1.143-2.114-2.645-3.923-4.47-2.936-1.245.673-4.146,2.578-.56,9.211l2.929,5.417-2.868,1.549-7.829-14.483,2.867-1.549,1.9,3.5a6.5,6.5,0,0,1,3.338-6.634c4.055-2.193,6.122,1.632,7.594,4.354" transform="translate(-81.578 -102.67)" fill="#2400ff"/>
                <path id="Tracé_1052" data-name="Tracé 1052" d="M337.8,396.549c-3.257-4.674-1.812-9.053,1.746-11.492a7.566,7.566,0,0,1,8.942-.129l-1.748,2.5a4.637,4.637,0,0,0-5.63-.132c-2.181,1.48-3.067,4.183-.77,7.48s5.14,3.4,7.283,1.869a4.637,4.637,0,0,0,1.828-5.326l2.953-.773a7.565,7.565,0,0,1-3.218,8.343c-3.521,2.494-8.13,2.332-11.386-2.343" transform="translate(-87.371 -99.734)" fill="#2400ff"/>
                <path id="Tracé_1053" data-name="Tracé 1053" d="M369.776,373.02l-9.517,8.427c2.351,2.008,4.774,1.666,6.5.091a5.027,5.027,0,0,0,1.479-5.532l2.862-1.04a7.943,7.943,0,0,1-2.529,8.618c-3.208,2.884-7.8,3.259-11.58-1.007s-2.849-8.781.4-11.616,7.8-3.259,11.58,1.006a8.582,8.582,0,0,1,.8,1.051M358.448,379.4l7.2-6.375a4.667,4.667,0,0,0-6.438-.018c-1.748,1.5-2.378,3.822-.761,6.392" transform="translate(-92.196 -95.904)" fill="#2400ff"/>
                <path id="Tracé_1054" data-name="Tracé 1054" d="M380.735,359.516a4.643,4.643,0,1,1,6.545-.544,4.638,4.638,0,0,1-6.545.544" transform="translate(-98.58 -91.361)" fill="#2400ff"/>
                <path id="Tracé_1055" data-name="Tracé 1055" d="M411.965,327.235l-6.543-1.328-4.64,7.7,4.23,5.164-1.852,3.075L387.9,322.5l1.683-2.792,24.228,4.452ZM398.94,331.3l3.6-5.978-10.15-2.043Z" transform="translate(-100.873 -83.139)" fill="#2400ff"/>
                <path id="Tracé_1056" data-name="Tracé 1056" d="M409.561,297.209l1.327-3.014,14.858,6.54c5.214,2.3,6.167,7,4.293,11.172a7.564,7.564,0,0,1-7.565,4.764l.189-3.046a4.636,4.636,0,0,0,4.874-2.818c1.2-2.639.559-5.438-3.117-7.057l-2.38-1.048c1.451,1.934,1.486,4.144.437,6.525-1.752,3.978-5.394,5.468-10.607,3.174s-6.544-5.974-4.823-9.966a6.057,6.057,0,0,1,5.107-4.084Zm7.535,3.316c-4.039-1.777-6.323-.265-7.354,2.159-1.151,2.7-.1,5.209,3.427,6.761s6.121.644,7.3-2.039c1.061-2.411.663-5.1-3.375-6.882" transform="translate(-105.666 -76.504)" fill="#2400ff"/>
                <path id="Tracé_1057" data-name="Tracé 1057" d="M427.639,274.7l-3.648,12.174c3.056.468,4.935-1.1,5.574-3.348a5.023,5.023,0,0,0-1.657-5.479l1.885-2.392a7.943,7.943,0,0,1,2.39,8.657c-1.206,4.14-4.914,6.879-10.37,5.244s-7.047-5.961-5.778-10.083,4.915-6.879,10.371-5.245a8.546,8.546,0,0,1,1.233.473m-6.266,11.389,2.759-9.209a4.668,4.668,0,0,0-5.48,3.375c-.692,2.2-.008,4.5,2.721,5.834" transform="translate(-108.081 -71.188)" fill="#2400ff"/>
                <path id="Tracé_1058" data-name="Tracé 1058" d="M429.518,251.772l9.143,1.62-.574,3.242-9.143-1.62c-2.367-.42-4.717-.368-5.08,1.675-.247,1.393-.559,4.849,6.867,6.166l6.063,1.074-.569,3.21-16.212-2.873.569-3.211,3.924.7a6.5,6.5,0,0,1-3.12-6.739c.8-4.54,5.084-3.78,8.131-3.241" transform="translate(-109.222 -65.365)" fill="#2400ff"/>
                <path id="Tracé_1059" data-name="Tracé 1059" d="M431.907,243.358c-5.687-.356-8.216-4.209-7.914-8.514a7.565,7.565,0,0,1,5.459-7.081l.872,2.926a4.637,4.637,0,0,0-3.6,4.327c-.2,2.627,1.37,5,5.379,5.252s5.862-1.909,5.993-4.54a4.637,4.637,0,0,0-3.035-4.742l1.231-2.794a7.565,7.565,0,0,1,4.533,7.707c-.237,4.307-3.228,7.815-8.914,7.46" transform="translate(-110.251 -59.229)" fill="#2400ff"/>
                <path id="Tracé_1060" data-name="Tracé 1060" d="M433.411,203.619l.662,12.692c3.035-.587,4.277-2.7,4.123-5.029a5.026,5.026,0,0,0-3.405-4.6l.971-2.886a7.938,7.938,0,0,1,5.163,7.346c.258,4.307-2.312,8.133-8,8.428s-8.642-3.242-8.834-7.551,2.313-8.132,8-8.428a8.468,8.468,0,0,1,1.32.03m-2.067,12.833-.5-9.6a4.666,4.666,0,0,0-4.023,5.023c.087,2.3,1.506,4.241,4.524,4.578" transform="translate(-110.28 -52.939)" fill="#2400ff"/>
                <path id="Tracé_1061" data-name="Tracé 1061" d="M429.122,188a4.643,4.643,0,1,1,3.647-5.459A4.637,4.637,0,0,1,429.122,188" transform="translate(-110.148 -46.497)" fill="#2400ff"/>
                <path id="Tracé_1062" data-name="Tracé 1062" d="M422.96,139.194l-5.106,4.3,3.151,8.42,6.677-.107,1.257,3.362-24.637-.064-1.142-3.053L421.7,135.832Zm-4.9,12.735-2.447-6.538-7.9,6.686Z" transform="translate(-104.84 -35.322)" fill="#2400ff"/>
                <path id="Tracé_1063" data-name="Tracé 1063" d="M398.552,124.267l-1.538-2.911,14.354-7.588c5.038-2.662,9.315-.49,11.426,3.573a7.569,7.569,0,0,1-.963,8.891l-2.271-2.041a4.638,4.638,0,0,0,.817-5.573c-1.325-2.577-3.917-3.815-7.468-1.938l-2.3,1.216c2.418.063,4.172,1.408,5.387,3.709,2.032,3.843.939,7.625-4.1,10.287s-8.748,1.421-10.808-2.407a6.057,6.057,0,0,1-.03-6.54Zm7.28-3.847c-3.9,2.062-4.135,4.793-2.875,7.107,1.4,2.576,4.024,3.312,7.43,1.511s4.306-4.4,2.936-6.99c-1.231-2.33-3.59-3.691-7.491-1.628" transform="translate(-103.241 -29.28)" fill="#2400ff"/>
                <path id="Tracé_1064" data-name="Tracé 1064" d="M392.262,96.894l7.272,10.427c2.267-2.1,2.207-4.551.842-6.449a5.026,5.026,0,0,0-5.325-2.108l-.7-2.964a7.943,7.943,0,0,1,8.268,3.508c2.5,3.52,2.336,8.128-2.337,11.386s-9.051,1.817-11.493-1.741-2.335-8.128,2.338-11.386a8.523,8.523,0,0,1,1.137-.673m5.03,11.99-5.5-7.887a4.668,4.668,0,0,0-.761,6.392c1.292,1.91,3.522,2.8,6.262,1.495" transform="translate(-100.692 -24.864)" fill="#2400ff"/>
                <path id="Tracé_1065" data-name="Tracé 1065" d="M375.25,80.022l6.959-6.147,2.18,2.468-6.959,6.147c-1.8,1.591-3.223,3.463-1.85,5.017.937,1.062,3.448,3.456,9.1-1.535l4.616-4.076,2.158,2.443-12.339,10.9-2.158-2.443,2.985-2.638a6.5,6.5,0,0,1-7.215-1.753c-3.052-3.455.206-6.333,2.525-8.381" transform="translate(-96.603 -19.211)" fill="#2400ff"/>
                <path id="Tracé_1066" data-name="Tracé 1066" d="M370.3,74c-3.821,4.225-8.413,3.8-11.59.886a7.565,7.565,0,0,1-2.138-8.683l2.832,1.14a4.639,4.639,0,0,0,1.14,5.515c1.932,1.791,4.766,2.046,7.46-.935s2.159-5.774.183-7.516a4.64,4.64,0,0,0-5.6-.582l-1.418-2.7a7.567,7.567,0,0,1,8.854,1.257c3.222,2.869,4.1,7.394.281,11.62" transform="translate(-92.577 -15.66)" fill="#2400ff"/>
                <path id="Tracé_1067" data-name="Tracé 1067" d="M340.2,48.087l10.349,7.374c1.428-2.742.549-5.025-1.373-6.355a5.026,5.026,0,0,0-5.722-.2L341.8,46.355a7.941,7.941,0,0,1,8.964.525c3.531,2.477,4.929,6.868,1.623,11.506s-7.912,4.751-11.406,2.221S336.055,53.74,339.36,49.1a8.5,8.5,0,0,1,.844-1.015m8.762,9.6-7.828-5.579a4.666,4.666,0,0,0,1.43,6.275c1.857,1.364,4.257,1.458,6.4-.7" transform="translate(-87.764 -11.755)" fill="#2400ff"/>
                <path id="Tracé_1068" data-name="Tracé 1068" d="M324.877,43.424a4.643,4.643,0,1,1-2.008-6.253,4.638,4.638,0,0,1,2.008,6.253" transform="translate(-82.2 -9.532)" fill="#2400ff"/>
                <path id="Tracé_1069" data-name="Tracé 1069" d="M286.206,14.681l.193,6.672,8.551,2.77,4.068-5.294,3.413,1.105L287.063,39.183l-3.1-1-1.169-24.6Zm6.921,11.758-6.64-2.15.318,10.347Z" transform="translate(-73.539 -3.53)" fill="#2400ff"/>
                <path id="Tracé_1070" data-name="Tracé 1070" d="M257.674,23.486l-3.237-.605L257.42,6.921c1.047-5.6,5.408-7.6,9.9-6.725a7.567,7.567,0,0,1,6.364,6.282l-3.01.51a4.639,4.639,0,0,0-3.856-4.105c-2.842-.564-5.423.695-6.162,4.644l-.478,2.558c1.552-1.854,3.7-2.392,6.254-1.914,4.273.8,6.554,4.006,5.508,9.606s-4.327,7.734-8.606,6.967a6.057,6.057,0,0,1-5.14-4.043Zm1.513-8.093c-.812,4.338,1.183,6.218,3.778,6.67,2.887.506,5.1-1.091,5.8-4.879s-.768-6.108-3.649-6.646c-2.59-.483-5.122.517-5.933,4.855" transform="translate(-66.165 0)" fill="#2400ff"/>
                <path id="Tracé_1071" data-name="Tracé 1071" d="M231.327,14.094l12.687.786c-.238-3.083-2.192-4.557-4.528-4.668a5.029,5.029,0,0,0-4.961,2.86l-2.757-1.292a7.941,7.941,0,0,1,7.887-4.3c4.307.234,7.818,3.223,7.465,8.908s-4.2,8.219-8.507,7.919-7.818-3.223-7.465-8.908a8.475,8.475,0,0,1,.18-1.31m12.517,3.514-9.6-.595a4.669,4.669,0,0,0,4.534,4.571c2.3.175,4.385-1.016,5.063-3.976" transform="translate(-60.102 -1.943)" fill="#2400ff"/>
                <path id="Tracé_1072" data-name="Tracé 1072" d="M208.531,17.132l-.474-9.272,3.288-.168.474,9.272c.123,2.4.7,4.679,2.772,4.574,1.414-.073,4.851-.545,4.467-8.074l-.314-6.149L222,7.147l.84,16.441-3.254.166-.2-3.979a6.5,6.5,0,0,1-5.866,4.553c-4.6.235-4.825-4.105-4.982-7.2" transform="translate(-54.104 -1.859)" fill="#2400ff"/>
                <path id="Tracé_1073" data-name="Tracé 1073" d="M199.748,17.011c.926,5.621-2.263,8.95-6.523,9.619A7.564,7.564,0,0,1,185.1,22.9l2.656-1.507a4.637,4.637,0,0,0,5.024,2.543c2.6-.4,4.568-2.455,3.914-6.418s-3.173-5.284-5.766-4.823a4.638,4.638,0,0,0-3.943,4.02l-3-.573a7.565,7.565,0,0,1,6.5-6.143c4.25-.734,8.339,1.395,9.265,7.016" transform="translate(-47.845 -2.563)" fill="#2400ff"/>
                <path id="Tracé_1074" data-name="Tracé 1074" d="M160.592,24.467l12.215-3.518c-1.259-2.824-3.595-3.556-5.832-2.878a5.026,5.026,0,0,0-3.714,4.359l-3.032-.292a7.944,7.944,0,0,1,5.988-6.694c4.136-1.226,8.447.411,10.023,5.886s-1.2,9.153-5.357,10.316-8.446-.411-10.023-5.886a8.543,8.543,0,0,1-.27-1.293m12.971-.892-9.24,2.662a4.667,4.667,0,0,0,5.8,2.783c2.224-.607,3.79-2.429,3.436-5.445" transform="translate(-41.667 -3.916)" fill="#2400ff"/>
                <path id="Tracé_1075" data-name="Tracé 1075" d="M146.835,35.1a4.643,4.643,0,1,1-6.148-2.306,4.637,4.637,0,0,1,6.148,2.306" transform="translate(-35.877 -8.42)" fill="#2400ff"/>
                <path id="Tracé_1076" data-name="Tracé 1076" d="M99.642,45.435l5.349,4,7.485-4.981-1.621-6.477,2.988-1.989,5.534,24.008L116.663,61.8,96.654,47.424Zm13.516,1.883-5.812,3.868,8.307,6.181Z" transform="translate(-25.134 -9.357)" fill="#2400ff"/>
                <path id="Tracé_1077" data-name="Tracé 1077" d="M90.535,73.037l-2.488,2.156L77.416,62.925c-3.73-4.305-2.581-8.962.9-11.933a7.566,7.566,0,0,1,8.877-1.069l-1.475,2.672a4.639,4.639,0,0,0-5.612.462c-2.211,1.873-2.832,4.676-.2,7.712l1.7,1.966c-.485-2.369.43-4.381,2.4-6.085,3.285-2.847,7.215-2.636,10.945,1.669s3.359,8.2.1,11.071A6.059,6.059,0,0,1,88.68,70.9Zm-5.391-6.221c2.89,3.334,5.6,2.944,7.57,1.194,2.193-1.944,2.318-4.665-.2-7.577s-5.257-3.2-7.471-1.281c-1.99,1.726-2.784,4.329.106,7.664" transform="translate(-19.531 -12.728)" fill="#2400ff"/>
                <path id="Tracé_1078" data-name="Tracé 1078" d="M66.092,88.685l8.521-9.433c-2.56-1.735-4.93-1.125-6.473.632a5.026,5.026,0,0,0-.855,5.662L64.556,86.9a7.943,7.943,0,0,1,1.556-8.845c2.867-3.223,7.393-4.106,11.62-.286s3.807,8.41.892,11.589S71.23,93.46,67,89.641a8.414,8.414,0,0,1-.912-.956m10.549-7.6-6.446,7.135a4.668,4.668,0,0,0,6.4-.7c1.57-1.689,1.939-4.062.046-6.437" transform="translate(-16.595 -19.568)" fill="#2400ff"/>
                <path id="Tracé_1079" data-name="Tracé 1079" d="M53.388,107.944l-7.554-5.4,1.914-2.679,7.554,5.4c1.955,1.4,4.1,2.362,5.3.674.823-1.152,2.592-4.137-3.543-8.52L52.055,93.84l1.894-2.652,13.395,9.571-1.9,2.652-3.242-2.317a6.5,6.5,0,0,1-.085,7.425c-2.679,3.751-6.216,1.225-8.734-.575" transform="translate(-11.919 -23.713)" fill="#2400ff"/>
                <path id="Tracé_1080" data-name="Tracé 1080" d="M48.721,115.341c4.979,2.769,5.6,7.337,3.477,11.09a7.563,7.563,0,0,1-7.974,4.041l.471-3.015A4.639,4.639,0,0,0,49.81,125.1c1.309-2.286.918-5.1-2.593-7.058s-6.112-.8-7.363,1.519a4.637,4.637,0,0,0,.7,5.587l-2.313,1.991a7.566,7.566,0,0,1-.773-8.908c2.068-3.786,6.277-5.664,11.255-2.895" transform="translate(-9.459 -29.65)" fill="#2400ff"/>
                <path id="Tracé_1081" data-name="Tracé 1081" d="M30.315,150.546l4.839-11.755c-3-.77-5.021.6-5.88,2.779a5.027,5.027,0,0,0,1.105,5.62l-2.114,2.192a7.943,7.943,0,0,1-1.519-8.854c1.612-4,5.574-6.359,10.843-4.19s6.423,6.634,4.749,10.61-5.574,6.36-10.843,4.19a8.538,8.538,0,0,1-1.18-.593m7.367-10.714-3.661,8.892a4.667,4.667,0,0,0,5.789-2.816c.909-2.118.455-4.479-2.128-6.076" transform="translate(-6.774 -35.24)" fill="#2400ff"/>
                <path id="Tracé_1082" data-name="Tracé 1082" d="M29.573,169.387a4.643,4.643,0,1,1-5.63,3.379,4.637,4.637,0,0,1,5.63-3.379" transform="translate(-6.19 -44.012)" fill="#2400ff"/>
                <path id="Tracé_1083" data-name="Tracé 1083" d="M10.812,209.959l6.454-1.706.75-8.957-6.08-2.756.3-3.576L34.476,203.55,34.2,206.8l-23.693,6.737Zm9.875-9.415L20.1,207.5l10-2.665Z" transform="translate(-2.734 -50.179)" fill="#2400ff"/>
                <path id="Tracé_1084" data-name="Tracé 1084" d="M24.862,235.509,25,238.8l-16.218.678c-5.692.239-8.619-3.561-8.777-8.134A7.566,7.566,0,0,1,4.7,223.731l1.173,2.818a4.638,4.638,0,0,0-3.133,4.679c.088,2.9,1.894,5.126,5.909,4.959l2.6-.109c-2.155-1.1-3.16-3.064-3.269-5.663-.181-4.341,2.431-7.286,8.122-7.523s8.507,2.478,8.721,6.819a6.056,6.056,0,0,1-2.784,5.915Zm-8.224.344c4.408-.184,5.792-2.548,5.65-5.179-.155-2.927-2.208-4.718-6.057-4.558s-5.778,2.121-5.655,5.048c.11,2.632,1.654,4.873,6.062,4.689" transform="translate(0 -57.958)" fill="#2400ff"/>
                <path id="Tracé_1085" data-name="Tracé 1085" d="M21.83,264.455l-2.071-12.541c-2.951.922-3.95,3.156-3.537,5.457a5.026,5.026,0,0,0,3.9,4.2l-.644,2.976a7.94,7.94,0,0,1-5.95-6.727c-.736-4.25,1.392-8.34,7.013-9.267s8.95,2.258,9.621,6.52-1.393,8.34-7.013,9.268a8.65,8.65,0,0,1-1.316.118m.626-12.986,1.567,9.487a4.667,4.667,0,0,0,3.44-5.441c-.343-2.28-1.97-4.048-5.007-4.046" transform="translate(-3.481 -64.592)" fill="#2400ff"/>
                <path id="Tracé_1086" data-name="Tracé 1086" d="M29.556,285.9l-8.927,2.558-.907-3.166,8.927-2.557c2.312-.662,4.4-1.74,3.829-3.734-.39-1.361-1.627-4.6-8.877-2.526l-5.92,1.7-.9-3.134,15.83-4.535.9,3.134-3.83,1.1a6.5,6.5,0,0,1,5.761,4.686c1.27,4.432-2.91,5.629-5.885,6.481" transform="translate(-4.364 -70.342)" fill="#2400ff"/>
                <path id="Tracé_1087" data-name="Tracé 1087" d="M31.835,294.6c5.262-2.181,9.23.167,10.851,4.164a7.566,7.566,0,0,1-1.788,8.762l-2.07-2.243a4.639,4.639,0,0,0,1.333-5.472c-.977-2.447-3.43-3.889-7.141-2.352s-4.424,4.293-3.385,6.714a4.639,4.639,0,0,0,4.813,2.924l.124,3.051a7.568,7.568,0,0,1-7.461-4.929c-1.682-3.973-.539-8.438,4.725-10.62" transform="translate(-6.863 -76.393)" fill="#2400ff"/>
                <path id="Tracé_1088" data-name="Tracé 1088" d="M47.991,330.848l-6.209-11.091c-2.463,1.87-2.644,4.31-1.473,6.334a5.027,5.027,0,0,0,5.092,2.622l.406,3.018a7.941,7.941,0,0,1-7.883-4.3c-2.136-3.748-1.524-8.317,3.447-11.1s9.186-.915,11.264,2.864,1.524,8.317-3.447,11.1a8.572,8.572,0,0,1-1.2.557m-3.824-12.426,4.7,8.39a4.668,4.668,0,0,0,1.387-6.287c-1.1-2.027-3.228-3.137-6.084-2.1" transform="translate(-9.559 -81.912)" fill="#2400ff"/>
                <path id="Tracé_1089" data-name="Tracé 1089" d="M61.817,344.683a4.643,4.643,0,1,1-.854,6.509,4.637,4.637,0,0,1,.854-6.509" transform="translate(-15.603 -89.383)" fill="#2400ff"/>
                <path id="Tracé_1090" data-name="Tracé 1090" d="M81.57,382.216l2.688-6.111-6.537-6.171-5.946,3.036-2.61-2.463,22.143-10.8,2.371,2.238-9.5,22.731Zm-1.208-13.592,5.077,4.792,4.153-9.485Z" transform="translate(-17.986 -93.541)" fill="#2400ff"/>
                <path id="Tracé_1091" data-name="Tracé 1091" d="M111.144,385.581l2.661,1.939-9.559,13.118c-3.356,4.6-8.151,4.532-11.83,1.811a7.566,7.566,0,0,1-3.04-8.41l2.936.836a4.637,4.637,0,0,0,1.713,5.363c2.323,1.733,5.194,1.708,7.559-1.54l1.532-2.1c-2.2,1.006-4.365.567-6.467-.964-3.513-2.56-4.191-6.437-.837-11.04s7.232-5.118,10.766-2.585a6.055,6.055,0,0,1,2.9,5.86Zm-4.847,6.652c2.6-3.565,1.608-6.12-.54-7.645-2.387-1.7-5.068-1.207-7.337,1.906s-1.935,5.842.434,7.568c2.129,1.551,4.844,1.737,7.443-1.829" transform="translate(-23.163 -98.947)" fill="#2400ff"/>
                <path id="Tracé_1092" data-name="Tracé 1092" d="M131.936,408.264l-11.112-6.174c-1.113,2.885.016,5.058,2.076,6.165a5.032,5.032,0,0,0,5.709-.445l1.931,2.355a7.94,7.94,0,0,1-8.968.479c-3.788-2.066-5.668-6.276-2.9-11.255s7.334-5.607,11.09-3.484,5.668,6.276,2.9,11.257a8.482,8.482,0,0,1-.726,1.1m-9.784-8.563,8.406,4.671a4.668,4.668,0,0,0-2.124-6.078c-2-1.149-4.395-.973-6.282,1.407" transform="translate(-30.517 -102.654)" fill="#2400ff"/>
                <path id="Tracé_1093" data-name="Tracé 1093" d="M153.617,414.734l-3.545,8.582-3.043-1.258,3.545-8.581c.918-2.222,1.372-4.528-.545-5.32-1.308-.54-4.617-1.586-7.5,5.382l-2.351,5.691-3.013-1.245,6.287-15.216,3.012,1.245-1.521,3.682a6.5,6.5,0,0,1,7.252-1.6c4.26,1.76,2.6,5.778,1.419,8.638" transform="translate(-35.67 -104.738)" fill="#2400ff"/>
                <path id="Tracé_1094" data-name="Tracé 1094" d="M161.858,419.192c1.562-5.479,5.868-7.127,10.007-5.913a7.565,7.565,0,0,1,5.752,6.845l-3.043.227a4.639,4.639,0,0,0-3.459-4.443c-2.524-.755-5.178.269-6.281,4.132s.615,6.134,3.157,6.825a4.641,4.641,0,0,0,5.283-1.954l2.466,1.8a7.568,7.568,0,0,1-8.5,2.781c-4.157-1.152-6.945-4.823-5.382-10.3" transform="translate(-41.976 -107.373)" fill="#2400ff"/>
                <path id="Tracé_1095" data-name="Tracé 1095" d="M200.345,429.1l-12.547-2.03c-.067,3.091,1.734,4.75,4.047,5.091a5.026,5.026,0,0,0,5.218-2.357l2.616,1.557a7.941,7.941,0,0,1-8.271,3.5c-4.264-.656-7.463-3.977-6.552-9.6s4.992-7.765,9.245-7.043,7.462,3.975,6.552,9.6a8.519,8.519,0,0,1-.308,1.284m-12.111-4.728,9.491,1.536a4.666,4.666,0,0,0-4.062-4.993c-2.27-.4-4.463.578-5.43,3.457" transform="translate(-48.03 -108.72)" fill="#2400ff"/>
                <path id="Tracé_1096" data-name="Tracé 1096" d="M219.13,428.478A4.643,4.643,0,1,1,223.7,433.2a4.637,4.637,0,0,1-4.566-4.719" transform="translate(-56.983 -110.236)" fill="#2400ff"/>
                <path id="Tracé_1099" data-name="Tracé 1099" d="M260.167,432.521l-3.026-5.951-8.913,1.151-1.415,6.523-3.559.46,5.668-23.97,3.234-.417,11.571,21.744Zm-11.281-7.673,6.922-.894-4.71-9.219Z" transform="translate(-63.257 -106.701)" fill="#2400ff"/>
            </g>
        </g>
    </g>
</svg>
