<svg xmlns="http://www.w3.org/2000/svg" width="335" height="335" viewBox="0 0 335 335">
    <defs>
        <style>
            .animating {
                transform-origin: center;
                animation: rotate 30s infinite linear;
            }
            @keyframes rotate {
                from { transform: rotate(360deg); }
                to { transform: rotate(0); }
            }
        </style>
    </defs>
    <g id="logo-exertises-mobile" transform="translate(5 5)">
        <g id="Groupe_223" data-name="Groupe 223">
            <g class="animating" id="Groupe_222" data-name="Groupe 222">
                <path id="Tracé_984" data-name="Tracé 984" d="M278.074,415.937c1.44,5.09-.435,8.239-4.372,9.322A5.809,5.809,0,0,1,267.687,424l2.38,8.415-2.923.8-5.885-20.58,2.983-.821.716,2.53a5.665,5.665,0,0,1,4.484-4.152c3.946-1.054,7.193.652,8.633,5.743m-2.923.8c-.974-3.443-3.173-4.74-5.836-4.038-2.394.626-4.108,2.525-2.993,6.469s3.569,4.663,5.955,4.005c2.655-.73,3.848-2.993,2.874-6.436" transform="translate(-66.337 -108.217)" fill="#2400ff"/>
                <path id="Tracé_985" data-name="Tracé 985" d="M300.394,409l-11.079,4.426a4.35,4.35,0,0,0,5.736,2.091,4.662,4.662,0,0,0,3.046-4.38l2.863-.024a7.377,7.377,0,0,1-4.944,6.754c-3.748,1.53-7.938.436-9.95-4.462s.228-8.56,4-10.034,7.938-.436,9.95,4.462a7.724,7.724,0,0,1,.379,1.167m-12.043,2.076,8.38-3.348a4.417,4.417,0,0,0-5.7-2.006,4.271,4.271,0,0,0-2.679,5.354" transform="translate(-72.444 -106.33)" fill="#2400ff"/>
                <path id="Tracé_986" data-name="Tracé 986" d="M310.135,393.632l1.242,2.392c-3.168,1.6-4.005,3.74-1.422,8.713l2.64,5.082-2.756,1.393-7.057-13.589,2.755-1.393,1.3,2.5c-.107-2.349.985-3.929,3.244-5.072Z" transform="translate(-76.88 -103.923)" fill="#2400ff"/>
                <path id="Tracé_987" data-name="Tracé 987" d="M321.816,388.883l-2.181,1.283,4.742,7.844c.474.788,1.012.721,1.65.345l1.117-.657,1.442,2.388-1.116.657c-3.3,1.94-4.173,1.388-5.727-1.183L317,391.715,314.822,393l-1.253-2.073,2.181-1.282-1.491-2.466,2-2.6,2.124,3.516,2.181-1.283Z" transform="translate(-79.619 -101.532)" fill="#2400ff"/>
                <path id="Tracé_988" data-name="Tracé 988" d="M322.051,381.972l-1.9-2.827,2.659-1.738,1.9,2.828Zm10.123,14.969,2.556-1.67-8.549-12.735-2.556,1.669Z" transform="translate(-81.291 -99.639)" fill="#2400ff"/>
                <path id="Tracé_989" data-name="Tracé 989" d="M339.477,387.9c1.252,1.172,2.971.879,4.351-.155,1.43-1.072,2.323-2.74,1.2-4.2-2.1-2.723-7.483,6.187-11.417,1.081-2.7-3.5.8-6.432,2.105-7.411,1.232-.924,4.518-3.12,7.14-.828l-1.731,2.3c-1.27-1.043-2.643-.7-4.023.331-1.4,1.053-2.164,2.39-1.077,3.8,2.173,2.82,7.427-6.26,11.418-1.082,2.867,3.72-.759,6.938-2.114,7.955-1.233.924-5.007,3.294-7.819.453Z" transform="translate(-84.455 -99.105)" fill="#2400ff"/>
                <path id="Tracé_990" data-name="Tracé 990" d="M363.019,365.756l-8.731,8.05a4.365,4.365,0,0,0,6.114-.077,4.621,4.621,0,0,0,1.251-5.166l2.664-1.035a7.3,7.3,0,0,1-2.16,8.053c-2.943,2.754-7.251,3.216-10.909-.645s-2.9-8.071.086-10.781,7.25-3.216,10.909.645a8.1,8.1,0,0,1,.777.955m-10.486,6.2,6.606-6.089a4.433,4.433,0,0,0-6.052.144,4.243,4.243,0,0,0-.554,5.945" transform="translate(-88.562 -95.575)" fill="#2400ff"/>
                <path id="Tracé_991" data-name="Tracé 991" d="M371.245,359.2c1.467.9,3.092.27,4.232-1.019,1.181-1.334,1.715-3.146.316-4.351-2.612-2.251-6.066,7.55-10.965,3.33-3.359-2.892-.531-6.459.548-7.679,1.018-1.151,3.789-3.955,6.826-2.232l-1.227,2.594c-1.457-.769-2.732-.164-3.874,1.125-1.16,1.312-1.63,2.772-.278,3.938,2.706,2.33,6-7.61,10.965-3.33,3.569,3.073.674,6.947-.446,8.213-1.018,1.15-4.231,4.223-7.566,2Z" transform="translate(-92.23 -91.535)" fill="#2400ff"/>
                <path id="Tracé_992" data-name="Tracé 992" d="M384.31,338.237a4.265,4.265,0,0,1-1.166-5.981,4.4,4.4,0,0,1,6.062-1.151,4.266,4.266,0,0,1,1.168,5.981,4.4,4.4,0,0,1-6.063,1.151" transform="translate(-97.094 -87.219)" fill="#2400ff"/>
                <path id="Tracé_993" data-name="Tracé 993" d="M391.176,298.511l-5.035,9.843,5.971,2.972,4.268-8.344,2.459,1.224-4.267,8.344,6,2.986,5.034-9.844,2.461,1.225-6.416,12.543L382.3,309.83l6.416-12.543Z" transform="translate(-97.071 -78.486)" fill="#2400ff"/>
                <path id="Tracé_994" data-name="Tracé 994" d="M418.33,287.475l-1.241,3.227-6.323,1.455,3.753,5.228-1.242,3.227-5.311-7.8-.137.014-9.005,2.313,1.253-3.255,6.2-1.4-3.7-5.109,1.252-3.255,5.182,7.624.094.1Z" transform="translate(-101.266 -74.481)" fill="#2400ff"/>
                <path id="Tracé_995" data-name="Tracé 995" d="M417.406,263.18c5.185,1.329,7,4.508,5.973,8.41a5.7,5.7,0,0,1-4.127,4.5l8.569,2.2-.762,2.9-20.99-5.318.779-2.956,2.577.661a5.566,5.566,0,0,1-1.386-5.909c1.058-3.894,4.184-5.8,9.368-4.477m-.763,2.9c-3.506-.9-5.748.325-6.471,2.948-.653,2.357.15,4.771,4.165,5.8s5.879-.7,6.5-3.067c.694-2.631-.691-4.784-4.2-5.683" transform="translate(-103.106 -69.371)" fill="#2400ff"/>
                <path id="Tracé_996" data-name="Tracé 996" d="M422.774,240.947l-1.692,11.669c2.908.01,4.436-1.688,4.715-3.839a4.638,4.638,0,0,0-2.3-4.8l1.418-2.453a7.329,7.329,0,0,1,3.432,7.611c-.544,3.964-3.609,6.987-8.911,6.239s-7.386-4.5-6.78-8.453,3.609-6.988,8.91-6.24a8.275,8.275,0,0,1,1.213.264m-4.236,11.311,1.28-8.827a4.367,4.367,0,0,0-4.624,3.851c-.338,2.112.621,4.13,3.344,4.976" transform="translate(-104.752 -63.513)" fill="#2400ff"/>
                <path id="Tracé_997" data-name="Tracé 997" d="M414.538,226.085l2.721.145c-.193,3.508,1.26,5.3,6.918,5.6l5.782.308-.168,3.05-15.46-.826.167-3.05,2.845.152c-2.111-1.092-2.946-2.82-2.809-5.32Z" transform="translate(-105.204 -59.689)" fill="#2400ff"/>
                <path id="Tracé_998" data-name="Tracé 998" d="M415.628,214.038l.042,2.5,9.255-.148c.928-.015,1.137-.506,1.125-1.239l-.022-1.283,2.817-.045.021,1.283c.062,3.786-.859,4.259-3.892,4.307l-9.255.148.041,2.5-2.446.038-.04-2.5-2.91.046-1.287-3,4.147-.066-.041-2.5Z" transform="translate(-103.87 -56.452)" fill="#2400ff"/>
                <path id="Tracé_999" data-name="Tracé 999" d="M409.81,210.877l-3.433.188-.177-3.142,3.432-.188Zm18.207-1.06-.17-3.02-15.46.848.17,3.02Z" transform="translate(-103.139 -54.596)" fill="#2400ff"/>
                <path id="Tracé_1000" data-name="Tracé 1000" d="M424.42,196.73c1.658-.475,2.271-2.086,2.063-3.784-.215-1.758-1.222-3.361-3.066-3.142-3.442.41,1.63,9.5-4.825,10.266-4.426.527-5.222-3.932-5.418-5.538-.185-1.516-.445-5.423,2.885-6.5l1.133,2.634c-1.554.554-1.952,1.894-1.744,3.592.211,1.728,1,3.05,2.779,2.837,3.566-.425-1.721-9.485,4.825-10.265,4.7-.56,5.685,4.152,5.89,5.82.186,1.516.351,5.926-3.554,6.884Z" transform="translate(-104.886 -49.314)" fill="#2400ff"/>
                <path id="Tracé_1001" data-name="Tracé 1001" d="M417.03,164.912l2.64,11.5c2.72-1.015,3.535-3.139,3.019-5.248a4.7,4.7,0,0,0-3.892-3.672l.439-2.792a7.419,7.419,0,0,1,5.96,5.9c.927,3.9-.844,7.8-6.069,8.967s-8.529-1.6-9.395-5.512.845-7.8,6.069-8.968a8.149,8.149,0,0,1,1.229-.18m.134,12.061-2-8.7a4.32,4.32,0,0,0-2.928,5.228c.449,2.092,2.075,3.64,4.926,3.472" transform="translate(-103.982 -43.483)" fill="#2400ff"/>
                <path id="Tracé_1002" data-name="Tracé 1002" d="M415.615,154.517c1.524-.8,1.791-2.5,1.237-4.119-.574-1.679-1.891-3.046-3.651-2.459-3.286,1.094,3.56,8.969-2.6,11.021-4.224,1.407-5.925-2.8-6.45-4.332-.5-1.447-1.558-5.22,1.481-6.941l1.654,2.351c-1.407.855-1.518,2.247-.964,3.867.565,1.65,1.606,2.786,3.309,2.22,3.4-1.133-3.648-8.941,2.6-11.022,4.489-1.495,6.425,2.922,6.97,4.514.5,1.447,1.569,5.731-2.056,7.455Z" transform="translate(-102.469 -38.228)" fill="#2400ff"/>
                <path id="Tracé_1003" data-name="Tracé 1003" d="M403.546,134.164a4.386,4.386,0,0,1-5.828-2.006,4.275,4.275,0,0,1,2.033-5.75,4.387,4.387,0,0,1,5.829,2.006,4.276,4.276,0,0,1-2.034,5.75" transform="translate(-100.875 -33.259)" fill="#2400ff"/>
                <path id="Tracé_1004" data-name="Tracé 1004" d="M373.091,104.329l6.107,9.235,5.6-3.6-5.176-7.829,2.308-1.485,5.176,7.829,5.628-3.622-6.107-9.235,2.308-1.485,7.782,11.768-18.153,11.682-7.782-11.768Z" transform="translate(-94.147 -24.852)" fill="#2400ff"/>
                <path id="Tracé_1005" data-name="Tracé 1005" d="M377.01,76.575l2.2,2.68-1.9,6.122,6.466-.572,2.2,2.68-9.507.606-.057.124-2.5,8.841-2.223-2.7,1.888-5.993-6.334.586-2.223-2.7,9.284-.587.135-.029Z" transform="translate(-92.685 -20.217)" fill="#2400ff"/>
                <path id="Tracé_1006" data-name="Tracé 1006" d="M355.735,65.619c3.778-3.748,7.479-3.693,10.377-.85,1.735,1.7,2.463,3.622,1.856,5.783l6.245-6.2,2.152,2.112-15.24,15.211-2.2-2.154,1.878-1.863a5.745,5.745,0,0,1-5.874-1.8c-2.877-2.865-2.975-6.494.8-10.241m2.152,2.111c-2.555,2.535-2.614,5.062-.68,7,1.735,1.745,4.255,2.278,7.181-.625s2.349-5.364.592-7.087c-1.955-1.917-4.538-1.824-7.093.711" transform="translate(-89.589 -16.557)" fill="#2400ff"/>
                <path id="Tracé_1007" data-name="Tracé 1007" d="M339.093,50.27l9.356,7.334a4.229,4.229,0,0,0-.977-5.954,4.779,4.779,0,0,0-5.364-.46l-1.429-2.446a7.548,7.548,0,0,1,8.392.922c3.194,2.466,4.291,6.6.959,10.738s-7.665,4.016-10.821,1.5-4.291-6.6-.958-10.738a7.856,7.856,0,0,1,.843-.9m7.756,9.319-7.077-5.549a4.29,4.29,0,0,0,1.034,5.883,4.384,4.384,0,0,0,6.043-.334" transform="translate(-85.374 -12.635)" fill="#2400ff"/>
                <path id="Tracé_1008" data-name="Tracé 1008" d="M321.251,50l1.5-2.243c2.972,1.936,5.272,1.6,8.395-3.061l3.191-4.768,2.584,1.684L328.39,54.355l-2.584-1.683,1.571-2.345c-2.022,1.245-3.955,1.084-6.074-.3Z" transform="translate(-81.57 -10.541)" fill="#2400ff"/>
                <path id="Tracé_1009" data-name="Tracé 1009" d="M312.153,40.672l2.2,1.244,4.6-7.928c.461-.795.14-1.223-.507-1.588l-1.128-.637,1.4-2.413,1.128.637c3.334,1.882,3.275,2.9,1.768,5.5l-4.6,7.928,2.2,1.244L318,46.759l-2.2-1.245-1.447,2.493-3.276-.442,2.061-3.553-2.2-1.245Z" transform="translate(-78.951 -7.749)" fill="#2400ff"/>
                <path id="Tracé_1010" data-name="Tracé 1010" d="M306.057,43.492l-1.563,3.02-2.84-1.431,1.563-3.019Zm8.24-16.049-2.73-1.375-7.042,13.6,2.73,1.375Z" transform="translate(-76.594 -6.882)" fill="#2400ff"/>
                <path id="Tracé_1011" data-name="Tracé 1011" d="M301.782,26.383c.419-1.652-.686-2.985-2.278-3.662-1.65-.7-3.56-.648-4.3,1.036-1.371,3.142,9.142,3.386,6.57,9.276-1.764,4.04-6.071,2.476-7.578,1.836-1.422-.6-4.976-2.347-4.243-5.727l2.878.358c-.3,1.6.678,2.616,2.271,3.293,1.621.689,3.174.684,3.885-.944,1.421-3.254-9.179-3.3-6.57-9.276,1.874-4.292,6.5-2.76,8.063-2.1,1.421.6,5.37,2.681,4.244,6.493Z" transform="translate(-73.599 -5.19)" fill="#2400ff"/>
                <path id="Tracé_1012" data-name="Tracé 1012" d="M270.629,16.955l11.4,3.524a4.26,4.26,0,0,0-3.082-5.209,4.765,4.765,0,0,0-5.172,1.474l-2.226-1.776a7.534,7.534,0,0,1,8.167-2.117c3.88,1.167,6.411,4.637,4.809,9.678S278.841,29,274.98,27.772s-6.41-4.637-4.809-9.679a7.919,7.919,0,0,1,.459-1.139M281.265,22.9l-8.627-2.666a4.552,4.552,0,0,0,8.627,2.666" transform="translate(-68.476 -3.289)" fill="#2400ff"/>
                <path id="Tracé_1013" data-name="Tracé 1013" d="M261.231,12.891c.066-1.7-1.29-2.784-2.99-3.124-1.759-.353-3.618.085-3.989,1.88-.691,3.352,9.65,1.468,8.354,7.753-.889,4.31-5.429,3.648-7.036,3.326-1.517-.3-5.357-1.293-5.339-4.749l2.89-.23c.043,1.629,1.206,2.424,2.905,2.765,1.73.347,3.248.028,3.607-1.707.716-3.472-9.669-1.379-8.354-7.754.945-4.579,5.788-4.013,7.456-3.678,1.517.3,5.811,1.54,5.5,5.5Z" transform="translate(-63.537 -1.889)" fill="#2400ff"/>
                <path id="Tracé_1014" data-name="Tracé 1014" d="M236.9,14.923a4.367,4.367,0,1,1-4.015-4.629,4.367,4.367,0,0,1,4.015,4.629" transform="translate(-57.937 -2.714)" fill="#2400ff"/>
                <path id="Tracé_1015" data-name="Tracé 1015" d="M198.443,22.433l11.166-.531-.322-6.591-9.464.45-.134-2.716,9.465-.45-.323-6.621L197.664,6.5l-.133-2.716,14.229-.676,1.04,21.363-14.228.676Z" transform="translate(-50.156 -0.822)" fill="#2400ff"/>
                <path id="Tracé_1016" data-name="Tracé 1016" d="M175.311,6.489l3.46-.52,4.394,4.716,2.77-5.794,3.46-.52-4.277,8.4.079.111,6.471,6.6-3.49.525-4.288-4.639-2.69,5.686-3.49.525,4.183-8.2.043-.13Z" transform="translate(-44.514 -1.154)" fill="#2400ff"/>
                <path id="Tracé_1017" data-name="Tracé 1017" d="M154.257,17.143c-1.374-5.108.54-8.233,4.491-9.267a5.807,5.807,0,0,1,6,1.337L162.474.768,165.408,0l5.623,20.652-2.993.783-.683-2.539a5.67,5.67,0,0,1-4.537,4.1c-3.959,1-7.184-.742-8.559-5.85m2.934-.768c.93,3.454,3.113,4.78,5.784,4.111,2.4-.6,4.14-2.474,3.075-6.43s-3.51-4.707-5.9-4.08c-2.664.7-3.885,2.945-2.955,6.4" transform="translate(-39.056)" fill="#2400ff"/>
                <path id="Tracé_1018" data-name="Tracé 1018" d="M132.415,26.506l11.135-4.287a4.348,4.348,0,0,0-5.709-2.163,4.666,4.666,0,0,0-3.1,4.341l-2.863-.011a7.379,7.379,0,0,1,5.032-6.692c3.768-1.484,7.944-.337,9.892,4.587s-.338,8.557-4.128,9.984-7.944.336-9.892-4.587a7.893,7.893,0,0,1-.364-1.171m12.07-1.926-8.424,3.243A4.414,4.414,0,0,0,141.74,29.9a4.272,4.272,0,0,0,2.749-5.32" transform="translate(-33.485 -4.512)" fill="#2400ff"/>
                <path id="Tracé_1019" data-name="Tracé 1019" d="M124.506,41.1l-1.212-2.407c3.189-1.563,4.053-3.692,1.532-8.7l-2.576-5.116,2.772-1.359L131.911,37.2l-2.773,1.359-1.268-2.516c.077,2.349-1.035,3.918-3.31,5.032Z" transform="translate(-31.041 -6.209)" fill="#2400ff"/>
                <path id="Tracé_1020" data-name="Tracé 1020" d="M110.982,45.771l2.2-1.256-4.639-7.9c-.466-.793-1-.733-1.646-.366l-1.125.643-1.412-2.4,1.125-.643c3.322-1.9,4.189-1.334,5.71,1.255l4.64,7.9,2.2-1.255,1.227,2.088-2.2,1.255,1.459,2.484-2.032,2.572L114.4,46.6l-2.2,1.255Z" transform="translate(-26.497 -8.638)" fill="#2400ff"/>
                <path id="Tracé_1021" data-name="Tracé 1021" d="M109.272,49.63,106.7,51.268,98.311,38.432l2.576-1.638Zm-1.136,3.956L110,56.435l2.681-1.7-1.861-2.85Z" transform="translate(-24.962 -9.714)" fill="#2400ff"/>
                <path id="Tracé_1022" data-name="Tracé 1022" d="M93.009,46.963c-1.238-1.186-2.961-.916-4.355.1C87.211,48.12,86.3,49.776,87.4,51.249c2.064,2.75,7.563-6.1,11.434-.94,2.654,3.535-.882,6.422-2.2,7.386-1.244.908-4.559,3.064-7.153.739l1.762-2.274c1.256,1.058,2.634.737,4.027-.282,1.419-1.036,2.195-2.364,1.126-3.787-2.138-2.848-7.507,6.169-11.433.94-2.82-3.756.848-6.929,2.216-7.93,1.244-.909,5.049-3.232,7.825-.357Z" transform="translate(-21.31 -11.445)" fill="#2400ff"/>
                <path id="Tracé_1023" data-name="Tracé 1023" d="M69.123,68.983l8.833-7.942a4.365,4.365,0,0,0-6.116,0,4.62,4.62,0,0,0-1.315,5.15l-2.677,1a7.3,7.3,0,0,1,2.261-8.025c2.977-2.718,7.292-3.126,10.9.779s2.8,8.1-.221,10.778-7.292,3.126-10.9-.779a7.972,7.972,0,0,1-.765-.964m10.564-6.068L73.005,68.92a4.431,4.431,0,0,0,6.052-.07,4.243,4.243,0,0,0,.63-5.938" transform="translate(-17.118 -15.068)" fill="#2400ff"/>
                <path id="Tracé_1024" data-name="Tracé 1024" d="M60.752,75.347c-1.455-.916-3.087-.308-4.243.966-1.2,1.32-1.755,3.124-.372,4.346,2.584,2.282,6.16-7.473,11-3.195,3.322,2.934.449,6.464-.645,7.67-1.033,1.138-3.837,3.907-6.851,2.147L60.9,84.7c1.447.786,2.729.2,3.886-1.077,1.177-1.3,1.667-2.751.329-3.932-2.675-2.363-6.091,7.534-11,3.194-3.529-3.117-.587-6.954.549-8.2,1.033-1.138,4.283-4.169,7.589-1.906Z" transform="translate(-13.313 -18.998)" fill="#2400ff"/>
                <path id="Tracé_1025" data-name="Tracé 1025" d="M49.969,98.784a4.267,4.267,0,0,1,1.092,6,4.4,4.4,0,0,1-6.078,1.075,4.264,4.264,0,0,1-1.092-5.994,4.4,4.4,0,0,1,6.078-1.077" transform="translate(-10.946 -25.876)" fill="#2400ff"/>
                <path id="Tracé_1026" data-name="Tracé 1026" d="M36.836,133.5l5.158-9.783-5.934-3.044-4.371,8.292-2.446-1.254,4.373-8.292-5.962-3.058-5.154,9.78-2.444-1.255,6.572-12.465,19.23,9.866-6.572,12.465Z" transform="translate(-5.091 -29.68)" fill="#2400ff"/>
                <path id="Tracé_1027" data-name="Tracé 1027" d="M11.648,145.551l1.282-3.212,6.34-1.379-3.688-5.272,1.282-3.213,5.214,7.867.138-.012,9.033-2.205-1.293,3.24-6.22,1.328,3.635,5.153-1.292,3.24L20.992,143.4l-.093-.1Z" transform="translate(-2.958 -34.975)" fill="#2400ff"/>
                <path id="Tracé_1028" data-name="Tracé 1028" d="M11.547,169.846c-5.168-1.393-6.945-4.6-5.868-8.485a5.708,5.708,0,0,1,4.185-4.446l-8.543-2.3.8-2.888L23.048,157.3l-.817,2.947-2.569-.693a5.566,5.566,0,0,1,1.312,5.928c-1.107,3.882-4.259,5.755-9.427,4.363m.8-2.888c3.5.942,5.753-.255,6.51-2.869.683-2.35-.09-4.775-4.094-5.854s-5.888.629-6.541,2.987c-.727,2.622.63,4.794,4.125,5.736" transform="translate(-0.335 -40.057)" fill="#2400ff"/>
                <path id="Tracé_1029" data-name="Tracé 1029" d="M7.869,193.31l1.837-11.648c-2.907-.044-4.456,1.635-4.763,3.781a4.638,4.638,0,0,0,2.246,4.827l-1.45,2.435a7.325,7.325,0,0,1-3.339-7.65c.592-3.958,3.7-6.943,8.987-6.131s7.33,4.586,6.675,8.534-3.7,6.943-8.987,6.132a8.18,8.18,0,0,1-1.209-.279m4.376-11.258-1.389,8.811a4.369,4.369,0,0,0,4.671-3.8c.365-2.108-.569-4.136-3.281-5.016" transform="translate(-0.585 -47.202)" fill="#2400ff"/>
                <path id="Tracé_1030" data-name="Tracé 1030" d="M16,210.31l-2.719-.179c.237-3.5-1.192-5.314-6.846-5.686l-5.778-.38.206-3.048,15.448,1.016-.206,3.048-2.843-.187c2.1,1.118,2.91,2.855,2.742,5.354Z" transform="translate(-0.166 -53.07)" fill="#2400ff"/>
                <path id="Tracé_1031" data-name="Tracé 1031" d="M13.217,222.853l.042-2.5L4,220.2c-.929-.015-1.153.47-1.165,1.2l-.021,1.282L0,222.643l.021-1.283c.062-3.786,1-4.23,4.032-4.181l9.255.148.041-2.5,2.445.039-.041,2.5,2.91.046,1.189,3.043-4.148-.066-.041,2.5Z" transform="translate(0 -56.715)" fill="#2400ff"/>
                <path id="Tracé_1032" data-name="Tracé 1032" d="M15.665,227.592l.132,3.02L.331,231.27.2,228.248Zm2.887,2.965,3.434-.146-.138-3.143-3.433.146Z" transform="translate(-0.051 -60.001)" fill="#2400ff"/>
                <path id="Tracé_1033" data-name="Tracé 1033" d="M5.653,238.1c-1.663.453-2.3,2.057-2.111,3.757.193,1.762,1.18,3.377,3.026,3.18,3.448-.367-1.509-9.516,4.956-10.2,4.433-.473,5.172,3.995,5.346,5.6.168,1.518.378,5.428-2.967,6.46l-1.1-2.648c1.562-.534,1.976-1.869,1.789-3.57-.189-1.731-.958-3.062-2.743-2.872-3.571.381,1.6,9.507-4.956,10.205-4.709.5-5.631-4.224-5.814-5.894C.913,240.6.8,236.19,4.722,235.281Z" transform="translate(-0.258 -61.989)" fill="#2400ff"/>
                <path id="Tracé_1034" data-name="Tracé 1034" d="M12.65,269.327,10.158,257.8c-2.732.981-3.574,3.094-3.085,5.209a4.7,4.7,0,0,0,3.842,3.72l-.474,2.786a7.416,7.416,0,0,1-5.882-5.978c-.876-3.907.945-7.788,6.184-8.889s8.505,1.709,9.321,5.628-.945,7.788-6.184,8.889a8.206,8.206,0,0,1-1.23.166m.022-12.06,1.885,8.723A4.32,4.32,0,0,0,17.55,260.8c-.421-2.1-2.026-3.666-4.879-3.534" transform="translate(-1.104 -67.165)" fill="#2400ff"/>
                <path id="Tracé_1035" data-name="Tracé 1035" d="M13.852,280.007c-1.534.779-1.823,2.477-1.288,4.1.554,1.685,1.853,3.067,3.621,2.5,3.3-1.055-3.447-9.011,2.737-10.988,4.241-1.355,5.889,2.87,6.394,4.409.477,1.453,1.492,5.237-1.567,6.921l-1.624-2.369c1.417-.838,1.546-2.229,1.012-3.855-.543-1.656-1.571-2.8-3.279-2.258-3.416,1.091,3.535,8.982-2.738,10.987-4.506,1.44-6.387-3-6.912-4.6-.477-1.453-1.5-5.75,2.149-7.428Z" transform="translate(-2.464 -72.698)" fill="#2400ff"/>
                <path id="Tracé_1036" data-name="Tracé 1036" d="M28.18,302.594a4.387,4.387,0,0,1,5.8,2.078,4.278,4.278,0,0,1-2.106,5.726,4.386,4.386,0,0,1-5.8-2.078,4.277,4.277,0,0,1,2.105-5.726" transform="translate(-6.516 -79.78)" fill="#2400ff"/>
                <path id="Tracé_1037" data-name="Tracé 1037" d="M52.428,327.478l-5.987-9.308-5.647,3.53,5.076,7.891-2.326,1.457-5.076-7.89-5.672,3.55,5.987,9.308-2.326,1.457-7.63-11.861,18.3-11.454,7.629,11.861Z" transform="translate(-7.32 -82.941)" fill="#2400ff"/>
                <path id="Tracé_1038" data-name="Tracé 1038" d="M49.854,356.227l-2.17-2.707,1.978-6.1-6.472.494-2.17-2.707,9.513-.492.059-.124,2.607-8.809,2.19,2.731-1.963,5.97,6.342-.509,2.19,2.731-9.291.473-.136.028Z" transform="translate(-10.415 -88.65)" fill="#2400ff"/>
                <path id="Tracé_1039" data-name="Tracé 1039" d="M70.094,368.009c-3.823,3.7-7.522,3.6-10.385.725-1.713-1.722-2.418-3.651-1.785-5.8L51.6,369.047l-2.125-2.136L64.9,351.892l2.168,2.18-1.9,1.84a5.743,5.743,0,0,1,5.85,1.868c2.84,2.9,2.894,6.528-.929,10.229m-2.126-2.137c2.585-2.5,2.675-5.029.767-6.99-1.713-1.765-4.226-2.328-7.186.538s-2.416,5.335-.68,7.079c1.93,1.939,4.515,1.877,7.1-.626" transform="translate(-12.564 -92.903)" fill="#2400ff"/>
                <path id="Tracé_1040" data-name="Tracé 1040" d="M89.186,384.7l-9.263-7.452a4.229,4.229,0,0,0,.9,5.967,4.778,4.778,0,0,0,5.358.526l1.4,2.466A7.547,7.547,0,0,1,79.2,385.18c-3.164-2.5-4.208-6.656-.822-10.751s7.718-3.922,10.841-1.37,4.207,6.656.821,10.751a7.893,7.893,0,0,1-.855.889m-7.638-9.416,7.007,5.637a4.292,4.292,0,0,0-.96-5.9,4.384,4.384,0,0,0-6.047.26" transform="translate(-19.37 -98.008)" fill="#2400ff"/>
                <path id="Tracé_1041" data-name="Tracé 1041" d="M107.06,385.7l-1.53,2.224c-2.947-1.971-5.251-1.668-8.433,2.959l-3.25,4.727L91.283,393.9l8.693-12.64,2.562,1.715-1.6,2.326c2.037-1.221,3.968-1.036,6.069.37Z" transform="translate(-23.178 -100.655)" fill="#2400ff"/>
                <path id="Tracé_1042" data-name="Tracé 1042" d="M117.4,393.631l-2.188-1.27-4.7,7.871c-.471.79-.154,1.222.486,1.594l1.121.651-1.43,2.395-1.121-.651c-3.31-1.922-3.238-2.944-1.7-5.524l4.7-7.871-2.188-1.27,1.241-2.08,2.188,1.27,1.477-2.474,3.271.481-2.106,3.528,2.188,1.271Z" transform="translate(-27.132 -101.98)" fill="#2400ff"/>
                <path id="Tracé_1043" data-name="Tracé 1043" d="M121.962,392.678l2.714,1.409L117.463,407.6l-2.713-1.408Zm4.052-.969,1.6-3-2.823-1.465-1.6,3Z" transform="translate(-29.137 -102.236)" fill="#2400ff"/>
                <path id="Tracé_1044" data-name="Tracé 1044" d="M126.467,408.978c-.439,1.646.648,2.993,2.231,3.689,1.641.721,3.552.692,4.309-.982,1.411-3.124-9.1-3.5-6.451-9.356,1.814-4.017,6.1-2.4,7.6-1.741,1.414.62,4.945,2.407,4.168,5.778l-2.872-.394c.316-1.6-.645-2.624-2.229-3.32-1.612-.709-3.166-.723-3.9.9-1.462,3.236,9.134,3.414,6.451,9.356-1.928,4.268-6.532,2.679-8.087,1.995-1.415-.621-5.335-2.747-4.162-6.544Z" transform="translate(-31.311 -105.526)" fill="#2400ff"/>
                <path id="Tracé_1045" data-name="Tracé 1045" d="M157.375,418.889l-11.359-3.667a4.26,4.26,0,0,0,3.016,5.248,4.767,4.767,0,0,0,5.192-1.409l2.2,1.8a7.537,7.537,0,0,1-8.2,2.015c-3.864-1.216-6.351-4.718-4.685-9.741s5.771-6.4,9.617-5.123,6.351,4.719,4.685,9.741a7.808,7.808,0,0,1-.474,1.133m-10.56-6.076,8.593,2.774a4.552,4.552,0,0,0-8.593-2.774" transform="translate(-36.315 -107.602)" fill="#2400ff"/>
                <path id="Tracé_1046" data-name="Tracé 1046" d="M167.182,423.053c-.087,1.7,1.256,2.8,2.95,3.16,1.756.375,3.62-.04,4.012-1.83.733-3.344-9.63-1.587-8.255-7.855.942-4.3,5.473-3.581,7.077-3.24,1.513.323,5.34,1.359,5.279,4.814l-2.893.2c-.022-1.63-1.176-2.438-2.87-2.8-1.725-.368-3.248-.067-3.627,1.663-.759,3.463,9.65,1.5,8.255,7.855-1,4.567-5.838,3.941-7.5,3.586-1.513-.323-5.792-1.611-5.432-5.565Z" transform="translate(-41.681 -109.042)" fill="#2400ff"/>
                <path id="Tracé_1047" data-name="Tracé 1047" d="M193.339,423.921A4.366,4.366,0,1,1,197.3,428.6a4.366,4.366,0,0,1-3.961-4.679" transform="translate(-49.087 -110.884)" fill="#2400ff"/>
                <path id="Tracé_1123" data-name="Tracé 1123" d="M234.381,411.639l-11.08.669.4,6.63,9.392-.568.164,2.731-9.391.568.4,6.66,11.081-.669.164,2.732-14.118.853-1.3-21.485,14.118-.854Z" transform="translate(-55.828 -108.115)" fill="#2400ff"/>
                <path id="Tracé_1124" data-name="Tracé 1124" d="M257.378,429.1l-3.427.568-4.422-4.69-2.675,5.865-3.427.567,4.139-8.506-.081-.112-6.508-6.558,3.458-.573,4.316,4.615,2.6-5.76,3.458-.571-4.047,8.3-.041.131Z" transform="translate(-61.12 -109.422)" fill="#2400ff"/>
            </g>
            <path id="Tracé_1125" data-name="Tracé 1125" d="M150.477,37.352c-6.5-6.247-15.423-9.316-25.054-9.39-17.536-.134-32.735,10.157-35.181,31.307H78.056V0H63.639V59.27H34.346c-12.271,0-19.929,5.351-19.929,13.052V0H0V101.937H14.417c0-24.775,2.439-30.582,17.878-30.582H63.639v30.582H78.056V71.356H90.225c2.385,21.262,17.617,31.608,35.2,31.474q1.393-.014,2.771-.113c13.485-.845,25.737-7.683,31.238-21.021l-12.523-4.951-.009.019-.274-.108c-3.948,9.651-12.429,13.891-21.2,14.038-.619.009-1.234-.008-1.842-.043-9.391-.69-17.294-6.728-19.05-19.294h56.212a37.822,37.822,0,0,0,.437-5.825c0-12.7-4.148-22.028-10.7-28.179m-3.7,21.757H104.564c2.231-13.134,11.078-18.916,21.228-18.771a22.446,22.446,0,0,1,12.11,3.44c4.4,3.017,7.661,7.988,8.871,15.331" transform="translate(95 115.002)" fill="#242aff"/>
        </g>
        <circle id="Ellipse_67" data-name="Ellipse 67" cx="167.5" cy="167.5" r="167.5" transform="translate(-5 -5)" fill="none" opacity="0"/>
    </g>
</svg>
