<svg width="126.72" height="33.046" viewBox="0 0 126.72 33.046">
    <defs>
        <clipPath id="clip-path">
            <rect id="Rectangle_229" data-name="Rectangle 229" width="126.72" height="33.046" fill="none" />
        </clipPath>
    </defs>
    <g id="Logo" clip-path="url(#clip-path)">
        <path id="Tracé_937" data-name="Tracé 937" d="M48.231,11.971a11.525,11.525,0,0,0-8.03-3.01C34.58,8.919,29.708,12.217,28.925,19H25.018V0H20.4V19H11.009c-3.933,0-6.388,1.715-6.388,4.183V0H0V32.672H4.621c0-7.941.782-9.8,5.73-9.8H20.4v9.8h4.621v-9.8h3.9C29.683,29.685,34.565,33,40.2,32.958q.447,0,.888-.036c4.322-.271,8.249-2.463,10.012-6.738L47.087,24.6l0,.006L47,24.569a7.154,7.154,0,0,1-6.8,4.5c-.2,0-.4,0-.59-.014C36.6,28.833,34.067,26.9,33.5,22.87H51.521A12.123,12.123,0,0,0,51.661,21c0-4.071-1.33-7.06-3.43-9.032m-1.187,6.974H33.515c.715-4.21,3.551-6.063,6.8-6.016a7.194,7.194,0,0,1,3.881,1.1,7.051,7.051,0,0,1,2.843,4.914" transform="translate(0 0.001)" />
        <rect id="Rectangle_227" data-name="Rectangle 227" width="4.621" height="32.673" transform="translate(54.188 0)" />
        <path id="Tracé_938" data-name="Tracé 938" d="M229.348.486a2.517,2.517,0,0,0-2.974,0,2.316,2.316,0,0,0-.809,1.259,3.255,3.255,0,0,0-.091.86,3.066,3.066,0,0,0,.092.832,2.316,2.316,0,0,0,.808,1.259,2.517,2.517,0,0,0,2.974,0,2.316,2.316,0,0,0,.808-1.259,3.4,3.4,0,0,0,.092-.871,2.923,2.923,0,0,0-.092-.821,2.316,2.316,0,0,0-.808-1.259" transform="translate(-162.915 0)" />
        <rect id="Rectangle_228" data-name="Rectangle 228" width="4.621" height="23.338" transform="translate(62.636 9.335)" />
        <path id="Tracé_939" data-name="Tracé 939" d="M270.341,42.373c0,10.735-5.088,11.109-6.628,11.109-2.94,0-3.687-3.267-3.687-6.675V33.645h-4.668V46.808c0,4.388.094,10.549,6.628,10.549a8.622,8.622,0,0,0,8.355-5.554v5.181h4.668V33.645h-4.668Z" transform="translate(-184.507 -24.31)" />
        <path id="Tracé_940" data-name="Tracé 940" d="M364.932,32.3c-3.454,0-6.208,1.774-7.7,5.835-.513-3.081-2.007-5.835-6.348-5.835-3.267,0-5.882,1.587-7.468,5.228V32.672h-4.621V56.01h4.621V47.282c0-10.689,3.407-11.109,5.741-11.109,2.94,0,3.641,3.267,3.641,6.675V56.01h4.667V47.282c0-10.689,3.407-11.109,5.741-11.109,2.941,0,3.641,3.267,3.641,6.675V56.01h4.668V42.848c0-4.388-.047-10.549-6.581-10.549" transform="translate(-244.793 -23.337)" />
        <path id="Tracé_941" data-name="Tracé 941" d="M146.684.039h-4.312l-2.718,6.655h3.421Z" transform="translate(-100.906 -0.028)" />
    </g>
</svg>
