<svg width="329.824" height="329.873" viewBox="0 0 329.824 329.873">
    <defs>
        <style>
            .animating {
                transform-origin: center;
                animation: rotate 30s infinite linear;
            }
            @keyframes rotate {
                from { transform: rotate(360deg); }
                to { transform: rotate(0); }
            }
</style>
        <clipPath id="clip-path">
            <rect id="Rectangle_182" data-name="Rectangle 182" width="329.824" height="329.873" fill="#2400ff" />
        </clipPath>
    </defs>
    <g class="animating" id="Groupe_187" data-name="Groupe 187" transform="translate(0 -0.002)" clip-path="url(#clip-path)">
        <path id="Tracé_610" data-name="Tracé 610" d="M288.71,12.729l2.994.5-2.46,14.762c-.862,5.18-4.845,7.1-9,6.378a6.972,6.972,0,0,1-5.979-5.674l2.765-.524a4.277,4.277,0,0,0,3.629,3.713c2.63.469,4.985-.739,5.594-4.392l.394-2.365A5.637,5.637,0,0,1,280.915,27c-3.953-.658-6.113-3.573-5.25-8.753s3.848-7.206,7.8-6.577a5.585,5.585,0,0,1,4.811,3.633Zm-1.247,7.486c.669-4.013-1.2-5.709-3.6-6.078-2.67-.414-4.676,1.1-5.26,4.6s.819,5.615,3.484,6.059c2.4.4,4.711-.569,5.38-4.582" transform="translate(-93.253 -3.931)" fill="#2400ff" />
        <path id="Tracé_611" data-name="Tracé 611" d="M314.817,28.1l-11.281-3.171a4.238,4.238,0,0,0,3.175,5.086,4.633,4.633,0,0,0,5.026-1.614l2.234,1.7a7.32,7.32,0,0,1-7.941,2.341c-3.837-1.047-6.42-4.421-5-9.477s5.384-6.591,9.2-5.486,6.419,4.421,5,9.477a7.741,7.741,0,0,1-.415,1.144m-10.6-5.6,8.534,2.4a4.3,4.3,0,0,0-3.2-5,4.257,4.257,0,0,0-5.334,2.6" transform="translate(-102.22 -5.829)" fill="#2400ff" />
        <path id="Tracé_612" data-name="Tracé 612" d="M335.965,33.062l-3.141,7.963L330,39.912l3.141-7.964c.813-2.062,1.2-4.194-.581-4.9-1.214-.48-4.28-1.395-6.83,5.072l-2.083,5.281-2.8-1.1,5.568-14.12,2.8,1.1L327.867,26.7a5.994,5.994,0,0,1,6.661-1.583c3.954,1.56,2.484,5.287,1.437,7.942" transform="translate(-109.094 -7.543)" fill="#2400ff" />
        <path id="Tracé_613" data-name="Tracé 613" d="M344.577,38.556c2.4-4.669,6.593-5.38,10.115-3.533a6.973,6.973,0,0,1,3.961,7.229l-2.792-.345a4.275,4.275,0,0,0-2.322-4.643c-2.145-1.139-4.73-.694-6.425,2.6s-.555,5.655,1.618,6.74a4.274,4.274,0,0,0,5.127-.808l1.9,2.072a6.974,6.974,0,0,1-8.185.976c-3.549-1.793-5.405-5.616-3-10.286" transform="translate(-116.793 -11.588)" fill="#2400ff" />
        <path id="Tracé_614" data-name="Tracé 614" d="M376.529,58.577l-9.815-6.4a4.24,4.24,0,0,0,1.507,5.8,4.634,4.634,0,0,0,5.279-.036l1.623,2.291a7.323,7.323,0,0,1-8.279-.145c-3.347-2.147-4.8-6.141-1.932-10.539s7.111-4.677,10.425-2.479,4.8,6.141,1.932,10.539a7.881,7.881,0,0,1-.74.968m-8.438-8.513,7.424,4.843a4.3,4.3,0,0,0-1.556-5.727,4.257,4.257,0,0,0-5.869.884" transform="translate(-123.554 -15.547)" fill="#2400ff" />
        <path id="Tracé_615" data-name="Tracé 615" d="M393.824,68.186a4.28,4.28,0,1,1,.5,6.033,4.277,4.277,0,0,1-.5-6.033" transform="translate(-133.561 -22.669)" fill="#2400ff" />
        <path id="Tracé_616" data-name="Tracé 616" d="M413.158,101.344l2.942-5.407-5.529-6.173-5.7,2.331-2.208-2.465,21.176-8.209,2.005,2.239-10.481,20.149ZM413.1,88.763l4.294,4.794,4.546-8.393Z" transform="translate(-136.912 -27.684)" fill="#2400ff" />
        <path id="Tracé_617" data-name="Tracé 617" d="M438.4,111.991l1.759,2.474-12.194,8.676c-4.28,3.044-8.452,1.578-10.873-1.877a6.976,6.976,0,0,1-.2-8.241l2.322,1.59a4.277,4.277,0,0,0-.07,5.191c1.524,2.194,4.042,3.01,7.06.863l1.954-1.39a5.64,5.64,0,0,1-5.373-2.734c-2.323-3.266-1.783-6.853,2.5-9.9s7.821-2.359,10.168.888a5.583,5.583,0,0,1,.821,5.972Zm-6.184,4.4c3.314-2.357,3.2-4.881,1.763-6.842-1.591-2.184-4.078-2.538-6.972-.48s-3.4,4.543-1.833,6.744c1.408,1.979,3.728,2.936,7.042.578" transform="translate(-141.323 -35.597)" fill="#2400ff" />
        <path id="Tracé_618" data-name="Tracé 618" d="M448.668,141.017l-5.725-10.224a4.24,4.24,0,0,0-1.358,5.84,4.635,4.635,0,0,0,4.694,2.416l.375,2.783a7.322,7.322,0,0,1-7.267-3.969c-1.969-3.454-1.406-7.667,3.176-10.233s8.469-.845,10.385,2.639,1.406,7.667-3.176,10.234a7.844,7.844,0,0,1-1.1.513m-3.527-11.455,4.331,7.735a4.3,4.3,0,0,0,1.278-5.8,4.257,4.257,0,0,0-5.609-1.939" transform="translate(-149.033 -42.978)" fill="#2400ff" />
        <path id="Tracé_619" data-name="Tracé 619" d="M459.112,159.9l-7.854,3.4-1.206-2.785,7.856-3.4c2.033-.881,3.813-2.115,3.054-3.87-.519-1.2-2.036-4.015-8.415-1.251l-5.209,2.256-1.194-2.758,13.928-6.032,1.194,2.759-3.371,1.459a5.994,5.994,0,0,1,5.825,3.6c1.688,3.9-1.989,5.492-4.607,6.626" transform="translate(-151.695 -49.458)" fill="#2400ff" />
        <path id="Tracé_620" data-name="Tracé 620" d="M462.335,169.587c5-1.6,8.467.868,9.646,4.667a6.974,6.974,0,0,1-2.32,7.91l-1.728-2.221a4.277,4.277,0,0,0,1.648-4.923c-.709-2.323-2.85-3.84-6.379-2.714s-4.4,3.6-3.629,5.906a4.277,4.277,0,0,0,4.195,3.06l-.123,2.811a6.973,6.973,0,0,1-6.473-5.1c-1.237-3.78.158-7.8,5.162-9.391" transform="translate(-155.301 -57.494)" fill="#2400ff" />
        <path id="Tracé_621" data-name="Tracé 621" d="M470.761,206.447l-2.392-11.473a4.238,4.238,0,0,0-3.048,5.164,4.634,4.634,0,0,0,3.751,3.714l-.478,2.768a7.325,7.325,0,0,1-5.741-5.968c-.841-3.888.962-7.738,6.1-8.809s8.333,1.736,9.115,5.636-.961,7.738-6.1,8.81a7.831,7.831,0,0,1-1.207.158m.075-11.987,1.81,8.678a4.3,4.3,0,0,0,2.96-5.145,4.258,4.258,0,0,0-4.77-3.534" transform="translate(-157.309 -65.151)" fill="#2400ff" />
        <path id="Tracé_622" data-name="Tracé 622" d="M478.022,224.559a4.281,4.281,0,1,1-3.92,4.612,4.274,4.274,0,0,1,3.92-4.612" transform="translate(-161.197 -76.348)" fill="#2400ff" />
        <path id="Tracé_623" data-name="Tracé 623" d="M466.847,263.721l5.9-1.737.465-8.274-5.674-2.385.185-3.3,20.768,9.193-.168,3-21.666,6.811Zm8.863-8.929-.361,6.426,9.152-2.709Z" transform="translate(-158.671 -84.33)" fill="#2400ff" />
        <path id="Tracé_624" data-name="Tracé 624" d="M475.082,289.612l-.51,2.993L459.82,290.1c-5.177-.88-7.085-4.869-6.348-9.024a6.973,6.973,0,0,1,5.694-5.959l.514,2.766a4.277,4.277,0,0,0-3.725,3.615c-.477,2.628.722,4.988,4.372,5.609l2.365.4a5.636,5.636,0,0,1-1.857-5.734c.673-3.951,3.594-6.1,8.771-5.22s7.193,3.871,6.551,7.827a5.585,5.585,0,0,1-3.648,4.8Zm-7.482-1.272c4.01.682,5.713-1.184,6.091-3.582.422-2.668-1.083-4.68-4.584-5.275s-5.617.8-6.07,3.463c-.407,2.394.554,4.712,4.563,5.395" transform="translate(-154.135 -93.542)" fill="#2400ff" />
        <path id="Tracé_625" data-name="Tracé 625" d="M463.393,315.691l3.209-11.269a4.238,4.238,0,0,0-5.1,3.157,4.633,4.633,0,0,0,1.6,5.031l-1.707,2.229a7.319,7.319,0,0,1-2.313-7.95c1.06-3.833,4.444-6.4,9.494-4.966s6.572,5.406,5.454,9.223-4.443,6.4-9.495,4.965a7.875,7.875,0,0,1-1.142-.42m5.632-10.58-2.427,8.526a4.3,4.3,0,0,0,5.009-3.183,4.257,4.257,0,0,0-2.581-5.343" transform="translate(-155.983 -102.521)" fill="#2400ff" />
        <path id="Tracé_626" data-name="Tracé 626" d="M456.694,336.808l-7.953-3.169,1.124-2.82,7.953,3.171c2.059.819,4.19,1.211,4.9-.565.484-1.213,1.41-4.275-5.048-6.849l-5.273-2.1,1.113-2.792,14.1,5.619-1.112,2.792-3.412-1.36a5.993,5.993,0,0,1,1.558,6.667c-1.573,3.949-5.3,2.465-7.947,1.408" transform="translate(-152.578 -109.376)" fill="#2400ff" />
        <path id="Tracé_627" data-name="Tracé 627" d="M452.829,345.4c4.662,2.42,5.36,6.614,3.5,10.129a6.976,6.976,0,0,1-7.243,3.938l.354-2.792a4.278,4.278,0,0,0,4.652-2.306c1.146-2.142.709-4.73-2.578-6.436s-5.655-.574-6.747,1.6a4.277,4.277,0,0,0,.792,5.131l-2.079,1.9a6.974,6.974,0,0,1-.95-8.188c1.805-3.545,5.636-5.389,10.3-2.969" transform="translate(-150.16 -117.069)" fill="#2400ff" />
        <path id="Tracé_628" data-name="Tracé 628" d="M432.648,377.3l6.438-9.792a4.238,4.238,0,0,0-5.809,1.485,4.633,4.633,0,0,0,.017,5.279l-2.3,1.615a7.32,7.32,0,0,1,.174-8.278c2.159-3.34,6.158-4.782,10.547-1.895s4.652,7.127,2.441,10.433-6.158,4.78-10.547,1.895a7.742,7.742,0,0,1-.965-.743m8.543-8.408-4.871,7.408a4.3,4.3,0,0,0,5.733-1.536,4.258,4.258,0,0,0-.863-5.872" transform="translate(-146.136 -123.822)" fill="#2400ff" />
        <path id="Tracé_629" data-name="Tracé 629" d="M426.675,394.568a4.28,4.28,0,1,1-6.034.481,4.274,4.274,0,0,1,6.034-.481" transform="translate(-142.675 -133.81)" fill="#2400ff" />
        <path id="Tracé_630" data-name="Tracé 630" d="M386.316,413.778l5.4,2.961,6.193-5.508-2.311-5.706,2.472-2.2,8.134,21.205-2.245,2-20.112-10.552Zm12.581-.017-4.809,4.278,8.377,4.576Z" transform="translate(-130.512 -137.137)" fill="#2400ff" />
        <path id="Tracé_631" data-name="Tracé 631" d="M376.785,438.968l-2.48,1.751-8.636-12.225c-3.03-4.291-1.552-8.458,1.913-10.868a6.979,6.979,0,0,1,8.243-.172l-1.6,2.318a4.275,4.275,0,0,0-5.191-.086c-2.2,1.517-3.025,4.032-.888,7.057l1.383,1.96a5.639,5.639,0,0,1,2.753-5.364c3.274-2.313,6.86-1.761,9.891,2.529s2.334,7.829-.922,10.166a5.586,5.586,0,0,1-5.975.8Zm-4.379-6.2c2.347,3.323,4.871,3.213,6.837,1.787,2.19-1.584,2.552-4.071.5-6.971s-4.531-3.416-6.738-1.857c-1.985,1.4-2.949,3.72-.6,7.042" transform="translate(-123.775 -141.51)" fill="#2400ff" />
        <path id="Tracé_632" data-name="Tracé 632" d="M350.1,449.14l10.244-5.686a4.238,4.238,0,0,0-5.834-1.379,4.63,4.63,0,0,0-2.434,4.683l-2.783.365a7.322,7.322,0,0,1,3.994-7.252c3.462-1.956,7.672-1.377,10.221,3.215s.814,8.47-2.678,10.374-7.672,1.377-10.221-3.214a7.767,7.767,0,0,1-.509-1.106m11.467-3.484-7.75,4.3a4.3,4.3,0,0,0,5.789,1.3,4.256,4.256,0,0,0,1.96-5.6" transform="translate(-118.747 -149.202)" fill="#2400ff" />
        <path id="Tracé_633" data-name="Tracé 633" d="M329.968,459.536l-3.376-7.868,2.79-1.2,3.376,7.868c.874,2.036,2.1,3.821,3.86,3.066,1.2-.514,4.021-2.022,1.28-8.411l-2.239-5.217,2.762-1.184,5.986,13.948-2.762,1.185-1.449-3.375a6,6,0,0,1-3.617,5.814c-3.906,1.676-5.486-2.007-6.612-4.628" transform="translate(-111.046 -151.848)" fill="#2400ff" />
        <path id="Tracé_634" data-name="Tracé 634" d="M321.725,462.72c1.579,5.009-.9,8.463-4.7,9.631a6.975,6.975,0,0,1-7.9-2.348l2.227-1.72a4.278,4.278,0,0,0,4.918,1.664c2.326-.7,3.849-2.837,2.736-6.369s-3.586-4.409-5.894-3.649a4.276,4.276,0,0,0-3.074,4.184l-2.812-.133a6.976,6.976,0,0,1,5.129-6.455c3.784-1.225,7.793.185,9.372,5.2" transform="translate(-104.461 -155.424)" fill="#2400ff" />
        <path id="Tracé_635" data-name="Tracé 635" d="M284.862,471.01l11.48-2.353a4.239,4.239,0,0,0-5.153-3.066,4.634,4.634,0,0,0-3.728,3.739l-2.765-.487a7.324,7.324,0,0,1,5.987-5.721c3.891-.828,7.734.988,8.789,6.134s-1.764,8.327-5.667,9.1-7.734-.986-8.789-6.133a7.8,7.8,0,0,1-.154-1.208m11.987.116-8.685,1.78a4.3,4.3,0,0,0,5.135,2.977,4.257,4.257,0,0,0,3.55-4.757" transform="translate(-96.801 -157.403)" fill="#2400ff" />
        <path id="Tracé_636" data-name="Tracé 636" d="M270.007,478.222a4.281,4.281,0,1,1-4.6-3.937,4.277,4.277,0,0,1,4.6,3.938" transform="translate(-88.899 -161.259)" fill="#2400ff" />
        <path id="Tracé_637" data-name="Tracé 637" d="M225.519,466.881l1.715,5.911,8.272.495,2.407-5.665,3.3.2-9.268,20.733-3-.179-6.731-21.688Zm8.9,8.9-6.424-.385,2.676,9.162Z" transform="translate(-75.557 -158.679)" fill="#2400ff" />
        <path id="Tracé_638" data-name="Tracé 638" d="M200.349,475.059l-2.992-.519,2.559-14.749c.9-5.176,4.894-7.071,9.048-6.319a6.977,6.977,0,0,1,5.942,5.714l-2.769.506a4.278,4.278,0,0,0-3.6-3.738c-2.627-.487-4.992.706-5.625,4.355l-.411,2.363a5.642,5.642,0,0,1,5.743-1.839c3.949.686,6.091,3.615,5.193,8.79s-3.9,7.181-7.851,6.527a5.587,5.587,0,0,1-4.788-3.666Zm1.3-7.479c-.7,4.009,1.166,5.719,3.563,6.1,2.668.432,4.685-1.067,5.292-4.567s-.781-5.622-3.443-6.084c-2.394-.415-4.716.538-5.412,4.547" transform="translate(-67.104 -154.133)" fill="#2400ff" />
        <path id="Tracé_639" data-name="Tracé 639" d="M175.611,463.274l11.259,3.248a4.239,4.239,0,0,0-3.139-5.108,4.634,4.634,0,0,0-5.038,1.58l-2.222-1.715a7.321,7.321,0,0,1,7.957-2.286c3.83,1.073,6.389,4.465,4.934,9.512s-5.43,6.554-9.242,5.422-6.389-4.465-4.934-9.511a7.924,7.924,0,0,1,.424-1.142m10.56,5.669-8.516-2.458a4.3,4.3,0,0,0,3.164,5.021,4.257,4.257,0,0,0,5.353-2.563" transform="translate(-59.426 -155.95)" fill="#2400ff" />
        <path id="Tracé_640" data-name="Tracé 640" d="M153.854,456.5l3.2-7.94,2.815,1.133-3.194,7.941c-.827,2.056-1.226,4.187.548,4.9,1.212.486,4.269,1.423,6.865-5.026l2.119-5.265,2.788,1.121-5.665,14.081-2.788-1.121,1.371-3.408a5.99,5.99,0,0,1-6.671,1.536c-3.943-1.586-2.447-5.3-1.382-7.951" transform="translate(-51.909 -152.516)" fill="#2400ff" />
        <path id="Tracé_641" data-name="Tracé 641" d="M145.836,452.613c-2.435,4.654-6.631,5.337-10.141,3.466a6.975,6.975,0,0,1-3.914-7.257l2.791.364a4.277,4.277,0,0,0,2.291,4.66c2.138,1.153,4.726.725,6.443-2.556s.593-5.652-1.573-6.752a4.275,4.275,0,0,0-5.134.774l-1.89-2.086a6.974,6.974,0,0,1,8.192-.921c3.538,1.817,5.368,5.653,2.933,10.308" transform="translate(-44.788 -150.079)" fill="#2400ff" />
        <path id="Tracé_642" data-name="Tracé 642" d="M113.911,432.326l9.769,6.469a4.237,4.237,0,0,0-1.466-5.812,4.631,4.631,0,0,0-5.278,0l-1.607-2.3a7.323,7.323,0,0,1,8.276.2c3.332,2.17,4.758,6.174,1.86,10.551s-7.142,4.628-10.44,2.407-4.759-6.173-1.86-10.551a7.853,7.853,0,0,1,.746-.962m8.378,8.57L114.9,436a4.3,4.3,0,0,0,1.517,5.737,4.255,4.255,0,0,0,5.873-.843" transform="translate(-37.949 -146.033)" fill="#2400ff" />
        <path id="Tracé_643" data-name="Tracé 643" d="M100.2,426.305a4.28,4.28,0,1,1-.463-6.036,4.275,4.275,0,0,1,.463,6.036" transform="translate(-31.509 -142.546)" fill="#2400ff" />
        <path id="Tracé_644" data-name="Tracé 644" d="M73.558,385.861l-2.98,5.385,5.486,6.212,5.713-2.291,2.19,2.48-21.234,8.06-1.989-2.253,10.624-20.075Zm-.028,12.581-4.26-4.824-4.606,8.361Z" transform="translate(-20.654 -130.355)" fill="#2400ff" />
        <path id="Tracé_645" data-name="Tracé 645" d="M47.722,376.235l-1.743-2.487,12.256-8.592c4.3-3.014,8.462-1.519,10.86,1.952a6.977,6.977,0,0,1,.143,8.243l-2.312-1.606a4.276,4.276,0,0,0,.106-5.19c-1.509-2.206-4.021-3.04-7.054-.913l-1.964,1.377a5.638,5.638,0,0,1,5.354,2.771c2.3,3.281,1.736,6.865-2.565,9.881s-7.838,2.306-10.162-.958a5.585,5.585,0,0,1-.781-5.978Zm6.214-4.358c-3.331,2.336-3.23,4.859-1.811,6.832,1.577,2.194,4.061,2.565,6.969.527s3.432-4.519,1.88-6.732c-1.393-1.988-3.708-2.961-7.039-.626" transform="translate(-15.634 -123.607)" fill="#2400ff" />
        <path id="Tracé_646" data-name="Tracé 646" d="M42.2,349.51l5.652,10.265a4.238,4.238,0,0,0,1.4-5.83,4.633,4.633,0,0,0-4.676-2.449l-.354-2.785a7.323,7.323,0,0,1,7.238,4.019c1.944,3.468,1.35,7.677-3.25,10.21s-8.474.785-10.364-2.713-1.352-7.678,3.25-10.21a7.794,7.794,0,0,1,1.106-.508m3.445,11.48-4.277-7.763a4.3,4.3,0,0,0-1.318,5.785,4.255,4.255,0,0,0,5.595,1.978" transform="translate(-12.518 -118.551)" fill="#2400ff" />
        <path id="Tracé_647" data-name="Tracé 647" d="M30.693,329.362l7.879-3.347,1.187,2.794-7.879,3.348c-2.04.867-3.83,2.088-3.081,3.849.51,1.2,2.008,4.028,8.406,1.309l5.225-2.22,1.175,2.767L29.636,343.8l-1.175-2.766,3.38-1.437a5.992,5.992,0,0,1-5.8-3.638c-1.661-3.911,2.026-5.479,4.653-6.595" transform="translate(-8.713 -110.849)" fill="#2400ff" />
        <path id="Tracé_648" data-name="Tracé 648" d="M28.756,321.1c-5.015,1.561-8.461-.926-9.613-4.733a6.974,6.974,0,0,1,2.374-7.894l1.713,2.233a4.278,4.278,0,0,0-1.682,4.912c.694,2.329,2.823,3.86,6.36,2.758s4.421-3.57,3.67-5.88a4.276,4.276,0,0,0-4.174-3.089l.143-2.812a6.976,6.976,0,0,1,6.437,5.151c1.211,3.788-.213,7.794-5.228,9.355" transform="translate(-6.382 -104.246)" fill="#2400ff" />
        <path id="Tracé_649" data-name="Tracé 649" d="M20.607,284.2l2.311,11.49A4.239,4.239,0,0,0,26,290.543a4.634,4.634,0,0,0-3.726-3.741l.5-2.763a7.321,7.321,0,0,1,5.7,6.007c.814,3.895-1.016,7.73-6.166,8.766s-8.32-1.8-9.074-5.7,1.016-7.73,6.166-8.767a7.98,7.98,0,0,1,1.208-.15m-.16,11.987L18.7,287.491a4.3,4.3,0,0,0-3,5.125,4.257,4.257,0,0,0,4.743,3.567" transform="translate(-4.443 -96.577)" fill="#2400ff" />
        <path id="Tracé_650" data-name="Tracé 650" d="M17.079,269.353a4.28,4.28,0,1,1,3.951-4.586,4.275,4.275,0,0,1-3.951,4.586" transform="translate(-4.244 -88.677)" fill="#2400ff" />
        <path id="Tracé_651" data-name="Tracé 651" d="M21.7,224.9l-5.917,1.7-.523,8.273,5.658,2.425-.209,3.3L0,231.26l.19-3L21.907,221.6Zm-8.926,8.868.405-6.424-9.172,2.645Z" transform="translate(0 -75.347)" fill="#2400ff" />
        <path id="Tracé_652" data-name="Tracé 652" d="M13.051,199.646l.529-2.99,14.739,2.61c5.172.916,7.054,4.918,6.289,9.068a6.976,6.976,0,0,1-5.736,5.923l-.5-2.77a4.277,4.277,0,0,0,3.75-3.592c.5-2.625-.688-4.993-4.335-5.64l-2.362-.418a5.644,5.644,0,0,1,1.819,5.75c-.7,3.947-3.635,6.078-8.808,5.163s-7.169-3.922-6.5-7.873a5.586,5.586,0,0,1,3.682-4.774Zm7.474,1.323c-4.006-.709-5.722,1.145-6.116,3.542-.441,2.666,1.052,4.688,4.549,5.307s5.624-.762,6.095-3.423c.423-2.392-.522-4.718-4.528-5.426" transform="translate(-4.018 -66.866)" fill="#2400ff" />
        <path id="Tracé_653" data-name="Tracé 653" d="M28.7,174.983,25.417,186.23a4.239,4.239,0,0,0,5.119-3.122,4.633,4.633,0,0,0-1.562-5.042l1.723-2.216a7.322,7.322,0,0,1,2.258,7.965c-1.087,3.825-4.489,6.373-9.53,4.9s-6.535-5.452-5.39-9.26,4.489-6.374,9.529-4.9a7.813,7.813,0,0,1,1.14.428M23,185.523l2.487-8.509a4.3,4.3,0,0,0-5.031,3.147A4.256,4.256,0,0,0,23,185.523" transform="translate(-6.008 -59.207)" fill="#2400ff" />
        <path id="Tracé_654" data-name="Tracé 654" d="M33.867,153.246l7.93,3.224-1.144,2.812-7.93-3.224c-2.053-.835-4.182-1.24-4.9.53-.492,1.21-1.439,4.266,5,6.883l5.259,2.138-1.132,2.784-14.062-5.715,1.132-2.784,3.4,1.383A6,6,0,0,1,25.91,154.6c1.6-3.938,5.313-2.429,7.957-1.354" transform="translate(-7.783 -51.697)" fill="#2400ff" />
        <path id="Tracé_655" data-name="Tracé 655" d="M39.458,145.238c-4.645-2.451-5.314-6.649-3.431-10.153A6.974,6.974,0,0,1,43.3,131.2l-.373,2.789a4.276,4.276,0,0,0-4.667,2.275c-1.161,2.134-.742,4.724,2.534,6.453s5.65.612,6.757-1.55a4.278,4.278,0,0,0-.757-5.137l2.091-1.883a6.974,6.974,0,0,1,.894,8.2c-1.829,3.532-5.672,5.35-10.318,2.9" transform="translate(-11.916 -44.588)" fill="#2400ff" />
        <path id="Tracé_656" data-name="Tracé 656" d="M59.806,113.4l-6.5,9.75a4.24,4.24,0,0,0,5.82-1.447,4.634,4.634,0,0,0,.018-5.28l2.309-1.6a7.325,7.325,0,0,1-.23,8.279c-2.182,3.326-6.191,4.739-10.56,1.824s-4.605-7.16-2.373-10.452,6.192-4.739,10.561-1.824a7.788,7.788,0,0,1,.96.75m-8.6,8.351,4.92-7.376a4.3,4.3,0,0,0-5.744,1.5,4.256,4.256,0,0,0,.824,5.878" transform="translate(-15.946 -37.767)" fill="#2400ff" />
        <path id="Tracé_657" data-name="Tracé 657" d="M69.58,99.708a4.281,4.281,0,1,1,6.037-.442,4.276,4.276,0,0,1-6.037.442" transform="translate(-23.153 -31.344)" fill="#2400ff" />
        <path id="Tracé_658" data-name="Tracé 658" d="M103.031,73.173l-5.375-3L91.425,75.64l2.27,5.721-2.488,2.181L83.222,62.279l2.26-1.982,20.038,10.7ZM90.451,73.1l4.839-4.244-8.345-4.634Z" transform="translate(-28.297 -20.502)" fill="#2400ff" />
        <path id="Tracé_659" data-name="Tracé 659" d="M113.9,47.382l2.491-1.735,8.553,12.286c3,4.311,1.493,8.469-1.989,10.855a6.976,6.976,0,0,1-8.243.116l1.613-2.307a4.275,4.275,0,0,0,5.191.123c2.21-1.5,3.053-4.011.937-7.051l-1.37-1.969a5.642,5.642,0,0,1-2.79,5.346c-3.289,2.29-6.872,1.714-9.874-2.6s-2.28-7.847.992-10.162a5.586,5.586,0,0,1,5.981-.76Zm4.337,6.23c-2.324-3.34-4.85-3.246-6.826-1.834-2.2,1.569-2.581,4.053-.55,6.969s4.508,3.447,6.727,1.9c1.993-1.387,2.975-3.7.65-7.038" transform="translate(-36.217 -15.521)" fill="#2400ff" />
        <path id="Tracé_660" data-name="Tracé 660" d="M143,41.967l-10.284,5.618A4.239,4.239,0,0,0,138.539,49a4.633,4.633,0,0,0,2.466-4.667l2.786-.346a7.32,7.32,0,0,1-4.044,7.225c-3.475,1.933-7.682,1.325-10.2-3.284s-.756-8.477,2.748-10.357,7.682-1.325,10.2,3.284a7.873,7.873,0,0,1,.5,1.109m-11.492,3.406,7.78-4.249a4.3,4.3,0,0,0-5.782-1.339,4.258,4.258,0,0,0-2,5.588" transform="translate(-43.645 -12.432)" fill="#2400ff" />
        <path id="Tracé_661" data-name="Tracé 661" d="M162,30.526l3.322,7.891-2.8,1.178L159.205,31.7c-.86-2.043-2.077-3.836-3.84-3.094-1.2.506-4.035,2-1.336,8.4l2.2,5.233-2.77,1.166-5.891-13.99,2.77-1.167,1.426,3.386a5.994,5.994,0,0,1,3.656-5.789C159.341,24.2,160.9,27.9,162,30.526" transform="translate(-50.176 -8.65)" fill="#2400ff" />
        <path id="Tracé_662" data-name="Tracé 662" d="M171.723,28.619c-1.545-5.021.956-8.458,4.766-9.6a6.975,6.975,0,0,1,7.886,2.4l-2.24,1.7a4.274,4.274,0,0,0-4.9-1.7c-2.331.685-3.87,2.81-2.78,6.35s3.555,4.433,5.868,3.69a4.277,4.277,0,0,0,3.1-4.163l2.81.152a6.974,6.974,0,0,1-5.172,6.42c-3.793,1.2-7.792-.24-9.336-5.26" transform="translate(-58.231 -6.344)" fill="#2400ff" />
        <path id="Tracé_663" data-name="Tracé 663" d="M208.638,20.6l-11.5,2.272a4.239,4.239,0,0,0,5.132,3.1,4.634,4.634,0,0,0,3.754-3.713l2.762.507a7.323,7.323,0,0,1-6.028,5.679c-3.9.8-7.726-1.042-8.745-6.2s1.824-8.315,5.731-9.056,7.727,1.043,8.745,6.2a7.813,7.813,0,0,1,.147,1.209m-11.987-.2,8.7-1.719a4.3,4.3,0,0,0-5.114-3.013,4.257,4.257,0,0,0-3.584,4.731" transform="translate(-65.897 -4.432)" fill="#2400ff" />
        <path id="Tracé_664" data-name="Tracé 664" d="M226.8,17.129a4.281,4.281,0,1,1,4.574,3.968,4.276,4.276,0,0,1-4.574-3.968" transform="translate(-77.113 -4.266)" fill="#2400ff" />
        <path id="Tracé_1050" data-name="Tracé 1050" d="M253.882,12.8l3.687-8.8,2.74,9.143ZM256.26,0l-9.124,20.8,3.3.175,2.367-5.683,8.277.438,1.756,5.9,3.305.174L259.262.157Z" transform="translate(-84.03 0.002)" fill="#2400ff" />
    </g>
    <path id="Tracé_1051" data-name="Tracé 1051" d="M150.477,37.352c-6.5-6.247-15.423-9.316-25.054-9.39-17.536-.134-32.735,10.157-35.181,31.307H78.056V0H63.639v59.27H34.346c-12.271,0-19.929,5.351-19.929,13.052V0H0V101.937H14.417c0-24.775,2.439-30.582,17.878-30.582H63.639v30.582H78.056V71.356H90.225c2.385,21.262,17.617,31.608,35.2,31.474q1.393-.014,2.771-.113c13.485-.845,25.737-7.683,31.238-21.021l-12.523-4.951-.009.019-.274-.108c-3.948,9.651-12.429,13.891-21.2,14.038-.619.009-1.234-.008-1.842-.043-9.391-.69-17.294-6.728-19.05-19.294h56.212a37.821,37.821,0,0,0,.437-5.825c0-12.7-4.148-22.028-10.7-28.179m-3.7,21.757H104.564c2.231-13.134,11.078-18.916,21.228-18.771a22.446,22.446,0,0,1,12.11,3.44c4.4,3.017,7.661,7.988,8.871,15.331" transform="translate(102.605 127)" fill="#242aff" />
</svg>
