<svg xmlns="http://www.w3.org/2000/svg" xmlns:xlink="http://www.w3.org/1999/xlink" width="849.121" height="849.247" viewBox="0 0 849.121 849.247">
    <defs>
        <style>
            .animating {
                transform-origin: center;
                animation: rotate 12s infinite linear;
            }
            @keyframes rotate {
                from { transform: rotate(360deg); }
                to { transform: rotate(0); }
            }
        </style>
        <clipPath id="clip-path">
            <rect id="Rectangle_182" data-name="Rectangle 182" width="849.121" height="849.247" fill="#2400ff" />
        </clipPath>
    </defs>
    <g id="Groupe_214" data-name="Groupe 214" transform="translate(125.105 -60.107)">
        <path id="Tracé_21" data-name="Tracé 21" d="M390.766,97c-16.873-16.221-40.052-24.192-65.06-24.384-45.539-.348-85.008,26.377-91.359,81.3H202.7V0H165.26V153.914H89.192c-31.865,0-51.752,13.9-51.752,33.895V0H0V264.717H37.44c0-64.336,6.332-79.416,46.427-79.416H165.26v79.416H202.7V185.3h31.6c6.193,55.214,45.748,82.082,91.406,81.733q3.618-.037,7.2-.294c35.018-2.194,66.836-19.953,81.119-54.589L381.5,199.3l-.023.049-.71-.281c-10.253,25.062-32.276,36.073-55.061,36.455-1.607.022-3.2-.02-4.784-.112-24.386-1.792-44.909-17.471-49.471-50.1H417.424a98.217,98.217,0,0,0,1.135-15.126c0-32.98-10.772-57.2-27.794-73.177m-9.619,56.5H271.536c5.793-34.108,28.767-49.122,55.127-48.744,11.512.164,22.374,2.981,31.447,8.933,11.417,7.834,19.894,20.744,23.037,39.811" transform="translate(107.252 334.38)" fill="#242aff" />
        <g id="Groupe_189" data-name="Groupe 189" transform="translate(-125.105 60.106)">
            <g id="Groupe_188" data-name="Groupe 188" transform="translate(0 0.001)">
                <g class="animating" id="Groupe_187" data-name="Groupe 187" clip-path="url(#clip-path)">
                    <path id="Tracé_610" data-name="Tracé 610" d="M311.457,14.568l7.709,1.286-6.334,38c-2.219,13.336-12.473,18.284-23.176,16.42-7.773-1.373-13.7-6.243-15.392-14.607l7.118-1.349c1.028,5.718,4.652,8.7,9.342,9.559,6.771,1.208,12.833-1.9,14.4-11.308l1.014-6.09c-3.6,4.472-8.66,5.847-14.75,4.831-10.176-1.694-15.739-9.2-13.516-22.535s9.906-18.551,20.094-16.933c6.1.938,10.434,3.956,12.386,9.352Zm-3.211,19.273c1.723-10.331-3.1-14.7-9.277-15.649-6.873-1.065-12.038,2.827-13.542,11.846s2.109,14.454,8.97,15.6c6.168,1.028,12.128-1.465,13.849-11.8" transform="translate(191.741 8.083)" fill="#2400ff" />
                    <path id="Tracé_611" data-name="Tracé 611" d="M337.147,45.362,308.1,37.2c-.986,7.274,2.809,11.668,8.173,13.093a11.928,11.928,0,0,0,12.939-4.156l5.752,4.375c-5.06,6.453-12.973,8.044-20.444,6.027-9.879-2.695-16.529-11.382-12.872-24.4s13.861-16.967,23.7-14.123,16.526,11.382,12.867,24.4a19.918,19.918,0,0,1-1.069,2.946M309.86,30.955l21.971,6.175c.793-7.165-2.994-11.313-8.239-12.867s-10.679.165-13.732,6.693" transform="translate(210.177 11.985)" fill="#2400ff" />
                    <path id="Tracé_612" data-name="Tracé 612" d="M359.762,50.189l-8.086,20.5-7.271-2.866,8.086-20.5c2.093-5.308,3.082-10.8-1.5-12.6-3.126-1.235-11.019-3.59-17.584,13.058l-5.362,13.6-7.2-2.839,14.335-36.351,7.2,2.838-3.47,8.8c5.49-5.4,11.7-6.224,17.149-4.074,10.179,4.015,6.394,13.612,3.7,20.445" transform="translate(224.311 15.508)" fill="#2400ff" />
                    <path id="Tracé_613" data-name="Tracé 613" d="M346.285,45.6c6.188-12.02,16.974-13.849,26.041-9.1,6.985,3.682,11.138,10.128,10.2,18.61l-7.189-.889c.766-5.758-1.774-9.7-5.977-11.953-5.522-2.933-12.177-1.787-16.541,6.689s-1.429,14.558,4.164,17.351c4.275,2.114,8.959,1.889,13.2-2.081l4.9,5.335c-6.36,5.692-14.019,6.057-21.072,2.513-9.138-4.616-13.916-14.459-7.726-26.481" transform="translate(240.14 23.827)" fill="#2400ff" />
                    <path id="Tracé_614" data-name="Tracé 614" d="M397.234,78.811,371.965,62.328c-3.12,6.644-.811,11.975,3.879,14.942a11.931,11.931,0,0,0,13.591-.093l4.178,5.9c-6.761,4.64-14.789,3.789-21.314-.374-8.618-5.527-12.363-15.809-4.975-27.133s18.306-12.042,26.839-6.382S406.526,65,399.139,76.321a20.292,20.292,0,0,1-1.9,2.491M375.511,56.9l19.113,12.468c2.9-6.6.533-11.69-4-14.745s-10.242-3.04-15.108,2.277" transform="translate(254.043 31.967)" fill="#2400ff" />
                    <path id="Tracé_615" data-name="Tracé 615" d="M395.422,70.575a11.02,11.02,0,1,1,1.295,15.532,11.01,11.01,0,0,1-1.295-15.532" transform="translate(274.618 46.609)" fill="#2400ff" />
                    <path id="Tracé_616" data-name="Tracé 616" d="M429.678,132.712l7.573-13.921L423.015,102.9l-14.665,6-5.685-6.346,54.518-21.134,5.162,5.763-26.982,51.872Zm-.156-32.388,11.056,12.342,11.7-21.608Z" transform="translate(281.508 56.922)" fill="#2400ff" />
                    <path id="Tracé_617" data-name="Tracé 617" d="M474.23,123.483l4.53,6.368-31.393,22.335c-11.019,7.836-21.759,4.063-27.991-4.832-4.511-6.479-5.243-14.111-.515-21.217l5.979,4.093c-3.323,4.763-2.88,9.432-.18,13.363,3.923,5.648,10.405,7.75,18.175,2.222l5.031-3.578c-5.707.607-10.254-2.01-13.832-7.039-5.981-8.407-4.589-17.642,6.426-25.482s20.134-6.074,26.178,2.287c3.643,4.985,4.56,10.183,2.114,15.375ZM458.31,134.807c8.533-6.069,8.229-12.567,4.54-17.615-4.095-5.622-10.5-6.535-17.95-1.235s-8.752,11.695-4.72,17.362c3.624,5.1,9.6,7.559,18.13,1.488" transform="translate(290.578 73.191)" fill="#2400ff" />
                    <path id="Tracé_618" data-name="Tracé 618" d="M464.971,164.03l-14.74-26.321c-5.845,4.438-6.273,10.232-3.5,15.035a11.932,11.932,0,0,0,12.084,6.22l.965,7.165c-8.142.975-14.86-3.5-18.709-10.218-5.07-8.893-3.619-19.739,8.178-26.345s21.8-2.177,26.736,6.795,3.621,19.739-8.176,26.346a20.2,20.2,0,0,1-2.843,1.322m-9.08-29.492,11.15,19.914c5.633-4.5,5.894-10.108,3.289-14.922s-7.661-7.442-14.439-4.992" transform="translate(306.43 88.368)" fill="#2400ff" />
                    <path id="Tracé_619" data-name="Tracé 619" d="M479.532,182.636l-20.221,8.756-3.106-7.17,20.224-8.757c5.233-2.268,9.818-5.446,7.864-9.964-1.335-3.082-5.242-10.336-21.665-3.222l-13.411,5.808-3.074-7.1L482,145.458l3.074,7.1-8.677,3.755c7.7.075,12.667,3.884,15,9.262,4.346,10.04-5.119,14.14-11.861,17.059" transform="translate(311.904 101.691)" fill="#2400ff" />
                    <path id="Tracé_620" data-name="Tracé 620" d="M471.131,170.364c12.883-4.108,21.8,2.234,24.834,12.014,2.326,7.544.695,15.039-5.972,20.364l-4.45-5.718c4.618-3.526,5.617-8.11,4.243-12.675-1.827-5.981-7.337-9.885-16.422-6.987s-11.319,9.27-9.343,15.205c1.524,4.52,4.994,7.68,10.8,7.879l-.316,7.236c-8.521-.479-14.189-5.644-16.663-13.143-3.186-9.731.408-20.068,13.29-24.177" transform="translate(319.318 118.215)" fill="#2400ff" />
                    <path id="Tracé_621" data-name="Tracé 621" d="M483.523,229.8l-6.158-29.536c-6.91,2.476-9.058,7.875-7.848,13.294a11.929,11.929,0,0,0,9.658,9.563l-1.23,7.126c-8.061-1.516-13.124-7.806-14.781-15.365-2.165-10.009,2.476-19.92,15.713-22.68s21.453,4.47,23.466,14.51-2.474,19.92-15.713,22.68a20.148,20.148,0,0,1-3.108.408m.192-30.861,4.659,22.342c6.725-2.6,8.66-7.869,7.621-13.245s-5.077-9.4-12.28-9.1" transform="translate(323.448 133.958)" fill="#2400ff" />
                    <path id="Tracé_622" data-name="Tracé 622" d="M484.216,224.581a11.02,11.02,0,1,1-10.091,11.873,11,11,0,0,1,10.091-11.873" transform="translate(331.441 156.982)" fill="#2400ff" />
                    <path id="Tracé_623" data-name="Tracé 623" d="M467.138,288.442l15.2-4.472,1.2-21.3-14.607-6.141.477-8.507,53.466,23.667-.433,7.724-55.778,17.535Zm22.817-22.987L489.027,282l23.562-6.973Z" transform="translate(326.248 173.394)" fill="#2400ff" />
                    <path id="Tracé_624" data-name="Tracé 624" d="M509.347,312.442l-1.312,7.705-37.98-6.462c-13.328-2.267-18.24-12.536-16.342-23.232,1.4-7.767,6.29-13.674,14.66-15.341l1.324,7.121c-5.719,1.008-8.713,4.623-9.59,9.308-1.228,6.766,1.859,12.842,11.257,14.441l6.088,1.033c-4.46-3.611-5.816-8.677-4.781-14.762,1.731-10.171,9.252-15.708,22.579-13.44s18.519,9.967,16.865,20.15c-.958,6.1-3.993,10.419-9.393,12.353Zm-19.261-3.276c10.324,1.755,14.708-3.048,15.681-9.223,1.087-6.87-2.788-12.048-11.8-13.581s-14.461,2.059-15.627,8.915c-1.048,6.164,1.426,12.132,11.748,13.889" transform="translate(316.922 192.334)" fill="#2400ff" />
                    <path id="Tracé_625" data-name="Tracé 625" d="M470.7,338.006l8.261-29.012c-7.267-1.016-11.678,2.77-13.122,8.127a11.927,11.927,0,0,0,4.112,12.952l-4.4,5.738c-6.436-5.082-8-13-5.954-20.466,2.729-9.868,11.44-16.488,24.442-12.784s16.92,13.917,14.042,23.743-11.438,16.488-24.443,12.783a20.28,20.28,0,0,1-2.941-1.081m14.5-27.237-6.249,21.951c7.16.817,11.321-2.953,12.895-8.195s-.127-10.679-6.645-13.756" transform="translate(320.721 210.795)" fill="#2400ff" />
                    <path id="Tracé_626" data-name="Tracé 626" d="M469.215,360.622l-20.474-8.159,2.894-7.26,20.474,8.163c5.3,2.109,10.788,3.118,12.609-1.454,1.245-3.123,3.629-11.005-13-17.632l-13.576-5.41,2.865-7.187,36.3,14.466-2.863,7.187-8.784-3.5c5.376,5.509,6.181,11.719,4.012,17.163-4.051,10.168-13.634,6.346-20.459,3.626" transform="translate(313.72 224.892)" fill="#2400ff" />
                    <path id="Tracé_627" data-name="Tracé 627" d="M470.463,347.131c12,6.231,13.8,17.027,9.014,26.078-3.706,6.971-10.167,11.105-18.648,10.139l.911-7.189c5.758.785,9.71-1.742,11.977-5.937,2.95-5.515,1.826-12.178-6.637-16.568s-14.56-1.478-17.37,4.107c-2.127,4.27-1.917,8.958,2.039,13.211l-5.352,4.885c-5.673-6.377-6.011-14.038-2.445-21.081,4.647-9.126,14.509-13.873,26.511-7.644" transform="translate(308.749 240.708)" fill="#2400ff" />
                    <path id="Tracé_628" data-name="Tracé 628" d="M437.141,397.981l16.573-25.208c-6.633-3.143-11.97-.856-14.954,3.823a11.926,11.926,0,0,0,.042,13.591l-5.911,4.158c-4.618-6.778-3.74-14.8.447-21.31,5.559-8.6,15.853-12.31,27.153-4.878s11.975,18.349,6.285,26.86-15.854,12.3-27.152,4.878a19.925,19.925,0,0,1-2.484-1.913m21.995-21.647L446.6,395.407c6.587,2.928,11.69.574,14.76-3.956s3.077-10.229-2.221-15.117" transform="translate(300.474 254.593)" fill="#2400ff" />
                    <path id="Tracé_629" data-name="Tracé 629" d="M437.788,396.182a11.019,11.019,0,1,1-15.535,1.239,11,11,0,0,1,15.535-1.239" transform="translate(293.358 275.131)" fill="#2400ff" />
                    <path id="Tracé_630" data-name="Tracé 630" d="M390.21,430.232l13.894,7.624,15.943-14.179-5.95-14.689,6.365-5.661L441.4,457.919l-5.78,5.143L383.843,435.9Zm32.389-.042L410.218,441.2l21.565,11.782Z" transform="translate(268.349 281.971)" fill="#2400ff" />
                    <path id="Tracé_631" data-name="Tracé 631" d="M396.869,474.833l-6.385,4.508-22.233-31.473c-7.8-11.046-3.995-21.774,4.924-27.979,6.5-4.489,14.132-5.194,21.222-.443l-4.112,5.967c-4.752-3.34-9.427-2.912-13.364-.223-5.663,3.9-7.787,10.38-2.285,18.169L378.2,448.4c-.588-5.711,2.044-10.249,7.087-13.81,8.428-5.955,17.661-4.533,25.463,6.511s6.01,20.155-2.374,26.173c-5,3.626-10.2,4.525-15.384,2.063ZM385.6,458.871c6.042,8.555,12.541,8.271,17.6,4.6,5.638-4.078,6.57-10.48,1.293-17.948s-11.664-8.795-17.346-4.781c-5.109,3.609-7.593,9.576-1.548,18.129" transform="translate(254.497 290.962)" fill="#2400ff" />
                    <path id="Tracé_632" data-name="Tracé 632" d="M351.444,465.4l26.372-14.64c-4.414-5.86-10.2-6.311-15.018-3.549a11.921,11.921,0,0,0-6.266,12.057l-7.165.94c-.946-8.144,3.556-14.845,10.283-18.67,8.912-5.036,19.751-3.546,26.313,8.276s2.095,21.806-6.893,26.707-19.75,3.546-26.312-8.273a20,20,0,0,1-1.312-2.848m29.522-8.97L361.015,467.51c4.477,5.646,10.084,5.928,14.9,3.341s7.473-7.631,5.046-14.419" transform="translate(244.158 306.779)" fill="#2400ff" />
                    <path id="Tracé_633" data-name="Tracé 633" d="M335.283,479.914l-8.691-20.255,7.182-3.082,8.693,20.255c2.25,5.242,5.412,9.838,9.936,7.894,3.089-1.324,10.353-5.206,3.295-21.654l-5.763-13.431,7.111-3.048L372.456,482.5l-7.111,3.052-3.73-8.689c-.1,7.7-3.925,12.655-9.311,14.968-10.055,4.314-14.125-5.167-17.022-11.916" transform="translate(228.324 312.219)" fill="#2400ff" />
                    <path id="Tracé_634" data-name="Tracé 634" d="M344.557,471.555c4.066,12.9-2.311,21.788-12.1,24.793-7.553,2.3-15.041.644-20.345-6.045l5.733-4.428c3.51,4.628,8.091,5.644,12.662,4.285,5.988-1.8,9.909-7.3,7.043-16.4s-9.233-11.35-15.173-9.394c-4.523,1.507-7.694,4.965-7.913,10.771l-7.24-.341c.511-8.518,5.7-14.171,13.2-16.617,9.741-3.154,20.063.477,24.129,13.375" transform="translate(214.784 319.571)" fill="#2400ff" />
                    <path id="Tracé_635" data-name="Tracé 635" d="M285.122,483.732l29.556-6.057c-2.453-6.917-7.845-9.083-13.265-7.894a11.931,11.931,0,0,0-9.6,9.627l-7.119-1.254c1.539-8.056,7.848-13.1,15.413-14.73,10.016-2.131,19.912,2.544,22.627,15.792s-4.542,21.438-14.59,23.415-19.91-2.538-22.627-15.79a20.071,20.071,0,0,1-.4-3.109m30.859.3-22.359,4.583c2.576,6.734,7.843,8.688,13.219,7.663s9.42-5.043,9.139-12.246" transform="translate(199.034 323.64)" fill="#2400ff" />
                    <path id="Tracé_636" data-name="Tracé 636" d="M283.469,484.442A11.022,11.022,0,1,1,271.628,474.3a11.011,11.011,0,0,1,11.841,10.137" transform="translate(182.788 331.569)" fill="#2400ff" />
                    <path id="Tracé_637" data-name="Tracé 637" d="M230.718,467.19l4.414,15.219,21.295,1.274,6.2-14.584,8.5.506-23.861,53.376-7.722-.46-17.329-55.836Zm22.9,22.9-16.537-.991,6.888,23.587Z" transform="translate(155.354 326.265)" fill="#2400ff" />
                    <path id="Tracé_638" data-name="Tracé 638" d="M205.059,509.3l-7.7-1.336,6.589-37.972c2.311-13.324,12.6-18.2,23.293-16.267,7.763,1.427,13.656,6.338,15.3,14.711l-7.128,1.3c-.991-5.724-4.6-8.73-9.279-9.622-6.764-1.254-12.852,1.816-14.482,11.212l-1.057,6.085c3.629-4.448,8.7-5.789,14.786-4.734,10.167,1.765,15.681,9.306,13.369,22.63s-10.032,18.488-20.211,16.8c-6.1-.979-10.409-4.027-12.327-9.437Zm3.34-19.254c-1.791,10.32,3,14.723,9.174,15.715,6.868,1.111,12.062-2.747,13.623-11.758s-2.01-14.473-8.864-15.664c-6.163-1.067-12.14,1.385-13.933,11.707" transform="translate(137.975 316.917)" fill="#2400ff" />
                    <path id="Tracé_639" data-name="Tracé 639" d="M176.928,470.541l28.985,8.361c1.038-7.262-2.729-11.686-8.081-13.149a11.93,11.93,0,0,0-12.969,4.068l-5.719-4.416c5.1-6.418,13.03-7.952,20.484-5.884,9.86,2.763,16.449,11.5,12.7,24.488s-13.979,16.872-23.793,13.958-16.449-11.5-12.7-24.486a20.4,20.4,0,0,1,1.093-2.939m27.188,14.6-21.925-6.328c-.846,7.16,2.912,11.335,8.146,12.925s10.682-.09,13.78-6.6" transform="translate(122.187 320.654)" fill="#2400ff" />
                    <path id="Tracé_640" data-name="Tracé 640" d="M155.724,469l8.225-20.442,7.248,2.916-8.224,20.444c-2.129,5.293-3.157,10.779,1.41,12.616,3.12,1.252,10.992,3.663,17.672-12.94l5.454-13.556,7.179,2.887-14.584,36.251-7.179-2.887,3.529-8.774c-5.525,5.359-11.737,6.146-17.175,3.956-10.152-4.083-6.3-13.652-3.558-20.469" transform="translate(106.731 313.593)" fill="#2400ff" />
                    <path id="Tracé_641" data-name="Tracé 641" d="M168.054,470.282c-6.27,11.98-17.071,13.739-26.107,8.922-6.96-3.73-11.071-10.2-10.076-18.682l7.186.938c-.805,5.753,1.709,9.716,5.9,12,5.505,2.968,12.167,1.867,16.588-6.581s1.527-14.551-4.049-17.382c-4.261-2.143-8.949-1.951-13.217,1.993l-4.865-5.371c6.4-5.651,14.06-5.962,21.091-2.37,9.109,4.678,13.821,14.553,7.551,26.537" transform="translate(92.09 308.581)" fill="#2400ff" />
                    <path id="Tracé_642" data-name="Tracé 642" d="M117.535,436.79l25.15,16.653c3.165-6.618.9-11.965-3.775-14.962a11.923,11.923,0,0,0-13.588,0l-4.137-5.925c6.791-4.594,14.813-3.685,21.307.518,8.579,5.587,12.251,15.893,4.788,27.164s-18.388,11.914-26.878,6.2-12.252-15.894-4.788-27.164a20.23,20.23,0,0,1,1.922-2.477M139.1,458.853l-19.025-12.6c-2.95,6.576-.613,11.683,3.9,14.77s10.217,3.111,15.12-2.171" transform="translate(78.027 300.262)" fill="#2400ff" />
                    <path id="Tracé_643" data-name="Tracé 643" d="M112.061,437.435a11.02,11.02,0,1,1-1.191-15.54,11.007,11.007,0,0,1,1.191,15.54" transform="translate(64.787 293.094)" fill="#2400ff" />
                    <path id="Tracé_644" data-name="Tracé 644" d="M93.732,389.766l-7.671,13.865,14.125,15.994,14.708-5.9,5.639,6.385L65.865,440.864l-5.121-5.8,27.351-51.682Zm-.071,32.388-10.968-12.42L70.835,431.26Z" transform="translate(42.467 268.026)" fill="#2400ff" />
                    <path id="Tracé_645" data-name="Tracé 645" d="M50.466,396.233l-4.487-6.4L77.532,367.71c11.071-7.76,21.786-3.911,27.959,5.026,4.467,6.509,5.145,14.148.367,21.222l-5.952-4.134c3.357-4.742,2.945-9.415.272-13.362-3.884-5.678-10.353-7.826-18.16-2.35l-5.057,3.544c5.712-.569,10.241,2.08,13.785,7.135,5.921,8.448,4.469,17.674-6.6,25.439s-20.179,5.937-26.163-2.467c-3.609-5.011-4.491-10.215-2.01-15.391Zm16-11.219C57.89,391.027,58.15,397.525,61.8,402.6c4.059,5.65,10.455,6.6,17.943,1.356s8.835-11.634,4.841-17.331C81,381.509,75.041,379,66.465,385.014" transform="translate(32.144 254.151)" fill="#2400ff" />
                    <path id="Tracé_646" data-name="Tracé 646" d="M50.666,350.84l14.551,26.428c5.877-4.4,6.346-10.188,3.6-15.01a11.927,11.927,0,0,0-12.038-6.305l-.912-7.17c8.147-.919,14.832,3.611,18.634,10.348,5.006,8.929,3.476,19.764-8.366,26.285s-21.815,2.022-26.683-6.983-3.48-19.766,8.366-26.285a20.058,20.058,0,0,1,2.848-1.307m8.869,29.554-11.01-19.987c-5.663,4.453-5.964,10.064-3.393,14.894s7.607,7.5,14.4,5.092" transform="translate(25.74 243.755)" fill="#2400ff" />
                    <path id="Tracé_647" data-name="Tracé 647" d="M38.672,334.632l20.284-8.618,3.057,7.192-20.284,8.62c-5.252,2.233-9.86,5.376-7.933,9.909,1.313,3.094,5.17,10.37,21.642,3.371l13.452-5.716,3.026,7.123L35.95,371.795l-3.026-7.121,8.7-3.7c-7.7-.124-12.64-3.969-14.933-9.365-4.277-10.069,5.216-14.1,11.979-16.978" transform="translate(17.915 227.92)" fill="#2400ff" />
                    <path id="Tracé_648" data-name="Tracé 648" d="M44.477,343.937c-12.912,4.02-21.783-2.384-24.749-12.186-2.275-7.558-.593-15.041,6.112-20.323l4.411,5.75c-4.642,3.493-5.673,8.072-4.331,12.645,1.786,6,7.269,9.936,16.374,7.1s11.381-9.192,9.447-15.139c-1.492-4.53-4.939-7.714-10.745-7.952l.369-7.238c8.518.542,14.149,5.745,16.571,13.26,3.118,9.751-.547,20.065-13.459,24.083" transform="translate(13.123 214.344)" fill="#2400ff" />
                    <path id="Tracé_649" data-name="Tracé 649" d="M32.479,284.442l5.949,29.58c6.927-2.43,9.112-7.811,7.943-13.238a11.929,11.929,0,0,0-9.593-9.631l1.281-7.114c8.05,1.568,13.07,7.9,14.672,15.465,2.1,10.026-2.617,19.9-15.875,22.568S15.437,317.45,13.5,307.4s2.615-19.9,15.873-22.569a20.551,20.551,0,0,1,3.111-.386M32.066,315.3l-4.5-22.376c-6.744,2.55-8.715,7.813-7.714,13.194s5.009,9.435,12.212,9.182" transform="translate(9.135 198.575)" fill="#2400ff" />
                    <path id="Tracé_650" data-name="Tracé 650" d="M24.316,282.813a11.019,11.019,0,1,1,10.173-11.805,11.006,11.006,0,0,1-10.173,11.805" transform="translate(8.726 182.331)" fill="#2400ff" />
                    <path id="Tracé_651" data-name="Tracé 651" d="M55.86,230.1l-15.233,4.365-1.346,21.3,14.566,6.244-.539,8.506L0,246.47l.489-7.721L56.4,221.6ZM32.881,252.933,33.924,236.4,10.312,243.2Z" transform="translate(0 154.923)" fill="#2400ff" />
                    <path id="Tracé_652" data-name="Tracé 652" d="M15,204.355l1.363-7.7,37.946,6.718c13.316,2.358,18.16,12.66,16.191,23.344-1.454,7.763-6.384,13.639-14.767,15.25l-1.278-7.131c5.729-.972,8.747-4.566,9.654-9.248,1.276-6.759-1.772-12.855-11.161-14.519l-6.081-1.077c4.435,3.645,5.758,8.723,4.683,14.8-1.8,10.161-9.359,15.649-22.675,13.292s-18.456-10.1-16.735-20.269c1-6.093,4.063-10.392,9.479-12.291Zm19.242,3.407c-10.314-1.827-14.731,2.948-15.746,9.119-1.135,6.864,2.708,12.069,11.712,13.663s14.478-1.962,15.691-8.812c1.089-6.158-1.344-12.147-11.658-13.97" transform="translate(8.261 137.485)" fill="#2400ff" />
                    <path id="Tracé_653" data-name="Tracé 653" d="M46.075,176.322l-8.463,28.955c7.26,1.064,11.7-2.688,13.178-8.037a11.928,11.928,0,0,0-4.022-12.981l4.435-5.706c6.4,5.126,7.908,13.059,5.814,20.507-2.8,9.848-11.556,16.408-24.533,12.616s-16.823-14.036-13.877-23.84,11.556-16.41,24.532-12.616a20.108,20.108,0,0,1,2.936,1.1M31.386,203.457l6.4-21.9c-7.155-.87-11.343,2.873-12.952,8.1s.053,10.682,6.55,13.8" transform="translate(12.354 121.738)" fill="#2400ff" />
                    <path id="Tracé_654" data-name="Tracé 654" d="M51.152,155.14l20.417,8.3-2.945,7.24-20.415-8.3c-5.286-2.149-10.766-3.193-12.619,1.364-1.266,3.114-3.706,10.983,12.874,17.72L62,186.97l-2.914,7.167-36.2-14.714,2.914-7.167,8.761,3.561c-5.339-5.546-6.1-11.761-3.9-17.19,4.12-10.139,13.678-6.253,20.484-3.487" transform="translate(16.002 106.295)" fill="#2400ff" />
                    <path id="Tracé_655" data-name="Tracé 655" d="M46.4,167.44c-11.958-6.31-13.681-17.117-8.834-26.137,3.753-6.946,10.241-11.034,18.714-10.009l-.96,7.18c-5.751-.822-9.722,1.675-12.014,5.857-2.989,5.495-1.91,12.161,6.523,16.612s14.546,1.577,17.4-3.991c2.154-4.253,1.978-8.944-1.949-13.224l5.384-4.848c5.631,6.418,5.918,14.082,2.3,21.1-4.71,9.094-14.6,13.773-26.562,7.461" transform="translate(24.502 91.679)" fill="#2400ff" />
                    <path id="Tracé_656" data-name="Tracé 656" d="M80.132,117.051l-16.745,25.1c6.61,3.189,11.967.936,14.983-3.724a11.931,11.931,0,0,0,.046-13.593l5.943-4.119c4.572,6.81,3.636,14.83-.593,21.314-5.617,8.562-15.938,12.2-27.187,4.7s-11.856-18.434-6.108-26.909,15.941-12.2,27.189-4.7a20.05,20.05,0,0,1,2.472,1.93m-22.143,21.5,12.667-18.989c-6.567-2.972-11.685-.654-14.787,3.857s-3.148,10.21,2.12,15.132" transform="translate(32.786 77.653)" fill="#2400ff" />
                    <path id="Tracé_657" data-name="Tracé 657" d="M71.918,111.551a11.02,11.02,0,1,1,15.542-1.137,11.009,11.009,0,0,1-15.542,1.137" transform="translate(47.607 64.448)" fill="#2400ff" />
                    <path id="Tracé_658" data-name="Tracé 658" d="M134.221,93.447l-13.838-7.721L104.34,99.8l5.845,14.73-6.406,5.616L83.222,65.4l5.819-5.1,51.587,27.534Zm-32.388-.185L114.29,82.336,92.807,70.405Z" transform="translate(58.182 42.154)" fill="#2400ff" />
                    <path id="Tracé_659" data-name="Tracé 659" d="M125.523,50.114l6.414-4.467,22.019,31.631c7.728,11.1,3.843,21.8-5.121,27.947-6.523,4.445-14.164,5.1-21.222.3l4.153-5.94c4.73,3.374,9.406,2.979,13.364.316,5.69-3.864,7.86-10.327,2.411-18.153l-3.527-5.07c.549,5.714-2.117,10.235-7.184,13.763-8.468,5.9-17.693,4.413-25.42-6.688s-5.87-20.2,2.554-26.161c5.023-3.592,10.232-4.455,15.4-1.957Zm11.165,16.04c-5.984-8.6-12.487-8.358-17.574-4.722-5.665,4.04-6.644,10.434-1.417,17.941s11.607,8.874,17.317,4.9c5.131-3.572,7.658-9.522,1.674-18.119" transform="translate(74.467 31.912)" fill="#2400ff" />
                    <path id="Tracé_660" data-name="Tracé 660" d="M166.04,50.473,139.565,64.936c4.377,5.893,10.164,6.38,15,3.651a11.928,11.928,0,0,0,6.35-12.016l7.172-.89c.892,8.152-3.658,14.823-10.412,18.6-8.948,4.977-19.776,3.412-26.258-8.455S129.469,44,138.489,39.164s19.778-3.412,26.26,8.455a20.274,20.274,0,0,1,1.291,2.855m-29.585,8.769L156.485,48.3c-4.438-5.68-10.045-6-14.886-3.448s-7.522,7.583-5.143,14.386" transform="translate(89.739 25.562)" fill="#2400ff" />
                    <path id="Tracé_661" data-name="Tracé 661" d="M184.727,38.531l8.553,20.315-7.2,3.033-8.553-20.315c-2.214-5.259-5.347-9.877-9.885-7.965-3.1,1.3-10.388,5.138-3.441,21.633L169.868,68.7l-7.131,3L147.571,35.688l7.131-3,3.67,8.716c.151-7.7,4.012-12.63,9.413-14.9,10.086-4.246,14.089,5.262,16.942,12.035" transform="translate(103.169 17.787)" fill="#2400ff" />
                    <path id="Tracé_662" data-name="Tracé 662" d="M172.453,44.3c-3.978-12.925,2.46-21.774,12.271-24.71,7.568-2.246,15.044-.539,20.3,6.186l-5.767,4.389c-3.475-4.656-8.049-5.7-12.628-4.374-6,1.764-9.962,7.233-7.157,16.349s9.153,11.413,15.107,9.5c4.533-1.477,7.729-4.912,7.989-10.716l7.233.391c-.569,8.518-5.792,14.132-13.316,16.527-9.765,3.086-20.061-.617-24.036-13.542" transform="translate(119.73 13.044)" fill="#2400ff" />
                    <path id="Tracé_663" data-name="Tracé 663" d="M231.989,32.513l-29.6,5.848c2.406,6.936,7.782,9.14,13.212,7.988a11.93,11.93,0,0,0,9.665-9.559l7.111,1.3c-1.6,8.045-7.94,13.042-15.518,14.619-10.03,2.061-19.892-2.683-22.513-15.95s4.695-21.405,14.755-23.315,19.893,2.685,22.513,15.951a20.116,20.116,0,0,1,.377,3.113M201.13,32l22.393-4.424c-2.53-6.751-7.782-8.742-13.165-7.756S200.9,24.791,201.13,32" transform="translate(135.493 9.113)" fill="#2400ff" />
                    <path id="Tracé_664" data-name="Tracé 664" d="M226.822,24.345A11.021,11.021,0,1,1,238.6,34.56a11.01,11.01,0,0,1-11.775-10.215" transform="translate(158.554 8.771)" fill="#2400ff" />
                    <path id="Tracé_971" data-name="Tracé 971" d="M264.5,32.943,274,10.275l7.055,23.54ZM270.626,0,247.136,53.55l8.507.45,6.095-14.631L283.047,40.5l4.52,15.188,8.509.449L278.354.407Z" transform="translate(172.775 -0.001)" fill="#2400ff" />
                </g>
            </g>
        </g>
    </g>
</svg>
