<svg xmlns="http://www.w3.org/2000/svg" width="844" height="844" viewBox="0 0 844 844">
  <g id="Groupe_212" data-name="Groupe 212" transform="translate(3284 -545)">
    <circle id="Ellipse_10" data-name="Ellipse 10" cx="422" cy="422" r="422" transform="translate(-3284 545)" fill="#2400ff"/>
    <path id="Tracé_31" data-name="Tracé 31" d="M508.534,126.232c-21.958-21.11-52.122-31.484-84.668-31.732-59.263-.453-110.628,34.327-118.893,105.8H263.786V0h-48.72V200.3H116.072c-41.468,0-67.349,18.085-67.349,44.11V0H0V344.5H48.723c0-83.726,8.241-103.35,60.419-103.35H215.066V344.5h48.72V241.148h41.126c8.06,71.855,59.536,106.819,118.954,106.366q4.708-.048,9.364-.383C478.8,344.276,520.21,321.165,538.8,276.09l-42.322-16.731-.029.064-.924-.366c-13.343,32.616-42,46.944-71.656,47.442-2.092.029-4.169-.026-6.225-.146-31.735-2.332-58.444-22.737-64.38-65.205H543.227a127.814,127.814,0,0,0,1.477-19.685c0-42.919-14.018-74.444-36.17-95.232m-12.518,73.528H353.372c7.539-44.388,37.437-63.927,71.741-63.435,14.981.214,29.117,3.879,40.924,11.626,14.858,10.2,25.89,27,29.98,51.809" transform="translate(-3134 794.001)" fill="#fff"/>
  </g>
</svg>
