<svg xmlns="http://www.w3.org/2000/svg" id="Doc" width="144.155" height="177.422" viewBox="0 0 144.155 177.422">
    <path id="Rectangle_204" data-name="Rectangle 204" d="M12.861-1H129.294a13.877,13.877,0,0,1,13.861,13.861v149.7a13.877,13.877,0,0,1-13.861,13.861H12.861A13.877,13.877,0,0,1-1,162.561V12.861A13.877,13.877,0,0,1,12.861-1ZM129.294,170.877a8.326,8.326,0,0,0,8.317-8.317V12.861a8.326,8.326,0,0,0-8.317-8.317H12.861a8.326,8.326,0,0,0-8.317,8.317v149.7a8.326,8.326,0,0,0,8.317,8.317Z" transform="translate(1 1)" />
    <path id="Tracé_814" data-name="Tracé 814" d="M48.583,31.544H9.772a2.772,2.772,0,1,1,0-5.544H48.583a2.772,2.772,0,1,1,0,5.544Z" transform="translate(12.405 46.077)" fill="#2400ff" />
    <path id="Tracé_815" data-name="Tracé 815" d="M48.583,39.544H9.772a2.772,2.772,0,1,1,0-5.544H48.583a2.772,2.772,0,1,1,0,5.544Z" transform="translate(12.405 60.255)" fill="#2400ff" />
    <path id="Tracé_816" data-name="Tracé 816" d="M37.494,47.544H9.772a2.772,2.772,0,1,1,0-5.544H37.494a2.772,2.772,0,0,1,0,5.544Z" transform="translate(12.405 74.433)" fill="#2400ff" />
    <path id="Tracé_817" data-name="Tracé 817" d="M20.861,56.544H9.772a2.772,2.772,0,0,1,0-5.544H20.861a2.772,2.772,0,0,1,0,5.544Z" transform="translate(12.405 90.383)" fill="#2400ff" />
    <path id="Tracé_818" data-name="Tracé 818" d="M70.583,31.544H31.772a2.772,2.772,0,0,1,0-5.544H70.583a2.772,2.772,0,1,1,0,5.544Z" transform="translate(51.394 46.077)" fill="#2400ff" />
    <path id="Tracé_819" data-name="Tracé 819" d="M70.583,39.544H31.772a2.772,2.772,0,1,1,0-5.544H70.583a2.772,2.772,0,1,1,0,5.544Z" transform="translate(51.394 60.255)" fill="#2400ff" />
    <path id="Tracé_820" data-name="Tracé 820" d="M59.494,47.544H31.772a2.772,2.772,0,0,1,0-5.544H59.494a2.772,2.772,0,0,1,0,5.544Z" transform="translate(51.394 74.433)" fill="#2400ff" />
    <path id="Tracé_821" data-name="Tracé 821" d="M42.861,56.544H31.772a2.772,2.772,0,0,1,0-5.544H42.861a2.772,2.772,0,0,1,0,5.544Z" transform="translate(51.394 90.383)" fill="#2400ff" />
    <path id="Tracé_822" data-name="Tracé 822" d="M21.089,34.95a2.764,2.764,0,0,1-1.96-.812l-8.317-8.317A2.772,2.772,0,0,1,14.732,21.9l6.356,6.356L38.534,10.812a2.772,2.772,0,0,1,3.921,3.921L23.049,34.138A2.764,2.764,0,0,1,21.089,34.95Z" transform="translate(17.722 17.722)" fill="#2400ff" />
    <path id="Tracé_823" data-name="Tracé 823" d="M34.772,34.95a2.772,2.772,0,0,1-1.96-4.732L52.217,10.812a2.772,2.772,0,0,1,3.921,3.921L36.732,34.138A2.764,2.764,0,0,1,34.772,34.95Z" transform="translate(56.711 17.722)" fill="#2400ff" />
    <path id="Tracé_824" data-name="Tracé 824" d="M54.178,34.95a2.764,2.764,0,0,1-1.96-.812L32.812,14.732a2.772,2.772,0,0,1,3.921-3.921L56.138,30.217a2.772,2.772,0,0,1-1.96,4.732Z" transform="translate(56.711 17.722)" fill="#2400ff" />
</svg>
