<svg id="Logo" width="194.4" height="188.51" viewBox="0 0 194.4 188.51">
    <path id="Tracé_825" data-name="Tracé 825" d="M167.561,170.333H6.772A2.772,2.772,0,0,1,4,167.56V6.772A2.772,2.772,0,0,1,6.772,4H167.561a2.772,2.772,0,0,1,2.772,2.772V45.583a2.772,2.772,0,1,1-5.544,0V9.544H9.544V164.788H164.788V123.205a2.772,2.772,0,1,1,5.544,0V167.56A2.772,2.772,0,0,1,167.561,170.333Z" transform="translate(7.089 7.089)" />
    <rect id="Rectangle_205" data-name="Rectangle 205" width="22" height="22" rx="1" transform="translate(2.826 3)" fill="#fff" />
    <path id="Rectangle_205_-_Contour" data-name="Rectangle 205 - Contour" d="M4.544-1H21.178a5.551,5.551,0,0,1,5.544,5.544V21.178a5.551,5.551,0,0,1-5.544,5.544H4.544A5.551,5.551,0,0,1-1,21.178V4.544A5.551,5.551,0,0,1,4.544-1ZM21.178,21.178V4.544H4.541l0,16.633Z" transform="translate(1 1)" />
    <rect id="Rectangle_206" data-name="Rectangle 206" width="22" height="22" rx="1" transform="translate(80.826 3)" fill="#fff" />
    <path id="Rectangle_206_-_Contour" data-name="Rectangle 206 - Contour" d="M4.544-1H21.178a5.551,5.551,0,0,1,5.544,5.544V21.178a5.551,5.551,0,0,1-5.544,5.544H4.544A5.551,5.551,0,0,1-1,21.178V4.544A5.551,5.551,0,0,1,4.544-1ZM21.178,21.178V4.544H4.541l0,16.633Z" transform="translate(78.622 1)" />
    <rect id="Rectangle_207" data-name="Rectangle 207" width="22" height="22" rx="1" transform="translate(163.826 3)" fill="#fff" />
    <path id="Rectangle_207_-_Contour" data-name="Rectangle 207 - Contour" d="M4.544-1H21.178a5.551,5.551,0,0,1,5.544,5.544V21.178a5.551,5.551,0,0,1-5.544,5.544H4.544A5.551,5.551,0,0,1-1,21.178V4.544A5.551,5.551,0,0,1,4.544-1ZM21.178,21.178V4.544H4.541l0,16.633Z" transform="translate(161.788 1)" />
    <rect id="Rectangle_208" data-name="Rectangle 208" width="22" height="22" rx="1" transform="translate(2.826 83)" fill="#fff" />
    <path id="Rectangle_208_-_Contour" data-name="Rectangle 208 - Contour" d="M4.544-1H21.178a5.551,5.551,0,0,1,5.544,5.544V21.178a5.551,5.551,0,0,1-5.544,5.544H4.544A5.551,5.551,0,0,1-1,21.178V4.544A5.551,5.551,0,0,1,4.544-1ZM21.178,21.178V4.544H4.541l0,16.633Z" transform="translate(1 81.394)" />
    <rect id="Rectangle_209" data-name="Rectangle 209" width="22" height="22" rx="1" transform="translate(2.826 164)" fill="#fff" />
    <path id="Rectangle_209_-_Contour" data-name="Rectangle 209 - Contour" d="M4.544-1H21.178a5.551,5.551,0,0,1,5.544,5.544V21.178a5.551,5.551,0,0,1-5.544,5.544H4.544A5.551,5.551,0,0,1-1,21.178V4.544A5.551,5.551,0,0,1,4.544-1ZM21.178,21.178V4.544H4.541l0,16.633Z" transform="translate(1 161.788)" />
    <rect id="Rectangle_210" data-name="Rectangle 210" width="22" height="22" rx="1" transform="translate(80.826 164)" fill="#fff" />
    <path id="Rectangle_210_-_Contour" data-name="Rectangle 210 - Contour" d="M4.544-1H21.178a5.551,5.551,0,0,1,5.544,5.544V21.178a5.551,5.551,0,0,1-5.544,5.544H4.544A5.551,5.551,0,0,1-1,21.178V4.544A5.551,5.551,0,0,1,4.544-1ZM21.178,21.178V4.544H4.541l0,16.633Z" transform="translate(78.622 161.788)" />
    <rect id="Rectangle_211" data-name="Rectangle 211" width="22" height="22" rx="1" transform="translate(163.826 164)" fill="#fff" />
    <path id="Rectangle_211_-_Contour" data-name="Rectangle 211 - Contour" d="M4.544-1H21.178a5.551,5.551,0,0,1,5.544,5.544V21.178a5.551,5.551,0,0,1-5.544,5.544H4.544A5.551,5.551,0,0,1-1,21.178V4.544A5.551,5.551,0,0,1,4.544-1ZM21.178,21.178V4.544H4.541l0,16.633Z" transform="translate(161.788 161.788)" />
    <path id="Tracé_826" data-name="Tracé 826" d="M19,125.888,60.583,15H77.216L118.8,125.888H99.394l-8.317-24.95H46.722l-8.317,24.95ZM68.9,37.178,52.267,84.305H85.533Z" transform="translate(33.672 26.583)" fill="#fff" fill-rule="evenodd" />
    <path id="Tracé_827" data-name="Tracé 827" d="M62.355,16.772V14a2.772,2.772,0,0,0-2.6,1.8ZM20.772,127.661l-2.6-.973a2.772,2.772,0,0,0,2.6,3.746ZM78.989,16.772l2.6-.973a2.772,2.772,0,0,0-2.6-1.8Zm41.583,110.888v2.772a2.772,2.772,0,0,0,2.6-3.746Zm-19.405,0-2.63.877a2.772,2.772,0,0,0,2.63,1.9Zm-8.317-24.95,2.63-.877a2.772,2.772,0,0,0-2.63-1.9Zm-44.355,0V99.939a2.772,2.772,0,0,0-2.63,1.9Zm-8.317,24.95v2.772a2.772,2.772,0,0,0,2.63-1.9ZM54.039,86.078l-2.614-.923a2.772,2.772,0,0,0,2.614,3.695ZM70.672,38.95l2.614-.923a2.772,2.772,0,0,0-5.228,0ZM87.305,86.078V88.85a2.772,2.772,0,0,0,2.614-3.695ZM59.76,15.8,18.177,126.687l5.191,1.947L64.951,17.746ZM78.989,14H62.355v5.544H78.989Zm44.179,112.687L81.584,15.8l-5.191,1.947,41.583,110.888Zm-22,3.746h19.405v-5.544H101.166ZM90.22,103.587l8.317,24.95,5.26-1.753-8.317-24.95Zm-41.725,1.9H92.85V99.939H48.494Zm-5.687,23.054,8.317-24.95-5.26-1.753-8.317,24.95Zm-22.035,1.9H40.178v-5.544H20.772ZM56.653,87,73.286,39.872l-5.228-1.845L51.425,85.155Zm30.652-3.695H54.039V88.85H87.305ZM68.058,39.872,84.691,87l5.228-1.845L73.286,38.027Z" transform="translate(31.9 24.811)" fill="#2400ff" />
    <path id="Tracé_828" data-name="Tracé 828" d="M14,125.888,55.583,15H72.216L113.8,125.888H94.394l-8.317-24.95H41.722l-8.317,24.95ZM63.9,37.178,47.267,84.305H80.533Z" transform="translate(24.811 26.583)" fill="#fff" fill-rule="evenodd" />
    <path id="Tracé_829" data-name="Tracé 829" d="M57.355,16.772V14a2.772,2.772,0,0,0-2.6,1.8ZM15.772,127.661l-2.6-.973a2.772,2.772,0,0,0,2.6,3.746ZM73.989,16.772l2.6-.973a2.772,2.772,0,0,0-2.6-1.8Zm41.583,110.888v2.772a2.772,2.772,0,0,0,2.6-3.746Zm-19.405,0-2.63.877a2.772,2.772,0,0,0,2.63,1.9Zm-8.317-24.95,2.63-.877a2.772,2.772,0,0,0-2.63-1.9Zm-44.355,0V99.939a2.772,2.772,0,0,0-2.63,1.9Zm-8.317,24.95v2.772a2.772,2.772,0,0,0,2.63-1.9ZM49.039,86.078l-2.614-.923a2.772,2.772,0,0,0,2.614,3.695ZM65.672,38.95l2.614-.923a2.772,2.772,0,0,0-5.228,0ZM82.305,86.078V88.85a2.772,2.772,0,0,0,2.614-3.695ZM54.76,15.8,13.177,126.687l5.191,1.947L59.951,17.746ZM73.989,14H57.355v5.544H73.989Zm44.179,112.687L76.584,15.8l-5.191,1.947,41.583,110.888Zm-22,3.746h19.405v-5.544H96.166ZM85.22,103.587l8.317,24.95,5.26-1.753-8.317-24.95Zm-41.725,1.9H87.85V99.939H43.494Zm-5.687,23.054,8.317-24.95-5.26-1.753-8.317,24.95Zm-22.035,1.9H35.178v-5.544H15.772ZM51.653,87,68.286,39.872l-5.228-1.845L46.425,85.155Zm30.652-3.695H49.039V88.85H82.305ZM63.058,39.872,79.691,87l5.228-1.845L68.286,38.027Z" transform="translate(23.039 24.811)" fill="#2400ff" />
    <path id="Tracé_830" data-name="Tracé 830" d="M81.5,82.287l-2.325-1.51h0l-2.323-1.509.278-.429c-.1-.134-.192-.262-.273-.379-.4-.572-.775-1.229-1.141-1.865l-.041-.071L70.756,68l-2.915,1.671c-1.046.6-2.027,1.162-2.914,1.567a8.912,8.912,0,0,1-3.726.9,7.275,7.275,0,0,1-.772-.041,8.33,8.33,0,0,1-5.846-3.387,8.5,8.5,0,0,1-1.495-4.328q-.029-.316-.046-.652H53V61.418q0-.171,0-.343V31.785c0-1.2,0-2.328.089-3.3a8.5,8.5,0,0,1,1.493-4.325,8.33,8.33,0,0,1,5.839-3.389,7.276,7.276,0,0,1,.78-.042,8.909,8.909,0,0,1,3.716.892c.889.405,1.872.967,2.913,1.562l.106.061,25.515,14.58c1.052.6,2.046,1.17,2.853,1.734a10.7,10.7,0,0,1,1.422,1.17l.488-.218,1.129,2.532,0,.009,1.125,2.523-.436.194a8.321,8.321,0,0,1-.708,4.079,8.516,8.516,0,0,1-3.054,3.472c-.814.565-1.815,1.131-2.875,1.731L90,56.973l4.935,8.548c.365.632.742,1.285,1.036,1.907a8.154,8.154,0,0,1-2.8,10.451c-.572.4-1.229.775-1.865,1.141l-2.079,1.2c-.628.363-1.284.742-1.914,1.04a8.079,8.079,0,0,1-5.548.628Zm.1-5.242h0l.6-.918a2.766,2.766,0,0,0,1.655.443,2.85,2.85,0,0,0,1.086-.322c.423-.2.98-.522,1.518-.833l2.071-1.2c.544-.314,1.1-.635,1.486-.9a2.851,2.851,0,0,0,.821-.78,2.755,2.755,0,0,0,.443-1.654,2.851,2.851,0,0,0-.322-1.086c-.2-.417-.5-.946-.826-1.506l-.053-.092L82.4,54.9l8.271-4.681c.947-.536,1.841-1.042,2.446-1.462a3.225,3.225,0,0,0,1.16-1.2,2.775,2.775,0,0,0,.016-2.242l-.02-.045A3.269,3.269,0,0,0,93.124,44.1c-.6-.419-1.486-.926-2.425-1.463l-.112-.064L65.075,27.99c-.923-.528-1.8-1.028-2.457-1.328a3.312,3.312,0,0,0-1.6-.382,2.777,2.777,0,0,0-1.946,1.13,3.208,3.208,0,0,0-.462,1.578c-.066.723-.066,1.73-.066,2.8V60.959h0v.117c0,1.069,0,2.078.066,2.8a3.21,3.21,0,0,0,.462,1.58,2.776,2.776,0,0,0,1.949,1.129,1.7,1.7,0,0,0,.181.01,3.626,3.626,0,0,0,1.42-.394c.656-.3,1.529-.8,2.454-1.331l7.719-4.425L80.516,73.82c.314.544.635,1.1.9,1.486a2.849,2.849,0,0,0,.779.821Z" transform="translate(93.927 36.73)" />
</svg>
