<svg id="Style_graphique" data-name="Style graphique" xmlns="http://www.w3.org/2000/svg" width="182.966" height="181.003" viewBox="0 0 182.966 181.003">
  <path id="Tracé_903" data-name="Tracé 903" d="M2,55.155a34.689,34.689,0,0,1,.161-4.662,16.632,16.632,0,0,1,.708-3A34.7,34.7,0,0,1,4.81,43.253L17.82,17.232C21.651,9.57,23.566,5.74,26.158,4.511a8.317,8.317,0,0,1,7.128,0c2.592,1.229,4.507,5.06,8.338,12.721L54.635,43.253A34.7,34.7,0,0,1,56.576,47.5a16.656,16.656,0,0,1,.708,3,34.719,34.719,0,0,1,.161,4.662V156.989H2Z" transform="translate(0.772 -0.936)" fill="#fff"/>
  <path id="Tracé_903_-_Contour" data-name="Tracé 903 - Contour" d="M31.494,2.708a11.159,11.159,0,0,1,4.752,1.07c3.455,1.639,5.518,5.765,9.629,13.984L58.886,43.786a36.118,36.118,0,0,1,2.089,4.6,19.479,19.479,0,0,1,.826,3.5,36.133,36.133,0,0,1,.187,5.047V158.761a2.772,2.772,0,0,1-2.772,2.772H3.772A2.772,2.772,0,0,1,1,158.761V56.927a36.107,36.107,0,0,1,.187-5.047,19.456,19.456,0,0,1,.826-3.5,36.112,36.112,0,0,1,2.089-4.6L17.113,17.764c4.11-8.221,6.174-12.347,9.629-13.986A11.159,11.159,0,0,1,31.494,2.708Zm24.95,153.281V56.927a33.655,33.655,0,0,0-.134-4.278,13.919,13.919,0,0,0-.59-2.5,33.638,33.638,0,0,0-1.793-3.885L40.917,20.244C37.714,13.838,35.6,9.607,33.87,8.787a5.545,5.545,0,0,0-4.752,0c-1.728.819-3.844,5.051-7.046,11.456L9.061,46.265a33.624,33.624,0,0,0-1.793,3.886,13.9,13.9,0,0,0-.59,2.5,33.627,33.627,0,0,0-.134,4.278v99.061Z" transform="translate(-1 -2.708)" fill="#2400ff"/>
  <path id="Tracé_904" data-name="Tracé 904" d="M16.723,34.388a5.534,5.534,0,0,1-3.4-1.173L2.57,24.855a2.772,2.772,0,1,1,3.4-4.376l10.749,8.36L27.145,20.5a5.514,5.514,0,0,1,6.927,0l10.421,8.337,10.749-8.36a2.772,2.772,0,1,1,3.4,4.376L47.9,33.215a5.527,5.527,0,0,1-6.868-.047L30.608,24.831,20.187,33.168A5.533,5.533,0,0,1,16.723,34.388Z" transform="translate(-0.114 26.656)" fill="#2400ff"/>
  <path id="Tracé_905" data-name="Tracé 905" d="M8.772,125.572A2.772,2.772,0,0,1,6,122.8V25.772a2.772,2.772,0,0,1,5.544,0V122.8A2.772,2.772,0,0,1,8.772,125.572Z" transform="translate(7.861 33.253)" fill="#2400ff"/>
  <path id="Tracé_906" data-name="Tracé 906" d="M18.772,125.572A2.772,2.772,0,0,1,16,122.8V25.772a2.772,2.772,0,0,1,5.544,0V122.8A2.772,2.772,0,0,1,18.772,125.572Z" transform="translate(25.583 33.253)" fill="#2400ff"/>
  <path id="Tracé_907" data-name="Tracé 907" d="M22.633,20.089A23.788,23.788,0,0,1,6.812,13.732a2.772,2.772,0,0,1,3.921-3.92,18.481,18.481,0,0,0,11.9,4.732,18.481,18.481,0,0,0,11.9-4.732,2.772,2.772,0,1,1,3.921,3.921A23.789,23.789,0,0,1,22.633,20.089Z" transform="translate(7.861 8.442)" fill="#2400ff"/>
  <path id="Tracé_908" data-name="Tracé 908" d="M11.271,149.756a25.483,25.483,0,0,1,0-36.039L107.159,17.83a13.888,13.888,0,0,1,2.594-2.3,5.545,5.545,0,0,1,5.408,0,13.888,13.888,0,0,1,2.594,2.3L143.2,43.273a13.888,13.888,0,0,1,2.3,2.594,5.545,5.545,0,0,1,0,5.408,13.888,13.888,0,0,1-2.3,2.594L47.31,149.756A25.484,25.484,0,0,1,11.271,149.756Z" transform="translate(3.976 18.771)" fill="#fff"/>
  <path id="Tracé_908_-_Contour" data-name="Tracé 908 - Contour" d="M31.063,161.764a28.255,28.255,0,0,1-19.98-48.235l95.888-95.888a15.369,15.369,0,0,1,3.2-2.757,8.317,8.317,0,0,1,8.112,0,15.37,15.37,0,0,1,3.2,2.757L146.93,43.085a15.369,15.369,0,0,1,2.757,3.2,8.372,8.372,0,0,1,0,8.112,15.369,15.369,0,0,1-2.757,3.2L51.043,153.489A28.071,28.071,0,0,1,31.063,161.764ZM114.229,19.373a2.779,2.779,0,0,0-1.352.352,15.5,15.5,0,0,0-1.986,1.837L15,117.45a22.711,22.711,0,0,0,32.118,32.118L143.01,53.68a15.5,15.5,0,0,0,1.837-1.986,2.755,2.755,0,0,0,0-2.7,15.5,15.5,0,0,0-1.837-1.986L117.567,21.562a15.5,15.5,0,0,0-1.986-1.837A2.779,2.779,0,0,0,114.229,19.373Z" transform="translate(2.203 16.999)"/>
  <path id="Tracé_909" data-name="Tracé 909" d="M42.732,17.812a2.772,2.772,0,1,0-3.92,3.92Zm9.941,17.782a2.772,2.772,0,1,0,3.92-3.92ZM38.812,21.732,52.673,35.593l3.92-3.92L42.732,17.812Z" transform="translate(64.572 22.62)"/>
  <path id="Tracé_910" data-name="Tracé 910" d="M36.732,23.812a2.772,2.772,0,0,0-3.92,3.92Zm9.941,17.782a2.772,2.772,0,0,0,3.92-3.92ZM32.812,27.732,46.673,41.593l3.92-3.92L36.732,23.812Z" transform="translate(53.939 33.253)"/>
  <path id="Tracé_911" data-name="Tracé 911" d="M30.732,29.812a2.772,2.772,0,0,0-3.92,3.92Zm9.941,17.782a2.772,2.772,0,0,0,3.92-3.92ZM26.812,33.732,40.673,47.593l3.92-3.92L30.732,29.812Z" transform="translate(43.305 43.886)"/>
  <path id="Tracé_912" data-name="Tracé 912" d="M24.732,35.812a2.772,2.772,0,1,0-3.92,3.92Zm9.941,17.782a2.772,2.772,0,1,0,3.92-3.92ZM20.812,39.732,34.673,53.593l3.92-3.92L24.732,35.812Z" transform="translate(32.672 54.52)"/>
  <path id="Tracé_913" data-name="Tracé 913" d="M18.732,41.812a2.772,2.772,0,1,0-3.92,3.92Zm9.941,17.782a2.772,2.772,0,1,0,3.92-3.92ZM14.812,45.732,28.673,59.593l3.92-3.92L18.732,41.812Z" transform="translate(22.039 65.153)"/>
  <path id="Tracé_914" data-name="Tracé 914" d="M12.732,47.812a2.772,2.772,0,1,0-3.921,3.92Zm9.941,17.782a2.772,2.772,0,1,0,3.92-3.92ZM8.812,51.732,22.673,65.593l3.92-3.92L12.732,47.812Z" transform="translate(11.405 75.786)"/>
  <path id="Tracé_915" data-name="Tracé 915" d="M39.732,20.812a2.772,2.772,0,1,0-3.92,3.92Zm4.4,12.237a2.772,2.772,0,0,0,3.92-3.92Zm-8.317-8.317,8.317,8.317,3.92-3.92-8.317-8.317Z" transform="translate(59.255 27.937)"/>
  <path id="Tracé_916" data-name="Tracé 916" d="M33.732,26.812a2.772,2.772,0,0,0-3.92,3.92Zm4.4,12.237a2.772,2.772,0,0,0,3.92-3.92Zm-8.317-8.317,8.317,8.317,3.92-3.92-8.317-8.317Z" transform="translate(48.622 38.57)"/>
  <path id="Tracé_917" data-name="Tracé 917" d="M27.732,32.812a2.772,2.772,0,1,0-3.92,3.92Zm4.4,12.237a2.772,2.772,0,0,0,3.92-3.92Zm-8.317-8.317,8.317,8.317,3.92-3.92-8.317-8.317Z" transform="translate(37.989 49.203)"/>
  <path id="Tracé_918" data-name="Tracé 918" d="M21.732,38.812a2.772,2.772,0,1,0-3.92,3.92Zm4.4,12.237a2.772,2.772,0,0,0,3.92-3.92Zm-8.317-8.317,8.317,8.317,3.92-3.92-8.317-8.317Z" transform="translate(27.355 59.836)"/>
  <path id="Tracé_919" data-name="Tracé 919" d="M15.732,44.812a2.772,2.772,0,1,0-3.92,3.92Zm4.4,12.237a2.772,2.772,0,0,0,3.92-3.92Zm-8.317-8.317,8.317,8.317,3.92-3.92-8.317-8.317Z" transform="translate(16.722 70.47)"/>
  <rect id="Rectangle_218" data-name="Rectangle 218" width="177.422" height="49.9" rx="9" transform="translate(2.772 128.331)" fill="#fff"/>
  <path id="Rectangle_218_-_Contour" data-name="Rectangle 218 - Contour" d="M26.722-1H154.244a27.722,27.722,0,1,1,0,55.444H26.722A27.722,27.722,0,1,1,26.722-1ZM154.244,48.9a22.178,22.178,0,0,0,0-44.355H26.722a22.178,22.178,0,1,0,0,44.355Z" transform="translate(1 126.558)"/>
  <path id="Ellipse_49" data-name="Ellipse 49" d="M15.633-1A16.633,16.633,0,1,1-1,15.633,16.652,16.652,0,0,1,15.633-1Zm0,27.722A11.089,11.089,0,1,0,4.544,15.633,11.1,11.1,0,0,0,15.633,26.722Z" transform="translate(12.089 137.647)"/>
  <path id="Ellipse_50" data-name="Ellipse 50" d="M15.633-1A16.633,16.633,0,1,1-1,15.633,16.652,16.652,0,0,1,15.633-1Zm0,27.722A11.089,11.089,0,1,0,4.544,15.633,11.1,11.1,0,0,0,15.633,26.722Z" transform="translate(139.611 137.647)"/>
</svg>
