<svg id="Reseaux_sociaux" data-name="Reseaux sociaux" width="199.599" height="199.599" viewBox="0 0 199.599 199.599">
    <path id="Ellipse_43" data-name="Ellipse 43" d="M84.939-1a85.961,85.961,0,0,1,33.452,165.123A85.96,85.96,0,0,1,51.487,5.755,85.4,85.4,0,0,1,84.939-1Zm0,166.333A80.416,80.416,0,0,0,116.231,10.861,80.416,80.416,0,0,0,53.646,159.016,79.889,79.889,0,0,0,84.939,165.333Z" transform="translate(14.861 6.544)" />
    <path id="Tracé_871" data-name="Tracé 871" d="M74.989,2A45.923,45.923,0,0,1,98.728,8.753a64.513,64.513,0,0,1,19.386,18.418,93.419,93.419,0,0,1,13.07,27.317,119.131,119.131,0,0,1,0,66.9,93.419,93.419,0,0,1-13.07,27.317,64.512,64.512,0,0,1-19.387,18.418,45.1,45.1,0,0,1-47.478,0,64.512,64.512,0,0,1-19.386-18.418,93.418,93.418,0,0,1-13.07-27.317,119.131,119.131,0,0,1,0-66.9,93.419,93.419,0,0,1,13.07-27.317A64.513,64.513,0,0,1,51.25,8.753,45.923,45.923,0,0,1,74.989,2Zm0,166.333c14.444,0,28.154-8.11,38.6-22.835a87.9,87.9,0,0,0,12.282-25.7,113.591,113.591,0,0,0,0-63.714,87.9,87.9,0,0,0-12.282-25.7c-10.45-14.725-24.16-22.835-38.6-22.835s-28.154,8.11-38.6,22.835A87.9,87.9,0,0,0,24.1,56.081a113.59,113.59,0,0,0,0,63.714,87.9,87.9,0,0,0,12.282,25.7C46.835,160.223,60.545,168.333,74.989,168.333Z" transform="translate(24.811 3.544)" />
    <path id="Tracé_872" data-name="Tracé 872" d="M53.722,2C57.465,2,61.1,4.272,64.513,8.754c3.3,4.328,6.266,10.525,8.812,18.417,5.236,16.232,8.12,37.813,8.12,60.768s-2.884,44.536-8.12,60.768c-2.546,7.893-5.511,14.089-8.812,18.417-3.417,4.481-7.048,6.753-10.791,6.753s-7.373-2.272-10.791-6.754c-3.3-4.328-6.266-10.524-8.812-18.417C28.884,132.474,26,110.893,26,87.939S28.884,43.4,34.12,27.171c2.546-7.893,5.511-14.089,8.812-18.417C46.349,4.272,49.98,2,53.722,2Zm0,166.333c1.867,0,4.134-1.623,6.382-4.571,2.878-3.773,5.625-9.567,7.944-16.757,5.063-15.7,7.852-36.673,7.852-59.066S73.111,44.57,68.048,28.873c-2.319-7.19-5.066-12.984-7.944-16.757-2.248-2.948-4.515-4.571-6.382-4.571s-4.134,1.623-6.382,4.571c-2.878,3.773-5.625,9.567-7.944,16.757-5.063,15.7-7.852,36.673-7.852,59.066S34.333,131.308,39.4,147c2.319,7.19,5.066,12.984,7.944,16.757C49.588,166.709,51.855,168.333,53.722,168.333Z" transform="translate(46.078 3.544)" />
    <path id="Tracé_873" data-name="Tracé 873" d="M172.333,37.544H6V32H172.333Z" transform="translate(10.633 56.711)" />
    <path id="Tracé_874" data-name="Tracé 874" d="M13.465,46.806,10.932,45.68,8.68,50.747l2.533,1.126ZM157.62,51.872l2.534-1.126L157.9,45.68l-2.533,1.126ZM12.339,49.339c-1.126,2.533-1.124,2.534-1.121,2.535l0,0,.01,0,.024.011.062.026.182.072c.148.057.351.131.618.219.533.177,1.323.413,2.434.688A102.777,102.777,0,0,0,25.667,54.86c10.725,1.407,28.872,2.8,58.75,2.8V52.111c-29.724,0-47.616-1.383-58.029-2.749a97.573,97.573,0,0,1-10.5-1.848c-.989-.245-1.64-.442-2.022-.569-.191-.063-.314-.109-.377-.133l-.052-.021.006,0,.01,0,.007,0,0,0S13.465,46.806,12.339,49.339Zm72.078,8.317c29.878,0,48.025-1.389,58.75-2.8A102.777,102.777,0,0,0,154.28,52.9c1.112-.275,1.9-.511,2.434-.688.267-.088.47-.162.618-.219l.182-.072.062-.026.024-.011.011,0,0,0s0,0-1.121-2.535S155.37,46.8,155.373,46.8l0,0,.007,0,.01,0,.006,0-.052.021c-.064.024-.187.07-.377.133-.382.127-1.033.324-2.022.569a97.573,97.573,0,0,1-10.5,1.848c-10.413,1.366-28.305,2.749-58.029,2.749Z" transform="translate(15.383 80.955)" />
    <path id="Tracé_875" data-name="Tracé 875" d="M13.465,26.85l-2.533,1.126L8.68,22.909l2.533-1.126ZM157.62,21.783l2.534,1.126L157.9,27.976l-2.533-1.126ZM12.339,24.317c-1.126-2.533-1.124-2.534-1.121-2.535l0,0,.01,0,.024-.011.062-.026.182-.072c.148-.057.351-.131.618-.219.533-.177,1.323-.413,2.434-.688A102.778,102.778,0,0,1,25.667,18.8C36.391,17.389,54.538,16,84.417,16v5.544c-29.724,0-47.616,1.383-58.029,2.749a97.573,97.573,0,0,0-10.5,1.848c-.989.245-1.64.442-2.022.569-.191.063-.314.109-.377.133l-.052.021.006,0,.01,0,.007,0,0,0S13.465,26.85,12.339,24.317ZM84.417,16c29.878,0,48.025,1.389,58.75,2.8a102.778,102.778,0,0,1,11.113,1.964c1.112.275,1.9.511,2.434.688.267.088.47.162.618.219l.182.072.062.026.024.011.011,0,0,0s0,0-1.121,2.535-1.124,2.534-1.122,2.535l0,0,.007,0,.01,0,.006,0-.052-.021c-.064-.024-.187-.07-.377-.133-.382-.127-1.033-.324-2.022-.569a97.573,97.573,0,0,0-10.5-1.848c-10.413-1.366-28.305-2.749-58.029-2.749Z" transform="translate(15.383 28.355)" />
    <ellipse id="Ellipse_44" data-name="Ellipse 44" cx="24.5" cy="25" rx="24.5" ry="25" transform="translate(147.356 14)" fill="#fff" />
    <path id="Ellipse_44_-_Contour" data-name="Ellipse 44 - Contour" d="M26.722-1A27.722,27.722,0,1,1-1,26.722,27.754,27.754,0,0,1,26.722-1Zm0,49.9A22.178,22.178,0,1,0,4.544,26.722,22.2,22.2,0,0,0,26.722,48.9Z" transform="translate(145.155 12.089)" fill="#2400ff" />
    <path id="Tracé_876" data-name="Tracé 876" d="M86.233,26.269l2.685-.689Zm-4.144-5.6L80.235,22.73ZM85.1,23.734,82.8,25.269Zm-24.942,0L57.854,22.2Zm23.56,6.826v3.777h5.544V30.56ZM61.545,34.337V30.56H56v3.777ZM75.4,18.378l4.836,4.352,3.709-4.121-4.836-4.352ZM65.032,22.73l4.836-4.352-3.709-4.121-4.836,4.352Zm24.235,7.83a20.2,20.2,0,0,0-.348-4.981l-5.37,1.379a15.988,15.988,0,0,1,.174,3.6Zm-9.032-7.83a16.029,16.029,0,0,1,2.56,2.539L87.413,22.2a20.2,20.2,0,0,0-3.469-3.591Zm8.683,2.85a11.091,11.091,0,0,0-1.505-3.38L82.8,25.269a5.543,5.543,0,0,1,.752,1.69ZM61.545,30.56a15.987,15.987,0,0,1,.174-3.6l-5.37-1.379A20.2,20.2,0,0,0,56,30.56Zm-.222-11.951A20.2,20.2,0,0,0,57.854,22.2l4.617,3.069a16.029,16.029,0,0,1,2.56-2.539Zm.4,8.35a5.542,5.542,0,0,1,.752-1.69L57.854,22.2a11.091,11.091,0,0,0-1.505,3.38Z" transform="translate(99.244 25.266)" fill="#2400ff" />
    <path id="Tracé_877" data-name="Tracé 877" d="M69.089,8A11.089,11.089,0,1,1,58,19.089,11.1,11.1,0,0,1,69.089,8Zm0,16.633a5.544,5.544,0,1,0-5.544-5.544A5.551,5.551,0,0,0,69.089,24.633Z" transform="translate(102.788 14.178)" fill="#2400ff" />
    <circle id="Ellipse_45" data-name="Ellipse 45" cx="30.5" cy="30.5" r="30.5" transform="translate(105.356 33)" fill="#fff" />
    <path id="Ellipse_45_-_Contour" data-name="Ellipse 45 - Contour" d="M32.267-1A33.267,33.267,0,0,1,55.79,55.79,33.267,33.267,0,1,1,8.744,8.744,33.049,33.049,0,0,1,32.267-1Zm0,60.989A27.722,27.722,0,1,0,4.544,32.267,27.754,27.754,0,0,0,32.267,59.989Z" transform="translate(103.572 31.494)" fill="#2400ff" />
    <path id="Tracé_878" data-name="Tracé 878" d="M44.772,50.722A2.772,2.772,0,0,1,42,47.95V42.4a25.757,25.757,0,0,1,.476-6.718,13.823,13.823,0,0,1,2.049-4.376,25.771,25.771,0,0,1,4.856-4.666l3.6-3A2.772,2.772,0,1,1,56.527,27.9l-3.6,3a23.142,23.142,0,0,0-3.871,3.6,8.3,8.3,0,0,0-1.229,2.625,23.127,23.127,0,0,0-.286,5.277V47.95A2.772,2.772,0,0,1,44.772,50.722Zm33.266-5.551a2.773,2.773,0,0,1-2.377-1.346L65.682,27.2a2.772,2.772,0,0,1,4.152-3.556l3.6,3a25.78,25.78,0,0,1,4.856,4.666,13.825,13.825,0,0,1,2.05,4.377,25.759,25.759,0,0,1,.476,6.717,2.773,2.773,0,0,1-2.772,2.772Z" transform="translate(74.433 40.761)" fill="#2400ff" />
    <path id="Rectangle_213" data-name="Rectangle 213" d="M12.861-1A13.861,13.861,0,1,1-1,12.861,13.877,13.877,0,0,1,12.861-1Zm0,22.178a8.317,8.317,0,1,0-8.317-8.317A8.326,8.326,0,0,0,12.861,21.178Z" transform="translate(122.977 42.583)" fill="#2400ff" />
    <ellipse id="Ellipse_46" data-name="Ellipse 46" cx="39" cy="38.5" rx="39" ry="38.5" transform="translate(2.356 3)" fill="#fff" />
    <path id="Ellipse_46_-_Contour" data-name="Ellipse 46 - Contour" d="M40.583-1a41.583,41.583,0,0,1,29.4,70.987A41.583,41.583,0,1,1,11.179,11.179,41.311,41.311,0,0,1,40.583-1Zm0,77.622A36.039,36.039,0,0,0,66.066,15.1,36.039,36.039,0,0,0,15.1,66.066,35.8,35.8,0,0,0,40.583,76.622Z" transform="translate(1 1)" fill="#2400ff" />
    <path id="Tracé_879" data-name="Tracé 879" d="M9.772,50.026A2.772,2.772,0,0,1,7,47.254V36.009A25.73,25.73,0,0,1,7.461,29.4a13.821,13.821,0,0,1,1.988-4.321,25.719,25.719,0,0,1,4.715-4.649l4.893-4.194a2.772,2.772,0,1,1,3.608,4.21l-4.893,4.194a23.079,23.079,0,0,0-3.758,3.586,8.293,8.293,0,0,0-1.193,2.593,23.094,23.094,0,0,0-.277,5.187V47.254A2.772,2.772,0,0,1,9.772,50.026ZM48.583,38.781a2.773,2.773,0,0,1-2.348-1.3L35.147,19.818A2.772,2.772,0,0,1,39.3,16.239l4.893,4.194a25.709,25.709,0,0,1,4.715,4.649A13.815,13.815,0,0,1,50.894,29.4a25.723,25.723,0,0,1,.461,6.606,2.773,2.773,0,0,1-2.772,2.772Z" transform="translate(12.406 27.596)" fill="#2400ff" />
    <path id="Rectangle_214" data-name="Rectangle 214" d="M15.633-1A16.633,16.633,0,1,1-1,15.633,16.652,16.652,0,0,1,15.633-1Zm0,27.722A11.089,11.089,0,1,0,4.544,15.633,11.1,11.1,0,0,0,15.633,26.722Z" transform="translate(25.95 17.633)" fill="#2400ff" />
    <ellipse id="Ellipse_47" data-name="Ellipse 47" cx="38.5" cy="39" rx="38.5" ry="39" transform="translate(119.356 119)" fill="#fff" />
    <path id="Ellipse_47_-_Contour" data-name="Ellipse 47 - Contour" d="M40.583-1a41.583,41.583,0,0,1,29.4,70.987A41.583,41.583,0,1,1,11.179,11.179,41.311,41.311,0,0,1,40.583-1Zm0,77.622A36.039,36.039,0,0,0,66.066,15.1,36.039,36.039,0,0,0,15.1,66.066,35.8,35.8,0,0,0,40.583,76.622Z" transform="translate(117.433 117.433)" fill="#2400ff" />
    <path id="Tracé_880" data-name="Tracé 880" d="M51.772,92.026A2.772,2.772,0,0,1,49,89.254V78.009a25.741,25.741,0,0,1,.461-6.605,13.823,13.823,0,0,1,1.988-4.322,25.709,25.709,0,0,1,4.715-4.649l4.893-4.194a2.772,2.772,0,1,1,3.608,4.21l-4.893,4.194a23.069,23.069,0,0,0-3.758,3.586,8.3,8.3,0,0,0-1.193,2.593,23.107,23.107,0,0,0-.276,5.187V89.254A2.772,2.772,0,0,1,51.772,92.026ZM90.583,80.781a2.773,2.773,0,0,1-2.348-1.3L77.146,61.818A2.772,2.772,0,0,1,81.3,58.239l4.893,4.194a25.707,25.707,0,0,1,4.715,4.649A13.815,13.815,0,0,1,92.894,71.4a25.723,25.723,0,0,1,.461,6.606,2.773,2.773,0,0,1-2.772,2.772Z" transform="translate(86.839 102.029)" fill="#2400ff" />
    <path id="Rectangle_215" data-name="Rectangle 215" d="M15.633-1A16.633,16.633,0,1,1-1,15.633,16.652,16.652,0,0,1,15.633-1Zm0,27.722A11.089,11.089,0,1,0,4.544,15.633,11.1,11.1,0,0,0,15.633,26.722Z" transform="translate(142.383 134.066)" fill="#2400ff" />
    <circle id="Ellipse_48" data-name="Ellipse 48" cx="30.5" cy="30.5" r="30.5" transform="translate(8.356 125)" fill="#fff" />
    <path id="Ellipse_48_-_Contour" data-name="Ellipse 48 - Contour" d="M32.267-1A33.267,33.267,0,0,1,55.79,55.79,33.267,33.267,0,1,1,8.744,8.744,33.049,33.049,0,0,1,32.267-1Zm0,60.989A27.722,27.722,0,1,0,4.544,32.267,27.754,27.754,0,0,0,32.267,59.989Z" transform="translate(6.544 122.977)" fill="#2400ff" />
    <path id="Tracé_881" data-name="Tracé 881" d="M9.772,83.722A2.772,2.772,0,0,1,7,80.95V75.4a25.766,25.766,0,0,1,.476-6.717,13.819,13.819,0,0,1,2.05-4.376,25.772,25.772,0,0,1,4.856-4.666l3.6-3A2.772,2.772,0,0,1,21.527,60.9l-3.6,3a23.143,23.143,0,0,0-3.871,3.6,8.29,8.29,0,0,0-1.23,2.626,23.137,23.137,0,0,0-.286,5.277V80.95A2.772,2.772,0,0,1,9.772,83.722Zm33.266-5.551a2.773,2.773,0,0,1-2.377-1.346L30.682,60.2a2.772,2.772,0,0,1,4.152-3.556l3.6,3a25.781,25.781,0,0,1,4.856,4.666,13.826,13.826,0,0,1,2.05,4.377,25.758,25.758,0,0,1,.476,6.717,2.773,2.773,0,0,1-2.772,2.772Z" transform="translate(12.405 99.244)" fill="#2400ff" />
    <path id="Rectangle_216" data-name="Rectangle 216" d="M12.861-1A13.861,13.861,0,1,1-1,12.861,13.877,13.877,0,0,1,12.861-1Zm0,22.178a8.317,8.317,0,1,0-8.317-8.317A8.326,8.326,0,0,0,12.861,21.178Z" transform="translate(25.95 134.066)" fill="#2400ff" />
</svg>
