<svg id="Doc-1" width="185.738" height="213.46" viewBox="0 0 185.738 213.46">
    <path id="Rectangle_203" data-name="Rectangle 203" d="M18.405-1H140.383a19.427,19.427,0,0,1,19.405,19.405V168.1a19.427,19.427,0,0,1-19.405,19.405H18.405A19.427,19.427,0,0,1-1,168.1V18.405A19.427,19.427,0,0,1,18.405-1ZM140.383,181.966A13.877,13.877,0,0,0,154.244,168.1V18.405A13.877,13.877,0,0,0,140.383,4.544H18.405A13.877,13.877,0,0,0,4.544,18.405V168.1a13.877,13.877,0,0,0,13.861,13.861Z" transform="translate(1 1)" />
    <path id="Tracé_804" data-name="Tracé 804" d="M94.078,19.544H24.772a2.772,2.772,0,1,1,0-5.544H94.078a2.772,2.772,0,1,1,0,5.544Z" transform="translate(38.989 24.811)" fill="#2400ff" />
    <path id="Tracé_805" data-name="Tracé 805" d="M94.078,39.544H24.772a2.772,2.772,0,1,1,0-5.544H94.078a2.772,2.772,0,1,1,0,5.544Z" transform="translate(38.989 60.255)" fill="#2400ff" />
    <path id="Tracé_806" data-name="Tracé 806" d="M94.078,59.544H24.772a2.772,2.772,0,0,1,0-5.544H94.078a2.772,2.772,0,0,1,0,5.544Z" transform="translate(38.989 95.699)" fill="#2400ff" />
    <path id="Tracé_807" data-name="Tracé 807" d="M22.247,6a12.475,12.475,0,0,0-9.308,20.781L11.19,28.24l-.2.167A13.2,13.2,0,0,0,8.516,30.84a8.316,8.316,0,0,0-1.23,2.626A13.2,13.2,0,0,0,7,36.923v4.668c0,1.461,0,2.722.085,3.76a8.468,8.468,0,0,0,.822,3.235,8.316,8.316,0,0,0,3.635,3.634,8.467,8.467,0,0,0,3.235.822c1.038.085,2.3.085,3.76.085h7.421c1.462,0,2.722,0,3.761-.085a8.468,8.468,0,0,0,3.235-.822,8.316,8.316,0,0,0,3.634-3.634,8.467,8.467,0,0,0,.822-3.235c.085-1.038.085-2.3.085-3.76h0V36.923a13.207,13.207,0,0,0-.286-3.458,8.318,8.318,0,0,0-1.23-2.626,13.2,13.2,0,0,0-2.473-2.433l-.2-.167-1.75-1.458A12.475,12.475,0,0,0,22.247,6Zm4.6,24.075a12.522,12.522,0,0,1-9.2,0L14.739,32.5A10.435,10.435,0,0,0,13.05,34.03a2.774,2.774,0,0,0-.41.875,10.41,10.41,0,0,0-.1,2.278v4.3c0,1.6,0,2.63.066,3.416a3.159,3.159,0,0,0,.236,1.169,2.772,2.772,0,0,0,1.211,1.211,3.159,3.159,0,0,0,1.169.236c.786.064,1.817.066,3.416.066h7.208c1.6,0,2.63,0,3.416-.066a3.161,3.161,0,0,0,1.17-.236,2.773,2.773,0,0,0,1.211-1.211,3.159,3.159,0,0,0,.236-1.169c.064-.786.066-1.817.066-3.416v-4.3a10.4,10.4,0,0,0-.1-2.278,2.772,2.772,0,0,0-.41-.875A10.445,10.445,0,0,0,29.756,32.5Zm-11.53-11.6a6.931,6.931,0,1,1,6.931,6.931A6.931,6.931,0,0,1,15.317,18.475Z" transform="translate(12.405 10.633)" fill="#2400ff" fill-rule="evenodd" />
    <path id="Tracé_808" data-name="Tracé 808" d="M22.247,27A15.264,15.264,0,0,1,37.494,42.247c0,5.609-1.6,14.634-9.214,25.771a7.225,7.225,0,0,1-12.065,0C8.6,56.882,7,47.857,7,42.247A15.264,15.264,0,0,1,22.247,27Zm0,38.723a1.741,1.741,0,0,0,1.456-.835c3.08-4.5,8.247-13.434,8.247-22.641a9.7,9.7,0,1,0-19.405,0c0,9.207,5.167,18.138,8.247,22.641A1.741,1.741,0,0,0,22.247,65.723Z" transform="translate(12.405 47.85)" fill="#2400ff" />
    <ellipse id="Ellipse_42" data-name="Ellipse 42" cx="5.544" cy="5.544" rx="5.544" ry="5.544" transform="translate(29.108 84.552)" fill="#2400ff" />
    <path id="Tracé_809" data-name="Tracé 809" d="M20.323,79.494H17.317A8.326,8.326,0,0,1,9,71.178V69.792a2.772,2.772,0,0,1,5.544,0v1.386a2.775,2.775,0,0,0,2.772,2.772h3.006a2.538,2.538,0,0,0,1.306-4.714l-8.7-5.223A8.082,8.082,0,0,1,17.082,49h3.006a8.326,8.326,0,0,1,8.317,8.317V58.7a2.772,2.772,0,0,1-5.544,0V57.317a2.775,2.775,0,0,0-2.772-2.772H17.082a2.538,2.538,0,0,0-1.306,4.714l8.7,5.223a8.082,8.082,0,0,1-4.158,15.013Z" transform="translate(15.95 86.838)" fill="#2400ff" />
    <path id="Tracé_810" data-name="Tracé 810" d="M14.272,58.089A2.772,2.772,0,0,1,11.5,55.317V49.772a2.772,2.772,0,0,1,5.544,0v5.544A2.772,2.772,0,0,1,14.272,58.089Z" transform="translate(20.38 83.294)" fill="#2400ff" />
    <path id="Tracé_811" data-name="Tracé 811" d="M14.272,69.089A2.772,2.772,0,0,1,11.5,66.317V60.772a2.772,2.772,0,1,1,5.544,0v5.544A2.772,2.772,0,0,1,14.272,69.089Z" transform="translate(20.38 102.788)" fill="#2400ff" />
    <path id="Tracé_812" data-name="Tracé 812" d="M75.266,118.533A33.267,33.267,0,1,0,42,85.267,33.267,33.267,0,0,0,75.266,118.533Z" transform="translate(74.433 92.155)" fill="#fff" />
    <path id="Tracé_812_-_Contour" data-name="Tracé 812 - Contour" d="M77.038,123.078a36.039,36.039,0,1,1,25.483-10.556A35.8,35.8,0,0,1,77.038,123.078Zm0-66.533A30.494,30.494,0,1,0,98.6,65.476,30.294,30.294,0,0,0,77.038,56.544Z" transform="translate(72.661 90.383)" />
    <path id="Tracé_813" data-name="Tracé 813" d="M60.861,86.722a2.764,2.764,0,0,1-1.96-.812L47.812,74.821A2.772,2.772,0,0,1,51.732,70.9l9.129,9.129L81.078,59.812A2.772,2.772,0,1,1,85,63.732L62.821,85.91A2.764,2.764,0,0,1,60.861,86.722Z" transform="translate(83.294 104.56)" />
</svg>
