<svg id="Video" width="207.916" height="199.276" viewBox="0 0 207.916 199.276">
    <path id="Rectangle_219" data-name="Rectangle 219" d="M15.633-1H93.255a16.652,16.652,0,0,1,16.633,16.633V71.078A16.652,16.652,0,0,1,93.255,87.711H15.633A16.652,16.652,0,0,1-1,71.078V15.633A16.652,16.652,0,0,1,15.633-1ZM93.255,82.166a11.1,11.1,0,0,0,11.089-11.089V15.633A11.1,11.1,0,0,0,93.255,4.544H15.633A11.1,11.1,0,0,0,4.544,15.633V71.078A11.1,11.1,0,0,0,15.633,82.166Z" transform="translate(23.178 100.8)" />
    <path id="Ellipse_51" data-name="Ellipse 51" d="M35.039-1A36.039,36.039,0,0,1,60.522,60.522,36.039,36.039,0,0,1,9.556,9.556,35.8,35.8,0,0,1,35.039-1Zm0,66.533A30.494,30.494,0,0,0,56.6,13.476,30.494,30.494,0,0,0,13.476,56.6,30.3,30.3,0,0,0,35.039,65.533Z" transform="translate(1 28.722)" fill="#2400ff" />
    <path id="Ellipse_52" data-name="Ellipse 52" d="M48.9-1A49.912,49.912,0,0,1,68.324,94.877,49.912,49.912,0,0,1,29.476,2.923,49.59,49.59,0,0,1,48.9-1Zm0,94.255A44.355,44.355,0,0,0,80.264,17.536,44.355,44.355,0,0,0,17.536,80.264,44.065,44.065,0,0,0,48.9,93.255Z" transform="translate(67.533 1)" fill="#2400ff" />
    <path id="Tracé_920" data-name="Tracé 920" d="M109.541,32.117a6.447,6.447,0,0,1,1.1.094,8.362,8.362,0,0,1,5.439,3.5c1.449,2.121,1.449,4.706,1.449,9.857V128.9c0,5.15,0,7.735-1.449,9.857a8.361,8.361,0,0,1-5.439,3.5,6.447,6.447,0,0,1-1.1.094c-2.191,0-4.42-1.013-8.467-2.853L57.825,119.847a14.114,14.114,0,0,1-4.3-2.486,8.363,8.363,0,0,1-2.043-3.172A14.112,14.112,0,0,1,51,109.247V65.227a14.111,14.111,0,0,1,.485-4.941,8.362,8.362,0,0,1,2.042-3.172,14.11,14.11,0,0,1,4.3-2.486L101.072,34.97C105.12,33.13,107.35,32.117,109.541,32.117Zm0,104.7a.881.881,0,0,0,.152-.012,2.786,2.786,0,0,0,1.813-1.167c.483-.708.483-3.365.483-6.73V45.57c0-3.365,0-6.022-.483-6.73a2.787,2.787,0,0,0-1.813-1.168.881.881,0,0,0-.152-.012c-.99,0-3.164.988-6.174,2.356L60.119,59.675a13.029,13.029,0,0,0-2.732,1.42,2.787,2.787,0,0,0-.681,1.057,13.023,13.023,0,0,0-.162,3.075v44.02a13.025,13.025,0,0,0,.162,3.075,2.788,2.788,0,0,0,.681,1.058,13.027,13.027,0,0,0,2.731,1.419l43.247,19.658C106.377,135.826,108.551,136.814,109.541,136.814Z" transform="translate(90.383 56.918)" />
    <path id="Rectangle_220" data-name="Rectangle 220" d="M-1-1H18.405V43.355H-1ZM12.861,4.544H4.544V37.811h8.317Z" transform="translate(128.522 122.977)" />
    <path id="Ellipse_53" data-name="Ellipse 53" d="M18.405-1A19.405,19.405,0,1,1-1,18.405,19.427,19.427,0,0,1,18.405-1Zm0,33.267A13.861,13.861,0,1,0,4.544,18.405,13.877,13.877,0,0,0,18.405,32.267Z" transform="translate(98.027 31.494)" fill="#2400ff" />
    <path id="Ellipse_54" data-name="Ellipse 54" d="M18.405-1A19.405,19.405,0,1,1-1,18.405,19.427,19.427,0,0,1,18.405-1Zm0,33.267A13.861,13.861,0,1,0,4.544,18.405,13.877,13.877,0,0,0,18.405,32.267Z" transform="translate(17.633 45.355)" fill="#2400ff" />
    <path id="Ellipse_55" data-name="Ellipse 55" d="M4.544-1A5.544,5.544,0,1,1-1,4.544,5.551,5.551,0,0,1,4.544-1Z" transform="translate(111.888 45.355)" fill="#2400ff" />
    <path id="Ellipse_56" data-name="Ellipse 56" d="M4.544-1A5.544,5.544,0,1,1-1,4.544,5.551,5.551,0,0,1,4.544-1Z" transform="translate(31.494 59.216)" fill="#2400ff" />
</svg>
