<svg id="Packaging" xmlns="http://www.w3.org/2000/svg" width="188.51" height="191.283" viewBox="0 0 188.51 191.283">
  <path id="Tracé_831" data-name="Tracé 831" d="M68.821,0H78.8c3.433,0,5.323,0,7.1.907a8.264,8.264,0,0,1,3.634,3.635c.906,1.779.906,3.67.906,7.1v40.1A37.423,37.423,0,0,1,109.85,84.552v95.087c0,3.433,0,5.323-.907,7.1a8.263,8.263,0,0,1-3.635,3.634c-1.779.906-3.67.906-7.1.906H46.643c-3.433,0-5.323,0-7.1-.907a8.263,8.263,0,0,1-3.634-3.635c-.906-1.779-.906-3.67-.906-7.1V84.552A37.439,37.439,0,0,1,57.178,50.364V11.643c0-3.433,0-5.323.907-7.1A8.264,8.264,0,0,1,61.719.906C63.5,0,65.388,0,68.821,0ZM98.206,185.738c2.4,0,3.992,0,4.585-.3A2.753,2.753,0,0,0,104,184.225c.3-.593.3-2.181.3-4.585V84.552A31.882,31.882,0,0,0,86.451,55.914,2.772,2.772,0,0,1,84.9,53.426V11.643c0-2.4,0-3.992-.3-4.585a2.754,2.754,0,0,0-1.211-1.212c-.593-.3-2.181-.3-4.585-.3h-9.98c-2.4,0-3.992,0-4.585.3a2.754,2.754,0,0,0-1.211,1.211c-.3.593-.3,2.181-.3,4.585v40.57A2.772,2.772,0,0,1,60.948,54.8a31.893,31.893,0,0,0-20.4,29.753v95.087c0,2.4,0,3.992.3,4.585a2.754,2.754,0,0,0,1.211,1.211c.593.3,2.181.3,4.585.3Z" transform="translate(62.027)"/>
  <path id="Tracé_832" data-name="Tracé 832" d="M73.494,13.544H45.772a2.772,2.772,0,0,1,0-5.544H73.494a2.772,2.772,0,1,1,0,5.544Z" transform="translate(76.205 14.178)"/>
  <path id="Tracé_833" data-name="Tracé 833" d="M82.583,33.544H43.772a2.772,2.772,0,1,1,0-5.544H82.583a2.772,2.772,0,1,1,0,5.544Z" transform="translate(72.661 49.622)" fill="#2400ff"/>
  <path id="Tracé_834" data-name="Tracé 834" d="M73.722,38.544H48.772a2.772,2.772,0,0,1,0-5.544h24.95a2.772,2.772,0,1,1,0,5.544Z" transform="translate(81.522 58.483)" fill="#2400ff"/>
  <path id="Tracé_835" data-name="Tracé 835" d="M1,59.665a11.6,11.6,0,0,1,.069-1.774,5.543,5.543,0,0,1,.305-1.129,11.623,11.623,0,0,1,.834-1.567L17.838,28.4a12.259,12.259,0,0,1,2.055-2.989,5.54,5.54,0,0,1,1.991-1.143A12.253,12.253,0,0,1,25.5,24H87.388A12.251,12.251,0,0,1,91,24.269,5.54,5.54,0,0,1,93,25.412,12.265,12.265,0,0,1,95.05,28.4l15.63,26.794a11.637,11.637,0,0,1,.834,1.567,5.559,5.559,0,0,1,.305,1.129,11.625,11.625,0,0,1,.069,1.774v77.441c0,3.105,0,4.658-.6,5.844a5.543,5.543,0,0,1-2.423,2.423c-1.186.6-2.739.6-5.844.6H9.871c-3.105,0-4.658,0-5.844-.6A5.544,5.544,0,0,1,1.6,142.95c-.6-1.186-.6-2.739-.6-5.844Z" transform="translate(1.772 42.533)" fill="#fff"/>
  <path id="Tracé_835_-_Contour" data-name="Tracé 835 - Contour" d="M27.273,23H89.16a13.929,13.929,0,0,1,4.471.4,8.259,8.259,0,0,1,2.986,1.715,13.926,13.926,0,0,1,2.6,3.654l15.632,26.8a13.615,13.615,0,0,1,1.024,1.962,8.35,8.35,0,0,1,.458,1.692,13.6,13.6,0,0,1,.1,2.212v77.441c0,3.433,0,5.323-.907,7.1a8.264,8.264,0,0,1-3.635,3.634c-1.779.906-3.67.906-7.1.906H11.643c-3.433,0-5.323,0-7.1-.907a8.264,8.264,0,0,1-3.634-3.634C0,144.2,0,142.311,0,138.878V61.437a13.575,13.575,0,0,1,.1-2.212,8.33,8.33,0,0,1,.458-1.693,13.582,13.582,0,0,1,1.023-1.96l15.631-26.8a13.937,13.937,0,0,1,2.6-3.658A8.261,8.261,0,0,1,22.8,23.4,13.933,13.933,0,0,1,27.273,23ZM104.79,144.977c2.4,0,3.992,0,4.585-.3a2.754,2.754,0,0,0,1.211-1.211c.3-.593.3-2.181.3-4.585V61.437a11.506,11.506,0,0,0-.035-1.337,2.789,2.789,0,0,0-.153-.564,11.529,11.529,0,0,0-.644-1.172L94.428,31.57a12.729,12.729,0,0,0-1.509-2.32,2.751,2.751,0,0,0-.994-.571,12.693,12.693,0,0,0-2.765-.135H27.273a12.713,12.713,0,0,0-2.764.135,2.753,2.753,0,0,0-1,.572,12.711,12.711,0,0,0-1.508,2.319L6.375,58.364a11.5,11.5,0,0,0-.644,1.172,2.772,2.772,0,0,0-.152.564,11.472,11.472,0,0,0-.035,1.337v77.441c0,2.4,0,3.992.3,4.585a2.754,2.754,0,0,0,1.211,1.211c.593.3,2.181.3,4.585.3Z" transform="translate(0 40.761)"/>
  <path id="Tracé_836" data-name="Tracé 836" d="M31.544,146.87H26V57.41L45.783,23.5l4.789,2.794L31.544,58.909Z" transform="translate(46.078 41.64)"/>
  <path id="Tracé_837" data-name="Tracé 837" d="M84.622,38.178H79.078V27.643c0-2.4,0-3.992-.3-4.585a2.754,2.754,0,0,0-1.211-1.211c-.593-.3-2.181-.3-4.585-.3H18.643c-2.4,0-3.992,0-4.585.3a2.754,2.754,0,0,0-1.212,1.211c-.3.593-.3,2.181-.3,4.585V38.178H7V27.643c0-3.433,0-5.323.907-7.1a8.264,8.264,0,0,1,3.635-3.634C13.32,16,15.211,16,18.643,16H72.979c3.433,0,5.323,0,7.1.907a8.263,8.263,0,0,1,3.634,3.635c.906,1.779.906,3.67.906,7.1Z" transform="translate(12.405 28.355)"/>
  <path id="Tracé_838" data-name="Tracé 838" d="M73.078,40.544H1V35H73.078Z" transform="translate(1.772 62.027)"/>
  <path id="Tracé_839" data-name="Tracé 839" d="M47.583,51.544H8.772a2.772,2.772,0,1,1,0-5.544H47.583a2.772,2.772,0,1,1,0,5.544Z" transform="translate(10.633 81.522)" fill="#2400ff"/>
  <path id="Tracé_840" data-name="Tracé 840" d="M42.039,56.544H8.772a2.772,2.772,0,0,1,0-5.544H42.039a2.772,2.772,0,0,1,0,5.544Z" transform="translate(10.633 90.383)" fill="#2400ff"/>
  <path id="Tracé_841" data-name="Tracé 841" d="M28.178,61.544H8.772a2.772,2.772,0,1,1,0-5.544H28.178a2.772,2.772,0,1,1,0,5.544Z" transform="translate(10.633 99.244)" fill="#2400ff"/>
  <path id="Tracé_842" data-name="Tracé 842" d="M94.128,42H55.317V56.7A16.627,16.627,0,0,0,47,71.108v34.1c0,3.105,0,4.658.6,5.844a5.543,5.543,0,0,0,2.423,2.423c1.186.6,2.739.6,5.844.6h37.7c3.105,0,4.658,0,5.844-.6a5.543,5.543,0,0,0,2.423-2.423c.6-1.186.6-2.739.6-5.844v-34.1A16.626,16.626,0,0,0,94.128,56.7Z" transform="translate(83.294 74.433)" fill="#fff"/>
  <path id="Tracé_843" data-name="Tracé 843" d="M57.089,43.772V41a2.772,2.772,0,0,0-2.772,2.772Zm38.811,0h2.772A2.772,2.772,0,0,0,95.9,41Zm-38.811,14.7,1.388,2.4a2.772,2.772,0,0,0,1.384-2.4Zm38.811,0H93.128a2.772,2.772,0,0,0,1.384,2.4Zm5.289,56.773-1.259-2.47Zm2.423-2.423-2.47-1.259Zm-54.236,0,2.47-1.259Zm2.423,2.423-1.259,2.47Zm5.289-68.7H95.9V41H57.089Zm2.772,11.928v-14.7H54.317v14.7ZM51.544,72.88a13.855,13.855,0,0,1,6.932-12.008l-2.776-4.8A19.4,19.4,0,0,0,46,72.88Zm0,34.1V72.88H46v34.1Zm43.8,6.1h-37.7v5.544h37.7Zm6.1-40.2v34.1h5.544V72.88ZM94.512,60.872a13.854,13.854,0,0,1,6.932,12.008h5.544a19.4,19.4,0,0,0-9.7-16.808Zm-1.384-17.1v14.7h5.544v-14.7Zm2.218,74.85c1.507,0,2.8,0,3.867-.085a8.467,8.467,0,0,0,3.235-.822l-2.517-4.94a3.16,3.16,0,0,1-1.169.236c-.786.064-1.817.066-3.416.066Zm6.1-11.643c0,1.6,0,2.63-.066,3.416a3.16,3.16,0,0,1-.236,1.169l4.94,2.517a8.467,8.467,0,0,0,.822-3.235c.087-1.063.085-2.36.085-3.867Zm1,10.737a8.315,8.315,0,0,0,3.634-3.634l-4.94-2.517a2.772,2.772,0,0,1-1.211,1.211ZM46,106.979c0,1.507,0,2.8.085,3.867a8.467,8.467,0,0,0,.822,3.235l4.94-2.517a3.161,3.161,0,0,1-.236-1.169c-.064-.786-.066-1.817-.066-3.416Zm11.643,6.1c-1.6,0-2.63,0-3.416-.066a3.16,3.16,0,0,1-1.169-.236l-2.517,4.94a8.467,8.467,0,0,0,3.235.822c1.063.087,2.36.085,3.867.085Zm-10.737,1a8.315,8.315,0,0,0,3.634,3.634l2.517-4.94a2.772,2.772,0,0,1-1.211-1.211Z" transform="translate(81.522 72.661)"/>
  <path id="Tracé_844" data-name="Tracé 844" d="M48,52.307c0-4.658,0-6.987.907-8.766a8.315,8.315,0,0,1,3.634-3.634C54.32,39,56.649,39,61.307,39H84.593c4.658,0,6.987,0,8.766.907a8.315,8.315,0,0,1,3.634,3.634c.907,1.779.907,4.108.907,8.766v3.327H48Z" transform="translate(85.066 69.116)" fill="#fff"/>
  <path id="Tracé_845" data-name="Tracé 845" d="M99.672,57.405v2.772a2.772,2.772,0,0,0,2.772-2.772Zm-49.9,0H47a2.772,2.772,0,0,0,2.772,2.772ZM95.131,41.679l1.259-2.47Zm3.634,3.634,2.47-1.259ZM63.079,43.544H86.365V38H63.079ZM96.9,54.079v3.327h5.544V54.079Zm2.772.554h-49.9v5.544h49.9ZM52.544,57.405V54.079H47v3.327ZM86.365,43.544c2.375,0,3.989,0,5.237.1a5.982,5.982,0,0,1,2.27.5l2.517-4.94a11.338,11.338,0,0,0-4.336-1.086C90.528,38,88.649,38,86.365,38Zm16.079,10.534c0-2.283,0-4.162-.123-5.688a11.338,11.338,0,0,0-1.086-4.336L96.3,46.572a5.982,5.982,0,0,1,.5,2.27c.1,1.248.1,2.862.1,5.237Zm-8.572-9.93A5.543,5.543,0,0,1,96.3,46.572l4.94-2.517a11.09,11.09,0,0,0-4.846-4.846ZM63.079,38c-2.283,0-4.162,0-5.688.123a11.338,11.338,0,0,0-4.336,1.086l2.517,4.94a5.982,5.982,0,0,1,2.27-.5c1.248-.1,2.862-.1,5.237-.1ZM52.544,54.079c0-2.375,0-3.989.1-5.237a5.982,5.982,0,0,1,.5-2.27l-4.94-2.517a11.338,11.338,0,0,0-1.086,4.336C47,49.917,47,51.8,47,54.079Zm.51-14.87a11.09,11.09,0,0,0-4.846,4.846l4.94,2.517a5.543,5.543,0,0,1,2.423-2.423Z" transform="translate(83.294 67.344)"/>
  <path id="Tracé_846" data-name="Tracé 846" d="M81.494,62.544H53.772a2.772,2.772,0,0,1,0-5.544H81.494a2.772,2.772,0,0,1,0,5.544Z" transform="translate(90.383 101.016)" fill="#2400ff"/>
  <path id="Tracé_847" data-name="Tracé 847" d="M97.9,67.544H48V62H97.9Z" transform="translate(85.066 109.877)" fill="#2400ff"/>
  <path id="Tracé_848" data-name="Tracé 848" d="M97.9,57.544H48V52H97.9Z" transform="translate(85.066 92.155)" fill="#2400ff"/>
</svg>
