<svg id="SEO" xmlns="http://www.w3.org/2000/svg" width="160.788" height="199.411" viewBox="0 0 160.788 199.411">
  <path id="Tracé_882" data-name="Tracé 882" d="M63.761,177.422a2.772,2.772,0,1,0,0-5.544Zm63.761-5.544a2.772,2.772,0,1,0,0,5.544Zm-115.668.959,1.259-2.47ZM156.2,165.567l2.47,1.259Zm-7.269,7.269-1.258-2.47Zm0-168.251,1.259-2.47Zm7.269,7.269,2.47-1.259ZM29.385,5.544H131.4V0H29.385ZM155.244,29.385V148.036h5.544V29.385ZM5.544,148.036V29.385H0V148.036Zm23.841,29.385H63.761v-5.544H29.385ZM131.4,171.877h-3.881v5.544H131.4ZM0,148.036c0,4.612,0,8.238.236,11.15a19.958,19.958,0,0,0,1.879,7.639l4.94-2.517a14.589,14.589,0,0,1-1.293-5.574c-.215-2.635-.217-6-.217-10.7Zm29.385,23.841c-4.7,0-8.064,0-10.7-.217a14.586,14.586,0,0,1-5.574-1.294l-2.517,4.94a19.958,19.958,0,0,0,7.639,1.879c2.913.238,6.538.236,11.15.236Zm-27.27-5.051a19.4,19.4,0,0,0,8.481,8.48l2.517-4.94a13.86,13.86,0,0,1-6.058-6.057Zm153.129-18.79c0,4.7,0,8.064-.217,10.7a14.588,14.588,0,0,1-1.294,5.574l4.94,2.517a19.957,19.957,0,0,0,1.879-7.639c.238-2.913.236-6.538.236-11.15ZM131.4,177.422c4.612,0,8.238,0,11.15-.236a19.957,19.957,0,0,0,7.639-1.879l-2.517-4.94a14.588,14.588,0,0,1-5.574,1.294c-2.635.215-6,.217-10.7.217Zm22.33-13.113a13.859,13.859,0,0,1-6.057,6.057l2.517,4.94a19.4,19.4,0,0,0,8.48-8.48ZM131.4,5.544c4.7,0,8.064,0,10.7.217a14.589,14.589,0,0,1,5.574,1.293l2.517-4.94A19.958,19.958,0,0,0,142.553.236C139.64,0,136.015,0,131.4,0Zm29.385,23.841c0-4.612,0-8.238-.236-11.15a19.958,19.958,0,0,0-1.879-7.639l-4.94,2.517a14.586,14.586,0,0,1,1.294,5.574c.215,2.635.217,6,.217,10.7ZM147.676,7.055a13.86,13.86,0,0,1,6.057,6.058l4.94-2.517a19.4,19.4,0,0,0-8.48-8.481ZM29.385,0c-4.612,0-8.238,0-11.15.236A19.959,19.959,0,0,0,10.6,2.115l2.517,4.94a14.587,14.587,0,0,1,5.574-1.293c2.635-.215,6-.217,10.7-.217ZM5.544,29.385c0-4.7,0-8.064.217-10.7a14.587,14.587,0,0,1,1.293-5.574L2.115,10.6A19.959,19.959,0,0,0,.236,18.235C0,21.148,0,24.773,0,29.385ZM10.6,2.115A19.405,19.405,0,0,0,2.115,10.6l4.94,2.517a13.861,13.861,0,0,1,6.058-6.058Z" transform="translate(0 0)"/>
  <path id="Tracé_883" data-name="Tracé 883" d="M158.016,17.544H2.772a2.772,2.772,0,0,1,0-5.544H158.016a2.772,2.772,0,1,1,0,5.544Z" transform="translate(0 21.267)"/>
  <path id="Tracé_884" data-name="Tracé 884" d="M105.939,11.544H22.772a2.772,2.772,0,1,1,0-5.544h83.166a2.772,2.772,0,1,1,0,5.544Z" transform="translate(35.444 10.633)"/>
  <path id="Tracé_885" data-name="Tracé 885" d="M11.544,8.772A2.772,2.772,0,1,1,8.772,6,2.772,2.772,0,0,1,11.544,8.772Zm11.089,0A2.772,2.772,0,1,1,19.861,6,2.772,2.772,0,0,1,22.633,8.772Zm8.317,2.772a2.772,2.772,0,1,0-2.772-2.772A2.772,2.772,0,0,0,30.95,11.544Z" transform="translate(10.633 10.633)" fill-rule="evenodd"/>
  <path id="Tracé_886" data-name="Tracé 886" d="M55.5,111.287l-2.325-1.51h0l-2.323-1.509.278-.429c-.1-.134-.192-.262-.273-.379-.4-.572-.775-1.229-1.141-1.865l-.041-.071L44.756,97l-2.915,1.671c-1.046.6-2.026,1.162-2.914,1.567a8.909,8.909,0,0,1-3.726.9,7.271,7.271,0,0,1-.772-.041,8.33,8.33,0,0,1-5.846-3.387,8.5,8.5,0,0,1-1.495-4.328q-.029-.315-.046-.652H27V60.785c0-1.206,0-2.334.089-3.3a8.51,8.51,0,0,1,1.493-4.325,8.331,8.331,0,0,1,5.839-3.389,7.277,7.277,0,0,1,.78-.042,8.909,8.909,0,0,1,3.716.892c.889.405,1.872.967,2.913,1.562l.1.059L67.451,66.819c1.052.6,2.046,1.17,2.853,1.734a10.7,10.7,0,0,1,1.422,1.17l.488-.218,1.129,2.532.007.017,1.122,2.515-.435.194a8.321,8.321,0,0,1-.708,4.079,8.516,8.516,0,0,1-3.054,3.472c-.812.564-1.814,1.131-2.875,1.731L64,85.973l4.935,8.548c.365.632.742,1.285,1.036,1.907a8.154,8.154,0,0,1-2.8,10.451c-.571.395-1.228.774-1.864,1.141l-2.076,1.2c-.633.366-1.29.745-1.918,1.042a8.078,8.078,0,0,1-5.548.628Zm.1-5.242h0l.6-.918a2.767,2.767,0,0,0,1.655.443,2.85,2.85,0,0,0,1.086-.322c.422-.2.955-.507,1.518-.833l2.074-1.2c.565-.326,1.1-.634,1.482-.9a2.848,2.848,0,0,0,.821-.779,2.755,2.755,0,0,0,.443-1.655,2.851,2.851,0,0,0-.322-1.086c-.2-.417-.5-.946-.826-1.506L56.4,83.9l8.272-4.681c.948-.536,1.842-1.042,2.446-1.461a3.226,3.226,0,0,0,1.16-1.2,2.775,2.775,0,0,0,.016-2.242l-.021-.046a3.27,3.27,0,0,0-1.146-1.18c-.6-.419-1.486-.926-2.425-1.463L39.078,56.992c-.926-.529-1.8-1.03-2.46-1.33a3.311,3.311,0,0,0-1.6-.382,2.777,2.777,0,0,0-1.946,1.13,3.214,3.214,0,0,0-.462,1.579c-.066.716-.066,1.721-.066,2.785V89.959h0v.117c0,1.077,0,2.083.066,2.8a3.21,3.21,0,0,0,.462,1.58,2.777,2.777,0,0,0,1.949,1.129,1.7,1.7,0,0,0,.181.009,3.623,3.623,0,0,0,1.42-.394c.656-.3,1.529-.8,2.454-1.331l7.719-4.425,7.722,13.374c.314.544.635,1.1.9,1.486a2.849,2.849,0,0,0,.779.821Z" transform="translate(47.85 88.124)"/>
  <path id="Tracé_887" data-name="Tracé 887" d="M87.394,24.544H9.772a2.772,2.772,0,1,1,0-5.544H87.394a2.772,2.772,0,0,1,0,5.544Z" transform="translate(12.405 33.672)" fill="#2400ff"/>
  <path id="Tracé_888" data-name="Tracé 888" d="M70.761,32.544H9.772a2.772,2.772,0,1,1,0-5.544H70.761a2.772,2.772,0,1,1,0,5.544Z" transform="translate(12.405 47.85)" fill="#2400ff"/>
  <path id="Tracé_889" data-name="Tracé 889" d="M87.394,40.544H9.772a2.772,2.772,0,1,1,0-5.544H87.394a2.772,2.772,0,0,1,0,5.544Z" transform="translate(12.405 62.027)" fill="#2400ff"/>
  <path id="Tracé_890" data-name="Tracé 890" d="M45.811,49.544H9.772a2.772,2.772,0,1,1,0-5.544H45.811a2.772,2.772,0,0,1,0,5.544Z" transform="translate(12.405 77.977)" fill="#2400ff"/>
  <path id="Tracé_891" data-name="Tracé 891" d="M34.722,58.544H9.772a2.772,2.772,0,1,1,0-5.544h24.95a2.772,2.772,0,1,1,0,5.544Z" transform="translate(12.405 93.927)" fill="#2400ff"/>
  <path id="Tracé_892" data-name="Tracé 892" d="M66.95,41.633a2.764,2.764,0,0,1-1.96-.812l-9.129-9.129-9.129,9.129A2.772,2.772,0,0,1,42.812,36.9L53.9,25.812a2.772,2.772,0,0,1,3.921,0L68.91,36.9a2.772,2.772,0,0,1-1.96,4.732Z" transform="translate(74.433 44.305)" fill="#2400ff"/>
  <path id="Tracé_893" data-name="Tracé 893" d="M48.772,74.9A2.772,2.772,0,0,1,46,72.128V27.772a2.772,2.772,0,0,1,5.544,0V72.128A2.772,2.772,0,0,1,48.772,74.9Z" transform="translate(81.522 44.305)" fill="#2400ff"/>
</svg>
