<svg id="Publicite" xmlns="http://www.w3.org/2000/svg" width="199.599" height="194.055" viewBox="0 0 199.599 194.055">
  <path id="Rectangle_212" data-name="Rectangle 212" d="M15.633-1H181.966A16.652,16.652,0,0,1,198.6,15.633v99.8a16.652,16.652,0,0,1-16.633,16.633H15.633A16.652,16.652,0,0,1-1,115.433v-99.8A16.652,16.652,0,0,1,15.633-1ZM181.966,126.522a11.1,11.1,0,0,0,11.089-11.089v-99.8A11.1,11.1,0,0,0,181.966,4.544H15.633A11.1,11.1,0,0,0,4.544,15.633v99.8a11.1,11.1,0,0,0,11.089,11.089Z" transform="translate(1 1)"/>
  <path id="Tracé_849" data-name="Tracé 849" d="M183.194,57.544H5.772a2.772,2.772,0,1,1,0-5.544H183.194a2.772,2.772,0,0,1,0,5.544Z" transform="translate(5.317 92.155)"/>
  <path id="Tracé_850" data-name="Tracé 850" d="M9.772,68.178A2.772,2.772,0,0,1,7,65.405V48.772a2.772,2.772,0,1,1,5.544,0V65.405A2.772,2.772,0,0,1,9.772,68.178Z" transform="translate(12.405 81.522)"/>
  <path id="Tracé_851" data-name="Tracé 851" d="M17.772,68.178A2.772,2.772,0,0,1,15,65.405V48.772a2.772,2.772,0,1,1,5.544,0V65.405A2.772,2.772,0,0,1,17.772,68.178Z" transform="translate(26.583 81.522)"/>
  <path id="Tracé_852" data-name="Tracé 852" d="M25.772,68.178A2.772,2.772,0,0,1,23,65.405V48.772a2.772,2.772,0,1,1,5.544,0V65.405A2.772,2.772,0,0,1,25.772,68.178Z" transform="translate(40.761 81.522)"/>
  <path id="Tracé_853" data-name="Tracé 853" d="M33.772,112.533A2.772,2.772,0,0,1,31,109.761V48.772a2.772,2.772,0,1,1,5.544,0v60.989A2.772,2.772,0,0,1,33.772,112.533Z" transform="translate(54.939 81.522)"/>
  <path id="Tracé_854" data-name="Tracé 854" d="M41.772,112.533A2.772,2.772,0,0,1,39,109.761V48.772a2.772,2.772,0,1,1,5.544,0v60.989A2.772,2.772,0,0,1,41.772,112.533Z" transform="translate(69.116 81.522)"/>
  <path id="Tracé_855" data-name="Tracé 855" d="M49.772,68.178A2.772,2.772,0,0,1,47,65.405V48.772a2.772,2.772,0,0,1,5.544,0V65.405A2.772,2.772,0,0,1,49.772,68.178Z" transform="translate(83.294 81.522)"/>
  <path id="Tracé_856" data-name="Tracé 856" d="M57.772,68.178A2.772,2.772,0,0,1,55,65.405V48.772a2.772,2.772,0,1,1,5.544,0V65.405A2.772,2.772,0,0,1,57.772,68.178Z" transform="translate(97.472 81.522)"/>
  <path id="Tracé_857" data-name="Tracé 857" d="M65.772,68.178A2.772,2.772,0,0,1,63,65.405V48.772a2.772,2.772,0,0,1,5.544,0V65.405A2.772,2.772,0,0,1,65.772,68.178Z" transform="translate(111.649 81.522)"/>
  <path id="Tracé_858" data-name="Tracé 858" d="M17.772,22.178A2.772,2.772,0,0,1,15,19.405V2.772a2.772,2.772,0,0,1,5.544,0V19.405A2.772,2.772,0,0,1,17.772,22.178Z" transform="translate(26.583)"/>
  <path id="Tracé_859" data-name="Tracé 859" d="M25.9,6.414a5.535,5.535,0,0,1,1.713.271A8.719,8.719,0,0,1,31,9.214l5.925,5.925c2.854,2.854,4.286,4.286,4.446,6.325a5.561,5.561,0,0,1-1.927,4.651c-1.555,1.329-3.581,1.329-7.616,1.329H19.974c-4.035,0-6.061,0-7.616-1.329a5.561,5.561,0,0,1-1.926-4.651c.16-2.039,1.593-3.471,4.446-6.325L20.8,9.214a8.719,8.719,0,0,1,3.383-2.529A5.535,5.535,0,0,1,25.9,6.414Zm9.733,15.4C35.119,21.179,34.045,20.1,33,19.06l-5.925-5.925c-.452-.452-.917-.917-1.176-1.133-.259.216-.724.681-1.176,1.133L18.8,19.06c-1.045,1.045-2.119,2.119-2.632,2.754.811.086,2.33.086,3.808.086h11.85C33.3,21.9,34.821,21.9,35.632,21.813Z" transform="translate(18.456 11.367)"/>
  <path id="Tracé_860" data-name="Tracé 860" d="M37.772,22.178A2.772,2.772,0,0,1,35,19.405V2.772a2.772,2.772,0,0,1,5.544,0V19.405A2.772,2.772,0,0,1,37.772,22.178Z" transform="translate(62.027)"/>
  <path id="Tracé_861" data-name="Tracé 861" d="M45.9,6.414a5.535,5.535,0,0,1,1.713.271A8.719,8.719,0,0,1,51,9.214l5.925,5.925c2.854,2.854,4.286,4.286,4.446,6.325a5.561,5.561,0,0,1-1.927,4.651c-1.555,1.329-3.581,1.329-7.616,1.329H39.974c-4.035,0-6.061,0-7.616-1.329a5.561,5.561,0,0,1-1.926-4.651c.16-2.039,1.593-3.471,4.446-6.325L40.8,9.214a8.719,8.719,0,0,1,3.383-2.529A5.535,5.535,0,0,1,45.9,6.414Zm9.733,15.4C55.119,21.179,54.045,20.1,53,19.06l-5.925-5.925c-.452-.452-.917-.917-1.176-1.133-.259.216-.724.681-1.176,1.133L38.8,19.06c-1.045,1.045-2.119,2.119-2.632,2.754.811.086,2.33.086,3.808.086h11.85C53.3,21.9,54.821,21.9,55.632,21.813Z" transform="translate(53.901 11.367)"/>
  <path id="Tracé_862" data-name="Tracé 862" d="M57.772,22.178A2.772,2.772,0,0,1,55,19.405V2.772a2.772,2.772,0,1,1,5.544,0V19.405A2.772,2.772,0,0,1,57.772,22.178Z" transform="translate(97.472)"/>
  <path id="Tracé_863" data-name="Tracé 863" d="M65.9,6.414a5.535,5.535,0,0,1,1.713.271A8.719,8.719,0,0,1,71,9.214l5.925,5.925c2.854,2.854,4.286,4.286,4.446,6.325a5.561,5.561,0,0,1-1.927,4.651c-1.555,1.329-3.581,1.329-7.616,1.329H59.974c-4.035,0-6.061,0-7.616-1.329a5.561,5.561,0,0,1-1.926-4.651c.16-2.039,1.593-3.471,4.446-6.325L60.8,9.214a8.719,8.719,0,0,1,3.383-2.529A5.535,5.535,0,0,1,65.9,6.414Zm9.733,15.4C75.119,21.179,74.045,20.1,73,19.06l-5.925-5.925c-.452-.452-.917-.917-1.176-1.133-.259.216-.724.681-1.176,1.133L58.8,19.06c-1.045,1.045-2.119,2.119-2.632,2.754.811.086,2.33.086,3.808.086h11.85C73.3,21.9,74.821,21.9,75.632,21.813Z" transform="translate(89.345 11.367)"/>
  <path id="Tracé_864" data-name="Tracé 864" d="M41,23.772A2.772,2.772,0,0,1,43.772,21H96.444a2.772,2.772,0,1,1,0,5.544H43.772A2.772,2.772,0,0,1,41,23.772Zm0,19.405a2.772,2.772,0,0,1,2.772-2.772H85.355a2.772,2.772,0,1,1,0,5.544H43.772A2.772,2.772,0,0,1,41,43.178Zm2.772,16.633a2.772,2.772,0,1,0,0,5.544H71.494a2.772,2.772,0,0,0,0-5.544Z" transform="translate(72.661 37.216)" fill="#2400ff" fill-rule="evenodd"/>
  <path id="Tracé_865" data-name="Tracé 865" d="M22.861,24H36.722V51.722H22.861a13.861,13.861,0,0,1,0-27.722Zm8.317,5.544H22.861a8.317,8.317,0,0,0,0,16.633h8.317Z" transform="translate(15.95 42.533)" fill="#2400ff"/>
  <path id="Tracé_866" data-name="Tracé 866" d="M39.309,66.856c-1.534,0-2.831-.692-5.186-1.948l-13.307-7.1a8.146,8.146,0,0,1-2.3-1.555,5.584,5.584,0,0,1-1.224-2.04A8.139,8.139,0,0,1,17,51.451V36.075a8.139,8.139,0,0,1,.289-2.764,5.582,5.582,0,0,1,1.224-2.04,8.134,8.134,0,0,1,2.3-1.554l13.311-7.1c2.355-1.256,3.652-1.948,5.186-1.948a4.532,4.532,0,0,1,.578.037A5.558,5.558,0,0,1,43.7,22.993c1.026,1.442,1.026,3.056,1.026,5.985v29.57c0,2.929,0,4.543-1.026,5.986a5.558,5.558,0,0,1-3.809,2.285A4.529,4.529,0,0,1,39.309,66.856ZM22.558,52.441c.172.107.523.294.865.477l13.309,7.1c.92.49,1.864.994,2.387,1.206.059-.561.059-1.632.059-2.674V28.978c0-1.042,0-2.113-.059-2.674-.522.212-1.467.716-2.387,1.206l-13.307,7.1c-.344.183-.7.371-.867.478-.013.2-.013.6-.013.99V51.451C22.544,51.84,22.544,52.239,22.558,52.441Z" transform="translate(30.128 36.631)" fill="#2400ff"/>
  <path id="Tracé_867" data-name="Tracé 867" d="M16.772,52.792A2.772,2.772,0,0,1,14,50.019V34.772a2.772,2.772,0,0,1,5.544,0V50.019A2.772,2.772,0,0,1,16.772,52.792Z" transform="translate(24.811 56.711)" fill="#2400ff"/>
  <path id="Tracé_868" data-name="Tracé 868" d="M42.861,33.544H31.772a2.772,2.772,0,0,1,0-5.544H42.861a2.772,2.772,0,1,1,0,5.544Z" transform="translate(51.394 49.622)" fill="#2400ff"/>
  <path id="Tracé_869" data-name="Tracé 869" d="M31.775,32.09a2.773,2.773,0,0,1-1.389-5.174l9.6-5.544a2.772,2.772,0,1,1,2.772,4.8l-9.6,5.544A2.76,2.76,0,0,1,31.775,32.09Z" transform="translate(51.394 37.216)" fill="#2400ff"/>
  <path id="Tracé_870" data-name="Tracé 870" d="M41.373,44.09a2.759,2.759,0,0,1-1.383-.372l-9.6-5.544a2.772,2.772,0,1,1,2.772-4.8l9.6,5.544a2.773,2.773,0,0,1-1.389,5.174Z" transform="translate(51.394 58.483)" fill="#2400ff"/>
</svg>
