<svg id="Cible" xmlns="http://www.w3.org/2000/svg" width="177.422" height="177.422" viewBox="0 0 177.422 177.422">
  <path id="Tracé_767" data-name="Tracé 767" d="M85.939,173.877A85.961,85.961,0,0,1,52.487,8.755,85.4,85.4,0,0,1,85.939,2a85.587,85.587,0,0,1,38.887,9.281,2.772,2.772,0,0,1-2.512,4.943A79.94,79.94,0,0,0,104.942,9.8a80.778,80.778,0,0,0-19-2.259A80.416,80.416,0,0,0,54.646,162.016,80.37,80.37,0,0,0,166.333,87.939a80.778,80.778,0,0,0-2.259-19,79.94,79.94,0,0,0-6.421-17.371,2.772,2.772,0,1,1,4.943-2.512A85.914,85.914,0,0,1,85.939,173.877Z" transform="translate(0 3.544)"/>
  <path id="Tracé_768" data-name="Tracé 768" d="M68.216,128.433A58.231,58.231,0,0,1,45.555,16.576a58.39,58.39,0,0,1,46.1.335,2.772,2.772,0,0,1-2.234,5.074,52.686,52.686,0,1,0-41.7,96.765,52.7,52.7,0,0,0,68.733-69.736,2.772,2.772,0,0,1,5.074-2.234,58.2,58.2,0,0,1-53.306,81.653Z" transform="translate(17.722 21.267)"/>
  <path id="Tracé_769" data-name="Tracé 769" d="M50.494,82.989a30.494,30.494,0,0,1,0-60.989,30.608,30.608,0,0,1,7.385.9,2.772,2.772,0,0,1-1.339,5.38A24.919,24.919,0,1,0,74.707,46.449a2.772,2.772,0,0,1,5.38-1.339,30.609,30.609,0,0,1,.9,7.385A30.494,30.494,0,0,1,50.494,82.989Z" transform="translate(35.444 38.989)"/>
  <path id="Tracé_770" data-name="Tracé 770" d="M32.772,90.711a2.772,2.772,0,0,1-1.96-4.732L113.978,2.812A2.772,2.772,0,0,1,117.9,6.732L34.732,89.9A2.764,2.764,0,0,1,32.772,90.711Z" transform="translate(53.166 3.544)" fill="#2400ff"/>
  <path id="Tracé_771" data-name="Tracé 771" d="M86.039,38.811H52.772A2.772,2.772,0,0,1,50,36.039V2.772a2.772,2.772,0,0,1,5.544,0V33.267H86.039a2.772,2.772,0,1,1,0,5.544Z" transform="translate(88.611 0)" fill="#2400ff"/>
</svg>
