<svg id="Clientele" width="205.144" height="169.105" viewBox="0 0 205.144 169.105">
    <path id="Tracé_772" data-name="Tracé 772" d="M81.831,108.441H55.772a2.772,2.772,0,0,1,0-5.544H81.831c8.86,0,13.308,0,16.273-1.511a13.774,13.774,0,0,0,6.058-6.057c1.511-2.965,1.511-7.412,1.511-16.273V66.1c0-4.547,0-6.829-.519-8.672a13.808,13.808,0,0,0-2.229-4.526c-1.144-1.535-2.953-2.927-6.557-5.7l-10.4-8a2.772,2.772,0,1,1,3.381-4.395l10.4,8c4.008,3.083,6.02,4.63,7.622,6.78a19.331,19.331,0,0,1,3.12,6.337c.727,2.58.727,5.118.727,10.175V79.055c0,9.747,0,14.639-2.115,18.79a19.283,19.283,0,0,1-8.481,8.48C96.47,108.441,91.578,108.441,81.831,108.441Z" transform="translate(93.927 60.664)" />
    <path id="Rectangle_200" data-name="Rectangle 200" d="M26.722-1A27.722,27.722,0,1,1-1,26.722,27.754,27.754,0,0,1,26.722-1Zm0,49.9A22.178,22.178,0,1,0,4.544,26.722,22.2,22.2,0,0,0,26.722,48.9Z" transform="translate(139.611 50.9)" />
    <circle id="Ellipse_39" data-name="Ellipse 39" cx="5.5" cy="5.5" r="5.5" transform="translate(160.401 119)" />
    <circle id="Ellipse_40" data-name="Ellipse 40" cx="5.5" cy="5.5" r="5.5" transform="translate(160.401 139)" />
    <path id="Tracé_773" data-name="Tracé 773" d="M55.444,108.441H29.385c-9.747,0-14.639,0-18.79-2.115a19.284,19.284,0,0,1-8.48-8.48C0,93.694,0,88.8,0,79.055V66.1c0-5.057,0-7.595.727-10.175a19.334,19.334,0,0,1,3.12-6.337c1.6-2.149,3.614-3.7,7.622-6.78l10.4-8a2.772,2.772,0,1,1,3.38,4.395l-10.4,8c-3.6,2.772-5.413,4.164-6.557,5.7a13.81,13.81,0,0,0-2.229,4.526c-.519,1.843-.519,4.125-.519,8.672V79.055c0,8.86,0,13.308,1.511,16.273a13.774,13.774,0,0,0,6.057,6.058c2.965,1.511,7.413,1.511,16.273,1.511H55.444a2.772,2.772,0,0,1,0,5.544Z" transform="translate(0 60.664)" />
    <path id="Tracé_774" data-name="Tracé 774" d="M21.089,88.672a2.772,2.772,0,0,1-2.218-1.109L10.554,76.474a2.772,2.772,0,0,1-.522-2.085l5.544-36.039A2.772,2.772,0,0,1,18.317,36h5.544a2.772,2.772,0,0,1,2.74,2.351l5.544,36.039a2.772,2.772,0,0,1-.522,2.085L23.307,87.563A2.772,2.772,0,0,1,21.089,88.672Zm-5.4-14.592,5.4,7.2,5.4-7.2L21.483,41.544h-.788Z" transform="translate(17.722 63.8)" />
    <path id="Rectangle_201" data-name="Rectangle 201" d="M27.722,0A27.722,27.722,0,1,1,0,27.722,27.754,27.754,0,0,1,27.722,0Zm0,49.9A22.178,22.178,0,1,0,5.544,27.722,22.2,22.2,0,0,0,27.722,49.9Z" transform="translate(66.533 105.344) rotate(180)" />
    <path id="Tracé_775" data-name="Tracé 775" d="M61.811,28.57a19.413,19.413,0,0,1,5.032.664c3.735,1,6.793,3.355,12.885,8.041l9.425,7.25c4.008,3.083,6.02,4.63,7.622,6.78a19.331,19.331,0,0,1,3.12,6.337c.727,2.58.727,5.118.727,10.175V89.088c0,9.747,0,14.639-2.115,18.79a19.283,19.283,0,0,1-8.481,8.48c-4.151,2.115-9.043,2.115-18.79,2.115H52.385c-9.747,0-14.639,0-18.79-2.115a19.283,19.283,0,0,1-8.48-8.481C23,103.727,23,98.834,23,89.088V67.817c0-5.057,0-7.595.727-10.175a19.331,19.331,0,0,1,3.12-6.337c1.6-2.149,3.614-3.7,7.622-6.78l9.425-7.25c6.092-4.686,9.15-7.039,12.885-8.041A19.413,19.413,0,0,1,61.811,28.57Zm9.426,84.359c8.86,0,13.308,0,16.273-1.511a13.773,13.773,0,0,0,6.058-6.057c1.511-2.965,1.511-7.412,1.511-16.273V67.817c0-4.547,0-6.829-.519-8.672a13.807,13.807,0,0,0-2.229-4.526c-1.144-1.535-2.953-2.927-6.557-5.7l-9.426-7.251C70.838,37.432,68.073,35.3,65.4,34.588a13.922,13.922,0,0,0-7.188,0c-2.668.716-5.433,2.843-10.942,7.081l-9.426,7.25c-3.6,2.772-5.413,4.163-6.557,5.7a13.807,13.807,0,0,0-2.229,4.526c-.519,1.843-.519,4.125-.519,8.672V89.088c0,8.86,0,13.308,1.511,16.273a13.773,13.773,0,0,0,6.057,6.058c2.965,1.511,7.412,1.511,16.273,1.511Z" transform="translate(40.761 50.632)" fill="#2400ff" />
    <path id="Tracé_776" data-name="Tracé 776" d="M31.772,28H70.583a2.772,2.772,0,0,1,2.395,4.169L53.572,65.436a2.772,2.772,0,0,1-4.789,0L29.378,32.169A2.772,2.772,0,0,1,31.772,28Zm33.984,5.544H36.6L51.178,58.537Z" transform="translate(51.394 49.622)" fill="#2400ff" />
    <path id="Tracé_777" data-name="Tracé 777" d="M41.544,93.672H36V41h5.544Z" transform="translate(63.8 72.661)" fill="#2400ff" />
    <path id="Tracé_778" data-name="Tracé 778" d="M52.089,57.633a2.772,2.772,0,0,0,5.544,0ZM41,57.633a2.772,2.772,0,0,0,5.544,0Zm11.089-8.317v8.317h5.544V49.317Zm-5.544,8.317V49.317H41v8.317Zm2.772-11.089a2.772,2.772,0,0,1,2.772,2.772h5.544A8.316,8.316,0,0,0,49.317,41Zm0-5.544A8.316,8.316,0,0,0,41,49.317h5.544a2.772,2.772,0,0,1,2.772-2.772Z" transform="translate(72.661 72.661)" fill="#2400ff" />
    <path id="Tracé_779" data-name="Tracé 779" d="M45.772,60.722A2.772,2.772,0,0,1,43,57.95V35.772a2.772,2.772,0,1,1,5.544,0V57.95A2.772,2.772,0,0,1,45.772,60.722Z" transform="translate(76.205 58.483)" fill="#2400ff" />
    <path id="Tracé_780" data-name="Tracé 780" d="M31.772,60.722A2.772,2.772,0,0,1,29,57.95V35.772a2.772,2.772,0,1,1,5.544,0V57.95A2.772,2.772,0,0,1,31.772,60.722Z" transform="translate(51.394 58.483)" fill="#2400ff" />
    <path id="Ellipse_41" data-name="Ellipse 41" d="M7.317-1A8.317,8.317,0,1,1-1,7.317,8.326,8.326,0,0,1,7.317-1Zm0,11.089A2.772,2.772,0,1,0,4.544,7.317,2.775,2.775,0,0,0,7.317,10.089Z" transform="translate(75.85 114.661)" fill="#2400ff" />
    <rect id="Rectangle_202" data-name="Rectangle 202" width="50" height="50" rx="25" transform="translate(77.401 44)" fill="#fff" />
    <path id="Rectangle_202_-_Contour" data-name="Rectangle 202 - Contour" d="M26.722-1A27.722,27.722,0,1,1-1,26.722,27.754,27.754,0,0,1,26.722-1Zm0,49.9A22.178,22.178,0,1,0,4.544,26.722,22.2,22.2,0,0,0,26.722,48.9Z" transform="translate(75.85 42.583)" fill="#2400ff" />
    <path id="Tracé_781" data-name="Tracé 781" d="M45.861,27.722a2.764,2.764,0,0,1-1.96-.812L32.812,15.821A2.772,2.772,0,0,1,36.732,11.9l9.129,9.129L66.078.812A2.772,2.772,0,1,1,70,4.732L47.821,26.91A2.764,2.764,0,0,1,45.861,27.722Z" transform="translate(56.711)" fill="#2400ff" />
    <path id="Tracé_782" data-name="Tracé 782" d="M57.772,30.722a2.772,2.772,0,0,1-1.96-4.732L77.99,3.812A2.772,2.772,0,0,1,81.91,7.732L59.732,29.91A2.764,2.764,0,0,1,57.772,30.722Z" transform="translate(97.472 5.317)" />
    <path id="Tracé_783" data-name="Tracé 783" d="M79.95,30.722a2.764,2.764,0,0,1-1.96-.812L55.812,7.732a2.772,2.772,0,0,1,3.921-3.921L81.91,25.99a2.772,2.772,0,0,1-1.96,4.732Z" transform="translate(97.472 5.317)" />
    <path id="Tracé_784" data-name="Tracé 784" d="M11.772,30.722a2.772,2.772,0,0,1-1.96-4.732L31.99,3.812A2.772,2.772,0,1,1,35.91,7.732L13.732,29.91A2.764,2.764,0,0,1,11.772,30.722Z" transform="translate(15.95 5.317)" />
    <path id="Tracé_785" data-name="Tracé 785" d="M33.95,30.722a2.764,2.764,0,0,1-1.96-.812L9.812,7.732a2.772,2.772,0,0,1,3.921-3.921L35.91,25.99a2.772,2.772,0,0,1-1.96,4.732Z" transform="translate(15.95 5.317)" />
</svg>
