<svg xmlns="http://www.w3.org/2000/svg" id="Commerce" width="196.827" height="185.738" viewBox="0 0 196.827 185.738">
    <path id="Tracé_786" data-name="Tracé 786" d="M131.294,49.544H3.772a2.772,2.772,0,0,1,0-5.544H131.294a2.772,2.772,0,1,1,0,5.544Z" transform="translate(1.772 77.977)" />
    <path id="Tracé_787" data-name="Tracé 787" d="M5.772,97.394A2.772,2.772,0,0,1,3,94.622V19.772a2.772,2.772,0,0,1,5.544,0v74.85A2.772,2.772,0,0,1,5.772,97.394Z" transform="translate(5.317 30.128)" />
    <path id="Tracé_788" data-name="Tracé 788" d="M47.772,97.394A2.772,2.772,0,0,1,45,94.622V19.772a2.772,2.772,0,0,1,5.544,0v74.85A2.772,2.772,0,0,1,47.772,97.394Z" transform="translate(79.75 30.128)" />
    <path id="Tracé_789" data-name="Tracé 789" d="M13.861,52.672A13.877,13.877,0,0,1,0,38.811V27.722a2.772,2.772,0,0,1,.293-1.24L12.768,1.532A2.772,2.772,0,0,1,15.247,0H33.267A2.772,2.772,0,0,1,35.9,3.649L27.722,28.172V38.811A13.877,13.877,0,0,1,13.861,52.672Zm-8.317-24.3V38.811a8.317,8.317,0,0,0,16.633,0V27.722a2.772,2.772,0,0,1,.142-.877l7.1-21.3H16.96Z" transform="translate(0 0)" />
    <path id="Tracé_790" data-name="Tracé 790" d="M59.178,52.672A13.877,13.877,0,0,1,45.317,38.811V28.172L37.142,3.649A2.772,2.772,0,0,1,39.772,0H57.792a2.772,2.772,0,0,1,2.48,1.532l12.475,24.95a2.772,2.772,0,0,1,.293,1.24V38.811A13.877,13.877,0,0,1,59.178,52.672ZM43.618,5.544l7.1,21.3a2.772,2.772,0,0,1,.142.877V38.811a8.317,8.317,0,1,0,16.633,0V28.377L56.078,5.544Z" transform="translate(65.572 0)" />
    <path id="Tracé_791" data-name="Tracé 791" d="M21.861,52.672A13.877,13.877,0,0,1,8,38.811V27.722a2.772,2.772,0,0,1,.142-.877L16.459,1.9A2.772,2.772,0,0,1,19.089,0H37.108a2.772,2.772,0,0,1,2.734,3.228L35.722,27.951V38.811A13.877,13.877,0,0,1,21.861,52.672Zm-8.317-24.5V38.811a8.317,8.317,0,0,0,16.633,0V27.722a2.771,2.771,0,0,1,.038-.456l3.62-21.722H21.087Z" transform="translate(14.178 0)" />
    <path id="Tracé_792" data-name="Tracé 792" d="M48.519,52.672A13.877,13.877,0,0,1,34.658,38.811V27.951L30.538,3.228A2.772,2.772,0,0,1,33.272,0H51.292a2.772,2.772,0,0,1,2.63,1.9l8.317,24.95a2.772,2.772,0,0,1,.142.877V38.811A13.877,13.877,0,0,1,48.519,52.672ZM36.545,5.544l3.62,21.722a2.771,2.771,0,0,1,.038.456V38.811a8.317,8.317,0,1,0,16.633,0V28.172L49.294,5.544Z" transform="translate(54.052 0)" />
    <path id="Tracé_793" data-name="Tracé 793" d="M29.861,52.672A13.877,13.877,0,0,1,16,38.811V27.722a2.771,2.771,0,0,1,.038-.456L20.2,2.316A2.772,2.772,0,0,1,22.931,0H40.95a2.772,2.772,0,0,1,2.772,2.772V38.811A13.877,13.877,0,0,1,29.861,52.672ZM21.544,27.951V38.811a8.317,8.317,0,0,0,16.633,0V5.544h-12.9Z" transform="translate(28.355 0)" />
    <path id="Tracé_794" data-name="Tracé 794" d="M37.861,52.672A13.877,13.877,0,0,1,24,38.811V2.772A2.772,2.772,0,0,1,26.772,0H44.792a2.772,2.772,0,0,1,2.734,2.316l4.158,24.95a2.771,2.771,0,0,1,.038.456V38.811A13.877,13.877,0,0,1,37.861,52.672ZM29.544,5.544V38.811a8.317,8.317,0,1,0,16.633,0V27.951L42.443,5.544Z" transform="translate(42.533 0)" />
    <path id="Tracé_795" data-name="Tracé 795" d="M14.772,44.089A2.772,2.772,0,0,1,12,41.317V35.772a2.772,2.772,0,1,1,5.544,0v5.544A2.772,2.772,0,0,1,14.772,44.089Z" transform="translate(21.267 58.483)" />
    <path id="Tracé_796" data-name="Tracé 796" d="M27.405,22A19.427,19.427,0,0,1,46.811,41.405V85.761a2.772,2.772,0,0,1-2.772,2.772H10.772A2.772,2.772,0,0,1,8,85.761V41.405A19.427,19.427,0,0,1,27.405,22ZM41.267,82.989V41.405a13.861,13.861,0,1,0-27.722,0V82.989Z" transform="translate(14.178 38.989)" />
    <path id="Tracé_797" data-name="Tracé 797" d="M36.643,23H60.484c3.433,0,5.323,0,7.1.907a8.264,8.264,0,0,1,3.634,3.635c.906,1.779.906,3.67.906,7.1v18.3c0,3.433,0,5.323-.907,7.1a8.263,8.263,0,0,1-3.635,3.634c-1.779.906-3.67.906-7.1.906H36.643c-3.433,0-5.323,0-7.1-.907a8.263,8.263,0,0,1-3.634-3.635C25,58.263,25,56.373,25,52.94v-18.3c0-3.433,0-5.323.907-7.1a8.263,8.263,0,0,1,3.635-3.634C31.32,23,33.211,23,36.643,23ZM60.484,59.039c2.4,0,3.992,0,4.585-.3a2.753,2.753,0,0,0,1.211-1.211c.3-.593.3-2.181.3-4.585v-18.3c0-2.4,0-3.992-.3-4.585a2.754,2.754,0,0,0-1.211-1.211c-.593-.3-2.181-.3-4.585-.3H36.643c-2.4,0-3.992,0-4.585.3a2.754,2.754,0,0,0-1.211,1.211c-.3.593-.3,2.181-.3,4.585v18.3c0,2.4,0,3.992.3,4.585a2.754,2.754,0,0,0,1.211,1.211c.593.3,2.181.3,4.585.3Z" transform="translate(44.305 40.761)" />
    <path id="Tracé_798" data-name="Tracé 798" d="M32.772,52.178a2.772,2.772,0,0,1-1.96-4.732L47.445,30.812a2.772,2.772,0,0,1,3.921,3.921L34.732,51.366A2.764,2.764,0,0,1,32.772,52.178Z" transform="translate(53.166 53.166)" />
    <path id="Tracé_799" data-name="Tracé 799" d="M89.494,88.267a2.764,2.764,0,0,1-1.96-.812L59.812,59.732a2.772,2.772,0,0,1,3.921-3.921L91.455,83.534a2.772,2.772,0,0,1-1.96,4.732Z" transform="translate(104.561 97.472)" fill="#2400ff" />
    <path id="Tracé_800" data-name="Tracé 800" d="M78.9,124.8A49.9,49.9,0,1,0,29,74.9,49.9,49.9,0,0,0,78.9,124.8Z" transform="translate(51.394 44.305)" fill="#fff" />
    <path id="Tracé_800_-_Contour" data-name="Tracé 800 - Contour" d="M80.672,129.344a52.516,52.516,0,1,1,20.5-4.14A52.345,52.345,0,0,1,80.672,129.344Zm0-99.8A47.128,47.128,0,1,0,114,43.348,46.819,46.819,0,0,0,80.672,29.544Z" transform="translate(49.622 42.533)" fill="#2400ff" />
    <path id="Tracé_801" data-name="Tracé 801" d="M45.635,62.039H30V56.494H45.635c5.662,0,8.5,0,10.26-.877A8.368,8.368,0,0,0,59.617,51.9c.877-1.755.877-4.6.877-10.26V26h5.544V41.635c0,6.533,0,9.813-1.462,12.738a13.948,13.948,0,0,1-6.2,6.2C55.448,62.039,52.169,62.039,45.635,62.039Z" transform="translate(53.166 46.077)" fill="#2400ff" />
    <path id="Tracé_802" data-name="Tracé 802" d="M92.519,53.544H31.909a2.772,2.772,0,0,1,0-5.544h60.61a2.772,2.772,0,0,1,0,5.544Z" transform="translate(51.636 85.066)" fill="#2400ff" />
    <path id="Tracé_803" data-name="Tracé 803" d="M50.772,95.191A2.772,2.772,0,0,1,48,92.419V27.272a2.772,2.772,0,1,1,5.544,0V92.419A2.772,2.772,0,0,1,50.772,95.191Z" transform="translate(85.066 43.419)" fill="#2400ff" />
</svg>
