<svg xmlns="http://www.w3.org/2000/svg" id="optimisation" width="193.614" height="198.578" viewBox="0 0 193.614 198.578">
    <path id="Tracé_967" data-name="Tracé 967" d="M147.76,105.293a2.482,2.482,0,0,0,0-3.51l-15.8-15.8a2.482,2.482,0,0,0-3.51,3.51l14.042,14.042L128.453,117.58a2.482,2.482,0,0,0,3.51,3.51ZM64.091,43.964a2.482,2.482,0,1,0,0-4.964Zm-46.477,57.95-1.127,2.212ZM7,65.312v14.4h4.964v-14.4ZM33.312,106.02H146v-4.964H33.312ZM64.091,39H33.312v4.964h30.78ZM7,79.709c0,4.13,0,7.376.211,9.984a17.87,17.87,0,0,0,1.683,6.84l4.423-2.254a13.063,13.063,0,0,1-1.158-4.991c-.193-2.359-.195-5.368-.195-9.58Zm26.312,21.347c-4.212,0-7.221,0-9.58-.195A13.062,13.062,0,0,1,18.741,99.7l-2.254,4.423a17.87,17.87,0,0,0,6.84,1.683c2.608.213,5.854.211,9.984.211ZM8.894,96.533a17.374,17.374,0,0,0,7.594,7.593L18.741,99.7a12.409,12.409,0,0,1-5.424-5.424Zm3.071-31.221c0-4.212,0-7.221.195-9.58a13.063,13.063,0,0,1,1.158-4.991L8.894,48.487a17.87,17.87,0,0,0-1.683,6.84C7,57.936,7,61.182,7,65.312ZM33.312,39c-4.13,0-7.376,0-9.984.211a17.87,17.87,0,0,0-6.84,1.683l2.254,4.423a13.062,13.062,0,0,1,4.991-1.158c2.359-.193,5.368-.195,9.58-.195ZM13.317,50.741a12.409,12.409,0,0,1,5.424-5.424l-2.254-4.423a17.374,17.374,0,0,0-7.594,7.593Z" transform="translate(10.376 57.807)" fill="#2400ff" />
    <path id="Tracé_968" data-name="Tracé 968" d="M16.482,14a2.482,2.482,0,0,0,0,4.964ZM66.854,76.783a2.482,2.482,0,0,0,0,3.51l15.8,15.8a2.482,2.482,0,0,0,3.51-3.51L72.119,78.538,86.161,64.5a2.482,2.482,0,0,0-3.51-3.51Zm84.528-6.377,2.212,1.127Zm-6.509,6.509L146,79.126Zm0-58.809-1.127,2.212Zm6.509,6.509,2.212-1.127Zm-134.9-5.65H129.175V14H16.482Zm134.04,21.347v14.4h4.964v-14.4ZM129.175,76.056H68.609V81.02h60.566Zm21.347-21.347c0,4.212,0,7.221-.195,9.58a13.062,13.062,0,0,1-1.158,4.991l4.423,2.254a17.87,17.87,0,0,0,1.683-6.84c.213-2.608.211-5.854.211-9.984ZM129.175,81.02c4.13,0,7.376,0,9.984-.211A17.87,17.87,0,0,0,146,79.126L143.746,74.7a13.062,13.062,0,0,1-4.991,1.158c-2.359.193-5.368.195-9.58.195ZM149.17,69.279a12.409,12.409,0,0,1-5.424,5.424L146,79.126a17.373,17.373,0,0,0,7.593-7.593ZM129.175,18.964c4.212,0,7.221,0,9.58.195a13.062,13.062,0,0,1,4.991,1.158L146,15.894a17.87,17.87,0,0,0-6.84-1.683C136.551,14,133.3,14,129.175,14Zm26.312,21.347c0-4.13,0-7.376-.211-9.984a17.87,17.87,0,0,0-1.683-6.84l-4.423,2.254a13.062,13.062,0,0,1,1.158,4.991c.193,2.359.195,5.368.195,9.58ZM143.746,20.317a12.409,12.409,0,0,1,5.424,5.424l4.423-2.254A17.373,17.373,0,0,0,146,15.894Z" transform="translate(20.751 20.751)" />
    <circle id="Ellipse_61" data-name="Ellipse 61" cx="34.589" cy="34.589" r="34.589" transform="translate(2.373 2.66)" fill="#fff" />
    <path id="Ellipse_61_-_Contour" data-name="Ellipse 61 - Contour" d="M36.233-1A37.233,37.233,0,0,1,62.561,62.561,37.233,37.233,0,1,1,9.905,9.905,36.99,36.99,0,0,1,36.233-1Zm0,69.5A32.269,32.269,0,0,0,59.051,13.416,32.269,32.269,0,0,0,13.416,59.051,32.058,32.058,0,0,0,36.233,68.5Z" transform="translate(1 1)" />
    <path id="Tracé_969" data-name="Tracé 969" d="M9.482,46.422A2.482,2.482,0,0,1,7,43.94V33.871a23.038,23.038,0,0,1,.413-5.915,12.375,12.375,0,0,1,1.78-3.869,23.029,23.029,0,0,1,4.222-4.163L17.8,16.169a2.482,2.482,0,1,1,3.231,3.769l-4.381,3.755A20.664,20.664,0,0,0,13.28,26.9a7.425,7.425,0,0,0-1.068,2.322,20.678,20.678,0,0,0-.248,4.645V43.94A2.482,2.482,0,0,1,9.482,46.422ZM44.234,36.353a2.483,2.483,0,0,1-2.1-1.163L32.2,19.373a2.482,2.482,0,0,1,3.718-3.2L40.3,19.924a23.019,23.019,0,0,1,4.222,4.163A12.37,12.37,0,0,1,46.3,27.956a23.033,23.033,0,0,1,.413,5.915,2.483,2.483,0,0,1-2.482,2.482Z" transform="translate(10.376 23.08)" />
    <path id="Rectangle_255" data-name="Rectangle 255" d="M13.893-1A14.893,14.893,0,1,1-1,13.893,14.91,14.91,0,0,1,13.893-1Zm0,24.822a9.929,9.929,0,1,0-9.929-9.929A9.94,9.94,0,0,0,13.893,23.822Z" transform="translate(23.34 15.893)" />
    <circle id="Ellipse_62" data-name="Ellipse 62" cx="34.589" cy="34.589" r="34.589" transform="translate(122.063 126.741)" fill="#fff" />
    <path id="Ellipse_62_-_Contour" data-name="Ellipse 62 - Contour" d="M36.233-1A37.233,37.233,0,0,1,62.561,62.561,37.233,37.233,0,1,1,9.905,9.905,36.99,36.99,0,0,1,36.233-1Zm0,69.5A32.269,32.269,0,0,0,59.051,13.416,32.269,32.269,0,0,0,13.416,59.051,32.058,32.058,0,0,0,36.233,68.5Z" transform="translate(120.147 125.111)" fill="#2400ff" />
    <path id="Tracé_970" data-name="Tracé 970" d="M68.411,87.3a2.475,2.475,0,0,1-1.755-.727l-9.929-9.929a2.482,2.482,0,1,1,3.51-3.51l8.174,8.174L89,60.727a2.482,2.482,0,0,1,3.51,3.51l-22.34,22.34A2.475,2.475,0,0,1,68.411,87.3Z" transform="translate(83.005 88.934)" fill="#2400ff" />
</svg>
