<?xml version="1.0" standalone="no"?>
<!DOCTYPE svg PUBLIC "-//W3C//DTD SVG 20010904//EN"
 "http://www.w3.org/TR/2001/REC-SVG-20010904/DTD/svg10.dtd">
<svg version="1.0" xmlns="http://www.w3.org/2000/svg"
 width="700.000000pt" height="700.000000pt" viewBox="0 0 700.000000 700.000000"
 preserveAspectRatio="xMidYMid meet">
<metadata>
Created by potrace 1.14, written by Peter Selinger 2001-2017
</metadata>
<g transform="translate(0.000000,700.000000) scale(0.100000,-0.100000)"
fill="#000000" stroke="none">
<path d="M3280 6994 c-19 -2 -84 -9 -145 -14 -639 -62 -1264 -315 -1795 -726
-149 -115 -481 -446 -595 -594 -410 -532 -653 -1132 -727 -1795 -17 -155 -17
-575 0 -730 75 -673 332 -1300 748 -1820 114 -143 339 -372 484 -494 537 -451
1163 -717 1885 -803 142 -17 586 -17 730 0 682 79 1268 318 1802 734 138 107
389 351 512 498 451 538 717 1162 803 1885 16 139 16 595 0 730 -77 629 -275
1158 -620 1649 -234 333 -577 668 -917 896 -460 308 -968 495 -1535 566 -117
15 -552 27 -630 18z m-1390 -3041 l0 -988 35 72 c41 83 90 130 181 173 128 62
143 63 677 67 l487 4 0 830 0 829 205 0 205 0 0 -830 0 -830 169 0 169 0 7 43
c54 347 241 609 529 743 210 97 496 117 742 53 334 -87 579 -331 668 -668 33
-121 51 -310 42 -423 l-8 -88 -789 0 -788 0 5 -32 c24 -140 83 -258 174 -349
114 -115 258 -166 439 -156 220 12 414 124 512 297 19 33 39 67 44 76 10 14
31 8 165 -46 85 -34 165 -66 178 -71 l22 -9 -34 -67 c-127 -250 -361 -426
-658 -495 -139 -33 -406 -32 -533 1 -387 100 -638 377 -705 779 l-12 72 -169
0 -169 0 0 -430 0 -430 -202 2 -203 3 -3 428 -2 428 -523 -3 c-507 -3 -524 -4
-587 -25 -75 -26 -139 -75 -174 -136 -54 -93 -86 -283 -86 -519 0 -198 24
-178 -211 -178 l-199 0 0 1430 0 1430 200 0 200 0 0 -987z"/>
<path d="M4863 3795 c-156 -34 -297 -144 -367 -287 -37 -74 -78 -206 -69 -220
2 -5 267 -8 589 -8 529 0 584 1 584 16 0 67 -63 219 -127 306 -119 163 -376
244 -610 193z"/>
</g>
</svg>
