<?xml version="1.0" standalone="no"?>
<!DOCTYPE svg PUBLIC "-//W3C//DTD SVG 20010904//EN"
 "http://www.w3.org/TR/2001/REC-SVG-20010904/DTD/svg10.dtd">
<svg version="1.0" xmlns="http://www.w3.org/2000/svg"
 width="700.000000pt" height="700.000000pt" viewBox="0 0 700.000000 700.000000"
 preserveAspectRatio="xMidYMid meet">
<metadata>
Created by potrace 1.14, written by Peter Selinger 2001-2017
</metadata>
<g transform="translate(0.000000,700.000000) scale(0.100000,-0.100000)"
fill="#000000" stroke="none">
<path d="M3280 6994 c-19 -2 -84 -9 -145 -14 -578 -56 -1180 -283 -1660 -625
-237 -169 -531 -446 -709 -670 -416 -521 -673 -1147 -748 -1820 -17 -155 -17
-575 0 -730 52 -469 198 -931 418 -1327 290 -523 731 -983 1239 -1294 439
-269 920 -432 1460 -496 145 -17 576 -17 730 0 822 91 1556 447 2131 1034 203
206 348 390 487 618 274 449 433 916 499 1465 16 136 16 592 0 730 -86 725
-352 1347 -803 1885 -122 145 -351 370 -494 484 -510 407 -1117 661 -1775 742
-117 15 -553 27 -630 18z m-1630 -3046 c1 -816 3 -977 14 -947 33 93 98 159
207 208 126 57 171 61 689 61 l470 0 0 830 0 830 200 0 200 0 0 -830 0 -830
170 0 c168 0 170 0 174 23 30 145 42 192 63 252 169 476 700 715 1242 559 305
-89 529 -309 625 -614 47 -149 71 -396 50 -522 l-7 -38 -783 0 -784 0 0 -24
c0 -39 40 -156 77 -228 66 -127 206 -233 353 -269 76 -19 231 -16 310 5 181
47 323 156 402 309 17 31 34 57 39 57 9 0 341 -128 346 -134 8 -7 -34 -88 -83
-162 -61 -92 -193 -222 -277 -272 -305 -183 -721 -209 -1040 -67 -269 119
-467 386 -520 702 l-13 78 -172 3 -172 2 0 -425 0 -425 -200 0 -200 0 0 425 0
426 -537 -3 -538 -3 -59 -24 c-110 -44 -169 -120 -206 -267 -23 -91 -40 -268
-40 -431 l0 -123 -205 0 -205 0 0 1425 0 1425 205 0 205 0 0 -982z"/>
<path d="M4603 3786 c-150 -37 -286 -146 -355 -286 -37 -75 -77 -204 -67 -215
3 -3 269 -4 591 -3 l586 3 -19 73 c-43 170 -150 312 -283 377 -39 19 -98 42
-131 50 -72 18 -248 19 -322 1z"/>
</g>
</svg>
