<svg id="Social_network" data-name="Social network" width="207.916" height="224.425" viewBox="0 0 207.916 224.425">
    <path id="Tracé_894" data-name="Tracé 894" d="M50.95,51H73.128c8.2,0,12.31,0,15.868,1.813a16.527,16.527,0,0,1,7.269,7.269c1.813,3.558,1.813,7.672,1.813,15.868V98.128c0,8.2,0,12.31-1.813,15.868A16.527,16.527,0,0,1,89,121.265a19.454,19.454,0,0,1-8.088,1.713c-.68.554-1.48,1.176-2.421,1.909l-7.587,5.9c-2.7,2.1-4.186,3.256-6.1,3.256h-.037a5.519,5.519,0,0,1-4.3-2.1c-1.2-1.512-1.2-3.405-1.2-6.842v-2.02H50.95c-8.2,0-12.31,0-15.868-1.813A16.527,16.527,0,0,1,27.813,114C26,110.438,26,106.324,26,98.128V75.95c0-8.2,0-12.31,1.813-15.868a16.527,16.527,0,0,1,7.269-7.269C38.64,51,42.754,51,50.95,51Zm13.935,77.348c.588-.364,1.613-1.161,2.611-1.938l7.587-5.9c1.255-.976,2.247-1.748,2.963-2.365a2.772,2.772,0,0,1,1.72-.671c3.426-.111,5.309-.434,6.714-1.149a11.017,11.017,0,0,0,4.846-4.846c1.209-2.372,1.209-6.041,1.209-13.351V75.95c0-7.31,0-10.979-1.209-13.351a11.018,11.018,0,0,0-4.846-4.846c-2.372-1.209-6.041-1.209-13.351-1.209H50.95c-7.31,0-10.979,0-13.351,1.209A11.018,11.018,0,0,0,32.753,62.6c-1.209,2.372-1.209,6.041-1.209,13.351V98.128c0,7.31,0,10.979,1.209,13.351a11.017,11.017,0,0,0,4.846,4.846c2.372,1.209,6.041,1.209,13.351,1.209H62.039a2.772,2.772,0,0,1,2.772,2.772V125.1C64.811,126.362,64.811,127.66,64.884,128.348Z" transform="translate(46.078 90.383)" />
    <path id="Tracé_895" data-name="Tracé 895" d="M51.405,94.039a4.246,4.246,0,0,1-1.655-.357,6.572,6.572,0,0,1-1.014-.509l-.02-.012a56.862,56.862,0,0,1-8.611-6.588,30.76,30.76,0,0,1-5.889-7.427l-.008-.014A17.412,17.412,0,0,1,32,70.8a13.95,13.95,0,0,1,.889-5.032,12.562,12.562,0,0,1,2.566-4.1,11.705,11.705,0,0,1,3.879-2.716A11.949,11.949,0,0,1,44.1,58a10.339,10.339,0,0,1,5.864,1.714,11.869,11.869,0,0,1,1.442,1.137,11.692,11.692,0,0,1,1.457-1.14A10.31,10.31,0,0,1,58.709,58a11.949,11.949,0,0,1,4.768.958,11.469,11.469,0,0,1,3.886,2.723A12.322,12.322,0,0,1,69.9,65.765a13.725,13.725,0,0,1,.908,5.039A17.308,17.308,0,0,1,68.58,79.14a30.371,30.371,0,0,1-5.87,7.428,56.143,56.143,0,0,1-8.6,6.593l-.021.013a6.307,6.307,0,0,1-1.031.509A4.212,4.212,0,0,1,51.405,94.039ZM39.083,76.488a25.262,25.262,0,0,0,4.833,6.057,50.942,50.942,0,0,0,7.5,5.76,50.24,50.24,0,0,0,7.481-5.76A24.882,24.882,0,0,0,63.71,76.49,11.684,11.684,0,0,0,65.267,70.8a8.213,8.213,0,0,0-.527-3.019l-.011-.028a6.718,6.718,0,0,0-1.4-2.272l-.012-.013a5.889,5.889,0,0,0-2.029-1.419,6.364,6.364,0,0,0-2.578-.507,4.8,4.8,0,0,0-2.762.777l-.014.009a6.415,6.415,0,0,0-2.1,2.318,2.772,2.772,0,0,1-2.426,1.431h0a2.772,2.772,0,0,1-2.426-1.437,6.455,6.455,0,0,0-2.1-2.321,4.833,4.833,0,0,0-2.778-.776,6.354,6.354,0,0,0-2.569.5,6.106,6.106,0,0,0-2.051,1.437,6.933,6.933,0,0,0-1.424,2.292,8.432,8.432,0,0,0-.514,3.027A11.775,11.775,0,0,0,39.083,76.488Z" transform="translate(56.711 102.788)" fill="#2400ff" />
    <path id="Tracé_896" data-name="Tracé 896" d="M2.813,31.082C1,34.64,1,39.3,1,48.613V89.642c0,9.315,0,13.973,1.813,17.531a16.632,16.632,0,0,0,7.269,7.269c3.558,1.813,8.216,1.813,17.531,1.813h14.97v10.177c0,2.954,0,4.432.606,5.19a2.772,2.772,0,0,0,2.17,1.043c.971,0,2.124-.924,4.431-2.769l17.05-13.64h1.8c9.315,0,13.973,0,17.531-1.813a16.631,16.631,0,0,0,7.269-7.269c1.813-3.558,1.813-8.216,1.813-17.531V48.613c0-9.315,0-13.973-1.813-17.531a16.631,16.631,0,0,0-7.269-7.269C82.615,22,77.957,22,68.642,22H27.613C18.3,22,13.64,22,10.082,23.813A16.632,16.632,0,0,0,2.813,31.082Z" transform="translate(1.772 38.989)" fill="#fff" />
    <path id="Tracé_896_-_Contour" data-name="Tracé 896 - Contour" d="M29.385,21H70.414c9.747,0,14.639,0,18.79,2.115a19.283,19.283,0,0,1,8.48,8.481C99.8,35.747,99.8,40.639,99.8,50.385V91.414c0,9.747,0,14.639-2.115,18.79a19.283,19.283,0,0,1-8.481,8.48c-4.151,2.115-9.043,2.115-18.79,2.115h-.829L53.294,133.833c-2.721,2.177-4.219,3.375-6.16,3.377a5.519,5.519,0,0,1-4.34-2.086c-1.211-1.516-1.211-3.435-1.211-6.919v-7.4h-12.2c-9.747,0-14.639,0-18.79-2.115a19.284,19.284,0,0,1-8.48-8.481C0,106.053,0,101.161,0,91.414V50.385C0,40.639,0,35.747,2.115,31.6a19.284,19.284,0,0,1,8.481-8.48C14.747,21,19.639,21,29.385,21Zm41.029,94.255c8.86,0,13.308,0,16.273-1.511a13.773,13.773,0,0,0,6.058-6.057c1.511-2.965,1.511-7.412,1.511-16.273V50.385c0-8.86,0-13.308-1.511-16.273a13.773,13.773,0,0,0-6.057-6.058c-2.965-1.511-7.412-1.511-16.273-1.511H29.385c-8.86,0-13.308,0-16.273,1.511a13.774,13.774,0,0,0-6.058,6.058c-1.511,2.965-1.511,7.412-1.511,16.273V91.414c0,8.86,0,13.308,1.511,16.273a13.774,13.774,0,0,0,6.057,6.058c2.965,1.511,7.413,1.511,16.273,1.511h14.97a2.772,2.772,0,0,1,2.772,2.772V128.2c0,1.285,0,2.605.075,3.305.593-.378,1.622-1.2,2.624-2L66.88,115.863a2.772,2.772,0,0,1,1.732-.607Z" transform="translate(0 37.216)" />
    <path id="Tracé_897" data-name="Tracé 897" d="M15.775,78.129a2.775,2.775,0,0,1-2.721-3.316l8.317-41.583a2.772,2.772,0,1,1,5.437,1.087L18.491,75.9A2.773,2.773,0,0,1,15.775,78.129Z" transform="translate(23.038 54.939)" fill="#2400ff" />
    <path id="Tracé_898" data-name="Tracé 898" d="M20.775,78.129a2.775,2.775,0,0,1-2.721-3.316l8.317-41.583a2.772,2.772,0,1,1,5.437,1.087L23.491,75.9A2.773,2.773,0,0,1,20.775,78.129Z" transform="translate(31.899 54.939)" fill="#2400ff" />
    <path id="Tracé_899" data-name="Tracé 899" d="M56.128,46.545H11.772a2.772,2.772,0,0,1,0-5.544H56.128a2.772,2.772,0,0,1,0,5.544Z" transform="translate(15.95 72.661)" fill="#2400ff" />
    <path id="Tracé_900" data-name="Tracé 900" d="M56.128,41.545H11.772a2.772,2.772,0,0,1,0-5.544H56.128a2.772,2.772,0,0,1,0,5.544Z" transform="translate(15.95 63.8)" fill="#2400ff" />
    <path id="Tracé_901" data-name="Tracé 901" d="M33.719,14.623C31,19.96,31,26.947,31,40.92V80.285c0,13.973,0,20.96,2.719,26.3a24.951,24.951,0,0,0,10.9,10.9c5.337,2.719,12.324,2.719,26.3,2.719H91.989v12.949c0,2.954,0,4.432.606,5.19a2.772,2.772,0,0,0,2.17,1.043c.971,0,2.124-.924,4.431-2.769l20.573-16.459c7.974-.133,12.849-.653,16.814-2.673a24.951,24.951,0,0,0,10.9-10.9c2.719-5.337,2.719-12.324,2.719-26.3V40.92c0-13.973,0-20.96-2.719-26.3a24.95,24.95,0,0,0-10.9-10.9C131.245,1,124.259,1,110.285,1H70.92c-13.973,0-20.96,0-26.3,2.719A24.95,24.95,0,0,0,33.719,14.623Z" transform="translate(54.939 1.772)" fill="#fff" />
    <path id="Tracé_901_-_Contour" data-name="Tracé 901 - Contour" d="M72.692,0h39.365c14.4,0,21.625,0,27.555,3.022a27.551,27.551,0,0,1,12.115,12.115c3.021,5.93,3.021,13.157,3.021,27.556V82.057c0,14.4,0,21.625-3.021,27.555a27.551,27.551,0,0,1-12.115,12.115c-4.381,2.232-9.439,2.795-17.077,2.957L102.7,140.555c-2.721,2.177-4.219,3.375-6.16,3.377a5.519,5.519,0,0,1-4.34-2.086c-1.211-1.516-1.211-3.435-1.211-6.919V124.75h-18.3c-14.4,0-21.625,0-27.555-3.021a27.551,27.551,0,0,1-12.115-12.115C30,103.683,30,96.456,30,82.057V42.692c0-14.4,0-21.625,3.021-27.555A27.551,27.551,0,0,1,45.137,3.022C51.067,0,58.294,0,72.692,0ZM96.608,138.231c.593-.378,1.622-1.2,2.624-2l20.577-16.461a2.772,2.772,0,0,1,1.685-.607c9.467-.158,12.889-.989,15.6-2.371a22.041,22.041,0,0,0,9.692-9.692c2.417-4.744,2.417-11.526,2.417-25.038V42.692c0-13.512,0-20.294-2.417-25.038A22.041,22.041,0,0,0,137.1,7.962c-4.744-2.417-11.526-2.417-25.038-2.417H72.692c-13.512,0-20.294,0-25.038,2.417a22.041,22.041,0,0,0-9.692,9.692C35.544,22.4,35.544,29.18,35.544,42.692V82.057c0,13.512,0,20.294,2.417,25.038a22.041,22.041,0,0,0,9.692,9.692c4.744,2.417,11.526,2.417,25.038,2.417H93.761a2.772,2.772,0,0,1,2.772,2.772v12.949C96.533,136.212,96.533,137.532,96.608,138.231Z" transform="translate(53.166)" />
    <path id="Rectangle_217" data-name="Rectangle 217" d="M7.317-1h8.317A8.326,8.326,0,0,1,23.95,7.317V37.811a8.326,8.326,0,0,1-8.317,8.317H7.317A8.326,8.326,0,0,1-1,37.811V7.317A8.326,8.326,0,0,1,7.317-1Zm8.317,41.583a2.775,2.775,0,0,0,2.772-2.772V7.317a2.775,2.775,0,0,0-2.772-2.772H7.317A2.775,2.775,0,0,0,4.544,7.317V37.811a2.775,2.775,0,0,0,2.772,2.772Z" transform="translate(109.116 51.027)" fill="#2400ff" />
    <path id="Tracé_902" data-name="Tracé 902" d="M82.831,82.978H64.019a23.36,23.36,0,0,1-17.044-7.293,2.772,2.772,0,0,1,4.01-3.829,17.864,17.864,0,0,0,13.034,5.577H82.831c3.975,0,6.165,0,7.5-.467a8.275,8.275,0,0,0,5.1-5.1c.466-1.334.466-3.524.466-7.5V51.418c0-3.655,0-5.668-.488-6.754a5.54,5.54,0,0,0-2.781-2.781c-1.085-.488-3.1-.488-6.754-.488H72.395a2.772,2.772,0,0,1-2.515-3.938c.223-.48.465-.945.721-1.381.233-.4.47-.795.709-1.2,1.954-3.274,3.8-6.366,3.8-10.119,0-4.995-1.2-9.845-2.732-11.041a.734.734,0,0,0-.754-.131c-1.009.252-1.07.267-1.244,3.048a19.494,19.494,0,0,1-2.6,9.549c-2.609,4.349-9.469,10.473-16.272,16.373l-.92.8a2.772,2.772,0,0,1-3.638-4.184l.925-.8c4.465-3.873,12.777-11.082,15.15-15.037a14.13,14.13,0,0,0,1.816-7.045c.181-2.882.43-6.828,5.433-8.079a6.214,6.214,0,0,1,5.511,1.14c4.63,3.615,4.864,13.472,4.864,15.411,0,4.388-1.68,7.946-3.481,11.089h8.705c4.422,0,6.859,0,9.029.977a11.08,11.08,0,0,1,5.561,5.561c.977,2.17.977,4.606.977,9.029V64.365c0,4.732,0,7.107-.778,9.33A13.791,13.791,0,0,1,92.161,82.2C89.938,82.978,87.563,82.978,82.831,82.978Z" transform="translate(81.522 14.177)" fill="#2400ff" />
</svg>
