<svg id="Web" width="185.738" height="185.738" viewBox="0 0 185.738 185.738">
    <path id="Rectangle_221" data-name="Rectangle 221" d="M18.405-1H140.383a19.427,19.427,0,0,1,19.405,19.405V140.383a19.427,19.427,0,0,1-19.405,19.405H18.405A19.427,19.427,0,0,1-1,140.383V18.405A19.427,19.427,0,0,1,18.405-1ZM140.383,154.244a13.877,13.877,0,0,0,13.861-13.861V18.405A13.877,13.877,0,0,0,140.383,4.544H18.405A13.877,13.877,0,0,0,4.544,18.405V140.383a13.877,13.877,0,0,0,13.861,13.861Z" transform="translate(1 1)" />
    <path id="Tracé_921" data-name="Tracé 921" d="M158.016,17.544H2.772a2.772,2.772,0,0,1,0-5.544H158.016a2.772,2.772,0,1,1,0,5.544Z" transform="translate(0 21.267)" />
    <path id="Tracé_922" data-name="Tracé 922" d="M105.939,11.544H22.772a2.772,2.772,0,1,1,0-5.544h83.166a2.772,2.772,0,1,1,0,5.544Z" transform="translate(35.444 10.633)" />
    <path id="Ellipse_57" data-name="Ellipse 57" d="M2.272-.5A2.772,2.772,0,1,1-.5,2.272,2.775,2.775,0,0,1,2.272-.5Z" transform="translate(17.133 17.133)" />
    <path id="Ellipse_58" data-name="Ellipse 58" d="M2.272-.5A2.772,2.772,0,1,1-.5,2.272,2.775,2.775,0,0,1,2.272-.5Z" transform="translate(28.222 17.133)" />
    <path id="Ellipse_59" data-name="Ellipse 59" d="M2.272-.5A2.772,2.772,0,1,1-.5,2.272,2.775,2.775,0,0,1,2.272-.5Z" transform="translate(39.311 17.133)" />
    <path id="Tracé_923" data-name="Tracé 923" d="M32.949,55.723a2.772,2.772,0,0,1-2.595-1.8L24.634,38.668,18.913,53.924a2.772,2.772,0,0,1-5.285-.3L8.083,31.445A2.772,2.772,0,1,1,13.462,30.1l3.385,13.541L22.038,29.8a2.772,2.772,0,0,1,5.191,0L32.42,43.641,35.805,30.1a2.772,2.772,0,1,1,5.379,1.345L35.64,53.623a2.772,2.772,0,0,1-2.532,2.1C33.055,55.721,33,55.723,32.949,55.723Z" transform="translate(14.177 49.622)" fill="#2400ff" />
    <path id="Tracé_924" data-name="Tracé 924" d="M47.949,55.723a2.772,2.772,0,0,1-2.595-1.8L39.634,38.668,33.913,53.924a2.772,2.772,0,0,1-5.285-.3L23.083,31.445A2.772,2.772,0,1,1,28.462,30.1l3.385,13.541L37.038,29.8a2.772,2.772,0,0,1,5.191,0L47.42,43.641,50.805,30.1a2.772,2.772,0,1,1,5.379,1.345L50.64,53.623a2.772,2.772,0,0,1-2.532,2.1C48.055,55.721,48,55.723,47.949,55.723Z" transform="translate(40.76 49.622)" fill="#2400ff" />
    <path id="Tracé_925" data-name="Tracé 925" d="M62.949,55.723a2.772,2.772,0,0,1-2.595-1.8L54.634,38.668,48.913,53.924a2.772,2.772,0,0,1-5.285-.3L38.083,31.445A2.772,2.772,0,1,1,43.462,30.1l3.385,13.541L52.038,29.8a2.772,2.772,0,0,1,5.191,0L62.42,43.641,65.805,30.1a2.772,2.772,0,1,1,5.379,1.345L65.64,53.623a2.772,2.772,0,0,1-2.532,2.1C63.055,55.721,63,55.723,62.949,55.723Z" transform="translate(67.344 49.622)" fill="#2400ff" />
    <path id="Tracé_926" data-name="Tracé 926" d="M75.266,108.533A33.267,33.267,0,1,0,42,75.267,33.267,33.267,0,0,0,75.266,108.533Z" transform="translate(74.433 74.433)" fill="#fff" />
    <path id="Tracé_926_-_Contour" data-name="Tracé 926 - Contour" d="M77.038,113.078a36.039,36.039,0,1,1,25.483-10.556A35.8,35.8,0,0,1,77.038,113.078Zm0-66.533A30.494,30.494,0,1,0,98.6,55.476,30.294,30.294,0,0,0,77.038,46.544Z" transform="translate(72.661 72.661)" />
    <path id="Tracé_927" data-name="Tracé 927" d="M60.861,76.722a2.764,2.764,0,0,1-1.96-.812L47.812,64.821A2.772,2.772,0,0,1,51.732,60.9l9.129,9.129L81.078,49.812A2.772,2.772,0,1,1,85,53.732L62.821,75.91A2.764,2.764,0,0,1,60.861,76.722Z" transform="translate(83.294 86.838)" />
</svg>
